<?xml version="1.0" encoding="utf-8"?>
<!-- Generator: Adobe Illustrator 15.0.0, SVG Export Plug-In . SVG Version: 6.00 Build 0)  -->
<!DOCTYPE svg PUBLIC "-//W3C//DTD SVG 1.1//EN" "http://www.w3.org/Graphics/SVG/1.1/DTD/svg11.dtd">
<svg version="1.1" id="图层_1" xmlns="http://www.w3.org/2000/svg" xmlns:xlink="http://www.w3.org/1999/xlink" x="0px" y="0px"
	 width="100px" height="100px" viewBox="0 0 100 100" enable-background="new 0 0 100 100" xml:space="preserve">
<g>
	<g>
		<linearGradient id="SVGID_1_" gradientUnits="userSpaceOnUse" x1="44.9917" y1="86.2246" x2="44.9917" y2="32.5308">
			<stop  offset="0.0051" style="stop-color:#4C005E"/>
			<stop  offset="0.6802" style="stop-color:#E033AD"/>
			<stop  offset="1" style="stop-color:#4C005E"/>
		</linearGradient>
		<path fill="url(#SVGID_1_)" d="M40.469,42.563c-0.211-0.59-0.465-1.162-0.643-1.764c-0.128-0.432-0.152-0.855-0.063-1.298
			c0.029-0.151,0.094-0.258,0.172-0.329c0.175,0.146,0.42,0.263,0.756,0.338c0.075,0.017,0.523-0.036,0.479-0.175
			c-0.151-0.49-0.501-0.63-0.885-0.572c-0.36-0.625,0.09-1.574,0.832-2.041c0.109,0.487,0.413,0.908,0.979,1.13
			c0.461,0.18,1.227-0.006,1.522-0.412c0.575-0.79-0.766-1.237-1.331-1.272c-0.223-0.014-0.458,0.024-0.69,0.1
			c-0.036-0.525,0.113-1.084,0.354-1.492c0.767-1.296,2.471-2.104,3.889-1.496c0.999,0.428,1.593,1.512,2.06,2.428
			c1.188,2.333,2.133,4.564,2.364,7.203c0.233,2.692-0.297,5.4-1.172,7.938c-0.67,1.951-1.785,3.66-2.67,5.496
			c0.11-0.003,0.22-0.01,0.332-0.01c0.036,0,0.073,0.003,0.112,0.003c0.637-1.298,1.472-2.53,2.052-3.808
			c1.044-2.294,1.686-4.804,1.879-7.315c0.199-2.58-0.264-5.158-1.303-7.522c-0.443-1.013-0.977-2.042-1.545-2.989
			c-0.424-0.708-1.045-1.439-1.853-1.708c-1.547-0.514-3.066,0.184-4.183,1.27c-0.552,0.535-0.916,1.443-0.832,2.231
			c-1.001,0.567-1.808,1.729-1.341,2.459c-0.008,0.004-0.017,0.008-0.023,0.013c-1.266,0.716-0.1,2.824,0.225,3.735
			C39.989,42.836,40.509,42.676,40.469,42.563z M42.982,36.761c0.69,0.495-0.145,1.136-0.755,0.716
			c-0.347-0.238-0.532-0.592-0.603-0.98C42.053,36.382,42.528,36.433,42.982,36.761z"/>
		<g>
			<linearGradient id="SVGID_2_" gradientUnits="userSpaceOnUse" x1="45.2075" y1="34.4268" x2="45.2075" y2="33.762">
				<stop  offset="0.0051" style="stop-color:#E033AD"/>
				<stop  offset="1" style="stop-color:#4C005E"/>
			</linearGradient>
			<path fill="url(#SVGID_2_)" d="M45.008,33.535c0,0-0.465,0.421-0.465,0.864c0,0,0.619,0.376,1.329-0.155
				C45.872,34.244,45.783,33.755,45.008,33.535z"/>
			<g>
				<linearGradient id="SVGID_3_" gradientUnits="userSpaceOnUse" x1="45.1475" y1="33.1411" x2="45.1475" y2="13.188">
					<stop  offset="0.0051" style="stop-color:#E033AD"/>
					<stop  offset="1" style="stop-color:#4C005E"/>
				</linearGradient>
				<path fill="url(#SVGID_3_)" d="M53.313,14.406c-1.469-3.029-4.573-5.118-8.166-5.118c-3.591,0-6.695,2.089-8.164,5.118l0,0
					c0,0-6.256,10.672,8.164,18.735C59.568,25.079,53.313,14.406,53.313,14.406z"/>
			</g>
			<linearGradient id="SVGID_4_" gradientUnits="userSpaceOnUse" x1="45.1475" y1="33.6553" x2="45.1475" y2="33.1258">
				<stop  offset="0.0051" style="stop-color:#E033AD"/>
				<stop  offset="1" style="stop-color:#4C005E"/>
			</linearGradient>
			<ellipse fill="url(#SVGID_4_)" cx="45.147" cy="33.262" rx="0.442" ry="0.409"/>
			<linearGradient id="SVGID_5_" gradientUnits="userSpaceOnUse" x1="46.854" y1="26.0479" x2="46.854" y2="7.7271">
				<stop  offset="0.0051" style="stop-color:#E033AD"/>
				<stop  offset="1" style="stop-color:#4C005E"/>
			</linearGradient>
			<path fill="url(#SVGID_5_)" d="M39.134,18.799c0,5.191,3.562,9.4,7.955,9.4c3.054,0,5.706-2.038,7.038-5.026
				c1.388-4.873-0.901-8.781-0.901-8.781c-1.247-2.571-3.671-4.463-6.569-4.978C42.464,9.681,39.134,13.78,39.134,18.799z"/>
			<linearGradient id="SVGID_6_" gradientUnits="userSpaceOnUse" x1="45.27" y1="11.1738" x2="45.27" y2="28.225">
				<stop  offset="0" style="stop-color:#FFFFFF"/>
				<stop  offset="0.5076" style="stop-color:#E033AD"/>
				<stop  offset="1" style="stop-color:#4C005E"/>
			</linearGradient>
			<ellipse fill="url(#SVGID_6_)" cx="45.27" cy="16.057" rx="5.5" ry="5.683"/>
		</g>
	</g>
	<g>
		<g>
			<linearGradient id="SVGID_7_" gradientUnits="userSpaceOnUse" x1="56.083" y1="90.9072" x2="49.5036" y2="56.4921">
				<stop  offset="0.0051" style="stop-color:#FADBF1"/>
				<stop  offset="0.4416" style="stop-color:#E033AD"/>
				<stop  offset="1" style="stop-color:#4C005E"/>
			</linearGradient>
			<path fill="url(#SVGID_7_)" d="M59.276,66.595c-0.075-0.588-0.19-1.206-0.345-1.853l-0.026-0.108
				c-0.076-0.323-0.16-0.64-0.253-0.949c-0.09-0.307-0.188-0.608-0.292-0.902c-0.105-0.294-0.216-0.582-0.334-0.861
				s-0.244-0.553-0.377-0.819c-0.132-0.265-0.269-0.521-0.41-0.767s-0.289-0.48-0.44-0.706c-0.153-0.226-0.31-0.44-0.471-0.645
				c-0.162-0.205-0.329-0.401-0.501-0.586c-0.173-0.185-0.348-0.36-0.528-0.525c-0.181-0.167-0.363-0.321-0.553-0.467
				c-0.187-0.146-0.378-0.282-0.574-0.408c-0.197-0.125-0.396-0.241-0.601-0.348c-0.203-0.106-0.409-0.199-0.617-0.28
				c-0.208-0.08-0.419-0.147-0.631-0.201c-0.214-0.054-0.429-0.096-0.646-0.123c-0.218-0.028-0.438-0.042-0.66-0.044
				c-0.37-0.003-0.717,0.026-1.041,0.091c-0.324,0.065-0.625,0.163-0.901,0.295c-0.279,0.132-0.535,0.298-0.766,0.497
				c-0.232,0.2-0.44,0.435-0.625,0.703l-4.575,6.624c0.183-0.263,0.386-0.494,0.613-0.691c0.224-0.196,0.474-0.36,0.742-0.491
				c0.27-0.132,0.562-0.23,0.876-0.297c0.313-0.064,0.648-0.1,1.006-0.102c0.215-0.001,0.428,0.012,0.639,0.037
				c0.209,0.024,0.416,0.063,0.621,0.111c0.206,0.051,0.408,0.113,0.609,0.19c0.2,0.076,0.399,0.166,0.596,0.266
				c0.195,0.102,0.386,0.213,0.576,0.333c0.187,0.12,0.37,0.252,0.55,0.392c0.181,0.139,0.358,0.287,0.53,0.447
				c0.172,0.159,0.339,0.326,0.504,0.505s0.323,0.367,0.479,0.565c0.154,0.197,0.304,0.404,0.448,0.622
				c0.145,0.217,0.284,0.444,0.418,0.682c0.135,0.237,0.265,0.484,0.389,0.742c0.127,0.258,0.244,0.521,0.356,0.793
				c0.111,0.271,0.215,0.548,0.313,0.833c0.1,0.284,0.19,0.577,0.275,0.876c0.083,0.3,0.163,0.606,0.233,0.918l0.023,0.105
				c0.143,0.628,0.248,1.228,0.314,1.798c0.065,0.571,0.095,1.114,0.085,1.628c-0.009,0.515-0.058,1.003-0.144,1.46
				c-0.088,0.459-0.213,0.887-0.378,1.286c-0.046,0.115-0.097,0.225-0.148,0.331c-0.054,0.106-0.107,0.209-0.166,0.308
				s-0.12,0.194-0.183,0.286c-0.064,0.091-0.131,0.177-0.2,0.261c1.693-2.033,3.389-4.065,5.082-6.1
				c0.07-0.085,0.138-0.174,0.204-0.268c0.064-0.092,0.126-0.19,0.185-0.292c0.06-0.101,0.116-0.206,0.17-0.314
				c0.052-0.108,0.104-0.222,0.149-0.339c0.166-0.41,0.292-0.851,0.376-1.322c0.084-0.469,0.128-0.969,0.132-1.5
				C59.388,67.743,59.352,67.184,59.276,66.595z"/>
		</g>
		<g>
			<linearGradient id="SVGID_8_" gradientUnits="userSpaceOnUse" x1="41.269" y1="50.6226" x2="51.8971" y2="86.8085">
				<stop  offset="0" style="stop-color:#E033AD"/>
				<stop  offset="1" style="stop-color:#4C005E"/>
			</linearGradient>
			<path fill="url(#SVGID_8_)" d="M67.712,81.513c-0.229,0.208-0.47,0.411-0.719,0.605c-0.247,0.195-0.504,0.385-0.771,0.566
				c-0.268,0.184-0.543,0.359-0.828,0.53c-0.521,0.311-1.073,0.586-1.653,0.829c-0.582,0.242-1.193,0.45-1.835,0.623
				c-0.642,0.174-1.313,0.313-2.016,0.415c-0.702,0.104-1.437,0.172-2.198,0.205c-0.774,0.032-1.537,0.027-2.288-0.013
				c-0.753-0.041-1.493-0.12-2.22-0.235c-0.729-0.116-1.445-0.27-2.149-0.46c-0.703-0.192-1.394-0.42-2.07-0.686
				c-0.678-0.268-1.338-0.56-1.98-0.879c-0.644-0.321-1.271-0.666-1.877-1.038c-0.61-0.372-1.201-0.771-1.774-1.195
				c-0.572-0.425-1.128-0.874-1.664-1.351c-0.537-0.475-1.051-0.972-1.542-1.487s-0.958-1.052-1.403-1.607
				c-0.444-0.555-0.865-1.13-1.264-1.725c-0.396-0.593-0.771-1.204-1.123-1.837c-0.35-0.629-0.674-1.267-0.97-1.91
				c-0.294-0.643-0.562-1.292-0.802-1.946c-0.239-0.653-0.451-1.313-0.636-1.979s-0.342-1.335-0.471-2.012
				c-0.137-0.702-0.239-1.389-0.31-2.063c-0.073-0.673-0.112-1.33-0.124-1.979c-0.01-0.645,0.012-1.278,0.061-1.902
				c0.052-0.623,0.13-1.235,0.239-1.84c0.084-0.462,0.185-0.911,0.302-1.35c0.117-0.437,0.251-0.861,0.4-1.274
				c0.15-0.412,0.316-0.812,0.5-1.199c0.182-0.388,0.381-0.763,0.596-1.127c-1.362,2.304-2.725,4.605-4.088,6.908
				c-0.21,0.356-0.405,0.724-0.585,1.103c-0.179,0.378-0.343,0.77-0.491,1.172s-0.28,0.816-0.396,1.242
				c-0.118,0.428-0.219,0.867-0.304,1.315c-0.11,0.589-0.192,1.185-0.245,1.79c-0.054,0.606-0.08,1.223-0.075,1.85
				c0.004,0.628,0.038,1.268,0.101,1.919c0.063,0.652,0.158,1.318,0.281,1.999c0.119,0.655,0.265,1.303,0.436,1.945
				c0.173,0.646,0.373,1.282,0.597,1.914c0.226,0.633,0.478,1.259,0.756,1.879c0.279,0.621,0.585,1.235,0.917,1.843
				c0.332,0.608,0.688,1.198,1.065,1.769c0.379,0.572,0.778,1.125,1.201,1.659c0.423,0.532,0.869,1.048,1.336,1.543
				c0.468,0.495,0.96,0.971,1.472,1.427c0.513,0.455,1.044,0.887,1.592,1.293c0.548,0.404,1.112,0.785,1.696,1.14
				c0.582,0.356,1.183,0.685,1.799,0.988c0.617,0.304,1.251,0.581,1.9,0.832s1.313,0.467,1.989,0.646
				c0.677,0.178,1.365,0.321,2.065,0.428c0.701,0.104,1.413,0.174,2.139,0.207c0.723,0.034,1.46,0.031,2.208-0.008
				c0.736-0.039,1.442-0.11,2.123-0.218c0.679-0.106,1.328-0.246,1.95-0.419c0.621-0.175,1.212-0.382,1.778-0.622
				c0.563-0.24,1.098-0.513,1.605-0.818c0.278-0.167,0.546-0.341,0.806-0.52c0.26-0.18,0.51-0.364,0.753-0.557
				c0.242-0.192,0.476-0.389,0.699-0.593c0.226-0.204,0.441-0.415,0.649-0.63c1.84-1.916,3.68-3.833,5.52-5.749
				C68.163,81.091,67.941,81.306,67.712,81.513z"/>
		</g>
		<g>
			<linearGradient id="SVGID_9_" gradientUnits="userSpaceOnUse" x1="49.4551" y1="37.8081" x2="56.2871" y2="97.5245">
				<stop  offset="0.0051" style="stop-color:#FADBF1"/>
				<stop  offset="0.4416" style="stop-color:#E033AD"/>
				<stop  offset="1" style="stop-color:#4C005E"/>
			</linearGradient>
			<path fill="url(#SVGID_9_)" d="M72.111,68.281c-0.062-0.623-0.149-1.255-0.268-1.896c-0.115-0.641-0.26-1.287-0.433-1.946
				c-0.166-0.632-0.353-1.255-0.563-1.87s-0.443-1.22-0.698-1.819c-0.255-0.597-0.532-1.187-0.831-1.769
				c-0.3-0.583-0.621-1.157-0.967-1.723c-0.343-0.567-0.704-1.115-1.084-1.646c-0.378-0.528-0.776-1.043-1.193-1.538
				c-0.415-0.495-0.849-0.973-1.301-1.434c-0.452-0.462-0.924-0.906-1.411-1.333c-0.489-0.429-0.994-0.834-1.514-1.22
				c-0.521-0.385-1.055-0.749-1.606-1.091c-0.552-0.343-1.119-0.666-1.703-0.967c-0.584-0.301-1.184-0.581-1.8-0.842
				c-0.617-0.259-1.245-0.488-1.887-0.688c-0.641-0.2-1.294-0.369-1.96-0.509c-0.667-0.14-1.347-0.25-2.038-0.328
				c-0.694-0.079-1.4-0.128-2.12-0.146c-0.73-0.018-1.436-0.004-2.115,0.042c-0.682,0.047-1.339,0.125-1.968,0.236
				c-0.633,0.112-1.24,0.257-1.821,0.434c-0.582,0.178-1.139,0.389-1.67,0.633c-0.532,0.246-1.04,0.513-1.522,0.804
				s-0.94,0.606-1.372,0.943c-0.434,0.339-0.84,0.701-1.22,1.086c-0.384,0.387-0.739,0.797-1.069,1.23
				c-0.332,0.437-0.634,0.892-0.911,1.366c-0.276,0.479-0.525,0.975-0.746,1.491c-0.223,0.52-0.416,1.058-0.581,1.616
				c-0.167,0.563-0.305,1.143-0.413,1.745c-0.109,0.604-0.188,1.217-0.239,1.84c-0.049,0.624-0.07,1.258-0.061,1.902
				c0.012,0.648,0.051,1.306,0.124,1.979c0.07,0.675,0.173,1.361,0.31,2.063c0.129,0.677,0.286,1.347,0.471,2.012
				s0.396,1.325,0.636,1.979c0.24,0.654,0.508,1.304,0.802,1.946c0.296,0.644,0.62,1.281,0.97,1.91
				c0.352,0.633,0.727,1.244,1.123,1.837c0.398,0.595,0.819,1.17,1.264,1.725c0.445,0.556,0.912,1.092,1.403,1.607
				s1.005,1.013,1.542,1.487c0.536,0.477,1.092,0.926,1.664,1.351c0.573,0.424,1.164,0.823,1.774,1.195
				c0.606,0.372,1.233,0.717,1.877,1.038c0.643,0.319,1.303,0.611,1.98,0.879c0.677,0.266,1.367,0.493,2.07,0.686
				c0.704,0.19,1.42,0.344,2.149,0.46c0.727,0.115,1.467,0.194,2.22,0.235c0.751,0.04,1.514,0.045,2.288,0.013
				c0.762-0.033,1.496-0.102,2.198-0.205c0.703-0.103,1.374-0.241,2.016-0.415c0.642-0.173,1.253-0.381,1.835-0.623
				c0.58-0.243,1.132-0.519,1.653-0.829c0.52-0.312,1.011-0.642,1.471-0.997c0.46-0.352,0.888-0.726,1.286-1.122
				c0.4-0.394,0.769-0.811,1.107-1.247c0.338-0.437,0.646-0.896,0.927-1.374c0.278-0.479,0.528-0.973,0.75-1.483
				c0.22-0.511,0.411-1.037,0.574-1.579c0.163-0.543,0.297-1.101,0.402-1.677c0.105-0.572,0.185-1.163,0.232-1.769
				c0.052-0.604,0.073-1.213,0.067-1.828C72.207,69.527,72.172,68.908,72.111,68.281z M59.252,69.771
				c-0.084,0.472-0.21,0.912-0.376,1.322c-0.165,0.409-0.367,0.771-0.604,1.083c-0.237,0.312-0.511,0.574-0.821,0.786
				s-0.658,0.374-1.04,0.485c-0.385,0.112-0.804,0.174-1.26,0.184c-0.228,0.006-0.455-0.004-0.68-0.027
				c-0.224-0.022-0.446-0.062-0.667-0.113c-0.22-0.051-0.438-0.117-0.655-0.196c-0.215-0.08-0.429-0.175-0.641-0.282
				c-0.214-0.109-0.421-0.229-0.625-0.358c-0.203-0.131-0.401-0.271-0.597-0.423s-0.387-0.313-0.572-0.486s-0.367-0.357-0.546-0.55
				c-0.179-0.193-0.352-0.399-0.518-0.614c-0.167-0.215-0.327-0.44-0.483-0.676c-0.155-0.237-0.306-0.483-0.449-0.74
				c-0.145-0.257-0.282-0.524-0.416-0.801c-0.132-0.278-0.257-0.562-0.375-0.853c-0.117-0.291-0.228-0.589-0.329-0.892
				c-0.103-0.305-0.197-0.615-0.283-0.933c-0.087-0.316-0.167-0.641-0.238-0.97l-0.024-0.11c-0.142-0.657-0.244-1.283-0.306-1.874
				s-0.083-1.148-0.064-1.674c0.02-0.522,0.079-1.013,0.179-1.472c0.098-0.456,0.236-0.881,0.414-1.273
				c0.179-0.392,0.39-0.732,0.635-1.023c0.244-0.292,0.523-0.533,0.835-0.725c0.313-0.191,0.657-0.336,1.036-0.429
				c0.378-0.094,0.791-0.14,1.236-0.136c0.223,0.002,0.442,0.016,0.66,0.044c0.218,0.027,0.433,0.069,0.646,0.123
				c0.212,0.054,0.423,0.121,0.631,0.201c0.208,0.081,0.414,0.174,0.617,0.28c0.204,0.106,0.403,0.223,0.601,0.348
				c0.196,0.126,0.388,0.263,0.574,0.408c0.189,0.146,0.372,0.3,0.553,0.467c0.181,0.165,0.355,0.341,0.528,0.525
				c0.172,0.185,0.339,0.381,0.501,0.586c0.161,0.204,0.317,0.419,0.471,0.645c0.151,0.226,0.299,0.461,0.44,0.706
				s0.278,0.502,0.41,0.767c0.133,0.267,0.259,0.54,0.377,0.819s0.229,0.567,0.334,0.861c0.104,0.294,0.202,0.596,0.292,0.902
				c0.093,0.31,0.177,0.626,0.253,0.949l0.026,0.108c0.154,0.646,0.27,1.265,0.345,1.853c0.075,0.589,0.111,1.148,0.107,1.677
				C59.38,68.803,59.336,69.303,59.252,69.771z"/>
		</g>
	</g>
</g>
</svg>
