<?xml version="1.0" encoding="utf-8"?>
<!-- Generator: Adobe Illustrator 15.0.0, SVG Export Plug-In . SVG Version: 6.00 Build 0)  -->
<!DOCTYPE svg PUBLIC "-//W3C//DTD SVG 1.1//EN" "http://www.w3.org/Graphics/SVG/1.1/DTD/svg11.dtd">
<svg version="1.1" id="图层_1" xmlns="http://www.w3.org/2000/svg" xmlns:xlink="http://www.w3.org/1999/xlink" x="0px" y="0px"
	 width="100px" height="100px" viewBox="0 0 100 100" enable-background="new 0 0 100 100" xml:space="preserve">
<g>
	<g>
		<linearGradient id="SVGID_1_" gradientUnits="userSpaceOnUse" x1="49.1533" y1="84.1895" x2="49.1533" y2="29.1461">
			<stop  offset="0" style="stop-color:#1A87A0"/>
			<stop  offset="0.6091" style="stop-color:#69C8E2"/>
			<stop  offset="0.7767" style="stop-color:#D1EEF6"/>
			<stop  offset="0.8782" style="stop-color:#69C8E2"/>
			<stop  offset="1" style="stop-color:#1A87A0"/>
		</linearGradient>
		<path fill="url(#SVGID_1_)" d="M55.087,60.017c-1.049,0.079-2.086,0.869-2.451,1.841c-0.01,0.026-0.02,0.056-0.027,0.083
			c-1.707-0.629-2.438-2.462-2.234-4.179c0.235-1.991,1.579-3.812,2.666-5.425c1.041-1.548,2.04-3.033,2.546-4.847
			c0.539-1.938,0.736-3.981,0.665-5.988c-0.121-3.522-1.661-8.221-5.867-8.358c-1.188-0.039-2.565,0.446-3.346,1.367
			c-0.228,0.27-0.401,0.552-0.523,0.843c-2.226-0.282-4.826,0.211-4.433,2.875c0.015,0.1,0.569-0.016,0.55-0.147
			c-0.36-2.445,1.729-2.866,3.79-2.476c-0.381,1.178,0,2.461,0.745,3.559c0.879,1.295,2.787,1.729,3.763,0.271
			c1.066-1.593-1.258-3.124-2.457-3.602c-0.41-0.163-0.917-0.306-1.464-0.405c0.232-0.653,0.681-1.235,1.365-1.652
			c2.138-1.307,4.646,0.397,5.809,2.182c1.129,1.733,1.46,3.927,1.53,5.953c0.074,2.124-0.228,4.287-0.853,6.314
			c-0.551,1.778-1.754,3.298-2.772,4.828c-1.675,2.515-4.088,7.231-0.114,9.024c0.184,0.083,0.375,0.15,0.57,0.204
			c-0.045,0.477,0.07,1.028,0.326,1.446c-0.059,0.053-0.111,0.103-0.15,0.149c-1.403,1.655-1.438,4.503-1.218,6.531
			c0.345,3.127,1.8,6.019,2.658,9.016c0.346,1.21,0.565,2.464,0.7,3.715c0.107,1.002,0.103,2.242-0.82,2.873
			c-0.497,0.341-2.031,0.4-2.486-0.229c-0.213-0.296-0.009-0.752,0.109-1.041c0.287-0.698,0.718-1.34,0.756-2.115
			c0.002-0.069-0.543-0.008-0.551,0.146c-0.033,0.695-0.398,1.312-0.685,1.929c-0.164,0.354-0.456,0.996-0.101,1.335
			c0.791,0.758,2.763,0.53,3.562-0.146c1.161-0.982,0.812-2.752,0.606-4.068c-0.397-2.539-1.322-4.903-2.148-7.324
			c-0.8-2.344-1.32-4.724-1.049-7.207c0.099-0.914,0.279-1.819,0.653-2.662c0.1-0.225,0.226-0.433,0.374-0.624
			c0.252,0.267,0.587,0.422,0.994,0.363c0.35-0.052,1.795-0.681,1.275-1.242c-0.426-0.463-1.355-0.143-2.01,0.261
			c-0.158-0.328-0.236-0.665-0.236-0.996c0.791,0.094,1.606-0.062,2.253-0.54C56.162,61.255,56.317,59.923,55.087,60.017z
			 M49.559,36.92c0.666,0.544,1.17,1.413,0.972,2.284c-0.176,0.771-1.028,1.081-1.74,0.805c-0.632-0.246-1.034-0.905-1.374-1.454
			c-0.553-0.898-0.726-1.922-0.497-2.837C47.976,35.984,48.971,36.44,49.559,36.92z M54.83,63.618
			c-0.266,0.83-1.009,0.494-1.37-0.021c0.021-0.022,0.04-0.043,0.064-0.063C53.653,63.423,55.09,62.807,54.83,63.618z
			 M55.091,61.664c-0.439,0.636-1.271,0.607-1.967,0.437c0.058-0.414,0.239-0.812,0.541-1.155c0.35-0.399,1.586-1.228,1.788-0.319
			C55.531,60.978,55.277,61.392,55.091,61.664z"/>
		<g>
			<linearGradient id="SVGID_2_" gradientUnits="userSpaceOnUse" x1="50.5278" y1="34.8975" x2="50.5278" y2="34.201">
				<stop  offset="0" style="stop-color:#69C8E2"/>
				<stop  offset="1" style="stop-color:#1A87A0"/>
			</linearGradient>
			<path fill="url(#SVGID_2_)" d="M50.319,33.963c0,0-0.488,0.441-0.488,0.905c0,0,0.65,0.395,1.394-0.162
				C51.225,34.706,51.131,34.195,50.319,33.963z"/>
			<g>
				<linearGradient id="SVGID_3_" gradientUnits="userSpaceOnUse" x1="50.4644" y1="35.4824" x2="50.4644" y2="20.5505">
					<stop  offset="0" style="stop-color:#69C8E2"/>
					<stop  offset="0.2132" style="stop-color:#58BAD4"/>
					<stop  offset="1" style="stop-color:#1A87A0"/>
				</linearGradient>
				<path fill="url(#SVGID_3_)" d="M59.009,13.948c-1.538-3.169-4.786-5.355-8.544-5.355c-3.759,0-7.006,2.186-8.543,5.355l0,0
					c0,0-6.546,11.168,8.543,19.605C65.555,25.116,59.009,13.948,59.009,13.948z"/>
			</g>
			<linearGradient id="SVGID_4_" gradientUnits="userSpaceOnUse" x1="50.4644" y1="34.0908" x2="50.4644" y2="33.5373">
				<stop  offset="0" style="stop-color:#69C8E2"/>
				<stop  offset="1" style="stop-color:#1A87A0"/>
			</linearGradient>
			<ellipse fill="url(#SVGID_4_)" cx="50.464" cy="33.68" rx="0.464" ry="0.427"/>
			<linearGradient id="SVGID_5_" gradientUnits="userSpaceOnUse" x1="52.25" y1="27.6362" x2="52.25" y2="11.0603">
				<stop  offset="0" style="stop-color:#69C8E2"/>
				<stop  offset="1" style="stop-color:#1A87A0"/>
			</linearGradient>
			<path fill="url(#SVGID_5_)" d="M44.173,18.546c0,5.432,3.726,9.834,8.322,9.834c3.198,0,5.974-2.132,7.365-5.258
				c1.451-5.1-0.944-9.189-0.944-9.189c-1.305-2.69-3.84-4.67-6.874-5.208C47.656,9.003,44.173,13.293,44.173,18.546z"/>
			<linearGradient id="SVGID_6_" gradientUnits="userSpaceOnUse" x1="50.5933" y1="10.6709" x2="50.5933" y2="23.6233">
				<stop  offset="0" style="stop-color:#EDF8FC"/>
				<stop  offset="0.4564" style="stop-color:#69C8E2"/>
				<stop  offset="1" style="stop-color:#47ACC6"/>
			</linearGradient>
			<ellipse fill="url(#SVGID_6_)" cx="50.593" cy="15.675" rx="5.755" ry="5.946"/>
		</g>
	</g>
	<g>
		<g>
			<linearGradient id="SVGID_7_" gradientUnits="userSpaceOnUse" x1="45.7031" y1="105.0049" x2="44.3461" y2="71.6192">
				<stop  offset="0" style="stop-color:#FFFFFF"/>
				<stop  offset="0.4564" style="stop-color:#69C8E2"/>
				<stop  offset="1" style="stop-color:#1A87A0"/>
			</linearGradient>
			<polygon fill="url(#SVGID_7_)" points="44.533,57.5 50.161,65.113 43.626,66.227 37.745,58.763 			"/>
		</g>
		<g>
			<linearGradient id="SVGID_8_" gradientUnits="userSpaceOnUse" x1="30.3315" y1="146.3516" x2="39.5605" y2="111.3354">
				<stop  offset="0" style="stop-color:#FFFFFF"/>
				<stop  offset="0.4564" style="stop-color:#69C8E2"/>
				<stop  offset="1" style="stop-color:#1A87A0"/>
			</linearGradient>
			<polygon fill="url(#SVGID_8_)" points="49.105,87.552 55.044,94.344 41.583,93.015 35.131,86.381 			"/>
		</g>
		<g>
			<linearGradient id="SVGID_9_" gradientUnits="userSpaceOnUse" x1="45.2397" y1="115.6826" x2="61.7971" y2="55.9676">
				<stop  offset="0" style="stop-color:#FFFFFF"/>
				<stop  offset="0.4564" style="stop-color:#69C8E2"/>
				<stop  offset="1" style="stop-color:#1A87A0"/>
			</linearGradient>
			<polygon fill="url(#SVGID_9_)" points="61.224,46.477 66.093,54.66 55.044,94.344 49.105,87.552 			"/>
		</g>
		<g>
			<linearGradient id="SVGID_10_" gradientUnits="userSpaceOnUse" x1="54.1973" y1="30.02" x2="38.1829" y2="97.335">
				<stop  offset="0" style="stop-color:#FFFFFF"/>
				<stop  offset="0.4564" style="stop-color:#69C8E2"/>
				<stop  offset="1" style="stop-color:#1A87A0"/>
			</linearGradient>
			<polygon fill="url(#SVGID_10_)" points="61.224,46.477 49.105,87.552 35.131,86.381 44.533,57.5 37.745,58.763 38.58,49.679 
				51.022,46.619 			"/>
		</g>
	</g>
</g>
</svg>
