<?xml version="1.0" encoding="utf-8"?>
<!-- Generator: Adobe Illustrator 15.0.0, SVG Export Plug-In . SVG Version: 6.00 Build 0)  -->
<!DOCTYPE svg PUBLIC "-//W3C//DTD SVG 1.1//EN" "http://www.w3.org/Graphics/SVG/1.1/DTD/svg11.dtd">
<svg version="1.1" id="图层_1" xmlns="http://www.w3.org/2000/svg" xmlns:xlink="http://www.w3.org/1999/xlink" x="0px" y="0px"
	 width="100px" height="100px" viewBox="0 0 100 100" enable-background="new 0 0 100 100" xml:space="preserve">
<g>
	<g>
		
			<linearGradient id="SVGID_1_" gradientUnits="userSpaceOnUse" x1="1177.9844" y1="85.7676" x2="1177.9844" y2="30.5347" gradientTransform="matrix(-1 0 0 1 1227.3242 0)">
			<stop  offset="0.0051" style="stop-color:#E28100"/>
			<stop  offset="0.335" style="stop-color:#E28100"/>
			<stop  offset="0.7005" style="stop-color:#FFE66D"/>
			<stop  offset="0.7767" style="stop-color:#FFD400"/>
			<stop  offset="1" style="stop-color:#E28100"/>
		</linearGradient>
		<path fill="url(#SVGID_1_)" d="M48.346,57.295c0.117,0.935-0.104,1.823-0.549,2.65c-0.219,0.405-0.516,0.919-0.897,1.288
			c-0.518-0.926-1.275-1.345-2.37-0.788c-0.016,0.012-0.021,0.027-0.012,0.046c0.207,0.508,0.453,0.979,0.94,1.261
			c0.424,0.244,0.844,0.236,1.228,0.083c0.019,0.052,0.036,0.104,0.053,0.158c0.667,2.116,0.717,4.455,0.691,6.66
			c-0.033,2.801-0.854,5.452-1.78,8.071c-0.589,1.672-2.425,4.23-1.296,6.002c0.734,1.151,2.04,2,3.438,1.921
			c1.093-0.061,2.353-1.239,2.052-2.395c-0.226-0.866-0.982-1.636-1.855-1.869c-0.93-0.247-1.447,0.202-1.391,1.174
			c0.008,0.16,0.524,0.225,0.52,0.141c-0.029-0.489,0.119-1.429,0.858-1.128c0.531,0.215,1.021,0.703,1.236,1.236
			c0.21,0.521,0.224,1.117-0.128,1.587c-0.805,1.066-2.156,1.333-3.252,0.471c-0.876-0.688-1.457-1.604-1.243-2.758
			c0.208-1.119,0.749-2.095,1.173-3.137c0.963-2.363,1.832-4.956,2.091-7.504c0.133-1.299,0.327-6.351-0.766-8.853
			c0.325-0.226,0.61-0.539,0.826-0.858c1.074-1.585,1.224-3.202,0.509-4.982c-0.907-2.258-2.339-4.229-3.136-6.544
			c-0.862-2.508-1.389-5.186-1.156-7.847c0.227-2.608,1.162-4.814,2.336-7.12c0.463-0.907,1.05-1.978,2.037-2.401
			c1.402-0.601,3.087,0.198,3.843,1.48c0.238,0.403,0.388,0.955,0.353,1.474c-0.231-0.075-0.463-0.113-0.683-0.1
			c-0.559,0.035-1.885,0.477-1.316,1.257c0.293,0.402,1.049,0.587,1.504,0.408c0.561-0.22,0.86-0.635,0.968-1.118
			c0.734,0.463,1.18,1.402,0.824,2.02c-0.38-0.057-0.726,0.081-0.876,0.565c-0.043,0.139,0.398,0.19,0.473,0.174
			c0.332-0.074,0.575-0.19,0.748-0.334c0.078,0.069,0.14,0.176,0.17,0.326c0.088,0.437,0.065,0.856-0.062,1.282
			c-0.177,0.596-0.427,1.16-0.636,1.745c-0.039,0.112,0.475,0.27,0.52,0.139c0.322-0.9,1.475-2.984,0.224-3.692
			c-0.008-0.005-0.017-0.009-0.024-0.013c0.463-0.723-0.336-1.871-1.324-2.432c0.081-0.78-0.278-1.677-0.822-2.206
			c-1.104-1.073-2.606-1.764-4.136-1.255c-0.799,0.266-1.412,0.987-1.832,1.688c-0.561,0.937-1.089,1.954-1.528,2.954
			c-1.026,2.337-1.484,4.888-1.287,7.438c0.191,2.482,0.825,4.963,1.856,7.231C46.409,52.983,48.054,54.956,48.346,57.295z
			 M52.668,35.041c-0.07,0.384-0.253,0.734-0.596,0.971c-0.604,0.415-1.429-0.219-0.748-0.71
			C51.775,34.979,52.244,34.928,52.668,35.041z M46.556,61.504c-0.109,0.067-0.224,0.123-0.346,0.16
			c-0.412,0.121-0.68-0.107-0.877-0.453c-0.038-0.066-0.368-0.57-0.202-0.644c0.312-0.135,0.621-0.186,0.881,0.083
			C46.25,60.895,46.422,61.191,46.556,61.504z"/>
		<linearGradient id="SVGID_2_" gradientUnits="userSpaceOnUse" x1="49.5386" y1="32.9468" x2="49.5386" y2="32.2895">
			<stop  offset="0" style="stop-color:#FFE66D"/>
			<stop  offset="0.302" style="stop-color:#FFD400"/>
			<stop  offset="1" style="stop-color:#E28100"/>
		</linearGradient>
		<path fill="url(#SVGID_2_)" d="M49.34,32.065c0,0-0.459,0.417-0.459,0.854c0,0,0.614,0.374,1.315-0.153
			C50.196,32.766,50.109,32.284,49.34,32.065z"/>
		<g>
			<linearGradient id="SVGID_3_" gradientUnits="userSpaceOnUse" x1="49.4785" y1="33.4995" x2="49.4785" y2="19.3922">
				<stop  offset="0" style="stop-color:#FFE66D"/>
				<stop  offset="0.302" style="stop-color:#FFD400"/>
				<stop  offset="1" style="stop-color:#E28100"/>
			</linearGradient>
			<path fill="url(#SVGID_3_)" d="M57.55,13.155c-1.452-2.995-4.521-5.06-8.072-5.06c-3.551,0-6.619,2.065-8.071,5.06l0,0
				c0,0-6.186,10.55,8.071,18.522C63.734,23.705,57.55,13.155,57.55,13.155z"/>
		</g>
		<linearGradient id="SVGID_4_" gradientUnits="userSpaceOnUse" x1="49.478" y1="32.1851" x2="49.478" y2="31.6619">
			<stop  offset="0" style="stop-color:#FFE66D"/>
			<stop  offset="0.302" style="stop-color:#FFD400"/>
			<stop  offset="1" style="stop-color:#E28100"/>
		</linearGradient>
		<ellipse fill="url(#SVGID_4_)" cx="49.478" cy="31.796" rx="0.438" ry="0.404"/>
		<linearGradient id="SVGID_5_" gradientUnits="userSpaceOnUse" x1="51.166" y1="26.0874" x2="51.166" y2="10.4261">
			<stop  offset="0" style="stop-color:#FFE66D"/>
			<stop  offset="0.302" style="stop-color:#FFD400"/>
			<stop  offset="1" style="stop-color:#E28100"/>
		</linearGradient>
		<path fill="url(#SVGID_5_)" d="M43.534,17.498c0,5.132,3.521,9.292,7.862,9.292c3.022,0,5.645-2.015,6.96-4.968
			c1.371-4.817-0.892-8.682-0.892-8.682c-1.232-2.541-3.629-4.412-6.496-4.92C46.825,8.482,43.534,12.536,43.534,17.498z"/>
		<linearGradient id="SVGID_6_" gradientUnits="userSpaceOnUse" x1="49.5991" y1="11.8604" x2="49.5991" y2="30.69">
			<stop  offset="0" style="stop-color:#FFFAE2"/>
			<stop  offset="0.4872" style="stop-color:#FFD400"/>
			<stop  offset="1" style="stop-color:#F1AC00"/>
		</linearGradient>
		<ellipse fill="url(#SVGID_6_)" cx="49.6" cy="14.786" rx="5.438" ry="5.618"/>
	</g>
	<g>
		<g>
			<linearGradient id="SVGID_7_" gradientUnits="userSpaceOnUse" x1="54.6904" y1="89.7432" x2="43.41" y2="63.6906">
				<stop  offset="0" style="stop-color:#FFFFFF"/>
				<stop  offset="0.4822" style="stop-color:#FFD400"/>
				<stop  offset="1" style="stop-color:#E28100"/>
			</linearGradient>
			<path fill="url(#SVGID_7_)" d="M49.919,60.648c-1.71,2.276-3.422,4.553-5.133,6.829c0.053-0.068,0.103-0.139,0.15-0.208
				s0.091-0.138,0.134-0.206c0.042-0.069,0.081-0.137,0.118-0.205c0.036-0.068,0.071-0.137,0.102-0.204
				c0.091-0.194,0.165-0.387,0.222-0.577c0.058-0.19,0.099-0.38,0.124-0.569c0.025-0.187,0.033-0.373,0.025-0.559
				c-0.009-0.184-0.033-0.368-0.073-0.55c-0.047-0.209-0.11-0.408-0.191-0.598c-0.082-0.188-0.18-0.368-0.296-0.538
				c-0.115-0.169-0.248-0.329-0.398-0.479c-0.149-0.15-0.317-0.29-0.502-0.421c-0.185-0.13-0.382-0.243-0.591-0.341
				c-0.209-0.097-0.432-0.179-0.667-0.243s-0.482-0.112-0.742-0.145s-0.533-0.047-0.818-0.046c-0.286,0.001-0.567,0.024-0.845,0.071
				c-0.278,0.046-0.552,0.115-0.823,0.208c-0.27,0.091-0.537,0.207-0.799,0.346c-0.264,0.138-0.522,0.299-0.777,0.483
				c-0.256,0.186-0.522,0.402-0.8,0.649c-0.276,0.247-0.564,0.526-0.862,0.839c-0.298,0.312-0.608,0.655-0.928,1.031
				c-0.321,0.378-0.652,0.787-0.995,1.23l4.758-6.976c0.35-0.451,0.69-0.87,1.019-1.253c0.328-0.385,0.644-0.735,0.951-1.053
				c0.305-0.316,0.6-0.601,0.884-0.853c0.284-0.251,0.558-0.47,0.82-0.657c0.263-0.188,0.53-0.351,0.801-0.49
				c0.271-0.138,0.545-0.253,0.825-0.345c0.278-0.092,0.561-0.16,0.848-0.205c0.288-0.044,0.579-0.066,0.875-0.063
				c0.294,0.002,0.577,0.02,0.847,0.056c0.269,0.036,0.525,0.088,0.769,0.157s0.474,0.155,0.692,0.258
				c0.218,0.103,0.423,0.221,0.615,0.357c0.193,0.137,0.368,0.282,0.525,0.438s0.296,0.321,0.417,0.496
				c0.121,0.176,0.226,0.361,0.311,0.557c0.086,0.195,0.154,0.4,0.205,0.616c0.043,0.188,0.071,0.376,0.082,0.566
				c0.01,0.19,0.003,0.383-0.02,0.574c-0.023,0.194-0.064,0.388-0.121,0.583c-0.058,0.195-0.132,0.394-0.224,0.593
				c-0.032,0.068-0.066,0.138-0.103,0.206c-0.037,0.07-0.077,0.14-0.12,0.21c-0.042,0.07-0.087,0.141-0.136,0.213
				C50.024,60.505,49.973,60.576,49.919,60.648z"/>
		</g>
		<g>
			<linearGradient id="SVGID_8_" gradientUnits="userSpaceOnUse" x1="47.2407" y1="76.2061" x2="27.3641" y2="54.7177">
				<stop  offset="0" style="stop-color:#FFFFFF"/>
				<stop  offset="0.4822" style="stop-color:#FFD400"/>
				<stop  offset="1" style="stop-color:#E28100"/>
			</linearGradient>
			<polygon fill="url(#SVGID_8_)" points="39.31,59.473 34.552,66.448 23.972,59.21 28.273,51.905 			"/>
		</g>
		<g>
			<linearGradient id="SVGID_9_" gradientUnits="userSpaceOnUse" x1="47.7998" y1="79.1084" x2="56.6932" y2="71.1699">
				<stop  offset="0" style="stop-color:#FFD400"/>
				<stop  offset="1" style="stop-color:#E28100"/>
			</linearGradient>
			<path fill="url(#SVGID_9_)" d="M61.762,66.113c-0.029,0.034-0.059,0.067-0.088,0.101c-0.03,0.033-0.061,0.066-0.09,0.1
				c-0.031,0.034-0.061,0.066-0.092,0.1c-0.198,0.213-0.403,0.424-0.616,0.633c-0.212,0.209-0.432,0.417-0.657,0.622
				c-0.227,0.205-0.461,0.409-0.701,0.61s-0.488,0.401-0.744,0.6l-6.315,4.854l-5.356,6.43l6.155-4.773
				c0.248-0.196,0.49-0.392,0.726-0.59c0.234-0.199,0.463-0.398,0.685-0.601s0.437-0.405,0.644-0.611
				c0.207-0.205,0.408-0.412,0.604-0.622c0.029-0.032,0.06-0.064,0.089-0.097c0.03-0.031,0.059-0.064,0.087-0.097
				c0.03-0.033,0.059-0.065,0.088-0.099c0.027-0.033,0.057-0.066,0.084-0.1c1.861-2.186,3.725-4.372,5.586-6.559
				C61.82,66.047,61.791,66.081,61.762,66.113z"/>
		</g>
		<g>
			<linearGradient id="SVGID_10_" gradientUnits="userSpaceOnUse" x1="34.8491" y1="98.791" x2="28.9399" y2="71.663">
				<stop  offset="0" style="stop-color:#FFFFFF"/>
				<stop  offset="0.4822" style="stop-color:#FFD400"/>
				<stop  offset="1" style="stop-color:#E28100"/>
			</linearGradient>
			<polygon fill="url(#SVGID_10_)" points="34.98,85.689 30.137,91.906 28.208,81.575 32.877,74.998 			"/>
		</g>
		<g>
			<linearGradient id="SVGID_11_" gradientUnits="userSpaceOnUse" x1="30.1372" y1="88.042" x2="71.2988" y2="88.042">
				<stop  offset="0" style="stop-color:#FFEB89"/>
				<stop  offset="0.4822" style="stop-color:#FFD400"/>
				<stop  offset="1" style="stop-color:#E28100"/>
			</linearGradient>
			<polygon fill="url(#SVGID_11_)" points="71.299,84.178 65.189,90.12 30.137,91.906 34.98,85.689 			"/>
		</g>
		<g>
			<linearGradient id="SVGID_12_" gradientUnits="userSpaceOnUse" x1="48.7754" y1="38.0591" x2="50.387" y2="85.8674">
				<stop  offset="0" style="stop-color:#FFFFFF"/>
				<stop  offset="0.4822" style="stop-color:#FFD400"/>
				<stop  offset="1" style="stop-color:#E28100"/>
			</linearGradient>
			<path fill="url(#SVGID_12_)" d="M45.021,43.707c0.58,0.013,1.152,0.046,1.715,0.099c0.562,0.051,1.117,0.121,1.664,0.209
				c0.546,0.089,1.085,0.196,1.616,0.322c0.53,0.125,1.054,0.269,1.568,0.433c0.516,0.162,1.018,0.339,1.506,0.529
				c0.488,0.191,0.963,0.396,1.424,0.618c0.462,0.219,0.91,0.454,1.346,0.703c0.436,0.25,0.858,0.513,1.27,0.792
				c0.409,0.279,0.803,0.569,1.182,0.873c0.379,0.303,0.742,0.619,1.09,0.948c0.349,0.328,0.682,0.67,0.998,1.023
				c0.318,0.354,0.621,0.723,0.908,1.103c0.288,0.38,0.553,0.77,0.799,1.167c0.245,0.398,0.469,0.807,0.671,1.225
				c0.202,0.417,0.384,0.845,0.544,1.281s0.299,0.884,0.416,1.34c0.102,0.393,0.187,0.77,0.256,1.133
				c0.07,0.363,0.125,0.711,0.164,1.048s0.064,0.659,0.074,0.972c0.01,0.313,0.004,0.614-0.015,0.907
				c-0.02,0.293-0.052,0.579-0.095,0.859c-0.045,0.281-0.1,0.557-0.169,0.826s-0.15,0.532-0.243,0.79
				c-0.094,0.258-0.201,0.509-0.318,0.754c-0.119,0.247-0.248,0.488-0.387,0.727c-0.138,0.237-0.286,0.472-0.444,0.7
				c-0.157,0.229-0.325,0.454-0.503,0.676c-0.178,0.221-0.366,0.438-0.564,0.65c-0.198,0.213-0.403,0.424-0.616,0.633
				c-0.212,0.209-0.432,0.417-0.657,0.622c-0.227,0.205-0.461,0.409-0.701,0.61s-0.488,0.401-0.744,0.6l-6.315,4.854l16.05-0.377
				l2.791,10.823L34.98,85.689l-2.103-10.691l15.342-12.669c0.278-0.223,0.533-0.441,0.764-0.657
				c0.231-0.216,0.438-0.429,0.623-0.64c0.184-0.209,0.344-0.416,0.482-0.62c0.137-0.205,0.251-0.407,0.343-0.605
				c0.091-0.199,0.166-0.397,0.224-0.593c0.057-0.195,0.098-0.389,0.121-0.583c0.023-0.191,0.03-0.384,0.02-0.574
				c-0.011-0.19-0.038-0.379-0.082-0.566c-0.05-0.216-0.119-0.421-0.205-0.616c-0.085-0.195-0.19-0.381-0.311-0.557
				c-0.122-0.175-0.26-0.34-0.417-0.496s-0.332-0.302-0.525-0.438c-0.192-0.137-0.397-0.255-0.615-0.357
				c-0.218-0.103-0.448-0.188-0.692-0.258s-0.5-0.121-0.769-0.157c-0.27-0.036-0.552-0.054-0.847-0.056
				c-0.296-0.004-0.587,0.019-0.875,0.063c-0.287,0.045-0.57,0.113-0.848,0.205c-0.279,0.092-0.554,0.207-0.825,0.345
				c-0.271,0.14-0.538,0.303-0.801,0.49c-0.262,0.188-0.536,0.406-0.82,0.657c-0.284,0.252-0.58,0.536-0.884,0.853
				c-0.307,0.317-0.623,0.668-0.951,1.053C40,58.603,39.66,59.021,39.31,59.473l-11.037-7.567c0.242-0.347,0.487-0.686,0.735-1.012
				c0.248-0.327,0.499-0.643,0.753-0.95c0.254-0.306,0.511-0.601,0.772-0.888c0.26-0.284,0.523-0.561,0.79-0.826
				c0.265-0.265,0.541-0.518,0.823-0.76c0.282-0.241,0.574-0.47,0.875-0.688c0.3-0.217,0.608-0.423,0.925-0.617
				c0.316-0.195,0.642-0.377,0.976-0.549c0.333-0.171,0.675-0.331,1.028-0.479c0.352-0.148,0.713-0.284,1.084-0.411
				c0.371-0.125,0.752-0.239,1.142-0.342c0.39-0.103,0.79-0.194,1.2-0.275c0.408-0.08,0.832-0.149,1.272-0.206
				c0.439-0.057,0.894-0.103,1.366-0.135c0.47-0.034,0.956-0.056,1.457-0.066C43.972,43.692,44.488,43.693,45.021,43.707z"/>
		</g>
	</g>
</g>
</svg>
