<?xml version="1.0" encoding="utf-8"?>
<!-- Generator: Adobe Illustrator 15.0.0, SVG Export Plug-In . SVG Version: 6.00 Build 0)  -->
<!DOCTYPE svg PUBLIC "-//W3C//DTD SVG 1.1//EN" "http://www.w3.org/Graphics/SVG/1.1/DTD/svg11.dtd">
<svg version="1.1" id="图层_1" xmlns="http://www.w3.org/2000/svg" xmlns:xlink="http://www.w3.org/1999/xlink" x="0px" y="0px"
	 width="100px" height="100px" viewBox="0 0 100 100" enable-background="new 0 0 100 100" xml:space="preserve">
<g>
	<g>
		<linearGradient id="SVGID_1_" gradientUnits="userSpaceOnUse" x1="49.4824" y1="82.1201" x2="49.4824" y2="30.1048">
			<stop  offset="0" style="stop-color:#517F00"/>
			<stop  offset="0.6447" style="stop-color:#ABF900"/>
			<stop  offset="1" style="stop-color:#517F00"/>
		</linearGradient>
		<path fill="url(#SVGID_1_)" d="M43.666,39.64c0.2-1.873,2.545-1.643,3.738-0.899c0.713,0.443,0.971,1.123,0.988,1.933
			c0.022,1.024-0.688,1.291-1.52,0.851c-1.5-0.796-1.857-2.716-1.615-4.255c0.126-0.803,0.899-2.383,1.976-2.073
			c0.612,0.176,0.434,1.817-0.409,1.393c-1.197-0.604-0.969-1.958-0.738-3.001c0.279-1.253,1.233-2.188,2.329-2.788
			c2.508-1.369,4.265,0.778,5.28,2.856c2.022,4.14,1.968,9.053,0.748,13.42c-0.395,1.42-1.16,2.668-1.898,3.931
			c-0.864,1.476-1.729,2.955-2.41,4.526c-1.01,2.331-1.64,5.723,1.256,6.993c0.74,0.326,1.556,0.312,2.131-0.31
			c0.396-0.427,0.555-1.141,0.292-1.668c-0.317-0.639-1.18-0.206-1.562,0.092c-1.035,0.811-1.987,2.219-1.831,3.573
			c0.188,1.637,3.186,3.144,3.447,0.846c0.007-0.048-0.018-0.103-0.062-0.126c-1.805-0.997-2.862,0.464-3.257,2.119
			c-0.234,0.991-0.284,2.044-0.222,3.059c0.084,1.336,0.786,2.516,1.481,3.624c0.886,1.413,2.025,2.849,2.264,4.547
			c0.199,1.419-0.478,3.074-1.528,4.016c-1.131,1.014-3.002,0.797-3.451-0.748c-0.382-1.312,0.52-2.746,1.901-2.798
			c0.287-0.012,0.392-0.383,0.046-0.369c-2.514,0.094-3.661,3.899-1.034,4.807c3.136,1.082,5.095-3.258,4.427-5.705
			c-0.58-2.132-2.262-3.799-3.162-5.787c-0.593-1.309-0.522-2.793-0.304-4.186c0.103-0.659,0.286-1.31,0.617-1.89
			c0.16-0.281,0.405-0.538,0.716-0.645c0.336-0.116,1.127,0.02,0.985,0.478c-0.231,0.738-1.105,0.343-1.521,0.04
			c-0.646-0.47-0.917-1.271-0.835-2.039c0.093-0.893,0.795-1.702,1.385-2.331c0.222-0.236,0.761-0.794,1.033-0.353
			c0.411,0.662-0.308,1.637-1.007,1.605c-1.513-0.069-2.503-1.784-2.583-3.121c-0.094-1.593,0.614-3.194,1.287-4.597
			c1.358-2.83,3.343-5.305,4.114-8.387c1.076-4.295,0.894-8.967-1.066-12.977c-0.723-1.477-1.809-2.98-3.506-3.332
			c-1.588-0.33-3.424,0.99-4.328,2.153c-0.97,1.25-1.377,3.38-0.121,4.55c0.721,0.671,1.685,0.413,1.921-0.534
			c0.261-1.047-0.651-1.542-1.537-1.19c-1.458,0.581-1.911,2.125-1.845,3.578c0.06,1.346,0.626,2.587,1.804,3.293
			c0.756,0.453,1.79,0.487,2.258-0.363c0.353-0.642,0.179-1.632-0.166-2.234c-0.404-0.704-1.257-1.1-2.008-1.29
			c-1.407-0.359-3.235,0.086-3.415,1.751C43.124,39.94,43.64,39.868,43.666,39.64L43.666,39.64z"/>
		<g>
			
				<linearGradient id="SVGID_2_" gradientUnits="userSpaceOnUse" x1="1438.6563" y1="31.7852" x2="1438.6563" y2="31.1429" gradientTransform="matrix(-1 0 0 1 1488.666 0)">
				<stop  offset="0" style="stop-color:#ABF900"/>
				<stop  offset="1" style="stop-color:#517F00"/>
			</linearGradient>
			<path fill="url(#SVGID_2_)" d="M50.202,30.923c0,0,0.45,0.408,0.45,0.835c0,0-0.599,0.364-1.284-0.15
				C49.367,31.608,49.453,31.138,50.202,30.923z"/>
			<g>
				<linearGradient id="SVGID_3_" gradientUnits="userSpaceOnUse" x1="49.9512" y1="32.3247" x2="49.9512" y2="18.5477">
					<stop  offset="0" style="stop-color:#ABF900"/>
					<stop  offset="1" style="stop-color:#517F00"/>
				</linearGradient>
				<path fill="url(#SVGID_3_)" d="M57.834,12.455c-1.418-2.924-4.414-4.94-7.884-4.94c-3.468,0-6.463,2.016-7.882,4.94l0,0
					c0,0-6.041,10.305,7.882,18.09C63.874,22.76,57.834,12.455,57.834,12.455z"/>
			</g>
			<linearGradient id="SVGID_4_" gradientUnits="userSpaceOnUse" x1="49.9517" y1="31.041" x2="49.9517" y2="30.5299">
				<stop  offset="0" style="stop-color:#ABF900"/>
				<stop  offset="1" style="stop-color:#517F00"/>
			</linearGradient>
			<ellipse fill="url(#SVGID_4_)" cx="49.951" cy="30.662" rx="0.427" ry="0.394"/>
			<linearGradient id="SVGID_5_" gradientUnits="userSpaceOnUse" x1="51.5996" y1="25.0859" x2="51.5996" y2="9.7906">
				<stop  offset="0" style="stop-color:#ABF900"/>
				<stop  offset="1" style="stop-color:#517F00"/>
			</linearGradient>
			<path fill="url(#SVGID_5_)" d="M44.146,16.698c0,5.012,3.438,9.075,7.678,9.075c2.951,0,5.511-1.967,6.798-4.853
				c1.338-4.705-0.872-8.479-0.872-8.479c-1.203-2.481-3.543-4.309-6.343-4.806C47.36,7.893,44.146,11.852,44.146,16.698z"/>
			<linearGradient id="SVGID_6_" gradientUnits="userSpaceOnUse" x1="50.0698" y1="9.4312" x2="50.0698" y2="21.3837">
				<stop  offset="0" style="stop-color:#FFFFFF"/>
				<stop  offset="0.4308" style="stop-color:#ABF900"/>
				<stop  offset="1" style="stop-color:#79B500"/>
			</linearGradient>
			<ellipse fill="url(#SVGID_6_)" cx="50.07" cy="14.049" rx="5.311" ry="5.487"/>
		</g>
	</g>
	<g>
		<linearGradient id="SVGID_7_" gradientUnits="userSpaceOnUse" x1="47.5161" y1="94.4932" x2="43.4094" y2="69.1384">
			<stop  offset="0" style="stop-color:#C7FB55"/>
			<stop  offset="0.198" style="stop-color:#ABF900"/>
			<stop  offset="1" style="stop-color:#517F00"/>
		</linearGradient>
		<polygon fill="url(#SVGID_7_)" points="46.048,54.819 51.469,62.423 37.815,62.06 31.923,54.699 		"/>
		<linearGradient id="SVGID_8_" gradientUnits="userSpaceOnUse" x1="31.4595" y1="73.1836" x2="38.7261" y2="73.1836">
			<stop  offset="0" style="stop-color:#C7FB55"/>
			<stop  offset="0.198" style="stop-color:#ABF900"/>
			<stop  offset="1" style="stop-color:#517F00"/>
		</linearGradient>
		<path fill="url(#SVGID_8_)" d="M38.726,77.396c-2.05-2.321-4.1-4.644-6.151-6.965c-0.098-0.111-0.196-0.227-0.29-0.343
			c-0.096-0.118-0.191-0.236-0.285-0.358c-0.092-0.121-0.184-0.246-0.274-0.372c-0.09-0.127-0.179-0.257-0.267-0.389l6.164,6.988
			c0.086,0.13,0.175,0.258,0.264,0.382c0.089,0.124,0.181,0.247,0.272,0.368c0.092,0.119,0.185,0.235,0.28,0.352
			C38.534,77.175,38.629,77.286,38.726,77.396z"/>
		<linearGradient id="SVGID_9_" gradientUnits="userSpaceOnUse" x1="64.3799" y1="91.7656" x2="60.2721" y2="66.4047">
			<stop  offset="0" style="stop-color:#C7FB55"/>
			<stop  offset="0.198" style="stop-color:#ABF900"/>
			<stop  offset="1" style="stop-color:#517F00"/>
		</linearGradient>
		<polygon fill="url(#SVGID_9_)" points="62.635,53.791 67.432,61.712 56.664,67.771 51.35,60.218 		"/>
		<linearGradient id="SVGID_10_" gradientUnits="userSpaceOnUse" x1="64.5" y1="40.46" x2="67.7143" y2="65.8173">
			<stop  offset="0" style="stop-color:#C7FB55"/>
			<stop  offset="0.198" style="stop-color:#ABF900"/>
			<stop  offset="1" style="stop-color:#517F00"/>
		</linearGradient>
		<polygon fill="url(#SVGID_10_)" points="65.094,45.065 69.678,53.254 67.432,61.712 62.635,53.791 		"/>
		<g>
			<linearGradient id="SVGID_11_" gradientUnits="userSpaceOnUse" x1="46.5562" y1="94.6523" x2="42.449" y2="69.2954">
				<stop  offset="0" style="stop-color:#C7FB55"/>
				<stop  offset="0.198" style="stop-color:#ABF900"/>
				<stop  offset="1" style="stop-color:#517F00"/>
			</linearGradient>
			<path fill="url(#SVGID_11_)" d="M44.73,68.519c-0.021-0.026-0.043-0.053-0.067-0.08c-0.022-0.026-0.046-0.053-0.072-0.078
				c-0.024-0.025-0.049-0.051-0.076-0.077c-0.026-0.024-0.053-0.049-0.082-0.073c-0.173-0.152-0.381-0.287-0.624-0.405
				c-0.243-0.118-0.52-0.219-0.831-0.304c-0.31-0.084-0.655-0.151-1.035-0.202c-0.378-0.05-0.791-0.085-1.238-0.103l-5.558-0.217
				l6.002,7.103l5.367,0.3c0.431,0.024,0.83,0.064,1.195,0.12c0.366,0.055,0.701,0.125,1.002,0.213
				c0.301,0.086,0.569,0.188,0.806,0.308c0.235,0.119,0.438,0.252,0.608,0.403c0.026,0.023,0.053,0.049,0.078,0.073
				c0.026,0.025,0.05,0.05,0.076,0.075c0.024,0.025,0.046,0.052,0.07,0.078c0.022,0.025,0.044,0.053,0.065,0.078L44.73,68.519z"/>
		</g>
		<linearGradient id="SVGID_12_" gradientUnits="userSpaceOnUse" x1="23.8936" y1="78.2725" x2="64.1738" y2="78.2725">
			<stop  offset="0" style="stop-color:#C7FB55"/>
			<stop  offset="0.198" style="stop-color:#ABF900"/>
			<stop  offset="1" style="stop-color:#517F00"/>
		</linearGradient>
		<path fill="url(#SVGID_12_)" d="M57.889,64.496c1.71,2.513,3.42,5.026,5.129,7.54c0.313,0.459,0.563,0.957,0.748,1.494
			c0.188,0.538,0.311,1.113,0.369,1.729s0.052,1.271-0.021,1.967c-0.071,0.697-0.21,1.433-0.415,2.207
			c-0.152,0.581-0.329,1.139-0.529,1.674c-0.199,0.534-0.424,1.048-0.672,1.54s-0.521,0.962-0.818,1.412
			c-0.297,0.452-0.619,0.883-0.966,1.295s-0.71,0.806-1.091,1.181c-0.379,0.377-0.775,0.734-1.188,1.074
			c-0.412,0.339-0.842,0.659-1.287,0.961c-0.444,0.302-0.904,0.586-1.381,0.851c-0.477,0.264-0.962,0.508-1.459,0.732
			c-0.496,0.226-1.002,0.43-1.517,0.615c-0.516,0.184-1.04,0.349-1.573,0.494c-0.534,0.144-1.076,0.27-1.628,0.375
			c-0.551,0.104-1.103,0.19-1.655,0.255c-0.551,0.064-1.103,0.109-1.654,0.134c-0.551,0.024-1.101,0.028-1.652,0.014
			c-0.549-0.015-1.1-0.051-1.649-0.104c-1.029-0.103-2.005-0.241-2.927-0.416c-0.917-0.173-1.782-0.383-2.594-0.628
			c-0.809-0.243-1.565-0.521-2.269-0.835c-0.702-0.312-1.352-0.658-1.951-1.039c-0.252-0.159-0.498-0.324-0.738-0.494
			c-0.239-0.171-0.472-0.345-0.699-0.524c-0.225-0.179-0.445-0.362-0.66-0.551c-0.213-0.189-0.42-0.383-0.621-0.581l0,0
			c-2.208-2.183-4.418-4.365-6.627-6.548c0.204,0.203,0.415,0.398,0.632,0.59c0.217,0.191,0.441,0.377,0.672,0.559
			c0.231,0.183,0.469,0.358,0.713,0.53c0.245,0.172,0.497,0.337,0.754,0.499c0.615,0.384,1.282,0.732,2.003,1.043
			c0.725,0.313,1.503,0.588,2.337,0.828c0.839,0.239,1.731,0.443,2.681,0.609c0.954,0.166,1.965,0.295,3.033,0.385
			c0.57,0.048,1.141,0.076,1.712,0.084c0.572,0.007,1.145-0.005,1.718-0.039c0.575-0.033,1.149-0.089,1.724-0.163
			c0.576-0.076,1.151-0.172,1.727-0.289c0.576-0.118,1.143-0.254,1.699-0.413c0.559-0.158,1.107-0.336,1.647-0.535
			c0.539-0.199,1.069-0.42,1.589-0.659c0.521-0.24,1.031-0.501,1.532-0.781c0.5-0.28,0.985-0.581,1.452-0.899
			c0.469-0.32,0.921-0.658,1.356-1.016c0.435-0.357,0.854-0.733,1.257-1.13c0.402-0.395,0.787-0.808,1.154-1.239
			s0.711-0.883,1.026-1.353c0.317-0.472,0.608-0.962,0.874-1.475c0.267-0.513,0.508-1.046,0.725-1.603
			c0.217-0.556,0.408-1.134,0.578-1.737c0.225-0.804,0.379-1.566,0.465-2.285s0.103-1.396,0.051-2.031
			c-0.051-0.633-0.17-1.225-0.357-1.776C58.461,65.474,58.209,64.964,57.889,64.496z"/>
		<linearGradient id="SVGID_13_" gradientUnits="userSpaceOnUse" x1="40.8882" y1="42.2266" x2="45.7097" y2="82.4059">
			<stop  offset="0" style="stop-color:#C7FB55"/>
			<stop  offset="0.198" style="stop-color:#ABF900"/>
			<stop  offset="1" style="stop-color:#517F00"/>
		</linearGradient>
		<path fill="url(#SVGID_13_)" d="M65.094,45.065l-2.459,8.726L51.35,60.218c0.715,0.211,1.385,0.454,2.008,0.729
			c0.627,0.275,1.207,0.584,1.741,0.922c0.536,0.341,1.024,0.713,1.467,1.118c0.443,0.405,0.839,0.845,1.188,1.315
			c0.349,0.473,0.626,0.989,0.833,1.549c0.207,0.561,0.342,1.167,0.406,1.815c0.063,0.652,0.054,1.348-0.031,2.088
			c-0.082,0.743-0.24,1.53-0.473,2.361c-0.17,0.604-0.361,1.182-0.578,1.737c-0.217,0.557-0.458,1.09-0.725,1.603
			c-0.266,0.513-0.557,1.003-0.874,1.475c-0.315,0.47-0.659,0.921-1.026,1.353s-0.752,0.845-1.154,1.239
			c-0.402,0.396-0.822,0.772-1.257,1.13c-0.436,0.357-0.888,0.695-1.356,1.016c-0.467,0.318-0.951,0.619-1.452,0.899
			c-0.501,0.28-1.012,0.541-1.532,0.781c-0.52,0.239-1.05,0.46-1.589,0.659c-0.54,0.199-1.088,0.377-1.647,0.535
			c-0.557,0.159-1.123,0.295-1.699,0.413c-0.576,0.117-1.15,0.213-1.727,0.289c-0.575,0.074-1.148,0.13-1.724,0.163
			c-0.573,0.034-1.146,0.046-1.718,0.039c-0.571-0.008-1.142-0.036-1.712-0.084c-1.067-0.09-2.079-0.219-3.033-0.385
			c-0.949-0.166-1.842-0.37-2.681-0.609c-0.833-0.24-1.612-0.515-2.337-0.828c-0.721-0.311-1.388-0.659-2.003-1.043
			c-0.61-0.381-1.184-0.792-1.72-1.232c-0.534-0.437-1.03-0.903-1.491-1.399c-0.457-0.491-0.879-1.012-1.265-1.561
			c-0.383-0.545-0.731-1.118-1.043-1.718l10.313-7.617c0.239,0.36,0.488,0.702,0.746,1.022c0.26,0.322,0.53,0.626,0.81,0.909
			c0.28,0.286,0.571,0.551,0.871,0.795c0.302,0.245,0.613,0.472,0.936,0.677c0.323,0.206,0.658,0.39,1.005,0.551
			s0.708,0.3,1.081,0.416c0.373,0.115,0.758,0.209,1.155,0.278c0.398,0.069,0.809,0.116,1.231,0.139
			c0.375,0.021,0.734,0.022,1.079,0.003c0.344-0.02,0.672-0.058,0.984-0.117c0.313-0.06,0.609-0.139,0.89-0.239
			c0.281-0.101,0.544-0.22,0.792-0.361c0.247-0.14,0.473-0.293,0.677-0.46c0.205-0.165,0.388-0.345,0.55-0.536
			c0.161-0.192,0.301-0.396,0.42-0.612c0.118-0.218,0.215-0.447,0.29-0.689c0.087-0.28,0.14-0.54,0.159-0.783
			c0.02-0.242,0.006-0.468-0.04-0.676c-0.046-0.21-0.125-0.402-0.235-0.581c-0.11-0.178-0.252-0.343-0.426-0.494
			c-0.173-0.152-0.381-0.287-0.624-0.405c-0.243-0.118-0.52-0.219-0.831-0.304c-0.31-0.084-0.655-0.151-1.035-0.202
			c-0.378-0.05-0.791-0.085-1.238-0.103l-5.558-0.217l0.215-5.749l10.684-6.411l-14.125-0.12l3.237-9.198L65.094,45.065z"/>
	</g>
</g>
</svg>
