<?xml version="1.0" encoding="utf-8"?>
<!-- Generator: Adobe Illustrator 15.0.0, SVG Export Plug-In . SVG Version: 6.00 Build 0)  -->
<!DOCTYPE svg PUBLIC "-//W3C//DTD SVG 1.1//EN" "http://www.w3.org/Graphics/SVG/1.1/DTD/svg11.dtd">
<svg version="1.1" id="图层_1" xmlns="http://www.w3.org/2000/svg" xmlns:xlink="http://www.w3.org/1999/xlink" x="0px" y="0px"
	 width="100px" height="100px" viewBox="0 0 100 100" enable-background="new 0 0 100 100" xml:space="preserve">
<g>
	<g>
		<linearGradient id="SVGID_1_" gradientUnits="userSpaceOnUse" x1="50.6567" y1="82.6387" x2="50.6567" y2="30.427">
			<stop  offset="0" style="stop-color:#840033"/>
			<stop  offset="0.7767" style="stop-color:#F92169"/>
			<stop  offset="1" style="stop-color:#840033"/>
		</linearGradient>
		<path fill="url(#SVGID_1_)" d="M57.652,36.456c0.477-3.248-3.531-2.991-5.596-2.358c-1.157,0.355-2.148,0.904-2.901,1.855
			c-1.059,1.338,0.015,2.915,1.588,2.734c1.588-0.184,2.559-1.97,2.792-3.386c0.254-1.55-0.83-3.008-2.277-3.471
			c-3.68-1.179-6.41,2.154-7.197,5.372c-0.931,3.806-0.386,8.41,1.698,11.744c1.1,1.76,2.404,3.397,3.23,5.315
			c0.762,1.767,0.814,4.161-0.947,5.373c-0.991,0.681-2.503,0.794-3.26-0.259c-0.193-0.269-0.331-0.68-0.241-1.007
			c0.101-0.376,0.904,0.082,1.089,0.188c0.646,0.372,1.094,1.011,1.174,1.753c0.089,0.807-0.503,2.235-1.413,1.476
			c-0.164-0.137-0.278-0.328-0.297-0.54c-0.029-0.329,1.014,0.167,1.167,0.264c0.861,0.542,1.188,1.723,1.389,2.649
			c0.532,2.451,0.175,4.905-0.544,7.278c-0.66,2.174-1.561,4.265-2.103,6.477c-0.38,1.556-0.97,3.722-0.135,5.202
			c0.549,0.971,2.097,1.256,3.066,0.806c1.767-0.822,0.214-2.398,0.105-3.693c-0.007-0.096-0.583,0.007-0.57,0.151
			c0.085,1.029,1.074,1.931,0.673,2.984c-0.404,1.065-1.901,0.379-2.406-0.044c-0.507-0.423-0.643-1.136-0.691-1.752
			c-0.086-1.114,0.223-2.358,0.447-3.439c0.288-1.382,0.764-2.721,1.233-4.049c0.871-2.454,1.735-4.899,1.767-7.531
			c0.02-1.68-0.23-3.903-1.527-5.104c-0.296-0.273-2.32-1.057-2.433-0.117c-0.106,0.896,1.157,1.061,1.754,0.875
			c1.342-0.422,1.277-2.4,0.544-3.281c-0.563-0.676-1.678-1.211-2.532-0.761c-0.404,0.213-0.396,0.579-0.273,0.979
			c0.234,0.763,0.948,1.137,1.689,1.227c1.103,0.134,2.65-0.358,3.37-1.231c2.781-3.378-0.937-7.495-2.752-10.342
			c-2.202-3.455-2.627-8.284-1.579-12.196c0.611-2.281,2.267-4.789,4.892-4.769c1.884,0.015,3.415,1.537,3.343,3.413
			c-0.032,0.822-0.439,1.587-0.887,2.251c-0.754,1.118-2.19,1.312-2.727,0.002c-0.571-1.391,1.154-2.586,2.206-3.041
			c2.008-0.867,5.967-1.011,5.504,2.157C57.074,36.664,57.629,36.623,57.652,36.456L57.652,36.456z"/>
		<linearGradient id="SVGID_2_" gradientUnits="userSpaceOnUse" x1="49.7959" y1="33.1387" x2="49.7959" y2="32.4161">
			<stop  offset="0" style="stop-color:#F92169"/>
			<stop  offset="1" style="stop-color:#840033"/>
		</linearGradient>
		<path fill="url(#SVGID_2_)" d="M49.58,32.169c0,0-0.506,0.458-0.506,0.939c0,0,0.675,0.409,1.444-0.169
			C50.518,32.939,50.422,32.41,49.58,32.169z"/>
		<linearGradient id="SVGID_3_" gradientUnits="userSpaceOnUse" x1="49.731" y1="33.7456" x2="49.731" y2="18.2461">
			<stop  offset="0" style="stop-color:#F92169"/>
			<stop  offset="1" style="stop-color:#840033"/>
		</linearGradient>
		<path fill="url(#SVGID_3_)" d="M58.599,11.393c-1.595-3.29-4.966-5.56-8.869-5.56c-3.901,0-7.272,2.27-8.868,5.56l0,0
			c0,0-6.795,11.592,8.868,20.35C65.395,22.985,58.599,11.393,58.599,11.393z"/>
		<linearGradient id="SVGID_4_" gradientUnits="userSpaceOnUse" x1="49.731" y1="32.3008" x2="49.731" y2="31.7264">
			<stop  offset="0" style="stop-color:#F92169"/>
			<stop  offset="1" style="stop-color:#840033"/>
		</linearGradient>
		<ellipse fill="url(#SVGID_4_)" cx="49.731" cy="31.874" rx="0.482" ry="0.444"/>
		<linearGradient id="SVGID_5_" gradientUnits="userSpaceOnUse" x1="51.584" y1="25.6021" x2="51.584" y2="8.3952">
			<stop  offset="0" style="stop-color:#F92169"/>
			<stop  offset="1" style="stop-color:#840033"/>
		</linearGradient>
		<path fill="url(#SVGID_5_)" d="M43.2,16.166c0,5.638,3.868,10.209,8.638,10.209c3.32,0,6.199-2.214,7.646-5.458
			c1.507-5.293-0.98-9.539-0.98-9.539c-1.354-2.792-3.986-4.847-7.135-5.406C46.816,6.26,43.2,10.712,43.2,16.166z"/>
		<linearGradient id="SVGID_6_" gradientUnits="userSpaceOnUse" x1="49.8643" y1="7.9912" x2="49.8643" y2="21.4365">
			<stop  offset="0" style="stop-color:#FFFFFF"/>
			<stop  offset="0.4718" style="stop-color:#F92169"/>
			<stop  offset="1" style="stop-color:#B30D48"/>
		</linearGradient>
		<ellipse fill="url(#SVGID_6_)" cx="49.865" cy="13.185" rx="5.974" ry="6.174"/>
	</g>
	<g>
		<linearGradient id="SVGID_7_" gradientUnits="userSpaceOnUse" x1="94.8027" y1="131.4863" x2="61.4424" y2="77.4878">
			<stop  offset="0" style="stop-color:#FFFFFF"/>
			<stop  offset="0.3655" style="stop-color:#F92169"/>
			<stop  offset="1" style="stop-color:#840033"/>
		</linearGradient>
		<polygon fill="url(#SVGID_7_)" points="70.347,79.431 63.98,85.913 59.063,86.105 65.266,79.579 		"/>
		<linearGradient id="SVGID_8_" gradientUnits="userSpaceOnUse" x1="64.8965" y1="113.041" x2="44.5315" y2="67.5026">
			<stop  offset="0" style="stop-color:#FFFFFF"/>
			<stop  offset="0.3655" style="stop-color:#F92169"/>
			<stop  offset="1" style="stop-color:#840033"/>
		</linearGradient>
		<polygon fill="url(#SVGID_8_)" points="48.708,69.87 43.167,76.84 40.774,65.954 46.11,58.644 		"/>
		<linearGradient id="SVGID_9_" gradientUnits="userSpaceOnUse" x1="61.334" y1="114.6328" x2="40.9694" y2="69.0952">
			<stop  offset="0" style="stop-color:#FFFFFF"/>
			<stop  offset="0.3655" style="stop-color:#F92169"/>
			<stop  offset="1" style="stop-color:#840033"/>
		</linearGradient>
		<polygon fill="url(#SVGID_9_)" points="52.85,87.773 46.975,94.166 45.321,86.643 51.049,79.993 		"/>
		<linearGradient id="SVGID_10_" gradientUnits="userSpaceOnUse" x1="85.7637" y1="137.0938" x2="52.3918" y2="83.0765">
			<stop  offset="0" style="stop-color:#FFFFFF"/>
			<stop  offset="0.3655" style="stop-color:#F92169"/>
			<stop  offset="1" style="stop-color:#840033"/>
		</linearGradient>
		<polygon fill="url(#SVGID_10_)" points="67.198,87.184 60.842,93.465 46.975,94.166 52.85,87.773 		"/>
		<linearGradient id="SVGID_11_" gradientUnits="userSpaceOnUse" x1="43.6304" y1="122.5469" x2="23.2672" y2="77.0125">
			<stop  offset="0" style="stop-color:#FFFFFF"/>
			<stop  offset="0.3655" style="stop-color:#F92169"/>
			<stop  offset="1" style="stop-color:#840033"/>
		</linearGradient>
		<polygon fill="url(#SVGID_11_)" points="28.843,80.642 23.906,87.477 19.533,77.284 24.206,70.076 		"/>
		<linearGradient id="SVGID_12_" gradientUnits="userSpaceOnUse" x1="74.6816" y1="143.9551" x2="41.3037" y2="89.9281">
			<stop  offset="0" style="stop-color:#FFFFFF"/>
			<stop  offset="0.3655" style="stop-color:#F92169"/>
			<stop  offset="1" style="stop-color:#840033"/>
		</linearGradient>
		<polygon fill="url(#SVGID_12_)" points="51.049,79.993 45.321,86.643 23.906,87.477 28.843,80.642 		"/>
		<g>
			<linearGradient id="SVGID_13_" gradientUnits="userSpaceOnUse" x1="39.9976" y1="26.8457" x2="55.5535" y2="129.2334">
				<stop  offset="0" style="stop-color:#FFFFFF"/>
				<stop  offset="0.3655" style="stop-color:#F92169"/>
				<stop  offset="1" style="stop-color:#840033"/>
			</linearGradient>
			<path fill="url(#SVGID_13_)" d="M70.347,79.431l-2.624-10l-5.021,0.067l-6.15-24.189l-15.617-0.377L24.206,70.076l4.637,10.565
				l22.206-0.648l1.801,7.78l14.349-0.59l-1.933-7.604L70.347,79.431z M39.196,70l6.914-11.356l2.598,11.227L39.196,70z"/>
		</g>
	</g>
</g>
</svg>
