<?xml version="1.0" encoding="utf-8"?>
<!-- Generator: Adobe Illustrator 15.0.0, SVG Export Plug-In . SVG Version: 6.00 Build 0)  -->
<!DOCTYPE svg PUBLIC "-//W3C//DTD SVG 1.1//EN" "http://www.w3.org/Graphics/SVG/1.1/DTD/svg11.dtd">
<svg version="1.1" id="图层_1" xmlns="http://www.w3.org/2000/svg" xmlns:xlink="http://www.w3.org/1999/xlink" x="0px" y="0px"
	 width="100px" height="100px" viewBox="0 0 100 100" enable-background="new 0 0 100 100" xml:space="preserve">
<g>
	<g>
		<linearGradient id="SVGID_1_" gradientUnits="userSpaceOnUse" x1="46.2622" y1="89.3545" x2="46.2622" y2="31.1785">
			<stop  offset="0.0051" style="stop-color:#4C005E"/>
			<stop  offset="0.6802" style="stop-color:#E033AD"/>
			<stop  offset="1" style="stop-color:#4C005E"/>
		</linearGradient>
		<path fill="url(#SVGID_1_)" d="M50.517,52.847c1.131-2.486,1.825-5.206,2.036-7.926c0.215-2.795-0.287-5.589-1.412-8.151
			c-0.48-1.096-1.059-2.211-1.674-3.239c-0.46-0.767-1.132-1.559-2.007-1.849c-1.677-0.558-3.323,0.199-4.533,1.375
			c-0.596,0.58-0.991,1.563-0.9,2.418c-1.084,0.614-1.959,1.872-1.452,2.664c-0.009,0.006-0.018,0.009-0.027,0.015
			c-1.371,0.776-0.108,3.061,0.244,4.047c0.051,0.144,0.614-0.029,0.57-0.152c-0.229-0.641-0.503-1.26-0.696-1.912
			c-0.139-0.467-0.164-0.927-0.068-1.406c0.033-0.163,0.102-0.28,0.187-0.355c0.188,0.157,0.455,0.284,0.819,0.365
			c0.081,0.019,0.565-0.039,0.519-0.189c-0.165-0.531-0.545-0.683-0.96-0.62c-0.39-0.677,0.098-1.705,0.903-2.212
			c0.118,0.529,0.446,0.983,1.06,1.224c0.5,0.196,1.328-0.006,1.649-0.446c0.623-0.855-0.83-1.34-1.443-1.378
			c-0.241-0.015-0.495,0.026-0.748,0.108c-0.039-0.569,0.125-1.174,0.385-1.617c0.83-1.404,2.676-2.279,4.212-1.62
			c1.083,0.463,1.726,1.638,2.232,2.63c1.289,2.528,2.312,4.945,2.562,7.805c0.254,2.916-0.324,5.851-1.27,8.6
			c-0.872,2.539-2.441,4.697-3.435,7.172c-0.785,1.952-0.62,3.723,0.557,5.461c0.237,0.349,0.549,0.692,0.905,0.94
			c-1.196,2.74-0.985,8.279-0.84,9.702c0.285,2.792,1.237,5.635,2.292,8.224c0.466,1.144,1.06,2.211,1.287,3.438
			c0.233,1.263-0.402,2.268-1.362,3.022c-1.202,0.944-2.682,0.652-3.564-0.519c-0.387-0.513-0.371-1.167-0.141-1.737
			c0.236-0.585,0.773-1.119,1.354-1.355c0.811-0.33,0.972,0.698,0.941,1.236c-0.005,0.093,0.56,0.021,0.57-0.153
			c0.061-1.064-0.505-1.558-1.524-1.287c-0.958,0.256-1.787,1.1-2.034,2.05c-0.329,1.266,1.052,2.557,2.25,2.624
			c1.532,0.086,2.962-0.845,3.767-2.106c1.237-1.941-0.774-4.745-1.421-6.577c-1.013-2.871-1.914-5.777-1.95-8.848
			c-0.029-2.414,0.025-4.979,0.757-7.298c0.019-0.057,0.039-0.115,0.059-0.174c0.42,0.169,0.88,0.177,1.345-0.091
			c0.534-0.309,0.804-0.824,1.03-1.381c0.009-0.021,0.005-0.038-0.014-0.05c-1.2-0.611-2.029-0.152-2.596,0.863
			c-0.42-0.404-0.746-0.967-0.984-1.411c-0.489-0.906-0.73-1.881-0.603-2.904C47.67,57.302,49.474,55.139,50.517,52.847z
			 M44.086,35.762c0.747,0.537-0.158,1.232-0.819,0.777c-0.375-0.258-0.577-0.642-0.652-1.063
			C43.078,35.351,43.593,35.407,44.086,35.762z M49.908,63.543c0.286-0.295,0.625-0.239,0.966-0.091
			c0.182,0.078-0.181,0.631-0.222,0.704c-0.217,0.38-0.51,0.63-0.96,0.497c-0.133-0.04-0.259-0.102-0.38-0.177
			C49.46,64.135,49.648,63.81,49.908,63.543z"/>
		<g>
			<linearGradient id="SVGID_2_" gradientUnits="userSpaceOnUse" x1="46.4956" y1="33.2334" x2="46.4956" y2="32.5127">
				<stop  offset="0.0051" style="stop-color:#E033AD"/>
				<stop  offset="1" style="stop-color:#4C005E"/>
			</linearGradient>
			<path fill="url(#SVGID_2_)" d="M46.279,32.266c0,0-0.504,0.456-0.504,0.937c0,0,0.672,0.408,1.441-0.168
				C47.216,33.035,47.12,32.506,46.279,32.266z"/>
			<g>
				<linearGradient id="SVGID_3_" gradientUnits="userSpaceOnUse" x1="46.4307" y1="31.8408" x2="46.4307" y2="10.2208">
					<stop  offset="0.0051" style="stop-color:#E033AD"/>
					<stop  offset="1" style="stop-color:#4C005E"/>
				</linearGradient>
				<path fill="url(#SVGID_3_)" d="M55.277,11.541c-1.592-3.282-4.955-5.545-8.847-5.545c-3.892,0-7.255,2.264-8.847,5.545l0,0
					c0,0-6.778,11.564,8.847,20.3C62.055,23.105,55.277,11.541,55.277,11.541z"/>
			</g>
			<linearGradient id="SVGID_4_" gradientUnits="userSpaceOnUse" x1="46.4302" y1="32.3979" x2="46.4302" y2="31.8245">
				<stop  offset="0.0051" style="stop-color:#E033AD"/>
				<stop  offset="1" style="stop-color:#4C005E"/>
			</linearGradient>
			<ellipse fill="url(#SVGID_4_)" cx="46.43" cy="31.971" rx="0.48" ry="0.443"/>
			<linearGradient id="SVGID_5_" gradientUnits="userSpaceOnUse" x1="48.2798" y1="24.1543" x2="48.2798" y2="4.3039">
				<stop  offset="0.0051" style="stop-color:#E033AD"/>
				<stop  offset="1" style="stop-color:#4C005E"/>
			</linearGradient>
			<path fill="url(#SVGID_5_)" d="M39.915,16.301c0,5.625,3.858,10.184,8.618,10.184c3.311,0,6.184-2.208,7.627-5.445
				c1.503-5.28-0.978-9.515-0.978-9.515c-1.351-2.785-3.977-4.836-7.118-5.394C43.522,6.42,39.915,10.863,39.915,16.301z"/>
			<linearGradient id="SVGID_6_" gradientUnits="userSpaceOnUse" x1="46.563" y1="8.0386" x2="46.563" y2="26.5137">
				<stop  offset="0" style="stop-color:#FFFFFF"/>
				<stop  offset="0.5076" style="stop-color:#E033AD"/>
				<stop  offset="1" style="stop-color:#4C005E"/>
			</linearGradient>
			<ellipse fill="url(#SVGID_6_)" cx="46.563" cy="13.33" rx="5.96" ry="6.157"/>
		</g>
	</g>
	<g>
		<g>
			<linearGradient id="SVGID_7_" gradientUnits="userSpaceOnUse" x1="46.7134" y1="65.5547" x2="47.9319" y2="45.4475">
				<stop  offset="0" style="stop-color:#E033AD"/>
				<stop  offset="1" style="stop-color:#4C005E"/>
			</linearGradient>
			<polygon fill="url(#SVGID_7_)" points="45.02,56.125 50.702,63.84 48.929,68.672 43.098,61.115 			"/>
		</g>
		<g>
			<linearGradient id="SVGID_8_" gradientUnits="userSpaceOnUse" x1="33.0654" y1="74.4238" x2="39.8105" y2="74.4238">
				<stop  offset="0.0051" style="stop-color:#FADBF1"/>
				<stop  offset="0.4416" style="stop-color:#E033AD"/>
				<stop  offset="1" style="stop-color:#4C005E"/>
			</linearGradient>
			<path fill="url(#SVGID_8_)" d="M39.811,78.229c-2.111-2.377-4.221-4.753-6.332-7.131c-0.035-0.038-0.069-0.078-0.104-0.118
				c-0.035-0.039-0.069-0.079-0.104-0.119c-0.035-0.04-0.069-0.079-0.104-0.12c-0.034-0.041-0.068-0.081-0.102-0.122l6.337,7.138
				c0.034,0.04,0.068,0.08,0.102,0.119c0.034,0.041,0.067,0.081,0.102,0.119c0.033,0.04,0.067,0.079,0.102,0.118
				C39.743,78.152,39.777,78.191,39.811,78.229z"/>
		</g>
		<g>
			<linearGradient id="SVGID_9_" gradientUnits="userSpaceOnUse" x1="30.9194" y1="71.4355" x2="43.5903" y2="71.4355">
				<stop  offset="0" style="stop-color:#F09CD8"/>
				<stop  offset="0.4416" style="stop-color:#E033AD"/>
				<stop  offset="1" style="stop-color:#4C005E"/>
			</linearGradient>
			<polygon fill="url(#SVGID_9_)" points="37.413,69.94 43.59,77.165 37.239,72.938 30.919,65.705 			"/>
		</g>
		<g>
			<linearGradient id="SVGID_10_" gradientUnits="userSpaceOnUse" x1="48.376" y1="82.4434" x2="42.5258" y2="63.7959">
				<stop  offset="0.0051" style="stop-color:#E033AD"/>
				<stop  offset="1" style="stop-color:#4C005E"/>
			</linearGradient>
			<path fill="url(#SVGID_10_)" d="M47.728,68.99c1.932,2.473,3.863,4.944,5.794,7.417c-0.011-0.014-0.021-0.028-0.033-0.042
				c-0.011-0.014-0.022-0.027-0.034-0.04c-0.012-0.015-0.023-0.027-0.035-0.041s-0.023-0.026-0.036-0.04
				c-0.165-0.179-0.354-0.339-0.565-0.479c-0.211-0.139-0.445-0.258-0.703-0.356c-0.257-0.099-0.537-0.178-0.839-0.236
				s-0.627-0.097-0.975-0.116c-0.3-0.016-0.597-0.017-0.888-0.005c-0.291,0.013-0.578,0.04-0.861,0.082
				c-0.282,0.041-0.561,0.097-0.834,0.166c-0.274,0.069-0.544,0.153-0.81,0.251c-0.266,0.098-0.534,0.205-0.805,0.32
				c-0.271,0.117-0.545,0.242-0.821,0.377s-0.556,0.278-0.838,0.432c-0.282,0.152-0.566,0.314-0.854,0.485l-6.177-7.225
				c0.301-0.183,0.599-0.353,0.894-0.515c0.295-0.163,0.587-0.314,0.876-0.458c0.289-0.143,0.576-0.276,0.858-0.401
				c0.283-0.124,0.563-0.238,0.84-0.344c0.278-0.105,0.559-0.197,0.844-0.272c0.286-0.077,0.575-0.139,0.868-0.185
				c0.294-0.049,0.592-0.081,0.895-0.1c0.303-0.018,0.61-0.021,0.921-0.01c0.36,0.014,0.696,0.047,1.009,0.102
				c0.313,0.056,0.602,0.132,0.867,0.229c0.266,0.097,0.507,0.215,0.723,0.354c0.218,0.14,0.411,0.302,0.579,0.483
				c0.013,0.014,0.025,0.026,0.037,0.04c0.012,0.015,0.024,0.027,0.036,0.041s0.023,0.028,0.035,0.043
				C47.706,68.963,47.717,68.977,47.728,68.99z"/>
		</g>
		<g>
			<linearGradient id="SVGID_11_" gradientUnits="userSpaceOnUse" x1="70.4697" y1="78.8311" x2="50.1805" y2="49.4939">
				<stop  offset="0" style="stop-color:#E033AD"/>
				<stop  offset="1" style="stop-color:#4C005E"/>
			</linearGradient>
			<polygon fill="url(#SVGID_11_)" points="64.633,56.299 69.604,64.35 50.702,63.84 45.02,56.125 			"/>
		</g>
		<g>
			<linearGradient id="SVGID_12_" gradientUnits="userSpaceOnUse" x1="61.2861" y1="60.7744" x2="85.9579" y2="41.8593">
				<stop  offset="0" style="stop-color:#E033AD"/>
				<stop  offset="1" style="stop-color:#4C005E"/>
			</linearGradient>
			<polygon fill="url(#SVGID_12_)" points="67.545,46.021 72.268,54.39 69.604,64.35 64.633,56.299 			"/>
		</g>
		<g>
			<linearGradient id="SVGID_13_" gradientUnits="userSpaceOnUse" x1="25.458" y1="78.8047" x2="67.8281" y2="78.8047">
				<stop  offset="0.0051" style="stop-color:#F3AEDF"/>
				<stop  offset="0.4416" style="stop-color:#E033AD"/>
				<stop  offset="1" style="stop-color:#4C005E"/>
			</linearGradient>
			<path fill="url(#SVGID_13_)" d="M61.072,63.603c1.736,2.596,3.473,5.191,5.211,7.788c0.144,0.216,0.279,0.439,0.404,0.672
				c0.127,0.231,0.243,0.471,0.351,0.719c0.107,0.249,0.205,0.506,0.294,0.77c0.089,0.267,0.168,0.539,0.237,0.82
				c0.103,0.409,0.174,0.835,0.216,1.276c0.041,0.442,0.054,0.9,0.034,1.376c-0.019,0.476-0.069,0.968-0.149,1.476
				c-0.08,0.51-0.192,1.035-0.334,1.577c-0.167,0.632-0.357,1.239-0.573,1.822c-0.216,0.586-0.457,1.146-0.723,1.686
				c-0.267,0.539-0.558,1.057-0.874,1.552c-0.317,0.497-0.66,0.973-1.029,1.429c-0.368,0.456-0.756,0.893-1.162,1.31
				c-0.407,0.417-0.832,0.813-1.275,1.189c-0.442,0.376-0.903,0.732-1.383,1.068c-0.479,0.335-0.976,0.65-1.49,0.944
				c-0.514,0.294-1.043,0.565-1.584,0.816c-0.542,0.25-1.097,0.478-1.665,0.685c-0.567,0.206-1.149,0.39-1.742,0.553
				c-0.593,0.162-1.198,0.303-1.816,0.421c-0.617,0.118-1.239,0.212-1.865,0.285c-0.626,0.071-1.255,0.12-1.889,0.146
				c-0.633,0.026-1.27,0.03-1.91,0.011c-0.639-0.02-1.282-0.061-1.928-0.126c-0.98-0.097-1.909-0.229-2.786-0.397
				c-0.873-0.166-1.695-0.367-2.467-0.603c-0.768-0.233-1.486-0.502-2.154-0.803c-0.666-0.3-1.281-0.633-1.849-1
				c-0.268-0.173-0.53-0.351-0.785-0.534c-0.255-0.183-0.504-0.371-0.746-0.564c-0.242-0.193-0.478-0.392-0.707-0.595
				c-0.229-0.203-0.453-0.411-0.669-0.625l0,0c-2.268-2.23-4.536-4.463-6.805-6.693c0.22,0.217,0.447,0.428,0.68,0.634
				c0.234,0.206,0.474,0.407,0.721,0.603c0.248,0.196,0.501,0.386,0.761,0.571c0.261,0.186,0.528,0.364,0.803,0.539
				c0.581,0.369,1.212,0.704,1.896,1.003c0.688,0.303,1.427,0.568,2.219,0.798c0.795,0.231,1.645,0.426,2.548,0.585
				c0.907,0.159,1.869,0.283,2.885,0.369c0.67,0.057,1.337,0.09,2.001,0.101c0.666,0.01,1.327-0.003,1.985-0.039
				c0.66-0.037,1.315-0.097,1.967-0.181c0.653-0.084,1.302-0.192,1.945-0.323c0.646-0.133,1.278-0.286,1.897-0.464
				c0.621-0.177,1.229-0.376,1.823-0.597c0.596-0.223,1.178-0.468,1.746-0.734c0.568-0.268,1.123-0.558,1.664-0.869
				c0.539-0.313,1.063-0.646,1.566-1.001c0.505-0.354,0.992-0.73,1.459-1.126c0.469-0.396,0.917-0.813,1.348-1.252
				c0.43-0.437,0.84-0.895,1.232-1.372c0.392-0.478,0.756-0.976,1.094-1.493c0.338-0.519,0.649-1.057,0.936-1.619
				c0.285-0.561,0.545-1.145,0.778-1.752s0.44-1.237,0.624-1.893c0.156-0.562,0.281-1.106,0.373-1.633
				c0.091-0.525,0.15-1.035,0.178-1.525c0.026-0.49,0.021-0.963-0.016-1.419c-0.037-0.455-0.105-0.892-0.205-1.312
				c-0.068-0.289-0.146-0.569-0.235-0.842c-0.089-0.27-0.187-0.533-0.295-0.787c-0.107-0.254-0.226-0.499-0.354-0.736
				C61.355,64.05,61.219,63.822,61.072,63.603z"/>
		</g>
		<g>
			<linearGradient id="SVGID_14_" gradientUnits="userSpaceOnUse" x1="48.6045" y1="30.2432" x2="42.0245" y2="93.0277">
				<stop  offset="0.0051" style="stop-color:#FADBF1"/>
				<stop  offset="0.4416" style="stop-color:#E033AD"/>
				<stop  offset="1" style="stop-color:#4C005E"/>
			</linearGradient>
			<path fill="url(#SVGID_14_)" d="M67.545,46.021l-2.912,10.277L45.02,56.125l-1.922,4.99c0.317-0.151,0.637-0.295,0.958-0.432
				s0.645-0.267,0.97-0.389c0.326-0.121,0.653-0.235,0.983-0.343c0.33-0.106,0.661-0.205,0.995-0.298
				c0.334-0.092,0.679-0.171,1.032-0.239s0.716-0.123,1.088-0.166c0.372-0.043,0.754-0.074,1.146-0.092
				c0.393-0.019,0.795-0.025,1.206-0.019c0.423,0.007,0.839,0.03,1.251,0.069c0.412,0.04,0.818,0.097,1.221,0.169
				s0.799,0.162,1.191,0.268c0.393,0.106,0.779,0.229,1.162,0.369c0.383,0.141,0.751,0.298,1.104,0.471
				c0.354,0.174,0.692,0.363,1.016,0.569c0.324,0.207,0.633,0.431,0.926,0.669c0.295,0.24,0.572,0.498,0.836,0.771
				c0.264,0.275,0.507,0.567,0.729,0.877c0.224,0.31,0.427,0.638,0.609,0.983c0.183,0.347,0.345,0.71,0.485,1.093
				c0.142,0.383,0.262,0.784,0.361,1.204s0.168,0.856,0.205,1.312c0.037,0.456,0.042,0.929,0.016,1.419
				c-0.027,0.49-0.087,1-0.178,1.525c-0.092,0.526-0.217,1.071-0.373,1.633c-0.184,0.655-0.391,1.285-0.624,1.893
				s-0.493,1.191-0.778,1.752c-0.286,0.563-0.598,1.101-0.936,1.619c-0.338,0.518-0.702,1.016-1.094,1.493
				c-0.393,0.478-0.803,0.936-1.232,1.372c-0.431,0.438-0.879,0.855-1.348,1.252c-0.467,0.396-0.954,0.771-1.459,1.126
				c-0.504,0.354-1.027,0.688-1.566,1.001c-0.541,0.312-1.096,0.602-1.664,0.869c-0.568,0.267-1.15,0.512-1.746,0.734
				c-0.594,0.221-1.202,0.42-1.823,0.597c-0.62,0.178-1.252,0.331-1.897,0.464c-0.644,0.131-1.292,0.239-1.945,0.323
				c-0.652,0.084-1.307,0.144-1.967,0.181c-0.658,0.036-1.319,0.049-1.985,0.039c-0.664-0.011-1.331-0.044-2.001-0.101
				c-1.017-0.086-1.978-0.21-2.885-0.369c-0.903-0.159-1.753-0.354-2.548-0.585c-0.792-0.229-1.531-0.495-2.219-0.798
				c-0.684-0.299-1.315-0.634-1.896-1.003c-0.579-0.367-1.127-0.76-1.647-1.177c-0.517-0.414-1.004-0.853-1.464-1.315
				c-0.458-0.462-0.886-0.945-1.286-1.454c-0.398-0.506-0.769-1.034-1.111-1.587l10.151-8.247c0.302,0.361,0.608,0.704,0.92,1.029
				c0.312,0.326,0.629,0.634,0.951,0.924c0.322,0.29,0.65,0.563,0.981,0.816c0.333,0.253,0.67,0.488,1.012,0.703
				c0.342,0.218,0.694,0.411,1.056,0.58c0.363,0.17,0.735,0.314,1.118,0.436c0.382,0.122,0.775,0.219,1.177,0.292
				c0.403,0.073,0.816,0.121,1.238,0.145c0.413,0.023,0.811,0.021,1.193-0.005c0.383-0.026,0.751-0.077,1.103-0.154
				c0.353-0.076,0.69-0.177,1.011-0.304c0.321-0.125,0.626-0.276,0.916-0.452c0.289-0.176,0.553-0.366,0.791-0.568
				c0.239-0.204,0.453-0.422,0.641-0.652c0.189-0.23,0.353-0.476,0.492-0.733c0.138-0.258,0.252-0.529,0.34-0.814
				c0.103-0.333,0.171-0.644,0.204-0.935c0.033-0.29,0.031-0.56-0.005-0.81s-0.106-0.482-0.209-0.697
				c-0.104-0.214-0.24-0.411-0.409-0.594c-0.168-0.182-0.361-0.344-0.579-0.483c-0.216-0.14-0.458-0.258-0.723-0.354
				c-0.265-0.098-0.553-0.174-0.867-0.229c-0.313-0.055-0.648-0.088-1.009-0.102c-0.312-0.012-0.618-0.008-0.921,0.01
				c-0.302,0.019-0.6,0.051-0.895,0.1c-0.293,0.046-0.583,0.107-0.868,0.185c-0.285,0.075-0.566,0.167-0.844,0.272
				c-0.276,0.105-0.557,0.22-0.84,0.344c-0.283,0.125-0.569,0.259-0.858,0.401c-0.289,0.144-0.581,0.295-0.876,0.458
				c-0.295,0.162-0.593,0.332-0.894,0.515l-6.494-4.235l7.835-19.264L67.545,46.021z"/>
		</g>
	</g>
</g>
</svg>
