<?xml version="1.0" encoding="utf-8"?>
<!-- Generator: Adobe Illustrator 15.0.0, SVG Export Plug-In . SVG Version: 6.00 Build 0)  -->
<!DOCTYPE svg PUBLIC "-//W3C//DTD SVG 1.1//EN" "http://www.w3.org/Graphics/SVG/1.1/DTD/svg11.dtd">
<svg version="1.1" id="图层_1" xmlns="http://www.w3.org/2000/svg" xmlns:xlink="http://www.w3.org/1999/xlink" x="0px" y="0px"
	 width="100px" height="100px" viewBox="0 0 100 100" enable-background="new 0 0 100 100" xml:space="preserve">
<g>
	<g>
		<linearGradient id="SVGID_1_" gradientUnits="userSpaceOnUse" x1="45.2563" y1="79.7568" x2="45.2563" y2="27.435">
			<stop  offset="0" style="stop-color:#1A87A0"/>
			<stop  offset="0.6091" style="stop-color:#69C8E2"/>
			<stop  offset="0.7767" style="stop-color:#D1EEF6"/>
			<stop  offset="0.8782" style="stop-color:#69C8E2"/>
			<stop  offset="1" style="stop-color:#1A87A0"/>
		</linearGradient>
		<path fill="url(#SVGID_1_)" d="M50.896,56.778c-0.998,0.075-1.983,0.826-2.33,1.749c-0.009,0.026-0.018,0.054-0.026,0.08
			c-1.622-0.599-2.317-2.342-2.124-3.972c0.225-1.894,1.501-3.624,2.534-5.157c0.99-1.471,1.94-2.884,2.419-4.607
			c0.514-1.841,0.701-3.785,0.635-5.692c-0.116-3.348-1.582-7.814-5.579-7.945c-1.129-0.038-2.438,0.423-3.18,1.299
			c-0.217,0.256-0.381,0.524-0.498,0.8c-2.115-0.268-4.587,0.201-4.214,2.734c0.014,0.094,0.542-0.015,0.523-0.141
			c-0.343-2.324,1.644-2.724,3.603-2.353c-0.362,1.119,0,2.34,0.708,3.382c0.835,1.231,2.649,1.643,3.576,0.258
			c1.014-1.513-1.196-2.968-2.334-3.422c-0.39-0.155-0.872-0.29-1.392-0.385c0.22-0.622,0.646-1.175,1.296-1.571
			c2.034-1.242,4.417,0.377,5.523,2.073c1.072,1.648,1.387,3.732,1.454,5.659c0.069,2.019-0.216,4.076-0.812,6.003
			c-0.523,1.69-1.667,3.135-2.635,4.588c-1.592,2.391-3.886,6.875-0.109,8.579c0.175,0.079,0.356,0.143,0.542,0.194
			c-0.043,0.452,0.066,0.976,0.31,1.374c-0.056,0.05-0.106,0.098-0.143,0.143c-1.335,1.572-1.367,4.28-1.157,6.208
			c0.326,2.972,1.711,5.72,2.525,8.569c0.33,1.149,0.539,2.343,0.666,3.53c0.103,0.952,0.098,2.133-0.778,2.731
			c-0.474,0.324-1.933,0.382-2.364-0.216c-0.203-0.282-0.009-0.717,0.104-0.991c0.271-0.664,0.682-1.274,0.716-2.011
			c0.003-0.065-0.516-0.007-0.523,0.139c-0.031,0.662-0.378,1.246-0.65,1.834c-0.156,0.337-0.434,0.946-0.096,1.271
			c0.751,0.72,2.626,0.502,3.385-0.141c1.103-0.933,0.773-2.614,0.577-3.866c-0.378-2.414-1.257-4.661-2.042-6.962
			c-0.76-2.229-1.256-4.49-0.997-6.852c0.094-0.869,0.265-1.728,0.621-2.53c0.095-0.213,0.215-0.412,0.355-0.593
			c0.24,0.254,0.558,0.4,0.945,0.346c0.333-0.048,1.707-0.646,1.213-1.181c-0.407-0.44-1.289-0.136-1.913,0.247
			c-0.148-0.312-0.223-0.632-0.223-0.946c0.752,0.089,1.526-0.059,2.141-0.514C51.918,57.954,52.065,56.688,50.896,56.778z
			 M45.64,34.823c0.634,0.517,1.113,1.343,0.924,2.171c-0.167,0.732-0.977,1.027-1.654,0.765c-0.6-0.233-0.983-0.86-1.305-1.381
			c-0.526-0.854-0.689-1.827-0.473-2.697C44.136,33.935,45.082,34.368,45.64,34.823z M50.652,60.2
			c-0.252,0.791-0.96,0.472-1.303-0.019c0.021-0.021,0.039-0.041,0.062-0.061C49.533,60.016,50.898,59.431,50.652,60.2z
			 M50.9,58.344c-0.418,0.604-1.209,0.578-1.871,0.416c0.055-0.395,0.228-0.772,0.515-1.1c0.333-0.379,1.508-1.166,1.7-0.302
			C51.318,57.691,51.078,58.086,50.9,58.344z"/>
		<g>
			<linearGradient id="SVGID_2_" gradientUnits="userSpaceOnUse" x1="46.561" y1="32.9014" x2="46.561" y2="32.2395">
				<stop  offset="0" style="stop-color:#69C8E2"/>
				<stop  offset="1" style="stop-color:#1A87A0"/>
			</linearGradient>
			<path fill="url(#SVGID_2_)" d="M46.363,32.013c0,0-0.464,0.419-0.464,0.861c0,0,0.618,0.375,1.324-0.155
				C47.223,32.719,47.135,32.233,46.363,32.013z"/>
			<g>
				<linearGradient id="SVGID_3_" gradientUnits="userSpaceOnUse" x1="46.5024" y1="33.457" x2="46.5024" y2="19.2635">
					<stop  offset="0" style="stop-color:#69C8E2"/>
					<stop  offset="0.2132" style="stop-color:#58BAD4"/>
					<stop  offset="1" style="stop-color:#1A87A0"/>
				</linearGradient>
				<path fill="url(#SVGID_3_)" d="M54.623,12.987c-1.461-3.013-4.549-5.09-8.121-5.09c-3.573,0-6.661,2.078-8.121,5.09l0,0
					c0,0-6.223,10.616,8.121,18.636C60.846,23.604,54.623,12.987,54.623,12.987z"/>
			</g>
			<linearGradient id="SVGID_4_" gradientUnits="userSpaceOnUse" x1="46.5015" y1="32.1338" x2="46.5015" y2="31.6078">
				<stop  offset="0" style="stop-color:#69C8E2"/>
				<stop  offset="1" style="stop-color:#1A87A0"/>
			</linearGradient>
			<ellipse fill="url(#SVGID_4_)" cx="46.501" cy="31.743" rx="0.441" ry="0.406"/>
			<linearGradient id="SVGID_5_" gradientUnits="userSpaceOnUse" x1="48.1997" y1="25.999" x2="48.1997" y2="10.2421">
				<stop  offset="0" style="stop-color:#69C8E2"/>
				<stop  offset="1" style="stop-color:#1A87A0"/>
			</linearGradient>
			<path fill="url(#SVGID_5_)" d="M40.521,17.358c0,5.164,3.542,9.349,7.911,9.349c3.041,0,5.677-2.026,7.001-4.998
				c1.379-4.847-0.896-8.735-0.896-8.735c-1.24-2.557-3.651-4.438-6.536-4.951C43.833,8.287,40.521,12.365,40.521,17.358z"/>
			<linearGradient id="SVGID_6_" gradientUnits="userSpaceOnUse" x1="46.6235" y1="9.8726" x2="46.6235" y2="22.1846">
				<stop  offset="0" style="stop-color:#EDF8FC"/>
				<stop  offset="0.4564" style="stop-color:#69C8E2"/>
				<stop  offset="1" style="stop-color:#47ACC6"/>
			</linearGradient>
			<ellipse fill="url(#SVGID_6_)" cx="46.624" cy="14.629" rx="5.471" ry="5.652"/>
		</g>
	</g>
	<g>
		<linearGradient id="SVGID_7_" gradientUnits="userSpaceOnUse" x1="58.8213" y1="84.0068" x2="48.243" y2="51.24">
			<stop  offset="0.0051" style="stop-color:#69C8E2"/>
			<stop  offset="1" style="stop-color:#1A87A0"/>
		</linearGradient>
		<path fill="url(#SVGID_7_)" d="M42.731,63.756c1.571-2.255,3.142-4.509,4.712-6.764c0.211-0.302,0.459-0.566,0.746-0.791
			c0.286-0.224,0.61-0.41,0.972-0.56c0.361-0.147,0.759-0.256,1.195-0.328c0.435-0.069,0.907-0.104,1.418-0.098
			c0.364,0.003,0.725,0.021,1.082,0.056c0.355,0.035,0.708,0.084,1.057,0.149c0.349,0.064,0.693,0.146,1.035,0.241
			s0.68,0.207,1.014,0.334c0.334,0.125,0.668,0.261,1.002,0.405c0.333,0.143,0.666,0.296,0.999,0.456
			c0.333,0.161,0.665,0.331,0.997,0.51s0.664,0.366,0.995,0.562l-5.134,6.604c-0.318-0.187-0.638-0.366-0.957-0.536
			c-0.319-0.171-0.639-0.332-0.959-0.485s-0.642-0.298-0.963-0.435c-0.32-0.137-0.642-0.264-0.963-0.383
			C50.656,62.574,50.33,62.469,50,62.38c-0.329-0.09-0.663-0.165-0.999-0.224c-0.336-0.061-0.677-0.105-1.021-0.134
			c-0.345-0.029-0.693-0.044-1.045-0.043c-0.493,0-0.95,0.037-1.371,0.111c-0.422,0.073-0.809,0.185-1.159,0.333
			c-0.351,0.147-0.666,0.332-0.944,0.555C43.181,63.2,42.938,63.46,42.731,63.756z"/>
		<linearGradient id="SVGID_8_" gradientUnits="userSpaceOnUse" x1="55.6494" y1="101.9473" x2="49.9728" y2="69.6939">
			<stop  offset="0.0051" style="stop-color:#69C8E2"/>
			<stop  offset="1" style="stop-color:#1A87A0"/>
		</linearGradient>
		<path fill="url(#SVGID_8_)" d="M57.344,72.736c-0.018-0.282-0.063-0.572-0.135-0.873l-0.027-0.114
			c-0.069-0.3-0.164-0.588-0.278-0.867c-0.116-0.276-0.254-0.544-0.414-0.798c-0.16-0.256-0.343-0.5-0.548-0.733
			c-0.204-0.233-0.432-0.456-0.682-0.667c-0.25-0.212-0.51-0.396-0.781-0.554c-0.271-0.158-0.552-0.289-0.844-0.393
			s-0.596-0.182-0.909-0.231s-0.639-0.073-0.976-0.07c-0.32,0.003-0.619,0.031-0.898,0.082c-0.278,0.052-0.535,0.127-0.771,0.226
			s-0.449,0.222-0.642,0.368c-0.191,0.148-0.362,0.319-0.51,0.514l-4.879,6.423c0.146-0.19,0.312-0.359,0.499-0.504
			c0.187-0.145,0.395-0.267,0.623-0.365c0.229-0.099,0.477-0.175,0.746-0.227s0.559-0.081,0.869-0.089
			c0.325-0.006,0.639,0.013,0.941,0.058c0.303,0.047,0.595,0.117,0.875,0.217c0.281,0.098,0.551,0.222,0.812,0.372
			c0.259,0.15,0.509,0.327,0.748,0.529c0.239,0.203,0.457,0.418,0.652,0.642c0.195,0.226,0.37,0.461,0.522,0.707
			c0.15,0.247,0.281,0.504,0.391,0.772c0.108,0.269,0.195,0.548,0.261,0.839l0.024,0.11c0.065,0.29,0.105,0.572,0.121,0.846
			c0.014,0.273,0.004,0.537-0.031,0.792c-0.037,0.255-0.098,0.5-0.184,0.737c-0.088,0.235-0.2,0.463-0.338,0.68
			c-0.018,0.029-0.037,0.057-0.055,0.084c-0.019,0.027-0.039,0.055-0.058,0.081s-0.039,0.053-0.06,0.078s-0.041,0.052-0.062,0.076
			c1.736-2.05,3.474-4.1,5.21-6.15c0.021-0.026,0.043-0.052,0.064-0.077c0.021-0.026,0.04-0.053,0.061-0.08
			c0.02-0.027,0.039-0.055,0.059-0.082c0.019-0.028,0.037-0.058,0.056-0.087c0.14-0.222,0.254-0.455,0.341-0.698
			c0.088-0.242,0.148-0.494,0.183-0.757C57.354,73.289,57.363,73.018,57.344,72.736z"/>
		<linearGradient id="SVGID_9_" gradientUnits="userSpaceOnUse" x1="44.0049" y1="48.0029" x2="48.907" y2="82.5762">
			<stop  offset="0" style="stop-color:#69C8E2"/>
			<stop  offset="1" style="stop-color:#1A87A0"/>
		</linearGradient>
		<path fill="url(#SVGID_9_)" d="M66.286,82.992c-0.321,0.266-0.662,0.518-1.019,0.753c-0.357,0.235-0.733,0.456-1.127,0.66
			c-0.395,0.205-0.805,0.394-1.234,0.567c-0.465,0.188-0.943,0.354-1.433,0.501c-0.491,0.148-0.996,0.274-1.513,0.382
			c-0.518,0.106-1.048,0.192-1.592,0.259c-0.544,0.065-1.101,0.11-1.67,0.134c-0.787,0.033-1.551,0.038-2.288,0.012
			c-0.738-0.025-1.45-0.08-2.14-0.165c-0.688-0.084-1.35-0.199-1.985-0.344c-0.637-0.145-1.247-0.319-1.829-0.523
			c-0.583-0.204-1.154-0.431-1.711-0.678c-0.557-0.248-1.103-0.519-1.634-0.81c-0.532-0.29-1.051-0.603-1.557-0.938
			c-0.506-0.334-0.998-0.689-1.477-1.065c-0.49-0.387-0.967-0.801-1.43-1.245c-0.462-0.443-0.909-0.915-1.343-1.415
			c-0.433-0.5-0.852-1.027-1.255-1.583c-0.403-0.556-0.792-1.139-1.166-1.749s-0.723-1.258-1.047-1.944
			c-0.324-0.685-0.624-1.407-0.899-2.169c-0.274-0.758-0.525-1.553-0.751-2.385c-0.225-0.829-0.425-1.695-0.602-2.597
			c-0.16-0.81-0.287-1.599-0.383-2.367c-0.096-0.766-0.16-1.51-0.194-2.235c-0.034-0.724-0.037-1.427-0.011-2.113
			c0.027-0.686,0.083-1.354,0.169-2.005c0.074-0.564,0.171-1.11,0.291-1.639c0.119-0.526,0.261-1.035,0.425-1.526
			c0.164-0.489,0.35-0.961,0.559-1.415c0.208-0.453,0.438-0.89,0.69-1.306c-1.414,2.343-2.829,4.688-4.242,7.032
			c-0.247,0.408-0.473,0.835-0.677,1.277c-0.206,0.445-0.389,0.905-0.552,1.384c-0.163,0.479-0.304,0.976-0.424,1.488
			c-0.12,0.515-0.218,1.046-0.295,1.595c-0.088,0.635-0.148,1.284-0.181,1.949c-0.031,0.669-0.034,1.352-0.008,2.055
			c0.027,0.703,0.082,1.426,0.168,2.168c0.086,0.743,0.202,1.508,0.348,2.294c0.163,0.872,0.348,1.709,0.558,2.513
			c0.21,0.804,0.444,1.571,0.702,2.306c0.258,0.733,0.541,1.432,0.847,2.092c0.307,0.662,0.637,1.287,0.992,1.874
			c0.354,0.589,0.723,1.148,1.106,1.684c0.384,0.534,0.783,1.042,1.195,1.522c0.413,0.479,0.84,0.933,1.28,1.357
			c0.442,0.426,0.897,0.822,1.366,1.191c0.458,0.361,0.928,0.701,1.413,1.021c0.483,0.318,0.98,0.615,1.491,0.893
			c0.509,0.277,1.032,0.533,1.567,0.768c0.534,0.235,1.082,0.449,1.642,0.643c0.56,0.191,1.145,0.354,1.757,0.489
			s1.249,0.239,1.912,0.315c0.662,0.075,1.35,0.123,2.063,0.142c0.71,0.018,1.446,0.008,2.205-0.032
			c0.551-0.027,1.089-0.076,1.615-0.145c0.524-0.068,1.037-0.157,1.537-0.266c0.502-0.107,0.989-0.234,1.465-0.382
			c0.477-0.147,0.938-0.313,1.39-0.499c0.417-0.171,0.816-0.358,1.2-0.561c0.381-0.201,0.746-0.419,1.096-0.65
			c0.347-0.23,0.678-0.478,0.992-0.739c0.313-0.261,0.61-0.537,0.891-0.826c1.883-1.949,3.764-3.898,5.646-5.848
			C66.911,82.446,66.607,82.727,66.286,82.992z"/>
		<g>
			<linearGradient id="SVGID_10_" gradientUnits="userSpaceOnUse" x1="47.0859" y1="35.4878" x2="57.1484" y2="109.7955">
				<stop  offset="0" style="stop-color:#FFFFFF"/>
				<stop  offset="0.4564" style="stop-color:#69C8E2"/>
				<stop  offset="1" style="stop-color:#1A87A0"/>
			</linearGradient>
			<path fill="url(#SVGID_10_)" d="M70.057,74.141c-0.028-0.525-0.088-1.07-0.18-1.635s-0.217-1.148-0.373-1.754
				c-0.12-0.468-0.259-0.92-0.414-1.358c-0.156-0.438-0.328-0.863-0.518-1.273c-0.191-0.409-0.398-0.805-0.623-1.188
				c-0.225-0.382-0.466-0.75-0.726-1.105c-0.259-0.354-0.528-0.694-0.808-1.021c-0.279-0.325-0.568-0.638-0.867-0.936
				s-0.607-0.58-0.927-0.849c-0.317-0.27-0.647-0.524-0.985-0.766c-0.34-0.24-0.685-0.469-1.035-0.681
				c-0.353-0.214-0.711-0.412-1.074-0.598c-0.365-0.186-0.736-0.356-1.113-0.515c-0.377-0.157-0.762-0.302-1.152-0.432
				c-0.391-0.131-0.779-0.244-1.165-0.342c-0.388-0.098-0.771-0.18-1.151-0.245c-0.384-0.066-0.764-0.116-1.141-0.148
				c-0.377-0.034-0.753-0.052-1.126-0.054c-0.495,0-0.968,0.019-1.42,0.058c-0.451,0.039-0.882,0.099-1.288,0.179
				c-0.408,0.08-0.794,0.181-1.157,0.302c-0.364,0.121-0.707,0.264-1.025,0.427c-0.32,0.162-0.629,0.336-0.928,0.518
				c-0.299,0.183-0.587,0.374-0.867,0.575c-0.279,0.201-0.547,0.413-0.805,0.634s-0.505,0.452-0.742,0.692
				c-0.061-0.58-0.087-1.129-0.081-1.648c0.008-0.517,0.048-1.002,0.123-1.458c0.074-0.455,0.182-0.879,0.323-1.271
				s0.314-0.755,0.521-1.087c0.206-0.331,0.453-0.619,0.742-0.866c0.288-0.245,0.619-0.449,0.989-0.611
				c0.37-0.162,0.781-0.282,1.234-0.359c0.451-0.078,0.943-0.114,1.477-0.108c0.364,0.003,0.725,0.021,1.082,0.056
				c0.355,0.035,0.708,0.084,1.057,0.149c0.349,0.064,0.693,0.146,1.035,0.241s0.68,0.207,1.014,0.334
				c0.334,0.125,0.668,0.261,1.002,0.405c0.333,0.143,0.666,0.296,0.999,0.456c0.333,0.161,0.665,0.331,0.997,0.51
				s0.664,0.366,0.995,0.562l3.439-7.953c-0.563-0.332-1.126-0.645-1.69-0.937c-0.563-0.293-1.129-0.566-1.695-0.819
				s-1.133-0.487-1.701-0.7c-0.57-0.214-1.141-0.408-1.713-0.581c-0.572-0.175-1.158-0.329-1.758-0.464
				c-0.602-0.135-1.217-0.251-1.848-0.346c-0.63-0.098-1.275-0.174-1.936-0.231c-0.661-0.057-1.338-0.094-2.03-0.111
				c-0.795-0.021-1.56-0.009-2.295,0.037c-0.737,0.044-1.443,0.122-2.12,0.231c-0.678,0.11-1.325,0.254-1.942,0.43
				c-0.618,0.177-1.206,0.387-1.763,0.63c-0.559,0.246-1.088,0.515-1.587,0.811c-0.5,0.296-0.971,0.618-1.411,0.965
				c-0.441,0.35-0.853,0.724-1.233,1.125c-0.381,0.401-0.733,0.83-1.053,1.284c-0.321,0.458-0.612,0.937-0.875,1.439
				c-0.263,0.504-0.497,1.031-0.702,1.583c-0.205,0.553-0.38,1.129-0.525,1.729c-0.146,0.602-0.262,1.228-0.347,1.878
				c-0.086,0.651-0.143,1.319-0.169,2.005c-0.026,0.687-0.023,1.39,0.011,2.113c0.034,0.726,0.098,1.47,0.194,2.235
				c0.096,0.769,0.223,1.558,0.383,2.367c0.176,0.901,0.377,1.768,0.602,2.597c0.226,0.832,0.477,1.627,0.751,2.385
				c0.275,0.762,0.575,1.484,0.899,2.169c0.325,0.687,0.674,1.334,1.047,1.944s0.763,1.193,1.166,1.749
				c0.404,0.556,0.822,1.083,1.255,1.583c0.434,0.5,0.881,0.972,1.343,1.415c0.462,0.444,0.939,0.858,1.43,1.245
				c0.479,0.376,0.971,0.731,1.477,1.065c0.505,0.335,1.024,0.647,1.557,0.938c0.531,0.291,1.077,0.562,1.634,0.81
				c0.558,0.247,1.128,0.474,1.711,0.678c0.582,0.204,1.191,0.379,1.829,0.523c0.635,0.145,1.298,0.26,1.985,0.344
				c0.689,0.085,1.401,0.14,2.14,0.165c0.737,0.026,1.501,0.021,2.288-0.012c0.569-0.023,1.126-0.068,1.67-0.134
				c0.544-0.066,1.074-0.152,1.592-0.259c0.517-0.107,1.021-0.233,1.513-0.382c0.489-0.146,0.968-0.313,1.433-0.501
				c0.463-0.188,0.906-0.393,1.329-0.617c0.421-0.222,0.821-0.464,1.201-0.724s0.738-0.537,1.077-0.833
				c0.338-0.295,0.655-0.606,0.952-0.938c0.296-0.33,0.567-0.678,0.814-1.043c0.247-0.362,0.469-0.743,0.666-1.141
				c0.196-0.396,0.37-0.81,0.519-1.239c0.148-0.429,0.273-0.875,0.374-1.337c0.101-0.461,0.168-0.938,0.204-1.431
				C70.079,75.179,70.084,74.669,70.057,74.141z M57.321,73.552c-0.034,0.263-0.095,0.515-0.183,0.757
				c-0.087,0.243-0.201,0.477-0.341,0.698c-0.142,0.224-0.307,0.422-0.497,0.593c-0.19,0.17-0.405,0.313-0.646,0.431
				s-0.505,0.207-0.795,0.27s-0.605,0.1-0.944,0.108c-0.342,0.009-0.671-0.012-0.99-0.06c-0.32-0.049-0.63-0.126-0.93-0.233
				c-0.299-0.106-0.587-0.241-0.864-0.405c-0.278-0.164-0.545-0.356-0.802-0.578c-0.256-0.222-0.488-0.454-0.697-0.696
				c-0.209-0.242-0.395-0.496-0.558-0.761c-0.162-0.263-0.3-0.537-0.415-0.822c-0.114-0.284-0.206-0.58-0.272-0.886l-0.026-0.113
				c-0.067-0.306-0.107-0.599-0.12-0.882c-0.014-0.282,0-0.553,0.041-0.813c0.04-0.26,0.108-0.509,0.203-0.745
				s0.214-0.462,0.362-0.676c0.147-0.215,0.318-0.401,0.513-0.563c0.195-0.16,0.413-0.295,0.655-0.404
				c0.242-0.107,0.508-0.189,0.798-0.245c0.288-0.056,0.6-0.086,0.936-0.09c0.337-0.003,0.662,0.021,0.976,0.07
				s0.617,0.128,0.909,0.231s0.572,0.234,0.844,0.393c0.271,0.157,0.531,0.342,0.781,0.554c0.25,0.211,0.478,0.434,0.682,0.667
				c0.205,0.233,0.388,0.478,0.548,0.733c0.16,0.254,0.298,0.521,0.414,0.798c0.114,0.279,0.209,0.567,0.278,0.867l0.027,0.114
				c0.071,0.301,0.117,0.591,0.135,0.873C57.363,73.018,57.354,73.289,57.321,73.552z"/>
		</g>
	</g>
</g>
</svg>
