<?xml version="1.0" encoding="utf-8"?>
<!-- Generator: Adobe Illustrator 15.0.0, SVG Export Plug-In . SVG Version: 6.00 Build 0)  -->
<!DOCTYPE svg PUBLIC "-//W3C//DTD SVG 1.1//EN" "http://www.w3.org/Graphics/SVG/1.1/DTD/svg11.dtd">
<svg version="1.1" id="图层_1" xmlns="http://www.w3.org/2000/svg" xmlns:xlink="http://www.w3.org/1999/xlink" x="0px" y="0px"
	 width="100px" height="100px" viewBox="0 0 100 100" enable-background="new 0 0 100 100" xml:space="preserve">
<g>
	<g>
		
			<linearGradient id="SVGID_1_" gradientUnits="userSpaceOnUse" x1="1175.709" y1="85.5615" x2="1175.709" y2="29.5385" gradientTransform="matrix(-1 0 0 1 1227.3242 0)">
			<stop  offset="0.0051" style="stop-color:#E28100"/>
			<stop  offset="0.335" style="stop-color:#E28100"/>
			<stop  offset="0.7005" style="stop-color:#FFE66D"/>
			<stop  offset="0.7767" style="stop-color:#FFD400"/>
			<stop  offset="1" style="stop-color:#E28100"/>
		</linearGradient>
		<path fill="url(#SVGID_1_)" d="M50.608,56.681c0.119,0.948-0.106,1.851-0.557,2.69c-0.221,0.409-0.523,0.931-0.911,1.305
			c-0.524-0.939-1.292-1.364-2.402-0.799c-0.017,0.011-0.022,0.027-0.012,0.046c0.209,0.516,0.459,0.993,0.953,1.279
			c0.43,0.247,0.855,0.238,1.245,0.083c0.019,0.054,0.037,0.106,0.054,0.161c0.677,2.146,0.727,4.52,0.701,6.755
			c-0.035,2.842-0.868,5.53-1.806,8.188c-0.598,1.694-2.459,4.292-1.314,6.087c0.744,1.169,2.069,2.029,3.486,1.949
			c1.109-0.062,2.386-1.257,2.082-2.428c-0.229-0.88-0.996-1.66-1.882-1.896c-0.943-0.252-1.468,0.203-1.41,1.188
			c0.009,0.164,0.531,0.229,0.527,0.143c-0.029-0.497,0.12-1.449,0.87-1.145c0.539,0.221,1.036,0.714,1.254,1.255
			c0.213,0.527,0.227,1.134-0.131,1.609c-0.816,1.082-2.187,1.353-3.298,0.479c-0.889-0.697-1.477-1.627-1.261-2.798
			c0.21-1.136,0.76-2.124,1.19-3.181c0.978-2.397,1.858-5.028,2.122-7.612c0.135-1.316,0.331-6.441-0.777-8.979
			c0.33-0.229,0.619-0.547,0.838-0.87c1.089-1.608,1.241-3.248,0.516-5.055c-0.919-2.289-2.373-4.288-3.18-6.637
			c-0.875-2.543-1.41-5.26-1.173-7.959c0.23-2.646,1.178-4.884,2.37-7.223c0.469-0.919,1.065-2.005,2.066-2.435
			c1.421-0.609,3.129,0.2,3.898,1.501c0.241,0.409,0.392,0.969,0.357,1.495c-0.235-0.075-0.471-0.113-0.693-0.1
			c-0.567,0.035-1.91,0.484-1.335,1.275c0.296,0.408,1.063,0.595,1.526,0.414c0.567-0.223,0.871-0.644,0.98-1.134
			c0.744,0.47,1.197,1.422,0.836,2.048c-0.385-0.059-0.736,0.082-0.888,0.573c-0.044,0.14,0.403,0.193,0.479,0.176
			c0.337-0.075,0.585-0.194,0.759-0.339c0.079,0.07,0.143,0.178,0.173,0.329c0.089,0.444,0.066,0.87-0.062,1.302
			c-0.182,0.603-0.434,1.177-0.646,1.769c-0.041,0.114,0.48,0.273,0.527,0.141c0.325-0.912,1.495-3.026,0.226-3.745
			c-0.007-0.004-0.017-0.009-0.025-0.012c0.471-0.734-0.339-1.898-1.342-2.467c0.082-0.792-0.283-1.702-0.834-2.238
			c-1.119-1.089-2.645-1.789-4.195-1.273c-0.811,0.27-1.432,1.002-1.858,1.712c-0.569,0.951-1.104,1.983-1.55,2.997
			c-1.041,2.37-1.505,4.957-1.305,7.544c0.194,2.517,0.837,5.035,1.884,7.334C48.644,52.307,50.313,54.309,50.608,56.681z
			 M54.992,34.109c-0.071,0.389-0.258,0.744-0.604,0.983c-0.612,0.421-1.45-0.222-0.759-0.718
			C54.087,34.045,54.563,33.994,54.992,34.109z M48.792,60.95c-0.111,0.068-0.227,0.125-0.351,0.161
			c-0.417,0.125-0.689-0.108-0.888-0.458c-0.04-0.067-0.375-0.579-0.206-0.653c0.316-0.137,0.63-0.188,0.894,0.086
			C48.481,60.332,48.657,60.634,48.792,60.95z"/>
		<linearGradient id="SVGID_2_" gradientUnits="userSpaceOnUse" x1="51.8174" y1="31.9849" x2="51.8174" y2="31.3178">
			<stop  offset="0" style="stop-color:#FFE66D"/>
			<stop  offset="0.302" style="stop-color:#FFD400"/>
			<stop  offset="1" style="stop-color:#E28100"/>
		</linearGradient>
		<path fill="url(#SVGID_2_)" d="M51.616,31.09c0,0-0.466,0.423-0.466,0.867c0,0,0.623,0.378,1.334-0.155
			C52.484,31.802,52.396,31.312,51.616,31.09z"/>
		<g>
			<linearGradient id="SVGID_3_" gradientUnits="userSpaceOnUse" x1="51.7559" y1="32.5454" x2="51.7559" y2="18.2365">
				<stop  offset="0" style="stop-color:#FFE66D"/>
				<stop  offset="0.302" style="stop-color:#FFD400"/>
				<stop  offset="1" style="stop-color:#E28100"/>
			</linearGradient>
			<path fill="url(#SVGID_3_)" d="M59.944,11.91c-1.474-3.038-4.585-5.132-8.188-5.132c-3.601,0-6.714,2.094-8.186,5.132l0,0
				c0,0-6.274,10.701,8.186,18.787C66.217,22.611,59.944,11.91,59.944,11.91z"/>
		</g>
		<linearGradient id="SVGID_4_" gradientUnits="userSpaceOnUse" x1="51.7568" y1="31.2119" x2="51.7568" y2="30.6818">
			<stop  offset="0" style="stop-color:#FFE66D"/>
			<stop  offset="0.302" style="stop-color:#FFD400"/>
			<stop  offset="1" style="stop-color:#E28100"/>
		</linearGradient>
		<ellipse fill="url(#SVGID_4_)" cx="51.757" cy="30.817" rx="0.444" ry="0.41"/>
		<linearGradient id="SVGID_5_" gradientUnits="userSpaceOnUse" x1="53.4688" y1="25.0273" x2="53.4688" y2="9.1416">
			<stop  offset="0" style="stop-color:#FFE66D"/>
			<stop  offset="0.302" style="stop-color:#FFD400"/>
			<stop  offset="1" style="stop-color:#E28100"/>
		</linearGradient>
		<path fill="url(#SVGID_5_)" d="M45.728,16.315c0,5.206,3.571,9.426,7.976,9.426c3.064,0,5.725-2.044,7.059-5.04
			c1.392-4.887-0.904-8.807-0.904-8.807c-1.25-2.577-3.68-4.474-6.588-4.991C49.065,7.171,45.728,11.281,45.728,16.315z"/>
		<linearGradient id="SVGID_6_" gradientUnits="userSpaceOnUse" x1="51.8809" y1="10.5972" x2="51.8809" y2="29.696">
			<stop  offset="0" style="stop-color:#FFFAE2"/>
			<stop  offset="0.4872" style="stop-color:#FFD400"/>
			<stop  offset="1" style="stop-color:#F1AC00"/>
		</linearGradient>
		<ellipse fill="url(#SVGID_6_)" cx="51.88" cy="13.564" rx="5.516" ry="5.699"/>
	</g>
	<g>
		<linearGradient id="SVGID_7_" gradientUnits="userSpaceOnUse" x1="62.7285" y1="93.6172" x2="43.1128" y2="59.8346">
			<stop  offset="0" style="stop-color:#FFD400"/>
			<stop  offset="1" style="stop-color:#E28100"/>
		</linearGradient>
		<polygon fill="url(#SVGID_7_)" points="49.791,57.139 55.291,64.863 38.262,64.37 32.177,56.946 		"/>
		<linearGradient id="SVGID_8_" gradientUnits="userSpaceOnUse" x1="65.2949" y1="55.4785" x2="72.7207" y2="55.4785">
			<stop  offset="0" style="stop-color:#FFD400"/>
			<stop  offset="1" style="stop-color:#E28100"/>
		</linearGradient>
		<polygon fill="url(#SVGID_8_)" points="68.041,46.604 72.721,54.918 70.209,64.354 65.295,56.34 		"/>
		<linearGradient id="SVGID_9_" gradientUnits="userSpaceOnUse" x1="22.9609" y1="89.2764" x2="43.9092" y2="89.2764">
			<stop  offset="0" style="stop-color:#FFD400"/>
			<stop  offset="1" style="stop-color:#E28100"/>
		</linearGradient>
		<polygon fill="url(#SVGID_9_)" points="37.479,86.543 43.909,93.222 29.879,91.842 22.961,85.331 		"/>
		<linearGradient id="SVGID_10_" gradientUnits="userSpaceOnUse" x1="37.4795" y1="74.7813" x2="70.209" y2="74.7813">
			<stop  offset="0" style="stop-color:#FFD400"/>
			<stop  offset="1" style="stop-color:#E28100"/>
		</linearGradient>
		<polygon fill="url(#SVGID_10_)" points="65.295,56.34 70.209,64.354 43.909,93.222 37.479,86.543 		"/>
		<linearGradient id="SVGID_11_" gradientUnits="userSpaceOnUse" x1="50.8467" y1="39.978" x2="40.3123" y2="91.1965">
			<stop  offset="0" style="stop-color:#FFFFFF"/>
			<stop  offset="0.4822" style="stop-color:#FFD400"/>
			<stop  offset="1" style="stop-color:#E28100"/>
		</linearGradient>
		<polygon fill="url(#SVGID_11_)" points="68.041,46.604 65.295,56.34 37.479,86.543 22.961,85.331 49.791,57.139 32.177,56.946 
			35.708,47.045 		"/>
	</g>
</g>
</svg>
