<?xml version="1.0" encoding="utf-8"?>
<!-- Generator: Adobe Illustrator 15.0.0, SVG Export Plug-In . SVG Version: 6.00 Build 0)  -->
<!DOCTYPE svg PUBLIC "-//W3C//DTD SVG 1.1//EN" "http://www.w3.org/Graphics/SVG/1.1/DTD/svg11.dtd">
<svg version="1.1" id="图层_1" xmlns="http://www.w3.org/2000/svg" xmlns:xlink="http://www.w3.org/1999/xlink" x="0px" y="0px"
	 width="100px" height="100px" viewBox="0 0 100 100" enable-background="new 0 0 100 100" xml:space="preserve">
<g>
	<g>
		<linearGradient id="SVGID_1_" gradientUnits="userSpaceOnUse" x1="45.3589" y1="82.7734" x2="45.3589" y2="29.7994">
			<stop  offset="0" style="stop-color:#517F00"/>
			<stop  offset="0.6447" style="stop-color:#ABF900"/>
			<stop  offset="1" style="stop-color:#517F00"/>
		</linearGradient>
		<path fill="url(#SVGID_1_)" d="M39.435,39.511c0.079-0.739,0.487-1.153,1.026-1.344c0.001,0.068,0.001,0.136,0.004,0.206
			c0.061,1.371,0.638,2.636,1.838,3.355c0.769,0.461,1.822,0.495,2.299-0.372c0.359-0.653,0.183-1.662-0.169-2.275
			c-0.412-0.716-1.281-1.12-2.045-1.314c-0.445-0.112-0.93-0.147-1.394-0.09c0.011-0.197,0.031-0.392,0.061-0.581
			c0.052-0.327,0.21-0.779,0.449-1.186c0.118,0.207,0.264,0.401,0.449,0.574c0.734,0.685,1.717,0.42,1.957-0.543
			c0.267-1.067-0.663-1.571-1.565-1.212c-0.228,0.091-0.429,0.208-0.61,0.341c-0.072-0.562,0.045-1.182,0.166-1.722
			c0.284-1.277,1.255-2.229,2.372-2.839c2.554-1.396,4.342,0.791,5.376,2.907c2.061,4.218,2.006,9.222,0.764,13.669
			c-0.403,1.446-1.183,2.716-1.935,4.002c-0.88,1.503-1.761,3.012-2.455,4.611c-0.962,2.221-1.585,5.386,0.752,6.845
			c-0.344,0.626-0.539,1.316-0.461,1.996c0.001,0.009,0.004,0.019,0.005,0.028c0.18-0.036,0.359-0.073,0.54-0.104
			c-0.04-0.229-0.051-0.464-0.026-0.696c0.037-0.352,0.167-0.688,0.345-1.007c0.041,0.021,0.082,0.041,0.124,0.06
			c0.755,0.332,1.584,0.317,2.171-0.314c0.402-0.436,0.564-1.163,0.297-1.698c-0.325-0.651-1.202-0.211-1.59,0.092
			c-0.433,0.339-0.85,0.782-1.181,1.279c-0.807-0.63-1.303-1.75-1.358-2.688c-0.096-1.622,0.625-3.254,1.311-4.682
			c1.383-2.882,3.405-5.402,4.191-8.542c1.095-4.374,0.908-9.131-1.087-13.215c-0.736-1.504-1.842-3.036-3.572-3.394
			c-1.617-0.336-3.486,1.008-4.407,2.192c-0.747,0.962-1.165,2.437-0.772,3.613c-0.541,0.62-0.789,1.461-0.836,2.322
			c-0.804,0.238-1.454,0.799-1.558,1.766C38.882,39.815,39.41,39.743,39.435,39.511z M48.244,61.392
			c0.226-0.239,0.774-0.809,1.052-0.357c0.418,0.675-0.313,1.666-1.024,1.634c-0.319-0.015-0.614-0.104-0.884-0.243
			C47.646,62.047,47.958,61.698,48.244,61.392z M43.068,34.984c0.622,0.18,0.441,1.851-0.417,1.419
			c-0.451-0.227-0.702-0.559-0.83-0.941C42.157,35.083,42.582,34.843,43.068,34.984z M43.242,38.594
			c0.726,0.452,0.988,1.144,1.007,1.968c0.022,1.043-0.702,1.315-1.548,0.866c-1.227-0.65-1.702-2.042-1.714-3.377
			C41.754,37.975,42.642,38.22,43.242,38.594z"/>
		<g>
			
				<linearGradient id="SVGID_2_" gradientUnits="userSpaceOnUse" x1="1442.7715" y1="31.5098" x2="1442.7715" y2="30.8557" gradientTransform="matrix(-1 0 0 1 1488.666 0)">
				<stop  offset="0" style="stop-color:#ABF900"/>
				<stop  offset="1" style="stop-color:#517F00"/>
			</linearGradient>
			<path fill="url(#SVGID_2_)" d="M46.091,30.633c0,0,0.458,0.416,0.458,0.851c0,0-0.609,0.369-1.308-0.153
				C45.241,31.331,45.328,30.851,46.091,30.633z"/>
			<g>
				<linearGradient id="SVGID_3_" gradientUnits="userSpaceOnUse" x1="45.8354" y1="32.0601" x2="45.8354" y2="18.0283">
					<stop  offset="0" style="stop-color:#ABF900"/>
					<stop  offset="1" style="stop-color:#517F00"/>
				</linearGradient>
				<path fill="url(#SVGID_3_)" d="M53.864,11.825c-1.444-2.979-4.497-5.033-8.029-5.033c-3.532,0-6.584,2.054-8.028,5.033l0,0
					c0,0-6.152,10.494,8.028,18.422C60.016,22.319,53.864,11.825,53.864,11.825z"/>
			</g>
			<linearGradient id="SVGID_4_" gradientUnits="userSpaceOnUse" x1="45.8354" y1="30.752" x2="45.8354" y2="30.2317">
				<stop  offset="0" style="stop-color:#ABF900"/>
				<stop  offset="1" style="stop-color:#517F00"/>
			</linearGradient>
			<ellipse fill="url(#SVGID_4_)" cx="45.835" cy="30.367" rx="0.436" ry="0.4"/>
			<linearGradient id="SVGID_5_" gradientUnits="userSpaceOnUse" x1="47.5146" y1="24.688" x2="47.5146" y2="9.1102">
				<stop  offset="0" style="stop-color:#ABF900"/>
				<stop  offset="1" style="stop-color:#517F00"/>
			</linearGradient>
			<path fill="url(#SVGID_5_)" d="M39.923,16.145c0,5.104,3.501,9.243,7.82,9.243c3.006,0,5.614-2.004,6.923-4.942
				c1.363-4.792-0.888-8.635-0.888-8.635c-1.227-2.527-3.609-4.388-6.461-4.895C43.196,7.177,39.923,11.208,39.923,16.145z"/>
			<linearGradient id="SVGID_6_" gradientUnits="userSpaceOnUse" x1="45.9561" y1="8.7441" x2="45.9561" y2="20.9179">
				<stop  offset="0" style="stop-color:#FFFFFF"/>
				<stop  offset="0.4308" style="stop-color:#ABF900"/>
				<stop  offset="1" style="stop-color:#79B500"/>
			</linearGradient>
			<ellipse fill="url(#SVGID_6_)" cx="45.956" cy="13.447" rx="5.409" ry="5.59"/>
		</g>
	</g>
	<g>
		<linearGradient id="SVGID_7_" gradientUnits="userSpaceOnUse" x1="58.5537" y1="67.041" x2="66.5049" y2="67.041">
			<stop  offset="0" style="stop-color:#C7FB55"/>
			<stop  offset="0.198" style="stop-color:#ABF900"/>
			<stop  offset="1" style="stop-color:#517F00"/>
		</linearGradient>
		<path fill="url(#SVGID_7_)" d="M66.505,62.697c-1.84,2.237-3.683,4.476-5.524,6.713c-0.046,0.056-0.092,0.111-0.14,0.164
			c-0.047,0.055-0.096,0.108-0.146,0.159c-0.049,0.053-0.1,0.104-0.151,0.155c-0.051,0.051-0.103,0.102-0.156,0.15
			c-0.14,0.13-0.283,0.255-0.431,0.375c-0.146,0.122-0.297,0.239-0.449,0.352c-0.153,0.111-0.31,0.22-0.468,0.323
			c-0.159,0.104-0.321,0.203-0.486,0.297l5.466-6.685c0.17-0.096,0.337-0.196,0.5-0.301s0.322-0.214,0.479-0.327
			s0.311-0.232,0.459-0.354c0.151-0.124,0.299-0.252,0.442-0.384c0.055-0.05,0.107-0.101,0.16-0.151
			c0.052-0.052,0.104-0.104,0.154-0.158c0.051-0.053,0.101-0.107,0.148-0.162C66.411,62.81,66.459,62.753,66.505,62.697z"/>
		<linearGradient id="SVGID_8_" gradientUnits="userSpaceOnUse" x1="54.5" y1="100.916" x2="49.4806" y2="58.6097">
			<stop  offset="0" style="stop-color:#C7FB55"/>
			<stop  offset="0.198" style="stop-color:#ABF900"/>
			<stop  offset="1" style="stop-color:#517F00"/>
		</linearGradient>
		<path fill="url(#SVGID_8_)" d="M56.194,57.778l-0.027-0.111c-0.056-0.241-0.136-0.477-0.238-0.705
			c-0.103-0.228-0.228-0.448-0.376-0.662c-0.146-0.213-0.316-0.421-0.508-0.62c-0.193-0.201-0.409-0.395-0.646-0.582
			c-0.238-0.187-0.486-0.351-0.745-0.492c-0.259-0.141-0.53-0.259-0.81-0.353c-0.279-0.096-0.57-0.169-0.873-0.218
			c-0.301-0.049-0.613-0.077-0.938-0.08c-0.325-0.003-0.628,0.016-0.911,0.06c-0.283,0.043-0.544,0.109-0.786,0.199
			c-0.241,0.09-0.46,0.204-0.659,0.341c-0.199,0.139-0.377,0.3-0.533,0.483c-0.02,0.023-0.039,0.048-0.059,0.07
			c-0.019,0.024-0.037,0.047-0.055,0.071c-0.019,0.023-0.036,0.048-0.053,0.071c-0.017,0.023-0.034,0.048-0.05,0.072
			c-1.611,2.37-3.222,4.741-4.833,7.11c0.016-0.023,0.032-0.047,0.049-0.07c0.017-0.022,0.034-0.047,0.052-0.069
			c0.018-0.024,0.036-0.047,0.054-0.071c0.019-0.022,0.038-0.044,0.057-0.068c0.153-0.182,0.327-0.34,0.521-0.476
			s0.407-0.249,0.641-0.34c0.233-0.09,0.487-0.158,0.761-0.202c0.273-0.045,0.567-0.069,0.881-0.069
			c0.312,0,0.615,0.024,0.906,0.069c0.291,0.044,0.571,0.111,0.841,0.201c0.27,0.089,0.529,0.201,0.778,0.336
			c0.249,0.135,0.488,0.291,0.716,0.471c0.228,0.179,0.434,0.365,0.618,0.558c0.184,0.193,0.346,0.394,0.487,0.6
			c0.14,0.207,0.258,0.421,0.355,0.642s0.171,0.448,0.224,0.683l0.023,0.107c0.055,0.244,0.086,0.478,0.096,0.703
			c0.009,0.225-0.006,0.442-0.043,0.65s-0.096,0.407-0.179,0.597c-0.083,0.19-0.189,0.372-0.317,0.544l5.147-6.891
			c0.131-0.176,0.238-0.361,0.322-0.556c0.083-0.195,0.143-0.398,0.179-0.611c0.035-0.214,0.048-0.437,0.036-0.669
			C56.288,58.271,56.253,58.028,56.194,57.778z"/>
		<linearGradient id="SVGID_9_" gradientUnits="userSpaceOnUse" x1="63.4561" y1="100.9775" x2="51.9824" y2="72.2935">
			<stop  offset="0" style="stop-color:#C7FB55"/>
			<stop  offset="0.198" style="stop-color:#ABF900"/>
			<stop  offset="1" style="stop-color:#517F00"/>
		</linearGradient>
		<path fill="url(#SVGID_9_)" d="M60.28,73.094l-0.027-0.119c-0.067-0.283-0.16-0.556-0.275-0.816
			c-0.116-0.258-0.258-0.505-0.422-0.74c-0.165-0.234-0.354-0.458-0.568-0.668c-0.215-0.211-0.452-0.409-0.716-0.596
			c-0.262-0.187-0.538-0.35-0.827-0.487c-0.289-0.141-0.592-0.255-0.908-0.346c-0.314-0.091-0.645-0.158-0.987-0.202
			c-0.343-0.043-0.7-0.063-1.071-0.058c-0.37,0.005-0.719,0.032-1.042,0.085c-0.324,0.053-0.623,0.129-0.9,0.229
			c-0.275,0.099-0.529,0.223-0.757,0.37c-0.229,0.146-0.434,0.318-0.614,0.514c-0.018,0.019-0.035,0.039-0.053,0.059
			c-0.019,0.021-0.035,0.04-0.053,0.061c-0.017,0.02-0.033,0.04-0.051,0.061c-0.015,0.021-0.031,0.041-0.047,0.062
			c-1.696,2.218-3.392,4.436-5.088,6.653c0.016-0.021,0.031-0.041,0.047-0.061c0.016-0.021,0.032-0.04,0.049-0.06
			s0.034-0.04,0.051-0.059c0.017-0.02,0.034-0.039,0.052-0.059c0.176-0.19,0.375-0.359,0.597-0.505
			c0.222-0.145,0.468-0.268,0.735-0.366c0.268-0.101,0.559-0.177,0.872-0.23c0.313-0.054,0.648-0.084,1.007-0.093
			c0.358-0.009,0.703,0.007,1.033,0.045c0.331,0.039,0.649,0.101,0.953,0.187c0.305,0.085,0.596,0.193,0.873,0.326
			c0.277,0.131,0.543,0.286,0.794,0.466c0.251,0.179,0.48,0.368,0.686,0.57c0.204,0.203,0.385,0.418,0.541,0.645
			c0.157,0.227,0.29,0.464,0.399,0.715c0.11,0.251,0.195,0.515,0.258,0.79l0.025,0.114c0.056,0.248,0.087,0.49,0.091,0.73
			c0.007,0.24-0.014,0.477-0.059,0.709s-0.115,0.461-0.211,0.686c-0.094,0.226-0.216,0.446-0.361,0.665
			c-0.013,0.021-0.027,0.04-0.042,0.061c-0.013,0.02-0.027,0.039-0.042,0.059c-0.016,0.019-0.03,0.037-0.046,0.058
			c-0.015,0.019-0.03,0.037-0.045,0.056c1.814-2.134,3.629-4.268,5.443-6.401c0.016-0.019,0.032-0.037,0.048-0.058
			c0.015-0.02,0.031-0.038,0.046-0.059c0.015-0.019,0.029-0.039,0.043-0.06c0.015-0.02,0.028-0.041,0.043-0.062
			c0.147-0.224,0.271-0.45,0.367-0.681c0.096-0.231,0.165-0.467,0.21-0.705c0.042-0.239,0.061-0.482,0.052-0.73
			C60.375,73.601,60.34,73.35,60.28,73.094z"/>
		<linearGradient id="SVGID_10_" gradientUnits="userSpaceOnUse" x1="33.4634" y1="51.1641" x2="37.4078" y2="68.7344">
			<stop  offset="0" style="stop-color:#C7FB55"/>
			<stop  offset="0.198" style="stop-color:#ABF900"/>
			<stop  offset="1" style="stop-color:#517F00"/>
		</linearGradient>
		<path fill="url(#SVGID_10_)" d="M41.93,64.524c-0.225-0.106-0.45-0.218-0.673-0.336c-0.223-0.115-0.445-0.236-0.667-0.362
			c-0.221-0.126-0.442-0.257-0.662-0.394c-0.22-0.137-0.436-0.278-0.646-0.426c-0.211-0.148-0.417-0.305-0.619-0.465
			c-0.202-0.161-0.399-0.327-0.591-0.5c-0.192-0.172-0.38-0.351-0.563-0.536c-0.184-0.185-0.36-0.375-0.532-0.57
			c-0.17-0.195-0.335-0.396-0.494-0.604c-0.159-0.206-0.311-0.417-0.457-0.636c-0.146-0.216-0.287-0.439-0.42-0.666
			c-0.133-0.227-0.256-0.462-0.371-0.702s-0.219-0.487-0.313-0.739c-0.094-0.253-0.179-0.513-0.254-0.778
			c-0.075-0.265-0.14-0.536-0.195-0.814c-0.087-0.44-0.144-0.862-0.172-1.272c-0.028-0.409-0.026-0.803,0.004-1.185
			c0.03-0.38,0.089-0.747,0.176-1.104c0.087-0.355,0.203-0.7,0.346-1.035c0.032-0.076,0.065-0.149,0.099-0.225
			c0.035-0.073,0.07-0.146,0.106-0.22c0.037-0.072,0.075-0.144,0.113-0.216c0.039-0.07,0.079-0.141,0.121-0.212
			c-0.225,0.384-0.452,0.765-0.677,1.147c-1.226,2.078-2.45,4.155-3.675,6.233c-0.041,0.069-0.08,0.137-0.118,0.208
			c-0.038,0.069-0.076,0.14-0.111,0.21c-0.036,0.071-0.071,0.144-0.104,0.216c-0.034,0.071-0.066,0.146-0.098,0.219
			c-0.141,0.327-0.255,0.664-0.342,1.013c-0.087,0.347-0.147,0.706-0.18,1.076c-0.032,0.37-0.037,0.753-0.014,1.15
			c0.023,0.396,0.075,0.809,0.156,1.235c0.051,0.27,0.111,0.532,0.181,0.789c0.07,0.259,0.149,0.509,0.238,0.753
			c0.089,0.246,0.188,0.484,0.295,0.716c0.108,0.232,0.225,0.459,0.352,0.678c0.126,0.221,0.26,0.435,0.398,0.645
			c0.139,0.209,0.284,0.413,0.435,0.612s0.309,0.394,0.471,0.58c0.163,0.189,0.332,0.372,0.507,0.549
			c0.175,0.178,0.354,0.35,0.538,0.516c0.184,0.166,0.373,0.325,0.565,0.48c0.193,0.153,0.391,0.301,0.593,0.442
			c0.202,0.142,0.409,0.277,0.62,0.407c0.21,0.131,0.422,0.255,0.634,0.376c0.213,0.12,0.426,0.234,0.641,0.346
			c0.214,0.112,0.429,0.217,0.646,0.317c0.216,0.102,0.433,0.198,0.651,0.29l4.74-6.903C42.381,64.731,42.155,64.63,41.93,64.524z"
			/>
		<g>
			<linearGradient id="SVGID_11_" gradientUnits="userSpaceOnUse" x1="52.4375" y1="38.6885" x2="56.3816" y2="99.6425">
				<stop  offset="0" style="stop-color:#C7FB55"/>
				<stop  offset="0.198" style="stop-color:#ABF900"/>
				<stop  offset="1" style="stop-color:#517F00"/>
			</linearGradient>
			<path fill="url(#SVGID_11_)" d="M73.971,75.601c-0.062-0.444-0.154-0.901-0.276-1.375c-0.082-0.318-0.174-0.629-0.275-0.93
				c-0.101-0.301-0.21-0.595-0.33-0.879c-0.117-0.284-0.246-0.561-0.385-0.828c-0.136-0.269-0.282-0.527-0.438-0.778
				c-0.154-0.253-0.317-0.496-0.486-0.732s-0.346-0.465-0.529-0.687c-0.183-0.223-0.373-0.436-0.57-0.644
				c-0.196-0.208-0.401-0.406-0.612-0.6s-0.428-0.378-0.65-0.558c-0.224-0.179-0.451-0.352-0.684-0.52
				c-0.234-0.165-0.474-0.325-0.718-0.477c-0.244-0.154-0.493-0.302-0.748-0.441c-0.257-0.139-0.516-0.274-0.778-0.404
				c-0.264-0.131-0.529-0.257-0.801-0.378c-0.271-0.121-0.544-0.236-0.822-0.348c-0.278-0.112-0.56-0.221-0.847-0.322
				c0.17-0.096,0.337-0.196,0.5-0.301s0.322-0.214,0.479-0.327s0.311-0.232,0.459-0.354c0.151-0.124,0.299-0.252,0.442-0.384
				c0.143-0.132,0.28-0.269,0.409-0.412c0.13-0.143,0.252-0.292,0.368-0.446c0.116-0.153,0.225-0.313,0.327-0.479
				c0.103-0.165,0.196-0.336,0.284-0.512c0.089-0.177,0.168-0.358,0.239-0.545c0.072-0.186,0.137-0.377,0.192-0.574
				c0.057-0.194,0.104-0.396,0.146-0.603c0.039-0.205,0.071-0.417,0.096-0.633C67.987,58.916,68,58.693,68,58.465
				c0.002-0.229-0.009-0.467-0.032-0.713c-0.022-0.246-0.06-0.503-0.107-0.77s-0.109-0.545-0.185-0.836
				c-0.1-0.39-0.222-0.772-0.366-1.146c-0.142-0.373-0.308-0.738-0.495-1.096c-0.187-0.356-0.395-0.706-0.625-1.048
				c-0.229-0.341-0.48-0.674-0.754-1s-0.563-0.64-0.868-0.943s-0.629-0.597-0.968-0.878c-0.339-0.281-0.693-0.552-1.064-0.813
				c-0.372-0.259-0.759-0.508-1.164-0.747c-0.405-0.24-0.823-0.466-1.258-0.68c-0.435-0.214-0.883-0.417-1.347-0.606
				c-0.464-0.19-0.943-0.368-1.438-0.532c-0.494-0.166-1.004-0.319-1.528-0.46c-0.526-0.141-1.061-0.266-1.604-0.375
				c-0.543-0.111-1.096-0.205-1.658-0.282c-0.562-0.079-1.133-0.142-1.713-0.188c-0.582-0.047-1.173-0.078-1.773-0.092
				c-0.602-0.016-1.189-0.014-1.762,0.004c-0.574,0.019-1.132,0.053-1.677,0.105c-0.544,0.051-1.076,0.12-1.59,0.205
				c-0.517,0.085-1.019,0.187-1.505,0.307c-0.488,0.12-0.955,0.253-1.402,0.401c-0.448,0.147-0.875,0.309-1.281,0.484
				c-0.407,0.176-0.794,0.366-1.159,0.569c-0.366,0.204-0.711,0.422-1.036,0.655c-0.325,0.233-0.627,0.479-0.907,0.736
				c-0.28,0.258-0.538,0.53-0.772,0.813c-0.234,0.283-0.446,0.581-0.635,0.889c-0.189,0.31-0.354,0.632-0.497,0.968
				c-0.143,0.335-0.259,0.68-0.346,1.035c-0.087,0.357-0.146,0.725-0.176,1.104c-0.03,0.382-0.032,0.775-0.004,1.185
				c0.028,0.41,0.085,0.832,0.172,1.272c0.055,0.278,0.12,0.55,0.195,0.814c0.075,0.266,0.16,0.525,0.254,0.778
				c0.095,0.252,0.199,0.499,0.313,0.739s0.238,0.476,0.371,0.702c0.134,0.227,0.274,0.45,0.42,0.666
				c0.146,0.219,0.298,0.43,0.457,0.636c0.158,0.207,0.323,0.408,0.494,0.604c0.171,0.195,0.348,0.386,0.532,0.57
				c0.182,0.186,0.37,0.364,0.563,0.536c0.192,0.173,0.39,0.339,0.591,0.5c0.202,0.16,0.407,0.316,0.619,0.465
				c0.211,0.147,0.427,0.289,0.646,0.426c0.219,0.137,0.44,0.268,0.662,0.394c0.222,0.126,0.444,0.247,0.667,0.362
				c0.223,0.118,0.448,0.229,0.673,0.336c0.225,0.105,0.451,0.207,0.678,0.304c-0.542,0.229-1.051,0.479-1.528,0.752
				c-0.479,0.272-0.924,0.567-1.337,0.886c-0.414,0.318-0.795,0.659-1.144,1.021c-0.35,0.364-0.666,0.75-0.95,1.158
				c-0.284,0.41-0.517,0.85-0.698,1.32c-0.183,0.474-0.313,0.979-0.392,1.517c-0.079,0.54-0.105,1.113-0.078,1.725
				c0.027,0.611,0.107,1.26,0.241,1.945c0.091,0.463,0.208,0.915,0.355,1.358c0.147,0.445,0.321,0.881,0.523,1.306
				c0.203,0.428,0.434,0.845,0.692,1.251c0.259,0.408,0.546,0.807,0.861,1.195s0.652,0.764,1.012,1.124
				c0.359,0.36,0.741,0.706,1.146,1.037s0.831,0.647,1.278,0.951c0.449,0.301,0.918,0.588,1.41,0.861s1,0.528,1.526,0.767
				c0.525,0.237,1.067,0.459,1.626,0.662c0.558,0.202,1.133,0.388,1.724,0.557c0.591,0.167,1.197,0.318,1.821,0.451
				c0.622,0.133,1.254,0.245,1.897,0.337c0.642,0.092,1.295,0.163,1.958,0.215c0.661,0.051,1.332,0.082,2.014,0.093
				c0.681,0.011,1.37,0.002,2.069-0.028c0.697-0.029,1.373-0.077,2.028-0.145c0.653-0.066,1.285-0.151,1.896-0.256
				c0.609-0.103,1.199-0.225,1.767-0.363c0.565-0.141,1.11-0.299,1.635-0.474c0.523-0.176,1.021-0.366,1.496-0.57
				c0.474-0.203,0.924-0.421,1.348-0.652c0.426-0.231,0.826-0.476,1.203-0.734s0.729-0.53,1.059-0.815
				c0.328-0.286,0.631-0.582,0.905-0.892c0.274-0.309,0.522-0.63,0.744-0.964c0.221-0.332,0.416-0.677,0.583-1.034
				c0.169-0.355,0.311-0.725,0.427-1.104c0.115-0.38,0.203-0.769,0.259-1.165c0.058-0.399,0.085-0.806,0.083-1.226
				C74.064,76.475,74.032,76.045,73.971,75.601z M49.388,60.496c-0.247-0.187-0.47-0.383-0.669-0.591
				c-0.2-0.209-0.377-0.428-0.531-0.658s-0.284-0.473-0.391-0.724c-0.106-0.253-0.19-0.517-0.25-0.79l-0.025-0.112
				c-0.054-0.245-0.081-0.483-0.083-0.714c-0.001-0.23,0.025-0.452,0.077-0.668c0.052-0.216,0.131-0.423,0.236-0.623
				c0.104-0.2,0.235-0.393,0.393-0.578c0.156-0.184,0.334-0.345,0.533-0.483c0.199-0.137,0.418-0.251,0.659-0.341
				c0.241-0.09,0.503-0.156,0.786-0.199c0.282-0.044,0.586-0.063,0.911-0.06c0.324,0.003,0.637,0.031,0.938,0.08
				c0.303,0.049,0.594,0.122,0.873,0.218c0.279,0.094,0.551,0.212,0.81,0.353c0.259,0.142,0.507,0.306,0.745,0.492
				c0.237,0.188,0.453,0.381,0.646,0.582c0.191,0.199,0.361,0.407,0.508,0.62c0.148,0.214,0.273,0.435,0.376,0.662
				c0.103,0.229,0.183,0.464,0.238,0.705l0.027,0.111c0.063,0.27,0.099,0.529,0.107,0.778c0.008,0.248-0.01,0.487-0.058,0.714
				c-0.047,0.228-0.12,0.443-0.224,0.648c-0.102,0.205-0.232,0.399-0.391,0.583c-0.158,0.183-0.337,0.344-0.534,0.482
				c-0.198,0.137-0.416,0.253-0.653,0.345c-0.237,0.094-0.495,0.162-0.771,0.209c-0.278,0.047-0.575,0.069-0.893,0.069
				c-0.317,0.001-0.628-0.022-0.928-0.068s-0.592-0.115-0.875-0.208c-0.282-0.093-0.557-0.209-0.822-0.348
				C49.89,60.844,49.635,60.682,49.388,60.496z M60.331,74.577c-0.045,0.238-0.114,0.474-0.21,0.705
				c-0.097,0.23-0.22,0.457-0.367,0.681c-0.149,0.223-0.331,0.421-0.547,0.592c-0.215,0.17-0.462,0.314-0.744,0.432
				c-0.281,0.118-0.597,0.209-0.944,0.273c-0.349,0.064-0.729,0.102-1.146,0.112c-0.415,0.011-0.812-0.007-1.188-0.052
				c-0.376-0.046-0.731-0.119-1.067-0.223c-0.336-0.103-0.652-0.233-0.946-0.393c-0.296-0.159-0.569-0.348-0.823-0.564
				c-0.254-0.216-0.483-0.438-0.688-0.664c-0.204-0.228-0.384-0.46-0.54-0.699c-0.155-0.237-0.287-0.481-0.393-0.729
				c-0.105-0.25-0.188-0.504-0.245-0.763l-0.026-0.121c-0.063-0.289-0.096-0.566-0.099-0.831c-0.002-0.267,0.027-0.521,0.086-0.763
				s0.149-0.473,0.27-0.69c0.12-0.219,0.271-0.426,0.451-0.621s0.386-0.367,0.614-0.514c0.228-0.147,0.481-0.271,0.757-0.37
				c0.277-0.1,0.576-0.176,0.9-0.229c0.323-0.053,0.672-0.08,1.042-0.085c0.371-0.005,0.729,0.015,1.071,0.058
				c0.343,0.044,0.673,0.111,0.987,0.202c0.316,0.091,0.619,0.205,0.908,0.346c0.289,0.138,0.565,0.301,0.827,0.487
				c0.264,0.187,0.501,0.385,0.716,0.596c0.214,0.21,0.403,0.434,0.568,0.668c0.164,0.235,0.306,0.482,0.422,0.74
				c0.115,0.261,0.208,0.533,0.275,0.816l0.027,0.119c0.06,0.256,0.095,0.507,0.103,0.753
				C60.392,74.095,60.373,74.338,60.331,74.577z"/>
		</g>
		<linearGradient id="SVGID_12_" gradientUnits="userSpaceOnUse" x1="30.4478" y1="61.0039" x2="51.6023" y2="83.2341">
			<stop  offset="0" style="stop-color:#C7FB55"/>
			<stop  offset="0.198" style="stop-color:#ABF900"/>
			<stop  offset="1" style="stop-color:#517F00"/>
		</linearGradient>
		<path fill="url(#SVGID_12_)" d="M71.539,82.843c-0.051,0.049-0.101,0.098-0.153,0.146c-0.052,0.049-0.104,0.098-0.157,0.146
			c-0.053,0.049-0.108,0.097-0.162,0.145c-0.329,0.285-0.682,0.557-1.059,0.815s-0.777,0.503-1.203,0.734
			c-0.424,0.231-0.874,0.449-1.348,0.652c-0.475,0.204-0.973,0.395-1.496,0.57c-0.524,0.175-1.069,0.333-1.635,0.474
			c-0.567,0.139-1.157,0.261-1.767,0.363c-0.61,0.104-1.242,0.189-1.896,0.256c-0.655,0.067-1.331,0.115-2.028,0.145
			c-0.699,0.03-1.389,0.039-2.069,0.028c-0.682-0.011-1.353-0.042-2.014-0.093c-0.663-0.052-1.316-0.123-1.958-0.215
			c-0.643-0.092-1.275-0.204-1.897-0.337c-0.624-0.133-1.23-0.284-1.821-0.451c-0.591-0.169-1.166-0.354-1.724-0.557
			c-0.559-0.203-1.102-0.425-1.626-0.662C45,84.765,44.492,84.51,44,84.236s-0.961-0.561-1.41-0.861
			c-0.448-0.304-0.874-0.62-1.278-0.951s-0.786-0.677-1.146-1.037c-0.36-0.36-0.697-0.735-1.012-1.124s-0.602-0.787-0.861-1.195
			c-0.259-0.406-0.489-0.823-0.692-1.251c-0.202-0.425-0.376-0.86-0.523-1.306c-0.146-0.443-0.264-0.896-0.355-1.358
			c-0.132-0.675-0.212-1.313-0.24-1.917c-0.028-0.603-0.005-1.17,0.07-1.703c0.074-0.533,0.199-1.032,0.374-1.501
			c0.174-0.467,0.398-0.903,0.672-1.311c-1.532,2.279-3.063,4.56-4.595,6.84c-0.268,0.396-0.487,0.822-0.659,1.277
			c-0.173,0.455-0.297,0.941-0.374,1.459s-0.104,1.068-0.082,1.652c0.022,0.583,0.093,1.202,0.215,1.855
			c0.082,0.446,0.192,0.885,0.33,1.313s0.301,0.85,0.492,1.26c0.191,0.411,0.41,0.813,0.655,1.205s0.519,0.774,0.819,1.148
			c0.299,0.374,0.621,0.734,0.963,1.079c0.344,0.346,0.708,0.677,1.094,0.994c0.386,0.316,0.794,0.62,1.223,0.909
			c0.429,0.287,0.878,0.562,1.349,0.82c0.471,0.261,0.959,0.503,1.463,0.729s1.024,0.434,1.561,0.626
			c0.536,0.19,1.088,0.365,1.656,0.522c0.568,0.158,1.151,0.298,1.75,0.422c0.598,0.122,1.207,0.227,1.826,0.309
			c0.618,0.083,1.246,0.146,1.884,0.191c0.638,0.043,1.285,0.067,1.942,0.071c0.656,0.005,1.322-0.011,1.996-0.045
			c0.674-0.035,1.326-0.088,1.959-0.158c0.63-0.071,1.242-0.158,1.833-0.265c0.59-0.105,1.158-0.229,1.707-0.369
			c0.549-0.14,1.078-0.298,1.586-0.473c0.507-0.176,0.99-0.364,1.452-0.566c0.46-0.201,0.896-0.415,1.31-0.645
			c0.413-0.228,0.804-0.469,1.171-0.723c0.366-0.254,0.711-0.521,1.031-0.802c0.054-0.046,0.107-0.093,0.158-0.14
			c0.053-0.048,0.104-0.095,0.155-0.143c0.05-0.049,0.102-0.097,0.149-0.145c0.05-0.049,0.099-0.098,0.146-0.146
			c1.975-2.031,3.949-4.063,5.924-6.094C71.639,82.742,71.59,82.792,71.539,82.843z"/>
	</g>
</g>
</svg>
