<?xml version="1.0" encoding="utf-8"?>
<!-- Generator: Adobe Illustrator 15.0.0, SVG Export Plug-In . SVG Version: 6.00 Build 0)  -->
<!DOCTYPE svg PUBLIC "-//W3C//DTD SVG 1.1//EN" "http://www.w3.org/Graphics/SVG/1.1/DTD/svg11.dtd">
<svg version="1.1" id="图层_1" xmlns="http://www.w3.org/2000/svg" xmlns:xlink="http://www.w3.org/1999/xlink" x="0px" y="0px"
	 width="100px" height="100px" viewBox="0 0 100 100" enable-background="new 0 0 100 100" xml:space="preserve">
<g>
	<g>
		<linearGradient id="SVGID_1_" gradientUnits="userSpaceOnUse" x1="50.7153" y1="78.9219" x2="50.7153" y2="31.2378">
			<stop  offset="0" style="stop-color:#840033"/>
			<stop  offset="0.7767" style="stop-color:#F92169"/>
			<stop  offset="1" style="stop-color:#840033"/>
		</linearGradient>
		<path fill="url(#SVGID_1_)" d="M57.104,36.743c0.435-2.966-3.226-2.731-5.111-2.153c-1.056,0.324-1.96,0.824-2.648,1.694
			c-0.968,1.222,0.013,2.662,1.45,2.495c1.45-0.167,2.337-1.798,2.55-3.093c0.232-1.415-0.758-2.747-2.081-3.169
			c-3.361-1.076-5.854,1.968-6.573,4.906c-0.849,3.476-0.351,7.68,1.552,10.726c1.004,1.607,2.195,3.102,2.95,4.855
			c0.695,1.612,0.744,3.8-0.866,4.905c-0.905,0.623-2.286,0.728-2.977-0.235c-0.177-0.247-0.302-0.619-0.221-0.92
			c0.092-0.342,0.826,0.075,0.995,0.174c0.591,0.339,0.999,0.922,1.073,1.599c0.08,0.736-0.461,2.042-1.292,1.349
			c-0.149-0.125-0.254-0.3-0.271-0.494c-0.027-0.3,0.925,0.154,1.064,0.241c0.787,0.496,1.085,1.573,1.27,2.421
			c0.486,2.237,0.159,4.479-0.498,6.646c-0.603,1.986-1.426,3.896-1.92,5.915c-0.347,1.421-0.886,3.4-0.123,4.752
			c0.502,0.886,1.916,1.146,2.8,0.735c1.614-0.751,0.195-2.19,0.097-3.373c-0.007-0.086-0.532,0.007-0.522,0.139
			c0.079,0.939,0.981,1.763,0.616,2.726c-0.369,0.974-1.736,0.346-2.198-0.038c-0.463-0.388-0.587-1.039-0.63-1.602
			c-0.079-1.018,0.203-2.154,0.407-3.141c0.264-1.264,0.698-2.486,1.127-3.698c0.796-2.242,1.585-4.476,1.613-6.88
			c0.019-1.533-0.21-3.564-1.394-4.659c-0.271-0.25-2.12-0.967-2.223-0.108c-0.097,0.818,1.057,0.969,1.603,0.799
			c1.225-0.385,1.165-2.192,0.495-2.996c-0.514-0.617-1.533-1.105-2.312-0.696c-0.368,0.195-0.362,0.532-0.25,0.897
			c0.214,0.696,0.867,1.038,1.544,1.12c1.005,0.121,2.42-0.328,3.077-1.127c2.54-3.084-0.855-6.844-2.513-9.444
			c-2.012-3.154-2.398-7.564-1.442-11.138c0.559-2.083,2.071-4.373,4.468-4.355c1.72,0.013,3.119,1.404,3.053,3.117
			c-0.029,0.75-0.402,1.45-0.809,2.057c-0.688,1.021-2.001,1.198-2.491,0.002c-0.521-1.271,1.055-2.362,2.014-2.776
			c1.834-0.793,5.45-0.924,5.026,1.968C56.576,36.933,57.081,36.896,57.104,36.743L57.104,36.743z"/>
		<linearGradient id="SVGID_2_" gradientUnits="userSpaceOnUse" x1="49.9292" y1="33.7129" x2="49.9292" y2="33.0533">
			<stop  offset="0" style="stop-color:#F92169"/>
			<stop  offset="1" style="stop-color:#840033"/>
		</linearGradient>
		<path fill="url(#SVGID_2_)" d="M49.731,32.828c0,0-0.462,0.418-0.462,0.857c0,0,0.616,0.374,1.32-0.154
			C50.589,33.531,50.501,33.048,49.731,32.828z"/>
		<linearGradient id="SVGID_3_" gradientUnits="userSpaceOnUse" x1="49.8691" y1="34.2681" x2="49.8691" y2="20.112">
			<stop  offset="0" style="stop-color:#F92169"/>
			<stop  offset="1" style="stop-color:#840033"/>
		</linearGradient>
		<path fill="url(#SVGID_3_)" d="M57.968,13.854c-1.456-3.005-4.536-5.078-8.099-5.078c-3.563,0-6.642,2.073-8.099,5.078l0,0
			c0,0-6.206,10.586,8.099,18.585C64.174,24.439,57.968,13.854,57.968,13.854z"/>
		<linearGradient id="SVGID_4_" gradientUnits="userSpaceOnUse" x1="49.8687" y1="32.9487" x2="49.8687" y2="32.4234">
			<stop  offset="0" style="stop-color:#F92169"/>
			<stop  offset="1" style="stop-color:#840033"/>
		</linearGradient>
		<ellipse fill="url(#SVGID_4_)" cx="49.869" cy="32.558" rx="0.44" ry="0.406"/>
		<linearGradient id="SVGID_5_" gradientUnits="userSpaceOnUse" x1="51.5625" y1="26.8296" x2="51.5625" y2="11.1155">
			<stop  offset="0" style="stop-color:#F92169"/>
			<stop  offset="1" style="stop-color:#840033"/>
		</linearGradient>
		<path fill="url(#SVGID_5_)" d="M43.904,18.211c0,5.15,3.532,9.324,7.89,9.324c3.031,0,5.662-2.02,6.984-4.985
			c1.375-4.834-0.896-8.711-0.896-8.711c-1.235-2.55-3.641-4.426-6.517-4.937C47.207,9.166,43.904,13.231,43.904,18.211z"/>
		<linearGradient id="SVGID_6_" gradientUnits="userSpaceOnUse" x1="49.9917" y1="10.7461" x2="49.9917" y2="23.0252">
			<stop  offset="0" style="stop-color:#FFFFFF"/>
			<stop  offset="0.4718" style="stop-color:#F92169"/>
			<stop  offset="1" style="stop-color:#B30D48"/>
		</linearGradient>
		<ellipse fill="url(#SVGID_6_)" cx="49.992" cy="15.489" rx="5.456" ry="5.639"/>
	</g>
	<g>
		<linearGradient id="SVGID_7_" gradientUnits="userSpaceOnUse" x1="55.1406" y1="79.7822" x2="46.9899" y2="49.1314">
			<stop  offset="0" style="stop-color:#F92169"/>
			<stop  offset="1" style="stop-color:#840033"/>
		</linearGradient>
		<path fill="url(#SVGID_7_)" d="M51.832,55.219c-0.131-0.189-0.282-0.354-0.455-0.494c-0.172-0.14-0.363-0.259-0.576-0.353
			c-0.213-0.093-0.445-0.165-0.698-0.213s-0.526-0.073-0.818-0.074c-0.313-0.002-0.617,0.021-0.913,0.073
			c-0.295,0.049-0.583,0.126-0.862,0.226c-0.28,0.101-0.551,0.228-0.815,0.381c-0.263,0.151-0.519,0.331-0.767,0.534
			c-0.249,0.205-0.478,0.42-0.688,0.649c-0.212,0.229-0.404,0.47-0.578,0.721c-0.174,0.254-0.33,0.52-0.467,0.796
			c-0.138,0.278-0.256,0.569-0.356,0.871l-0.036,0.105c-0.097,0.297-0.167,0.58-0.209,0.852c-0.042,0.273-0.057,0.534-0.043,0.782
			c0.013,0.25,0.054,0.486,0.123,0.713c0.07,0.227,0.168,0.44,0.294,0.645c0.012,0.02,0.024,0.038,0.037,0.057
			c0.013,0.021,0.025,0.039,0.039,0.058c0.013,0.02,0.026,0.037,0.041,0.056c0.013,0.018,0.026,0.036,0.041,0.055l5.528,7.07
			c-0.014-0.017-0.028-0.034-0.04-0.052c-0.014-0.019-0.027-0.036-0.041-0.056c-0.012-0.019-0.025-0.036-0.038-0.056
			c-0.012-0.019-0.024-0.038-0.037-0.057c-0.126-0.201-0.223-0.411-0.294-0.633c-0.072-0.221-0.115-0.454-0.132-0.695
			c-0.017-0.243-0.007-0.498,0.029-0.762c0.037-0.265,0.099-0.54,0.189-0.825l0.031-0.102c0.092-0.295,0.202-0.576,0.33-0.845
			c0.127-0.269,0.274-0.524,0.437-0.767c0.164-0.245,0.346-0.476,0.545-0.694c0.201-0.218,0.42-0.425,0.656-0.62
			s0.479-0.363,0.731-0.509c0.252-0.144,0.512-0.264,0.78-0.357c0.27-0.094,0.545-0.162,0.828-0.206
			c0.285-0.043,0.579-0.061,0.881-0.054c0.282,0.007,0.547,0.035,0.79,0.087c0.246,0.05,0.471,0.124,0.677,0.219
			c0.207,0.096,0.395,0.214,0.562,0.354c0.169,0.142,0.318,0.304,0.447,0.489C55.269,60.131,53.55,57.674,51.832,55.219z"/>
		<linearGradient id="SVGID_8_" gradientUnits="userSpaceOnUse" x1="51.4756" y1="88.666" x2="41.6013" y2="65.8171">
			<stop  offset="0.0051" style="stop-color:#F92169"/>
			<stop  offset="1" style="stop-color:#840033"/>
		</linearGradient>
		<path fill="url(#SVGID_8_)" d="M39.108,74.558c-2.003-2.241-4.007-4.483-6.01-6.726c0.152,0.17,0.313,0.334,0.483,0.488
			c0.169,0.158,0.349,0.308,0.536,0.449c0.188,0.143,0.386,0.277,0.592,0.406c0.206,0.13,0.421,0.251,0.646,0.365
			c0.306,0.156,0.622,0.294,0.951,0.417c0.331,0.123,0.673,0.229,1.028,0.315c0.355,0.089,0.723,0.16,1.103,0.215
			c0.381,0.055,0.774,0.092,1.18,0.111c0.431,0.02,0.859,0.02,1.285,0c0.427-0.022,0.85-0.063,1.271-0.125
			c0.422-0.065,0.84-0.147,1.257-0.254c0.416-0.105,0.83-0.232,1.241-0.381c0.41-0.147,0.813-0.309,1.211-0.484
			c0.396-0.174,0.786-0.363,1.168-0.563c0.383-0.201,0.756-0.416,1.125-0.645c0.368-0.228,0.728-0.469,1.08-0.722l5.44,6.996
			c-0.336,0.24-0.678,0.47-1.03,0.685c-0.349,0.216-0.707,0.418-1.072,0.607s-0.738,0.365-1.117,0.53
			c-0.38,0.162-0.766,0.313-1.16,0.449c-0.393,0.137-0.79,0.255-1.189,0.351s-0.802,0.171-1.207,0.226
			c-0.405,0.056-0.813,0.09-1.226,0.103c-0.41,0.013-0.823,0.007-1.239-0.02c-0.392-0.025-0.771-0.069-1.141-0.126
			c-0.367-0.059-0.724-0.135-1.069-0.227c-0.344-0.092-0.677-0.198-0.998-0.322c-0.32-0.124-0.628-0.264-0.925-0.421
			c-0.22-0.114-0.43-0.237-0.632-0.364c-0.201-0.13-0.394-0.264-0.579-0.405c-0.185-0.143-0.359-0.289-0.527-0.445
			C39.417,74.888,39.258,74.727,39.108,74.558z"/>
		<g>
			<linearGradient id="SVGID_9_" gradientUnits="userSpaceOnUse" x1="41.1685" y1="35.0288" x2="48.4015" y2="96.6813">
				<stop  offset="0" style="stop-color:#FFFFFF"/>
				<stop  offset="0.3655" style="stop-color:#F92169"/>
				<stop  offset="1" style="stop-color:#840033"/>
			</linearGradient>
			<path fill="url(#SVGID_9_)" d="M64.818,55.188c-0.071-0.562-0.165-1.096-0.285-1.6c-0.119-0.5-0.263-0.973-0.432-1.415
				s-0.36-0.855-0.58-1.239c-0.216-0.384-0.457-0.738-0.723-1.065c-0.277-0.341-0.577-0.665-0.895-0.968
				c-0.317-0.301-0.652-0.585-1.008-0.849c-0.355-0.263-0.729-0.506-1.122-0.732c-0.391-0.224-0.801-0.429-1.231-0.616
				c-0.429-0.187-0.896-0.347-1.4-0.485c-0.505-0.135-1.048-0.245-1.629-0.332c-0.579-0.086-1.196-0.148-1.853-0.185
				c-0.651-0.037-1.342-0.05-2.069-0.039c-0.538,0.008-1.073,0.034-1.604,0.078c-0.529,0.043-1.054,0.105-1.574,0.183
				c-0.521,0.079-1.037,0.175-1.548,0.288c-0.511,0.113-1.02,0.244-1.522,0.392c-0.504,0.147-0.997,0.312-1.481,0.492
				c-0.483,0.18-0.957,0.376-1.422,0.589c-0.464,0.212-0.919,0.441-1.366,0.685c-0.447,0.246-0.884,0.507-1.313,0.785
				c-0.429,0.277-0.844,0.57-1.247,0.877c-0.404,0.307-0.793,0.628-1.171,0.963c-0.378,0.337-0.743,0.687-1.097,1.054
				c-0.353,0.365-0.693,0.747-1.023,1.143c-0.329,0.397-0.641,0.81-0.935,1.239c-0.295,0.43-0.572,0.876-0.833,1.343
				c-0.261,0.467-0.506,0.953-0.734,1.461c-0.229,0.509-0.443,1.037-0.641,1.591c-0.15,0.42-0.279,0.831-0.387,1.232
				c-0.106,0.403-0.192,0.795-0.255,1.179c-0.064,0.384-0.104,0.759-0.124,1.124c-0.02,0.367-0.016,0.723,0.01,1.071
				c0.025,0.35,0.068,0.687,0.13,1.012c0.061,0.326,0.141,0.641,0.238,0.943c0.099,0.304,0.214,0.595,0.35,0.874
				c0.135,0.28,0.288,0.549,0.459,0.805c0.172,0.258,0.36,0.502,0.564,0.732c0.205,0.232,0.426,0.452,0.663,0.658
				c0.238,0.206,0.492,0.4,0.763,0.581c0.271,0.182,0.559,0.349,0.863,0.505c0.306,0.156,0.622,0.294,0.951,0.417
				c0.331,0.123,0.673,0.229,1.028,0.315c0.355,0.089,0.723,0.16,1.103,0.215c0.381,0.055,0.774,0.092,1.18,0.111
				c0.431,0.02,0.859,0.02,1.285,0c0.427-0.022,0.85-0.063,1.271-0.125c0.422-0.065,0.84-0.147,1.257-0.254
				c0.416-0.105,0.83-0.232,1.241-0.381c0.41-0.147,0.813-0.309,1.211-0.484c0.396-0.174,0.786-0.363,1.168-0.563
				c0.383-0.201,0.756-0.416,1.125-0.645c0.368-0.228,0.728-0.469,1.08-0.722c-0.241,0.593-0.5,1.149-0.777,1.673
				c-0.277,0.522-0.571,1.011-0.883,1.461c-0.313,0.452-0.642,0.865-0.988,1.243c-0.347,0.378-0.71,0.718-1.091,1.021
				c-0.38,0.303-0.779,0.563-1.198,0.783c-0.417,0.22-0.853,0.397-1.307,0.534c-0.453,0.135-0.924,0.229-1.412,0.282
				c-0.488,0.052-0.992,0.063-1.513,0.033c-0.701-0.041-1.373-0.144-2.012-0.306c-0.636-0.162-1.243-0.385-1.818-0.665
				c-0.572-0.281-1.115-0.62-1.626-1.016c-0.508-0.396-0.986-0.85-1.433-1.358l-8.149,7.93c0.331,0.385,0.681,0.753,1.048,1.104
				c0.37,0.354,0.758,0.69,1.164,1.011c0.408,0.32,0.834,0.627,1.279,0.914c0.447,0.289,0.914,0.562,1.398,0.817
				c0.486,0.255,1.005,0.488,1.555,0.696c0.553,0.21,1.137,0.394,1.754,0.557c0.619,0.162,1.271,0.299,1.956,0.413
				c0.688,0.113,1.407,0.203,2.161,0.268c0.765,0.066,1.523,0.096,2.273,0.089c0.752-0.007,1.497-0.049,2.233-0.13
				c0.738-0.079,1.467-0.196,2.187-0.349c0.721-0.154,1.433-0.346,2.133-0.573c0.702-0.228,1.39-0.487,2.063-0.777
				c0.674-0.292,1.333-0.613,1.977-0.967c0.644-0.352,1.273-0.736,1.885-1.15c0.613-0.414,1.211-0.859,1.79-1.335
				c0.58-0.474,1.141-0.977,1.685-1.505c0.541-0.529,1.063-1.083,1.567-1.664c0.502-0.581,0.983-1.188,1.446-1.82
				c0.463-0.631,0.905-1.286,1.327-1.97c0.421-0.679,0.817-1.376,1.19-2.093c0.373-0.714,0.722-1.447,1.048-2.199
				c0.323-0.752,0.625-1.521,0.904-2.313c0.277-0.788,0.531-1.598,0.765-2.429c0.236-0.845,0.434-1.656,0.593-2.434
				c0.158-0.772,0.277-1.51,0.358-2.215c0.082-0.702,0.125-1.37,0.129-2.005C64.921,56.352,64.888,55.754,64.818,55.188z
				 M52.34,57.635c-0.04,0.286-0.108,0.585-0.204,0.895l-0.034,0.107c-0.086,0.284-0.195,0.558-0.326,0.821
				c-0.13,0.264-0.279,0.518-0.45,0.761c-0.172,0.244-0.362,0.477-0.575,0.699c-0.212,0.224-0.445,0.436-0.699,0.638
				c-0.252,0.2-0.514,0.377-0.783,0.525s-0.548,0.271-0.833,0.368c-0.285,0.096-0.581,0.166-0.882,0.21
				c-0.302,0.044-0.611,0.063-0.929,0.054c-0.317-0.01-0.61-0.043-0.879-0.102c-0.268-0.059-0.514-0.14-0.735-0.248
				c-0.221-0.106-0.418-0.238-0.592-0.393s-0.324-0.336-0.45-0.538c-0.126-0.204-0.224-0.418-0.294-0.645
				c-0.069-0.227-0.11-0.463-0.123-0.713c-0.014-0.248,0.001-0.509,0.043-0.782c0.042-0.271,0.112-0.555,0.209-0.852l0.036-0.105
				c0.1-0.302,0.218-0.593,0.356-0.871c0.137-0.276,0.292-0.542,0.467-0.796c0.174-0.251,0.366-0.492,0.578-0.721
				c0.21-0.229,0.44-0.444,0.688-0.649c0.248-0.203,0.504-0.383,0.767-0.534c0.264-0.153,0.535-0.28,0.815-0.381
				c0.279-0.1,0.567-0.177,0.862-0.226c0.296-0.052,0.601-0.075,0.913-0.073c0.314,0.001,0.603,0.03,0.87,0.085
				c0.267,0.054,0.512,0.135,0.732,0.243c0.221,0.105,0.418,0.24,0.594,0.401c0.176,0.162,0.326,0.349,0.455,0.563
				c0.129,0.216,0.23,0.442,0.302,0.681c0.073,0.239,0.117,0.491,0.136,0.753C52.392,57.074,52.38,57.349,52.34,57.635z"/>
		</g>
		<linearGradient id="SVGID_10_" gradientUnits="userSpaceOnUse" x1="29.1665" y1="103.0283" x2="58.0985" y2="62.2135">
			<stop  offset="0" style="stop-color:#FFFFFF"/>
			<stop  offset="0.3655" style="stop-color:#F92169"/>
			<stop  offset="1" style="stop-color:#840033"/>
		</linearGradient>
		<path fill="url(#SVGID_10_)" d="M69.492,62.785c-0.062-0.437-0.135-0.856-0.225-1.258s-0.194-0.784-0.314-1.148
			c-0.118-0.364-0.252-0.71-0.401-1.04c-0.148-0.326-0.312-0.638-0.489-0.93l-4.667-7.69c0.182,0.297,0.347,0.614,0.496,0.948
			c0.15,0.334,0.284,0.687,0.403,1.06c0.118,0.372,0.222,0.764,0.308,1.174c0.088,0.41,0.16,0.84,0.216,1.288
			c0.069,0.565,0.103,1.163,0.097,1.795c-0.004,0.635-0.047,1.303-0.129,2.005c-0.081,0.705-0.2,1.442-0.358,2.215
			c-0.159,0.777-0.356,1.589-0.593,2.434c-0.233,0.831-0.487,1.641-0.765,2.429c-0.279,0.791-0.581,1.561-0.904,2.313
			c-0.326,0.752-0.675,1.485-1.048,2.199c-0.373,0.717-0.77,1.414-1.19,2.093c-0.422,0.684-0.864,1.339-1.327,1.97
			c-0.463,0.633-0.944,1.239-1.446,1.82c-0.504,0.581-1.026,1.135-1.567,1.664c-0.544,0.528-1.104,1.031-1.685,1.505
			c-0.579,0.476-1.177,0.921-1.79,1.335c-0.612,0.414-1.242,0.799-1.885,1.15c-0.644,0.354-1.303,0.675-1.977,0.967
			c-0.672,0.29-1.36,0.55-2.063,0.777c-0.7,0.228-1.412,0.419-2.133,0.573c-0.72,0.152-1.448,0.27-2.187,0.349
			c-0.736,0.081-1.48,0.123-2.233,0.13c-0.75,0.007-1.508-0.022-2.273-0.089c-0.753-0.064-1.473-0.154-2.161-0.268
			c-0.685-0.114-1.337-0.251-1.956-0.413c-0.618-0.163-1.201-0.347-1.754-0.557c-0.55-0.208-1.068-0.441-1.555-0.696
			c-0.372-0.195-0.732-0.401-1.082-0.618c-0.348-0.214-0.686-0.438-1.012-0.674c-0.326-0.233-0.641-0.477-0.944-0.73
			c-0.302-0.253-0.595-0.516-0.875-0.787c2.158,2.09,4.317,4.181,6.475,6.271c0.277,0.268,0.564,0.525,0.861,0.776
			c0.298,0.25,0.606,0.491,0.925,0.723c0.319,0.233,0.649,0.456,0.991,0.669c0.341,0.215,0.693,0.418,1.055,0.613
			c0.475,0.255,0.979,0.487,1.514,0.697c0.537,0.21,1.104,0.397,1.702,0.563c0.601,0.166,1.231,0.309,1.893,0.428
			c0.666,0.121,1.36,0.217,2.087,0.291c0.738,0.072,1.469,0.112,2.192,0.116c0.724,0.006,1.44-0.026,2.147-0.094
			c0.709-0.066,1.408-0.169,2.098-0.308c0.691-0.139,1.372-0.313,2.042-0.523c0.671-0.21,1.328-0.452,1.971-0.723
			c0.642-0.271,1.27-0.573,1.883-0.905c0.615-0.332,1.212-0.695,1.794-1.086c0.583-0.392,1.149-0.813,1.699-1.266
			c0.55-0.449,1.081-0.929,1.595-1.431c0.512-0.503,1.006-1.033,1.479-1.589c0.474-0.554,0.929-1.133,1.363-1.737
			c0.436-0.605,0.851-1.232,1.245-1.888c0.396-0.651,0.768-1.32,1.114-2.009c0.348-0.687,0.672-1.391,0.975-2.116
			c0.302-0.723,0.58-1.465,0.837-2.228c0.255-0.761,0.488-1.54,0.699-2.344c0.217-0.816,0.395-1.602,0.537-2.352
			c0.142-0.75,0.247-1.465,0.315-2.149c0.068-0.681,0.1-1.329,0.095-1.945C69.604,63.919,69.565,63.336,69.492,62.785z"/>
	</g>
</g>
</svg>
