<?xml version="1.0" encoding="utf-8"?>
<!-- Generator: Adobe Illustrator 15.0.0, SVG Export Plug-In . SVG Version: 6.00 Build 0)  -->
<!DOCTYPE svg PUBLIC "-//W3C//DTD SVG 1.1//EN" "http://www.w3.org/Graphics/SVG/1.1/DTD/svg11.dtd">
<svg version="1.1" id="图层_1" xmlns="http://www.w3.org/2000/svg" xmlns:xlink="http://www.w3.org/1999/xlink" x="0px" y="0px"
	 width="110.667px" height="110.5px" viewBox="0 0 110.667 110.5" enable-background="new 0 0 110.667 110.5" xml:space="preserve">
<g>
	<g>
		<linearGradient id="SVGID_1_" gradientUnits="userSpaceOnUse" x1="53.5854" y1="91.0747" x2="53.5854" y2="31.3529">
			<stop  offset="0" style="stop-color:#1A87A0"/>
			<stop  offset="0.6091" style="stop-color:#69C8E2"/>
			<stop  offset="0.7767" style="stop-color:#D1EEF6"/>
			<stop  offset="0.8782" style="stop-color:#69C8E2"/>
			<stop  offset="1" style="stop-color:#1A87A0"/>
		</linearGradient>
		<path fill="url(#SVGID_1_)" d="M60.023,64.848c-1.138,0.086-2.264,0.943-2.659,1.996c-0.011,0.03-0.021,0.061-0.031,0.092
			c-1.85-0.683-2.644-2.672-2.423-4.534c0.256-2.161,1.713-4.135,2.892-5.886c1.13-1.68,2.214-3.292,2.762-5.259
			c0.585-2.102,0.799-4.32,0.723-6.497c-0.132-3.822-1.805-8.92-6.367-9.069c-1.29-0.042-2.783,0.484-3.63,1.483
			c-0.248,0.293-0.436,0.599-0.569,0.915c-2.414-0.306-5.235,0.229-4.81,3.12c0.016,0.108,0.618-0.017,0.597-0.16
			c-0.392-2.653,1.875-3.109,4.111-2.686c-0.413,1.278,0.001,2.67,0.809,3.86c0.953,1.406,3.023,1.876,4.082,0.295
			c1.157-1.727-1.365-3.388-2.665-3.907c-0.445-0.177-0.995-0.332-1.589-0.44c0.251-0.708,0.738-1.34,1.48-1.792
			c2.321-1.417,5.041,0.431,6.303,2.367c1.225,1.881,1.584,4.259,1.661,6.458c0.08,2.305-0.248,4.651-0.927,6.852
			c-0.596,1.929-1.902,3.578-3.007,5.237c-1.817,2.729-4.435,7.846-0.124,9.792c0.199,0.089,0.407,0.163,0.619,0.221
			c-0.05,0.517,0.076,1.115,0.354,1.569c-0.063,0.057-0.12,0.111-0.163,0.162c-1.523,1.795-1.56,4.885-1.32,7.087
			c0.372,3.392,1.952,6.528,2.883,9.78c0.375,1.313,0.613,2.674,0.76,4.031c0.117,1.087,0.111,2.432-0.889,3.118
			c-0.541,0.369-2.205,0.435-2.698-0.249c-0.231-0.321-0.01-0.816,0.12-1.13c0.31-0.758,0.778-1.454,0.818-2.295
			c0.004-0.076-0.589-0.008-0.597,0.16c-0.036,0.754-0.432,1.422-0.743,2.092c-0.177,0.384-0.495,1.08-0.109,1.449
			c0.858,0.821,2.997,0.574,3.864-0.16c1.26-1.065,0.881-2.984,0.658-4.413c-0.432-2.756-1.435-5.32-2.331-7.947
			c-0.869-2.542-1.434-5.125-1.138-7.819c0.108-0.992,0.303-1.974,0.709-2.889c0.108-0.243,0.246-0.469,0.406-0.677
			c0.274,0.29,0.637,0.458,1.078,0.394c0.38-0.055,1.949-0.737,1.385-1.347c-0.463-0.502-1.471-0.154-2.182,0.282
			c-0.17-0.355-0.255-0.721-0.255-1.08c0.858,0.102,1.742-0.067,2.444-0.585C61.19,66.191,61.358,64.745,60.023,64.848z
			 M54.024,39.789c0.724,0.59,1.271,1.532,1.056,2.478c-0.191,0.835-1.116,1.172-1.889,0.873c-0.685-0.267-1.122-0.981-1.49-1.577
			c-0.601-0.976-0.787-2.085-0.539-3.079C52.307,38.773,53.387,39.268,54.024,39.789z M59.745,68.754
			c-0.289,0.902-1.096,0.538-1.488-0.021c0.024-0.023,0.045-0.047,0.071-0.069C58.467,68.543,60.026,67.875,59.745,68.754z
			 M60.028,66.635c-0.478,0.69-1.38,0.659-2.135,0.474c0.063-0.45,0.26-0.881,0.587-1.254c0.38-0.433,1.721-1.332,1.94-0.345
			C60.505,65.89,60.23,66.34,60.028,66.635z"/>
		<g>
			<linearGradient id="SVGID_2_" gradientUnits="userSpaceOnUse" x1="55.0762" y1="37.5938" x2="55.0762" y2="36.8385">
				<stop  offset="0" style="stop-color:#69C8E2"/>
				<stop  offset="1" style="stop-color:#1A87A0"/>
			</linearGradient>
			<path fill="url(#SVGID_2_)" d="M54.85,36.58c0,0-0.529,0.479-0.529,0.982c0,0,0.706,0.428,1.512-0.176
				C55.832,37.386,55.73,36.832,54.85,36.58z"/>
			<g>
				<linearGradient id="SVGID_3_" gradientUnits="userSpaceOnUse" x1="55.0078" y1="38.228" x2="55.0078" y2="22.0275">
					<stop  offset="0" style="stop-color:#69C8E2"/>
					<stop  offset="0.2132" style="stop-color:#58BAD4"/>
					<stop  offset="1" style="stop-color:#1A87A0"/>
				</linearGradient>
				<path fill="url(#SVGID_3_)" d="M64.278,14.865c-1.668-3.439-5.192-5.811-9.271-5.811s-7.602,2.372-9.27,5.811l0,0
					c0,0-7.102,12.117,9.27,21.27C71.38,26.981,64.278,14.865,64.278,14.865z"/>
			</g>
			<linearGradient id="SVGID_4_" gradientUnits="userSpaceOnUse" x1="55.0073" y1="36.7188" x2="55.0073" y2="36.1178">
				<stop  offset="0" style="stop-color:#69C8E2"/>
				<stop  offset="1" style="stop-color:#1A87A0"/>
			</linearGradient>
			<ellipse fill="url(#SVGID_4_)" cx="55.007" cy="36.272" rx="0.503" ry="0.463"/>
			<linearGradient id="SVGID_5_" gradientUnits="userSpaceOnUse" x1="56.9458" y1="29.7163" x2="56.9458" y2="11.7308">
				<stop  offset="0" style="stop-color:#69C8E2"/>
				<stop  offset="1" style="stop-color:#1A87A0"/>
			</linearGradient>
			<path fill="url(#SVGID_5_)" d="M48.182,19.853c0,5.894,4.042,10.671,9.029,10.671c3.47,0,6.48-2.314,7.992-5.706
				c1.574-5.533-1.025-9.97-1.025-9.97c-1.415-2.918-4.166-5.067-7.458-5.651C51.961,9.499,48.182,14.153,48.182,19.853z"/>
			<linearGradient id="SVGID_6_" gradientUnits="userSpaceOnUse" x1="55.147" y1="11.3086" x2="55.147" y2="25.3623">
				<stop  offset="0" style="stop-color:#EDF8FC"/>
				<stop  offset="0.4564" style="stop-color:#69C8E2"/>
				<stop  offset="1" style="stop-color:#47ACC6"/>
			</linearGradient>
			<ellipse fill="url(#SVGID_6_)" cx="55.147" cy="16.738" rx="6.244" ry="6.452"/>
		</g>
	</g>
	<g>
		<linearGradient id="SVGID_7_" gradientUnits="userSpaceOnUse" x1="59.0649" y1="92.333" x2="53.6917" y2="79.1685">
			<stop  offset="0" style="stop-color:#69C8E2"/>
			<stop  offset="0.4564" style="stop-color:#69C8E2"/>
			<stop  offset="1" style="stop-color:#1A87A0"/>
		</linearGradient>
		<polygon fill="url(#SVGID_7_)" points="52.436,67.607 59.912,76.244 53.382,85.704 45.573,77.443 		"/>
		<linearGradient id="SVGID_8_" gradientUnits="userSpaceOnUse" x1="55.0908" y1="111.2998" x2="37.6293" y2="89.54">
			<stop  offset="0" style="stop-color:#69C8E2"/>
			<stop  offset="0.4564" style="stop-color:#69C8E2"/>
			<stop  offset="1" style="stop-color:#1A87A0"/>
		</linearGradient>
		<polygon fill="url(#SVGID_8_)" points="39.002,87.172 47.137,95.059 43.425,100.384 35.098,92.714 		"/>
		<linearGradient id="SVGID_9_" gradientUnits="userSpaceOnUse" x1="20.8882" y1="95.6875" x2="43.4248" y2="95.6875">
			<stop  offset="0" style="stop-color:#69C8E2"/>
			<stop  offset="0.4564" style="stop-color:#69C8E2"/>
			<stop  offset="1" style="stop-color:#1A87A0"/>
		</linearGradient>
		<polygon fill="url(#SVGID_9_)" points="35.098,92.714 43.425,100.384 29.649,98.58 20.888,90.991 		"/>
		<linearGradient id="SVGID_10_" gradientUnits="userSpaceOnUse" x1="39.0024" y1="91.9795" x2="61.2305" y2="91.9795">
			<stop  offset="0" style="stop-color:#69C8E2"/>
			<stop  offset="0.4564" style="stop-color:#69C8E2"/>
			<stop  offset="1" style="stop-color:#1A87A0"/>
		</linearGradient>
		<polygon fill="url(#SVGID_10_)" points="53.57,88.811 61.23,96.787 47.137,95.059 39.002,87.172 		"/>
		<linearGradient id="SVGID_11_" gradientUnits="userSpaceOnUse" x1="54.0737" y1="99.9111" x2="77.168" y2="99.9111">
			<stop  offset="0" style="stop-color:#69C8E2"/>
			<stop  offset="0.4564" style="stop-color:#69C8E2"/>
			<stop  offset="1" style="stop-color:#1A87A0"/>
		</linearGradient>
		<polygon fill="url(#SVGID_11_)" points="70.014,96.95 77.168,104.806 61.782,102.79 54.074,95.017 		"/>
		<linearGradient id="SVGID_12_" gradientUnits="userSpaceOnUse" x1="72.2231" y1="102.9736" x2="70.6113" y2="76.9154">
			<stop  offset="0" style="stop-color:#69C8E2"/>
			<stop  offset="0.4564" style="stop-color:#69C8E2"/>
			<stop  offset="1" style="stop-color:#1A87A0"/>
		</linearGradient>
		<polygon fill="url(#SVGID_12_)" points="64.237,51.975 71.159,61.211 77.168,104.806 70.014,96.95 		"/>
		<g>
			<linearGradient id="SVGID_13_" gradientUnits="userSpaceOnUse" x1="45.4512" y1="44.4619" x2="45.4512" y2="86.6378">
				<stop  offset="0" style="stop-color:#FFFFFF"/>
				<stop  offset="0.4564" style="stop-color:#69C8E2"/>
				<stop  offset="1" style="stop-color:#1A87A0"/>
			</linearGradient>
			<path fill="url(#SVGID_13_)" d="M64.237,51.975l-13.482-0.79L20.888,90.991l14.21,1.724l3.904-5.542l14.567,1.638l0.504,6.206
				l15.94,1.934L64.237,51.975z M45.573,77.443l6.863-9.836l0.7,10.572L45.573,77.443z"/>
		</g>
	</g>
</g>
</svg>
