<?xml version="1.0" encoding="utf-8"?>
<!-- Generator: Adobe Illustrator 15.0.0, SVG Export Plug-In . SVG Version: 6.00 Build 0)  -->
<!DOCTYPE svg PUBLIC "-//W3C//DTD SVG 1.1//EN" "http://www.w3.org/Graphics/SVG/1.1/DTD/svg11.dtd">
<svg version="1.1" id="图层_1" xmlns="http://www.w3.org/2000/svg" xmlns:xlink="http://www.w3.org/1999/xlink" x="0px" y="0px"
	 width="110.667px" height="110.5px" viewBox="0 0 110.667 110.5" enable-background="new 0 0 110.667 110.5" xml:space="preserve">
<g>
	<g>
		
			<linearGradient id="SVGID_1_" gradientUnits="userSpaceOnUse" x1="1675.2832" y1="90.9707" x2="1675.2832" y2="30.4086" gradientTransform="matrix(-1 0 0 1 1731.9883 0)">
			<stop  offset="0.0051" style="stop-color:#E28100"/>
			<stop  offset="0.335" style="stop-color:#E28100"/>
			<stop  offset="0.7005" style="stop-color:#FFE66D"/>
			<stop  offset="0.7767" style="stop-color:#FFD400"/>
			<stop  offset="1" style="stop-color:#E28100"/>
		</linearGradient>
		<path fill="url(#SVGID_1_)" d="M55.615,59.751c0.128,1.024-0.114,2-0.602,2.907c-0.24,0.443-0.565,1.007-0.984,1.412
			c-0.568-1.016-1.397-1.476-2.598-0.865c-0.018,0.013-0.023,0.03-0.014,0.051c0.227,0.557,0.497,1.073,1.031,1.382
			c0.464,0.269,0.925,0.259,1.346,0.091c0.021,0.057,0.039,0.116,0.058,0.174c0.732,2.32,0.786,4.885,0.757,7.302
			c-0.037,3.072-0.937,5.979-1.951,8.851c-0.646,1.832-2.659,4.639-1.422,6.58c0.806,1.263,2.237,2.193,3.769,2.107
			c1.199-0.067,2.58-1.359,2.25-2.625c-0.248-0.952-1.077-1.795-2.035-2.05c-1.02-0.272-1.587,0.221-1.525,1.286
			c0.01,0.176,0.576,0.248,0.57,0.153c-0.031-0.536,0.13-1.566,0.941-1.236c0.582,0.237,1.12,0.771,1.354,1.356
			c0.231,0.57,0.247,1.226-0.14,1.74c-0.883,1.17-2.364,1.462-3.566,0.518c-0.961-0.754-1.596-1.76-1.363-3.025
			c0.228-1.227,0.822-2.296,1.288-3.439c1.056-2.591,2.008-5.435,2.293-8.228c0.146-1.423,0.357-6.964-0.84-9.707
			c0.357-0.247,0.669-0.591,0.906-0.941c1.178-1.739,1.342-3.51,0.558-5.463c-0.994-2.475-2.565-4.635-3.438-7.175
			c-0.945-2.75-1.523-5.686-1.268-8.604c0.249-2.86,1.273-5.279,2.562-7.808c0.507-0.994,1.151-2.168,2.233-2.632
			c1.537-0.659,3.385,0.216,4.214,1.622c0.261,0.442,0.424,1.047,0.385,1.617c-0.253-0.083-0.507-0.124-0.749-0.109
			c-0.613,0.039-2.066,0.524-1.443,1.379c0.321,0.441,1.15,0.644,1.649,0.447c0.614-0.24,0.943-0.696,1.061-1.226
			c0.805,0.507,1.292,1.537,0.903,2.213c-0.416-0.061-0.796,0.089-0.96,0.621c-0.047,0.151,0.437,0.208,0.518,0.19
			c0.365-0.081,0.631-0.208,0.82-0.366c0.086,0.075,0.154,0.192,0.187,0.356c0.097,0.479,0.071,0.939-0.068,1.407
			c-0.193,0.653-0.468,1.272-0.696,1.913c-0.044,0.123,0.519,0.296,0.57,0.153c0.353-0.987,1.616-3.272,0.245-4.049
			c-0.009-0.005-0.018-0.009-0.027-0.014c0.507-0.792-0.368-2.051-1.452-2.666c0.089-0.855-0.306-1.839-0.902-2.419
			c-1.21-1.177-2.858-1.934-4.535-1.376c-0.876,0.292-1.548,1.083-2.009,1.851c-0.616,1.027-1.195,2.143-1.675,3.24
			c-1.125,2.563-1.627,5.358-1.411,8.155c0.21,2.721,0.905,5.441,2.036,7.928C53.491,55.022,55.295,57.187,55.615,59.751z
			 M60.354,35.351c-0.077,0.421-0.277,0.805-0.653,1.063c-0.662,0.455-1.567-0.24-0.82-0.777
			C59.375,35.282,59.89,35.227,60.354,35.351z M53.652,64.365c-0.12,0.075-0.246,0.136-0.38,0.175
			c-0.45,0.134-0.745-0.117-0.96-0.496c-0.042-0.074-0.404-0.626-0.222-0.706c0.341-0.147,0.681-0.204,0.967,0.092
			C53.316,63.697,53.506,64.022,53.652,64.365z"/>
		<linearGradient id="SVGID_2_" gradientUnits="userSpaceOnUse" x1="56.9224" y1="33.0537" x2="56.9224" y2="32.3327">
			<stop  offset="0" style="stop-color:#FFE66D"/>
			<stop  offset="0.302" style="stop-color:#FFD400"/>
			<stop  offset="1" style="stop-color:#E28100"/>
		</linearGradient>
		<path fill="url(#SVGID_2_)" d="M56.706,32.086c0,0-0.504,0.457-0.504,0.937c0,0,0.673,0.409,1.442-0.168
			C57.644,32.855,57.548,32.327,56.706,32.086z"/>
		<g>
			<linearGradient id="SVGID_3_" gradientUnits="userSpaceOnUse" x1="56.8569" y1="33.6602" x2="56.8569" y2="18.192">
				<stop  offset="0" style="stop-color:#FFE66D"/>
				<stop  offset="0.302" style="stop-color:#FFD400"/>
				<stop  offset="1" style="stop-color:#E28100"/>
			</linearGradient>
			<path fill="url(#SVGID_3_)" d="M65.708,11.353c-1.592-3.284-4.957-5.548-8.851-5.548c-3.893,0-7.258,2.265-8.85,5.548l0,0
				c0,0-6.782,11.568,8.85,20.309C72.489,22.921,65.708,11.353,65.708,11.353z"/>
		</g>
		<linearGradient id="SVGID_4_" gradientUnits="userSpaceOnUse" x1="56.8569" y1="32.2183" x2="56.8569" y2="31.6448">
			<stop  offset="0" style="stop-color:#FFE66D"/>
			<stop  offset="0.302" style="stop-color:#FFD400"/>
			<stop  offset="1" style="stop-color:#E28100"/>
		</linearGradient>
		<ellipse fill="url(#SVGID_4_)" cx="56.857" cy="31.792" rx="0.481" ry="0.443"/>
		<linearGradient id="SVGID_5_" gradientUnits="userSpaceOnUse" x1="58.7075" y1="25.5327" x2="58.7075" y2="8.3601">
			<stop  offset="0" style="stop-color:#FFE66D"/>
			<stop  offset="0.302" style="stop-color:#FFD400"/>
			<stop  offset="1" style="stop-color:#E28100"/>
		</linearGradient>
		<path fill="url(#SVGID_5_)" d="M50.339,16.115c0,5.627,3.86,10.189,8.621,10.189c3.313,0,6.188-2.209,7.631-5.447
			c1.503-5.283-0.978-9.52-0.978-9.52c-1.351-2.786-3.978-4.837-7.121-5.396C53.948,6.229,50.339,10.673,50.339,16.115z"/>
		<linearGradient id="SVGID_6_" gradientUnits="userSpaceOnUse" x1="56.9902" y1="9.9341" x2="56.9902" y2="30.5794">
			<stop  offset="0" style="stop-color:#FFFAE2"/>
			<stop  offset="0.4872" style="stop-color:#FFD400"/>
			<stop  offset="1" style="stop-color:#F1AC00"/>
		</linearGradient>
		<ellipse fill="url(#SVGID_6_)" cx="56.99" cy="13.142" rx="5.962" ry="6.16"/>
	</g>
	<g>
		<linearGradient id="SVGID_7_" gradientUnits="userSpaceOnUse" x1="62.9268" y1="75.3936" x2="76.5732" y2="75.3936">
			<stop  offset="0" style="stop-color:#FFFFFF"/>
			<stop  offset="0.4822" style="stop-color:#FFD400"/>
			<stop  offset="1" style="stop-color:#E28100"/>
		</linearGradient>
		<path fill="url(#SVGID_7_)" d="M66.649,72.646c3.308,2.405,6.616,4.812,9.924,7.217c-0.254-0.185-0.524-0.36-0.809-0.524
			c-0.285-0.165-0.585-0.319-0.901-0.464c-0.316-0.144-0.648-0.278-0.994-0.402c-0.347-0.123-0.71-0.237-1.088-0.341l-9.855-7.209
			c0.37,0.104,0.726,0.219,1.066,0.344c0.34,0.124,0.665,0.257,0.975,0.401c0.31,0.144,0.605,0.297,0.885,0.46
			C66.133,72.292,66.399,72.464,66.649,72.646z"/>
		<g>
			<linearGradient id="SVGID_8_" gradientUnits="userSpaceOnUse" x1="41.2954" y1="69.3291" x2="57.0371" y2="85.0708">
				<stop  offset="0" style="stop-color:#FFFFFF"/>
				<stop  offset="0.4822" style="stop-color:#FFD400"/>
				<stop  offset="1" style="stop-color:#E28100"/>
			</linearGradient>
			<path fill="url(#SVGID_8_)" d="M66.44,85.493c-0.056-0.18-0.136-0.347-0.241-0.501c-0.104-0.154-0.233-0.296-0.386-0.425
				c-0.004-0.003-0.009-0.006-0.013-0.01c-0.004-0.003-0.009-0.007-0.013-0.01c-0.004-0.004-0.008-0.007-0.012-0.011
				s-0.009-0.007-0.013-0.01l-9.603-7.497c0.004,0.003,0.009,0.007,0.013,0.01l0.013,0.01c0.004,0.003,0.009,0.007,0.013,0.01
				c0.004,0.003,0.009,0.007,0.013,0.01c0.15,0.127,0.278,0.265,0.382,0.417c0.104,0.15,0.185,0.313,0.241,0.488
				c0.057,0.175,0.091,0.362,0.101,0.561c0.011,0.199-0.002,0.411-0.039,0.634l-0.019,0.117c-0.037,0.224-0.093,0.438-0.17,0.642
				c-0.077,0.204-0.174,0.399-0.292,0.585c-0.118,0.185-0.255,0.361-0.414,0.527c-0.158,0.167-0.337,0.324-0.536,0.471
				c-0.2,0.148-0.417,0.281-0.653,0.398c-0.236,0.117-0.49,0.218-0.763,0.304c-0.273,0.086-0.565,0.156-0.875,0.211
				c-0.311,0.055-0.641,0.095-0.989,0.12l-6.508,0.456l9.25,7.832l6.687-0.56c0.357-0.03,0.696-0.075,1.016-0.136
				c0.319-0.061,0.619-0.138,0.9-0.23s0.544-0.201,0.787-0.325c0.244-0.124,0.468-0.264,0.674-0.419
				c0.207-0.155,0.392-0.32,0.557-0.494s0.308-0.357,0.431-0.55c0.124-0.193,0.226-0.396,0.307-0.607
				c0.082-0.212,0.143-0.434,0.183-0.666l0.021-0.121c0.04-0.23,0.056-0.449,0.048-0.654C66.529,85.865,66.497,85.672,66.44,85.493z
				"/>
		</g>
		<g>
			<linearGradient id="SVGID_9_" gradientUnits="userSpaceOnUse" x1="44.4302" y1="55.6177" x2="67.3323" y2="78.5198">
				<stop  offset="0" style="stop-color:#FFFFFF"/>
				<stop  offset="0.4822" style="stop-color:#FFD400"/>
				<stop  offset="1" style="stop-color:#E28100"/>
			</linearGradient>
			<path fill="url(#SVGID_9_)" d="M68.039,70.452c-0.059-0.185-0.145-0.353-0.255-0.503s-0.248-0.284-0.411-0.4
				c-3.276-2.333-6.552-4.665-9.829-6.998c0.16,0.114,0.295,0.245,0.406,0.391c0.11,0.147,0.195,0.311,0.255,0.49
				c0.06,0.18,0.095,0.375,0.104,0.588c0.01,0.212-0.004,0.441-0.044,0.686l-0.02,0.121c-0.078,0.482-0.231,0.906-0.459,1.274
				s-0.533,0.68-0.912,0.935s-0.835,0.455-1.368,0.599c-0.533,0.144-1.144,0.232-1.831,0.264l-5.747,0.268l9.498,7.309l5.905-0.35
				c0.707-0.042,1.334-0.14,1.884-0.296c0.548-0.155,1.019-0.367,1.412-0.636s0.708-0.595,0.948-0.978
				c0.239-0.383,0.402-0.824,0.488-1.323l0.022-0.125c0.044-0.254,0.062-0.49,0.055-0.709
				C68.131,70.838,68.098,70.636,68.039,70.452z"/>
		</g>
		<linearGradient id="SVGID_10_" gradientUnits="userSpaceOnUse" x1="34.0728" y1="101.8174" x2="41.0572" y2="62.5969">
			<stop  offset="0.4822" style="stop-color:#FFD400"/>
			<stop  offset="1" style="stop-color:#E28100"/>
		</linearGradient>
		<polygon fill="url(#SVGID_10_)" points="39.847,102.846 31.138,94.437 37.086,51.433 46.48,58.278 		"/>
		<g>
			
				<linearGradient id="SVGID_11_" gradientUnits="userSpaceOnUse" x1="59.8374" y1="52.3281" x2="57.957" y2="103.0997" gradientTransform="matrix(1 0 0 1 2 3)">
				<stop  offset="0" style="stop-color:#FFFFFF"/>
				<stop  offset="0.4822" style="stop-color:#FFD400"/>
				<stop  offset="1" style="stop-color:#E28100"/>
			</linearGradient>
			<path fill="url(#SVGID_11_)" d="M81.648,64.828c-0.026-0.298-0.068-0.585-0.126-0.859c-0.057-0.275-0.125-0.539-0.203-0.792
				c-0.078-0.254-0.166-0.498-0.264-0.73c-0.098-0.233-0.206-0.456-0.324-0.668c-0.118-0.213-0.246-0.415-0.384-0.607
				c-0.226-0.313-0.475-0.605-0.746-0.878c-0.272-0.274-0.568-0.527-0.886-0.761c-0.319-0.234-0.662-0.449-1.027-0.643
				c-0.366-0.194-0.756-0.369-1.169-0.523c-0.414-0.155-0.863-0.288-1.346-0.399c-0.484-0.112-1.003-0.201-1.557-0.269
				c-0.555-0.067-1.146-0.113-1.771-0.136c-0.627-0.023-1.289-0.024-1.987-0.002l-23.379,0.72l-6.633,44.568l22.406-2.256
				c0.612-0.062,1.208-0.14,1.789-0.233c0.58-0.093,1.143-0.202,1.69-0.326s1.078-0.264,1.594-0.42
				c0.516-0.156,1.016-0.327,1.5-0.514c0.485-0.186,0.952-0.384,1.403-0.594c0.451-0.21,0.884-0.432,1.302-0.666
				c0.417-0.233,0.817-0.479,1.201-0.736c0.384-0.257,0.751-0.526,1.103-0.808s0.687-0.572,1.004-0.873
				c0.317-0.3,0.618-0.61,0.901-0.93s0.549-0.649,0.799-0.989c0.249-0.339,0.482-0.688,0.697-1.046
				c0.216-0.359,0.415-0.724,0.596-1.098c0.182-0.374,0.346-0.756,0.494-1.148c0.148-0.392,0.279-0.795,0.395-1.209
				c0.115-0.415,0.214-0.842,0.297-1.283c0.132-0.707,0.212-1.371,0.24-1.992c0.028-0.622,0.003-1.2-0.075-1.736
				s-0.208-1.028-0.392-1.478c-0.185-0.45-0.421-0.857-0.712-1.22c-0.291-0.364-0.62-0.702-0.984-1.015
				c-0.366-0.314-0.769-0.603-1.209-0.866c-0.441-0.264-0.921-0.502-1.438-0.715c-0.518-0.213-1.074-0.4-1.668-0.563
				c0.562-0.236,1.1-0.495,1.616-0.774c0.516-0.279,1.009-0.581,1.479-0.903c0.47-0.323,0.917-0.667,1.343-1.032
				c0.425-0.366,0.828-0.753,1.209-1.162c0.381-0.409,0.729-0.847,1.045-1.315c0.316-0.468,0.6-0.968,0.851-1.5
				c0.252-0.533,0.472-1.099,0.661-1.701c0.188-0.603,0.345-1.24,0.471-1.916c0.069-0.368,0.122-0.726,0.159-1.071
				c0.037-0.346,0.059-0.679,0.064-1C81.684,65.436,81.674,65.126,81.648,64.828z M66.489,86.725l-0.021,0.121
				c-0.041,0.231-0.102,0.453-0.183,0.666c-0.082,0.212-0.184,0.414-0.307,0.607c-0.123,0.193-0.267,0.376-0.431,0.55
				s-0.35,0.339-0.557,0.494c-0.206,0.155-0.431,0.295-0.674,0.419c-0.243,0.124-0.506,0.232-0.787,0.325s-0.582,0.169-0.9,0.23
				c-0.319,0.062-0.658,0.106-1.016,0.136l-6.687,0.56l1.039-6.38l6.774-0.498c0.36-0.026,0.694-0.033,1.001-0.021
				s0.589,0.044,0.846,0.095c0.256,0.051,0.486,0.122,0.69,0.211c0.205,0.09,0.384,0.199,0.537,0.327
				c0.153,0.129,0.282,0.271,0.386,0.425c0.105,0.154,0.185,0.321,0.241,0.501c0.057,0.18,0.088,0.373,0.097,0.578
				C66.545,86.276,66.529,86.494,66.489,86.725z M68.084,71.768l-0.022,0.125c-0.086,0.499-0.249,0.939-0.488,1.323
				c-0.239,0.383-0.555,0.708-0.948,0.978s-0.864,0.481-1.412,0.636c-0.55,0.156-1.177,0.254-1.884,0.296l-5.905,0.35l1.011-6.207
				l5.875-0.29c0.72-0.035,1.338-0.003,1.854,0.096c0.515,0.1,0.929,0.266,1.242,0.499c0.313,0.233,0.525,0.532,0.638,0.898
				C68.158,70.836,68.171,71.269,68.084,71.768z"/>
		</g>
		<g>
			<linearGradient id="SVGID_12_" gradientUnits="userSpaceOnUse" x1="31.9458" y1="56.5762" x2="70.8982" y2="54.6957">
				<stop  offset="0" style="stop-color:#FFFFFF"/>
				<stop  offset="0.4822" style="stop-color:#FFD400"/>
				<stop  offset="1" style="stop-color:#E28100"/>
			</linearGradient>
			<path fill="url(#SVGID_12_)" d="M68.052,52.698c-0.131-0.083-0.265-0.164-0.402-0.241c-0.138-0.078-0.278-0.152-0.423-0.224
				c-0.144-0.072-0.292-0.14-0.444-0.207c-0.151-0.066-0.307-0.129-0.465-0.189c-0.406-0.154-0.845-0.288-1.317-0.4
				c-0.473-0.113-0.98-0.205-1.521-0.276c-0.542-0.071-1.118-0.122-1.728-0.15c-0.611-0.029-1.256-0.037-1.936-0.024l-22.73,0.446
				l9.394,6.845l23.379-0.72c0.698-0.022,1.36-0.021,1.987,0.002c0.625,0.023,1.215,0.068,1.771,0.136
				c0.554,0.067,1.072,0.157,1.557,0.269c0.483,0.111,0.932,0.244,1.346,0.399c0.162,0.06,0.32,0.124,0.475,0.19
				c0.154,0.066,0.305,0.137,0.452,0.208c0.147,0.073,0.291,0.148,0.431,0.227c0.14,0.079,0.276,0.161,0.409,0.246
				C74.874,57.056,71.463,54.877,68.052,52.698z"/>
		</g>
	</g>
</g>
</svg>
