<?xml version="1.0" encoding="utf-8"?>
<!-- Generator: Adobe Illustrator 15.0.0, SVG Export Plug-In . SVG Version: 6.00 Build 0)  -->
<!DOCTYPE svg PUBLIC "-//W3C//DTD SVG 1.1//EN" "http://www.w3.org/Graphics/SVG/1.1/DTD/svg11.dtd">
<svg version="1.1" id="图层_1" xmlns="http://www.w3.org/2000/svg" xmlns:xlink="http://www.w3.org/1999/xlink" x="0px" y="0px"
	 width="110.667px" height="110.5px" viewBox="0 0 110.667 110.5" enable-background="new 0 0 110.667 110.5" xml:space="preserve">
<g>
	<g>
		<linearGradient id="SVGID_1_" gradientUnits="userSpaceOnUse" x1="48.5962" y1="90.5654" x2="48.5962" y2="32.5471">
			<stop  offset="0" style="stop-color:#517F00"/>
			<stop  offset="0.6447" style="stop-color:#ABF900"/>
			<stop  offset="1" style="stop-color:#517F00"/>
		</linearGradient>
		<path fill="url(#SVGID_1_)" d="M42.108,43.184c0.087-0.809,0.534-1.263,1.125-1.472c0.001,0.075,0.002,0.15,0.005,0.225
			c0.066,1.502,0.698,2.887,2.012,3.675c0.843,0.505,1.997,0.542,2.519-0.406c0.393-0.716,0.201-1.821-0.186-2.492
			c-0.451-0.785-1.402-1.226-2.24-1.439c-0.487-0.124-1.018-0.161-1.526-0.099c0.012-0.216,0.034-0.429,0.066-0.636
			c0.057-0.358,0.23-0.854,0.493-1.3c0.128,0.228,0.289,0.44,0.491,0.629c0.804,0.749,1.879,0.46,2.143-0.595
			c0.292-1.169-0.726-1.721-1.713-1.327c-0.25,0.1-0.47,0.227-0.669,0.373c-0.079-0.615,0.05-1.295,0.182-1.887
			c0.311-1.398,1.374-2.441,2.597-3.109c2.797-1.528,4.756,0.867,5.889,3.185c2.256,4.619,2.196,10.099,0.836,14.97
			c-0.441,1.583-1.295,2.975-2.119,4.383c-0.964,1.647-1.928,3.298-2.688,5.05c-1.054,2.432-1.737,5.899,0.823,7.497
			c-0.376,0.685-0.59,1.442-0.505,2.185c0.001,0.011,0.004,0.021,0.006,0.032c0.197-0.041,0.393-0.081,0.591-0.114
			c-0.043-0.251-0.056-0.508-0.029-0.764c0.041-0.383,0.182-0.752,0.378-1.102c0.045,0.022,0.088,0.044,0.135,0.065
			c0.827,0.363,1.735,0.348,2.378-0.345c0.441-0.476,0.618-1.271,0.326-1.86c-0.355-0.713-1.316-0.23-1.742,0.102
			c-0.473,0.371-0.93,0.855-1.293,1.4c-0.883-0.689-1.426-1.916-1.487-2.942c-0.104-1.777,0.685-3.564,1.436-5.128
			c1.515-3.156,3.729-5.917,4.59-9.354c1.2-4.791,0.996-10.001-1.19-14.473c-0.806-1.647-2.017-3.325-3.911-3.718
			c-1.771-0.367-3.819,1.104-4.826,2.402c-0.818,1.053-1.276,2.667-0.846,3.957c-0.593,0.678-0.864,1.601-0.916,2.543
			c-0.881,0.26-1.592,0.875-1.706,1.933C41.503,43.518,42.082,43.438,42.108,43.184z M51.756,67.149
			c0.248-0.264,0.848-0.886,1.153-0.394c0.458,0.74-0.344,1.825-1.123,1.791c-0.35-0.016-0.673-0.114-0.969-0.267
			C51.102,67.864,51.443,67.483,51.756,67.149z M46.088,38.227c0.681,0.198,0.483,2.027-0.456,1.554
			c-0.494-0.249-0.769-0.612-0.908-1.029C45.09,38.335,45.555,38.073,46.088,38.227z M46.278,42.18
			c0.795,0.495,1.083,1.252,1.103,2.155c0.024,1.144-0.769,1.44-1.695,0.95c-1.345-0.713-1.865-2.237-1.878-3.699
			C44.649,41.502,45.621,41.77,46.278,42.18z"/>
		<g>
			
				<linearGradient id="SVGID_2_" gradientUnits="userSpaceOnUse" x1="1944.1465" y1="34.4224" x2="1944.1465" y2="33.7056" gradientTransform="matrix(-1 0 0 1 1993.3301 0)">
				<stop  offset="0" style="stop-color:#ABF900"/>
				<stop  offset="1" style="stop-color:#517F00"/>
			</linearGradient>
			<path fill="url(#SVGID_2_)" d="M49.398,33.461c0,0,0.502,0.454,0.502,0.932c0,0-0.668,0.406-1.433-0.167
				C48.467,34.226,48.563,33.7,49.398,33.461z"/>
			<g>
				<linearGradient id="SVGID_3_" gradientUnits="userSpaceOnUse" x1="49.1191" y1="35.0244" x2="49.1191" y2="19.6572">
					<stop  offset="0" style="stop-color:#ABF900"/>
					<stop  offset="1" style="stop-color:#517F00"/>
				</linearGradient>
				<path fill="url(#SVGID_3_)" d="M57.912,12.862c-1.582-3.262-4.925-5.511-8.794-5.511c-3.868,0-7.21,2.249-8.792,5.511l0,0
					c0,0-6.737,11.494,8.792,20.177C64.649,24.355,57.912,12.862,57.912,12.862z"/>
			</g>
			<linearGradient id="SVGID_4_" gradientUnits="userSpaceOnUse" x1="49.1191" y1="33.5923" x2="49.1191" y2="33.0223">
				<stop  offset="0" style="stop-color:#ABF900"/>
				<stop  offset="1" style="stop-color:#517F00"/>
			</linearGradient>
			<ellipse fill="url(#SVGID_4_)" cx="49.119" cy="33.169" rx="0.477" ry="0.439"/>
			<linearGradient id="SVGID_5_" gradientUnits="userSpaceOnUse" x1="50.9575" y1="26.9502" x2="50.9575" y2="9.8896">
				<stop  offset="0" style="stop-color:#ABF900"/>
				<stop  offset="1" style="stop-color:#517F00"/>
			</linearGradient>
			<path fill="url(#SVGID_5_)" d="M42.644,17.594c0,5.59,3.835,10.123,8.565,10.123c3.292,0,6.147-2.195,7.582-5.412
				c1.493-5.248-0.972-9.457-0.972-9.457c-1.342-2.768-3.953-4.806-7.075-5.361C46.229,7.772,42.644,12.188,42.644,17.594z"/>
			<linearGradient id="SVGID_6_" gradientUnits="userSpaceOnUse" x1="49.2515" y1="9.4888" x2="49.2515" y2="22.8203">
				<stop  offset="0" style="stop-color:#FFFFFF"/>
				<stop  offset="0.4308" style="stop-color:#ABF900"/>
				<stop  offset="1" style="stop-color:#79B500"/>
			</linearGradient>
			<ellipse fill="url(#SVGID_6_)" cx="49.251" cy="14.64" rx="5.924" ry="6.12"/>
		</g>
	</g>
	<g>
		<g>
			<linearGradient id="SVGID_7_" gradientUnits="userSpaceOnUse" x1="64.6631" y1="90.2231" x2="47.7404" y2="65.2421">
				<stop  offset="0" style="stop-color:#ABF900"/>
				<stop  offset="1" style="stop-color:#517F00"/>
			</linearGradient>
			<path fill="url(#SVGID_7_)" d="M60.426,66.19c1.363,2.95,2.726,5.9,4.088,8.849c-0.145-0.313-0.302-0.614-0.469-0.9
				c-0.167-0.287-0.347-0.56-0.537-0.82c-0.19-0.26-0.392-0.507-0.605-0.74c-0.213-0.233-0.437-0.453-0.673-0.66
				c-0.268-0.235-0.564-0.442-0.888-0.623c-0.324-0.18-0.675-0.333-1.055-0.458c-0.379-0.126-0.787-0.225-1.222-0.296
				s-0.897-0.116-1.389-0.134c-0.306-0.011-0.607-0.008-0.903,0.01c-0.295,0.018-0.586,0.05-0.871,0.097
				c-0.285,0.046-0.564,0.107-0.837,0.182c-0.274,0.076-0.542,0.165-0.806,0.27c-0.263,0.104-0.52,0.22-0.769,0.347
				c-0.25,0.125-0.492,0.263-0.727,0.411c-0.234,0.148-0.462,0.307-0.684,0.478c-0.221,0.17-0.435,0.352-0.642,0.543
				c-0.208,0.192-0.407,0.393-0.599,0.603c-0.191,0.21-0.375,0.428-0.549,0.655c-0.175,0.227-0.342,0.463-0.501,0.708
				c-0.16,0.245-0.31,0.498-0.453,0.76c-0.144,0.263-0.276,0.53-0.396,0.801c-0.121,0.272-0.23,0.547-0.329,0.827
				c-0.098,0.28-0.184,0.564-0.26,0.853c-0.075,0.289-0.139,0.582-0.192,0.878c-0.063,0.355-0.111,0.697-0.145,1.028
				c-0.034,0.331-0.054,0.651-0.06,0.961c-0.006,0.311,0.002,0.612,0.023,0.906c0.022,0.294,0.057,0.58,0.106,0.861
				c0.039,0.228,0.086,0.451,0.142,0.667c0.055,0.217,0.119,0.427,0.19,0.632c0.071,0.205,0.151,0.403,0.239,0.596
				c0.087,0.193,0.183,0.38,0.287,0.561c-1.609-2.801-3.219-5.602-4.829-8.403c-0.107-0.187-0.206-0.379-0.296-0.578
				c-0.09-0.199-0.171-0.404-0.245-0.616c-0.074-0.211-0.138-0.429-0.195-0.652c-0.056-0.224-0.104-0.454-0.144-0.69
				c-0.049-0.29-0.084-0.585-0.104-0.89c-0.021-0.304-0.027-0.615-0.019-0.937c0.008-0.322,0.031-0.653,0.069-0.996
				c0.038-0.342,0.09-0.696,0.158-1.064c0.057-0.308,0.125-0.61,0.206-0.91c0.081-0.299,0.172-0.593,0.277-0.883
				c0.104-0.29,0.22-0.576,0.348-0.857c0.128-0.281,0.268-0.558,0.419-0.831c0.15-0.272,0.31-0.535,0.478-0.789
				c0.167-0.254,0.343-0.5,0.527-0.735c0.184-0.236,0.376-0.463,0.577-0.681c0.201-0.218,0.411-0.427,0.628-0.626
				c0.217-0.201,0.441-0.389,0.673-0.567c0.231-0.177,0.47-0.343,0.716-0.498s0.5-0.298,0.76-0.43
				c0.261-0.132,0.529-0.253,0.804-0.364c0.275-0.109,0.556-0.204,0.842-0.284c0.286-0.079,0.578-0.144,0.875-0.194
				c0.297-0.05,0.6-0.085,0.908-0.106c0.309-0.02,0.623-0.026,0.942-0.016c0.512,0.015,0.994,0.058,1.447,0.128
				c0.454,0.071,0.878,0.171,1.273,0.298c0.395,0.127,0.761,0.283,1.098,0.467c0.337,0.184,0.645,0.396,0.923,0.638
				c0.245,0.212,0.478,0.438,0.698,0.678s0.43,0.493,0.627,0.761c0.198,0.268,0.382,0.549,0.556,0.844
				C60.115,65.558,60.276,65.868,60.426,66.19z"/>
		</g>
		<g>
			<linearGradient id="SVGID_8_" gradientUnits="userSpaceOnUse" x1="83.2739" y1="85.2319" x2="67.5593" y2="65.488">
				<stop  offset="0" style="stop-color:#ABF900"/>
				<stop  offset="1" style="stop-color:#517F00"/>
			</linearGradient>
			<polygon fill="url(#SVGID_8_)" points="74.344,60.391 77.818,69.517 64.742,75.568 60.661,66.736 			"/>
		</g>
		<g>
			<linearGradient id="SVGID_9_" gradientUnits="userSpaceOnUse" x1="89.7021" y1="121.9932" x2="71.1667" y2="104.2638">
				<stop  offset="0" style="stop-color:#ABF900"/>
				<stop  offset="1" style="stop-color:#517F00"/>
			</linearGradient>
			<path fill="url(#SVGID_9_)" d="M36.322,92.6c-1.809-2.687-3.617-5.374-5.427-8.061c0.088,0.13,0.177,0.259,0.268,0.386
				c0.091,0.127,0.184,0.253,0.278,0.378c0.094,0.125,0.19,0.249,0.289,0.372c0.098,0.123,0.198,0.245,0.299,0.365
				c0.438,0.52,0.903,1.013,1.395,1.479c0.493,0.468,1.013,0.909,1.562,1.324c0.549,0.416,1.125,0.805,1.729,1.166
				c0.605,0.362,1.237,0.698,1.897,1.007c0.661,0.309,1.339,0.584,2.035,0.828c0.698,0.244,1.412,0.454,2.145,0.631
				c0.733,0.177,1.484,0.321,2.253,0.432c0.769,0.11,1.556,0.188,2.361,0.231c0.716,0.039,1.419,0.056,2.107,0.053
				s1.362-0.026,2.021-0.071c0.659-0.045,1.305-0.11,1.935-0.197c0.63-0.086,1.246-0.194,1.846-0.323
				c0.6-0.129,1.187-0.272,1.762-0.431c0.575-0.159,1.137-0.332,1.686-0.52c0.549-0.188,1.086-0.391,1.609-0.608
				c0.524-0.218,1.034-0.45,1.531-0.697c0.497-0.247,0.981-0.506,1.452-0.779c0.471-0.272,0.929-0.557,1.374-0.855
				c0.445-0.297,0.877-0.607,1.296-0.93s0.825-0.657,1.218-1.004c0.393-0.347,0.775-0.701,1.146-1.061
				c0.372-0.36,0.732-0.727,1.082-1.099c0.351-0.372,0.69-0.751,1.019-1.136c0.329-0.384,0.647-0.775,0.955-1.172l3.699,8.362
				c-0.292,0.381-0.595,0.755-0.907,1.125c-0.313,0.369-0.636,0.732-0.969,1.09c-0.333,0.357-0.677,0.708-1.03,1.053
				c-0.354,0.345-0.718,0.684-1.091,1.016c-0.374,0.333-0.761,0.654-1.16,0.962c-0.399,0.309-0.811,0.606-1.235,0.89
				c-0.424,0.285-0.861,0.557-1.31,0.817c-0.449,0.26-0.911,0.508-1.385,0.743s-0.961,0.457-1.46,0.664
				c-0.5,0.207-1.012,0.4-1.537,0.579c-0.524,0.178-1.061,0.342-1.61,0.492c-0.549,0.15-1.11,0.286-1.684,0.406
				c-0.573,0.121-1.162,0.222-1.765,0.302c-0.602,0.08-1.219,0.14-1.85,0.18c-0.631,0.04-1.276,0.059-1.935,0.058
				c-0.658,0-1.331-0.021-2.017-0.062c-0.771-0.046-1.524-0.125-2.262-0.235c-0.737-0.11-1.457-0.253-2.16-0.428
				c-0.703-0.175-1.389-0.381-2.058-0.62c-0.668-0.238-1.32-0.508-1.956-0.81c-0.634-0.301-1.242-0.628-1.825-0.98
				c-0.58-0.353-1.136-0.731-1.665-1.135c-0.528-0.403-1.03-0.832-1.506-1.286c-0.475-0.453-0.924-0.933-1.347-1.436
				c-0.098-0.117-0.195-0.235-0.29-0.354c-0.094-0.119-0.188-0.239-0.279-0.36c-0.092-0.121-0.182-0.244-0.269-0.368
				C36.493,92.85,36.407,92.726,36.322,92.6z"/>
		</g>
		<g>
			<linearGradient id="SVGID_10_" gradientUnits="userSpaceOnUse" x1="46.7129" y1="54.0142" x2="60.0096" y2="98.74">
				<stop  offset="0" style="stop-color:#C7FB55"/>
				<stop  offset="0.198" style="stop-color:#ABF900"/>
				<stop  offset="1" style="stop-color:#517F00"/>
			</linearGradient>
			<path fill="url(#SVGID_10_)" d="M55.62,49.324c0.61,0.012,1.205,0.04,1.785,0.083c0.581,0.043,1.147,0.103,1.699,0.178
				c0.552,0.076,1.09,0.167,1.613,0.274c0.523,0.107,1.032,0.231,1.526,0.371c0.494,0.139,0.976,0.292,1.443,0.456
				c0.467,0.165,0.922,0.342,1.363,0.532c0.441,0.19,0.869,0.393,1.283,0.608c0.415,0.215,0.816,0.443,1.204,0.684
				c0.388,0.241,0.763,0.494,1.124,0.758c0.362,0.265,0.71,0.541,1.045,0.829s0.656,0.587,0.965,0.898
				c0.309,0.312,0.604,0.635,0.886,0.97c0.282,0.335,0.55,0.679,0.807,1.031c0.257,0.353,0.502,0.712,0.734,1.081
				c0.233,0.369,0.453,0.746,0.661,1.132c0.208,0.385,0.404,0.78,0.586,1.182l-13.683,6.345c-0.155-0.385-0.326-0.752-0.511-1.102
				c-0.187-0.349-0.387-0.68-0.604-0.993c-0.217-0.313-0.449-0.608-0.696-0.885c-0.248-0.277-0.51-0.536-0.789-0.777
				c-0.278-0.241-0.585-0.454-0.923-0.638c-0.336-0.184-0.703-0.339-1.098-0.467c-0.395-0.127-0.819-0.227-1.273-0.298
				c-0.453-0.07-0.935-0.113-1.447-0.128c-0.32-0.01-0.634-0.004-0.942,0.016c-0.308,0.021-0.611,0.056-0.908,0.106
				c-0.297,0.05-0.589,0.115-0.875,0.194c-0.286,0.08-0.567,0.174-0.842,0.284c-0.275,0.11-0.543,0.231-0.804,0.364
				c-0.26,0.132-0.514,0.275-0.76,0.43s-0.485,0.321-0.716,0.498c-0.232,0.178-0.456,0.366-0.673,0.567
				c-0.218,0.2-0.427,0.408-0.628,0.626c-0.201,0.218-0.393,0.445-0.577,0.681c-0.184,0.235-0.36,0.48-0.527,0.735
				c-0.167,0.254-0.327,0.517-0.478,0.789c-0.151,0.272-0.292,0.549-0.419,0.831c-0.127,0.281-0.244,0.567-0.348,0.857
				c-0.104,0.29-0.196,0.584-0.277,0.883c-0.08,0.299-0.149,0.602-0.206,0.91c-0.068,0.368-0.121,0.722-0.158,1.064
				c-0.038,0.343-0.061,0.674-0.069,0.996c-0.008,0.321-0.002,0.633,0.019,0.937c0.021,0.304,0.056,0.6,0.104,0.89
				c0.048,0.29,0.11,0.57,0.184,0.842s0.161,0.533,0.26,0.786c0.099,0.253,0.211,0.496,0.336,0.73
				c0.125,0.234,0.263,0.458,0.414,0.673c0.15,0.216,0.311,0.421,0.483,0.615c0.172,0.194,0.356,0.377,0.55,0.549
				c0.194,0.172,0.399,0.333,0.616,0.483c0.216,0.151,0.444,0.29,0.682,0.418s0.486,0.243,0.744,0.342
				c0.257,0.099,0.525,0.185,0.802,0.256c0.277,0.071,0.563,0.127,0.86,0.17c0.296,0.042,0.602,0.07,0.917,0.084
				c0.544,0.024,1.067,0.015,1.568-0.026c0.501-0.042,0.981-0.115,1.439-0.222c0.458-0.106,0.895-0.246,1.309-0.417
				s0.807-0.377,1.176-0.614c0.371-0.237,0.733-0.493,1.088-0.768c0.354-0.274,0.701-0.569,1.039-0.881
				c0.338-0.313,0.669-0.644,0.991-0.995c0.322-0.35,0.637-0.719,0.943-1.106l11.808,7.286c-0.308,0.396-0.626,0.788-0.955,1.172
				c-0.329,0.385-0.668,0.764-1.019,1.136c-0.35,0.372-0.71,0.738-1.082,1.099c-0.372,0.359-0.754,0.713-1.146,1.061
				c-0.393,0.347-0.799,0.682-1.218,1.004s-0.851,0.632-1.296,0.93c-0.445,0.298-0.903,0.583-1.374,0.855
				c-0.471,0.272-0.956,0.532-1.452,0.779c-0.497,0.247-1.007,0.479-1.531,0.697c-0.523,0.217-1.06,0.42-1.609,0.608
				c-0.549,0.188-1.111,0.361-1.686,0.52c-0.575,0.159-1.163,0.302-1.762,0.431c-0.601,0.128-1.216,0.236-1.846,0.323
				c-0.63,0.087-1.275,0.152-1.935,0.197c-0.659,0.044-1.333,0.068-2.021,0.071s-1.391-0.015-2.107-0.053
				c-0.805-0.043-1.592-0.121-2.361-0.231c-0.769-0.111-1.52-0.254-2.253-0.432c-0.732-0.177-1.447-0.388-2.145-0.631
				c-0.696-0.243-1.375-0.519-2.035-0.828c-0.66-0.309-1.292-0.645-1.897-1.007c-0.604-0.361-1.18-0.75-1.729-1.166
				c-0.548-0.415-1.069-0.855-1.562-1.324c-0.492-0.467-0.958-0.96-1.395-1.479c-0.438-0.518-0.842-1.059-1.213-1.621
				c-0.371-0.561-0.709-1.143-1.014-1.747c-0.305-0.603-0.577-1.228-0.816-1.874c-0.239-0.645-0.446-1.311-0.621-1.999
				c-0.175-0.686-0.307-1.386-0.397-2.1c-0.089-0.713-0.136-1.441-0.142-2.183c-0.005-0.741,0.032-1.496,0.111-2.264
				c0.079-0.768,0.199-1.549,0.361-2.345c0.161-0.794,0.355-1.564,0.582-2.313c0.227-0.748,0.485-1.474,0.777-2.181
				c0.291-0.706,0.615-1.392,0.973-2.062c0.357-0.668,0.747-1.319,1.171-1.955c0.423-0.636,0.87-1.249,1.34-1.837
				c0.47-0.589,0.963-1.155,1.48-1.698c0.517-0.543,1.057-1.063,1.621-1.561c0.564-0.498,1.151-0.973,1.764-1.426
				c0.611-0.452,1.24-0.877,1.886-1.277c0.646-0.4,1.31-0.774,1.991-1.122c0.682-0.348,1.381-0.67,2.099-0.967
				c0.718-0.297,1.454-0.567,2.208-0.813c0.754-0.244,1.516-0.457,2.285-0.636c0.769-0.18,1.547-0.327,2.332-0.442
				c0.786-0.115,1.58-0.196,2.381-0.246C53.99,49.324,54.801,49.308,55.62,49.324z"/>
		</g>
	</g>
</g>
</svg>
