<?xml version="1.0" encoding="utf-8"?>
<!-- Generator: Adobe Illustrator 15.0.0, SVG Export Plug-In . SVG Version: 6.00 Build 0)  -->
<!DOCTYPE svg PUBLIC "-//W3C//DTD SVG 1.1//EN" "http://www.w3.org/Graphics/SVG/1.1/DTD/svg11.dtd">
<svg version="1.1" id="图层_1" xmlns="http://www.w3.org/2000/svg" xmlns:xlink="http://www.w3.org/1999/xlink" x="0px" y="0px"
	 width="110.667px" height="110.5px" viewBox="0 0 110.667 110.5" enable-background="new 0 0 110.667 110.5" xml:space="preserve">
<g>
	<g>
		<linearGradient id="SVGID_1_" gradientUnits="userSpaceOnUse" x1="55.979" y1="86.7173" x2="55.979" y2="32.3527">
			<stop  offset="0" style="stop-color:#840033"/>
			<stop  offset="0.7767" style="stop-color:#F92169"/>
			<stop  offset="1" style="stop-color:#840033"/>
		</linearGradient>
		<path fill="url(#SVGID_1_)" d="M63.263,38.631c0.495-3.381-3.677-3.115-5.826-2.455c-1.206,0.369-2.236,0.94-3.021,1.932
			c-1.104,1.393,0.015,3.034,1.652,2.845c1.653-0.191,2.666-2.05,2.907-3.526c0.265-1.613-0.863-3.132-2.37-3.614
			c-3.833-1.227-6.675,2.243-7.496,5.593c-0.968,3.963-0.401,8.756,1.769,12.229c1.145,1.833,2.502,3.537,3.363,5.534
			c0.793,1.84,0.848,4.333-0.986,5.594c-1.031,0.71-2.606,0.828-3.395-0.268c-0.202-0.281-0.344-0.708-0.252-1.049
			c0.105-0.391,0.942,0.085,1.135,0.197c0.673,0.388,1.139,1.053,1.223,1.824c0.091,0.84-0.525,2.329-1.472,1.537
			c-0.17-0.141-0.29-0.342-0.31-0.562c-0.03-0.343,1.055,0.173,1.215,0.274c0.896,0.565,1.236,1.793,1.447,2.759
			c0.555,2.551,0.181,5.107-0.567,7.578c-0.688,2.264-1.626,4.44-2.189,6.744c-0.396,1.62-1.01,3.875-0.14,5.417
			c0.572,1.011,2.184,1.308,3.192,0.839c1.84-0.855,0.223-2.497,0.11-3.845c-0.007-0.1-0.607,0.007-0.594,0.158
			c0.089,1.072,1.117,2.01,0.701,3.108c-0.421,1.109-1.979,0.394-2.505-0.045c-0.528-0.44-0.67-1.184-0.72-1.825
			c-0.089-1.161,0.231-2.456,0.465-3.581c0.3-1.439,0.796-2.835,1.286-4.216c0.906-2.555,1.806-5.103,1.838-7.843
			c0.02-1.748-0.24-4.063-1.591-5.313c-0.307-0.284-2.416-1.101-2.533-0.122c-0.111,0.933,1.205,1.104,1.827,0.91
			c1.396-0.438,1.328-2.498,0.565-3.416c-0.586-0.704-1.748-1.26-2.636-0.792c-0.42,0.223-0.413,0.604-0.284,1.021
			c0.244,0.793,0.988,1.183,1.759,1.276c1.148,0.14,2.759-0.373,3.508-1.283c2.896-3.517-0.975-7.804-2.864-10.768
			c-2.293-3.597-2.735-8.625-1.644-12.699c0.636-2.375,2.36-4.986,5.094-4.965c1.961,0.016,3.555,1.601,3.48,3.554
			c-0.034,0.855-0.458,1.652-0.924,2.344c-0.784,1.165-2.279,1.367-2.839,0.002c-0.594-1.448,1.202-2.692,2.296-3.166
			c2.093-0.903,6.213-1.053,5.732,2.245C62.661,38.848,63.238,38.805,63.263,38.631L63.263,38.631z"/>
		<linearGradient id="SVGID_2_" gradientUnits="userSpaceOnUse" x1="55.0825" y1="35.1763" x2="55.0825" y2="34.4243">
			<stop  offset="0" style="stop-color:#F92169"/>
			<stop  offset="1" style="stop-color:#840033"/>
		</linearGradient>
		<path fill="url(#SVGID_2_)" d="M54.856,34.167c0,0-0.526,0.477-0.526,0.978c0,0,0.703,0.426,1.503-0.175
			C55.834,34.969,55.734,34.417,54.856,34.167z"/>
		<linearGradient id="SVGID_3_" gradientUnits="userSpaceOnUse" x1="55.0142" y1="35.8086" x2="55.0142" y2="19.6697">
			<stop  offset="0" style="stop-color:#F92169"/>
			<stop  offset="1" style="stop-color:#840033"/>
		</linearGradient>
		<path fill="url(#SVGID_3_)" d="M64.248,12.534c-1.661-3.425-5.172-5.789-9.234-5.789c-4.062,0-7.573,2.364-9.233,5.789l0,0
			c0,0-7.076,12.07,9.233,21.189C71.324,24.604,64.248,12.534,64.248,12.534z"/>
		<linearGradient id="SVGID_4_" gradientUnits="userSpaceOnUse" x1="55.0142" y1="34.3042" x2="55.0142" y2="33.7061">
			<stop  offset="0" style="stop-color:#F92169"/>
			<stop  offset="1" style="stop-color:#840033"/>
		</linearGradient>
		<ellipse fill="url(#SVGID_4_)" cx="55.014" cy="33.859" rx="0.501" ry="0.462"/>
		<linearGradient id="SVGID_5_" gradientUnits="userSpaceOnUse" x1="56.9448" y1="27.3296" x2="56.9448" y2="9.4133">
			<stop  offset="0" style="stop-color:#F92169"/>
			<stop  offset="1" style="stop-color:#840033"/>
		</linearGradient>
		<path fill="url(#SVGID_5_)" d="M48.214,17.503c0,5.871,4.027,10.631,8.995,10.631c3.456,0,6.455-2.305,7.962-5.684
			c1.568-5.511-1.021-9.932-1.021-9.932c-1.41-2.907-4.15-5.047-7.43-5.629C51.979,7.189,48.214,11.826,48.214,17.503z"/>
		<linearGradient id="SVGID_6_" gradientUnits="userSpaceOnUse" x1="55.1533" y1="8.9917" x2="55.1533" y2="22.9911">
			<stop  offset="0" style="stop-color:#FFFFFF"/>
			<stop  offset="0.4718" style="stop-color:#F92169"/>
			<stop  offset="1" style="stop-color:#B30D48"/>
		</linearGradient>
		<ellipse fill="url(#SVGID_6_)" cx="55.153" cy="14.4" rx="6.221" ry="6.427"/>
	</g>
	<g>
		<linearGradient id="SVGID_7_" gradientUnits="userSpaceOnUse" x1="94.478" y1="118.0166" x2="63.4499" y2="86.9885">
			<stop  offset="0" style="stop-color:#FFFFFF"/>
			<stop  offset="0.3655" style="stop-color:#F92169"/>
			<stop  offset="1" style="stop-color:#840033"/>
		</linearGradient>
		<path fill="url(#SVGID_7_)" d="M66.795,75.963c-0.129-0.57-0.323-1.085-0.582-1.543c-0.259-0.46-0.584-0.863-0.975-1.211
			c-0.061-0.055-0.124-0.108-0.188-0.161c-0.064-0.053-0.129-0.104-0.196-0.154c-0.065-0.05-0.133-0.1-0.202-0.147
			c-0.068-0.049-0.139-0.095-0.21-0.141c-3.275-2.104-6.552-4.207-9.829-6.311c0.07,0.045,0.139,0.09,0.207,0.137
			c0.066,0.047,0.133,0.096,0.198,0.145c0.064,0.049,0.13,0.1,0.191,0.151c0.063,0.051,0.125,0.104,0.187,0.157
			c0.383,0.339,0.703,0.733,0.962,1.179c0.257,0.445,0.451,0.944,0.584,1.497c0.132,0.551,0.201,1.155,0.209,1.813
			c0.008,0.656-0.048,1.366-0.164,2.127L56.97,73.62c-0.116,0.761-0.279,1.472-0.487,2.132c-0.209,0.659-0.463,1.269-0.764,1.828
			c-0.299,0.559-0.645,1.069-1.037,1.53c-0.392,0.461-0.83,0.873-1.315,1.235c-0.486,0.364-1.005,0.687-1.556,0.969
			c-0.552,0.282-1.136,0.524-1.753,0.725c-0.619,0.201-1.27,0.361-1.956,0.48c-0.687,0.12-1.407,0.199-2.162,0.237l-2.192,0.11
			l9.352,7.021l2.253-0.14c0.776-0.048,1.517-0.139,2.223-0.27c0.705-0.132,1.376-0.306,2.014-0.521
			c0.635-0.215,1.237-0.472,1.807-0.771c0.569-0.298,1.104-0.638,1.608-1.021c0.501-0.381,0.956-0.812,1.363-1.293
			s0.769-1.013,1.082-1.595c0.314-0.583,0.582-1.216,0.803-1.9c0.222-0.686,0.396-1.422,0.525-2.211l0.019-0.123
			c0.129-0.79,0.193-1.524,0.193-2.204C66.989,77.157,66.924,76.532,66.795,75.963z"/>
		<linearGradient id="SVGID_8_" gradientUnits="userSpaceOnUse" x1="44.9805" y1="34.978" x2="58.6808" y2="68.5571">
			<stop  offset="0" style="stop-color:#FFFFFF"/>
			<stop  offset="0.3655" style="stop-color:#F92169"/>
			<stop  offset="1" style="stop-color:#840033"/>
		</linearGradient>
		<path fill="url(#SVGID_8_)" d="M62.945,54.96c-0.215-0.124-0.436-0.243-0.662-0.359c-0.226-0.116-0.457-0.229-0.693-0.337
			c-0.237-0.108-0.479-0.214-0.726-0.315c-0.247-0.102-0.499-0.2-0.757-0.294c-0.686-0.251-1.407-0.472-2.165-0.66
			c-0.76-0.189-1.557-0.347-2.391-0.472c-0.835-0.126-1.709-0.221-2.62-0.283c-0.914-0.063-1.865-0.093-2.854-0.091l-15.699,0.033
			l9.408,5.988l16.156-0.186c1.018-0.012,1.994,0.011,2.933,0.066c0.936,0.056,1.831,0.146,2.688,0.269
			c0.855,0.123,1.671,0.278,2.45,0.467c0.775,0.188,1.513,0.409,2.214,0.664c0.264,0.095,0.521,0.194,0.773,0.297
			c0.252,0.102,0.499,0.209,0.741,0.319c0.241,0.11,0.478,0.225,0.708,0.343s0.456,0.24,0.676,0.366
			C69.732,58.836,66.339,56.898,62.945,54.96z"/>
		<linearGradient id="SVGID_9_" gradientUnits="userSpaceOnUse" x1="39.8413" y1="144.6958" x2="35.0058" y2="54.4333">
			<stop  offset="0" style="stop-color:#FFFFFF"/>
			<stop  offset="0.3655" style="stop-color:#F92169"/>
			<stop  offset="1" style="stop-color:#840033"/>
		</linearGradient>
		<polygon fill="url(#SVGID_9_)" points="37.439,103.621 28.649,95.956 34.378,52.182 43.787,58.17 		"/>
		<g>
			
				<linearGradient id="SVGID_10_" gradientUnits="userSpaceOnUse" x1="58.355" y1="47.207" x2="56.2059" y2="102.5458" gradientTransform="matrix(1 0 0 1 2 3)">
				<stop  offset="0" style="stop-color:#FFFFFF"/>
				<stop  offset="0.3655" style="stop-color:#F92169"/>
				<stop  offset="1" style="stop-color:#840033"/>
			</linearGradient>
			<path fill="url(#SVGID_10_)" d="M80.172,72.463c-0.056-0.687-0.145-1.355-0.266-2.005c-0.122-0.651-0.277-1.278-0.468-1.882
				c-0.189-0.605-0.413-1.186-0.672-1.743c-0.258-0.559-0.552-1.093-0.879-1.604c-0.328-0.512-0.691-1-1.089-1.465
				c-0.399-0.465-0.834-0.904-1.306-1.316c-0.474-0.413-0.982-0.8-1.529-1.159c-0.547-0.361-1.132-0.694-1.753-1
				c-0.624-0.307-1.284-0.587-1.983-0.839c-0.701-0.254-1.438-0.476-2.214-0.664c-0.779-0.188-1.595-0.344-2.45-0.467
				c-0.857-0.123-1.753-0.212-2.688-0.269c-0.938-0.056-1.915-0.078-2.933-0.066L43.787,58.17l-6.348,45.451l15.237-1.246
				c1.009-0.082,1.99-0.195,2.939-0.338c0.949-0.142,1.868-0.314,2.76-0.516c0.889-0.201,1.749-0.433,2.583-0.693
				c0.831-0.26,1.635-0.549,2.411-0.868c0.776-0.319,1.524-0.662,2.247-1.027c0.72-0.365,1.413-0.753,2.081-1.165
				c0.668-0.411,1.309-0.845,1.924-1.303c0.613-0.458,1.202-0.938,1.766-1.444c0.563-0.505,1.098-1.029,1.606-1.574
				c0.508-0.544,0.99-1.109,1.445-1.694c0.455-0.584,0.884-1.19,1.287-1.816c0.401-0.625,0.778-1.272,1.128-1.94
				c0.351-0.668,0.674-1.351,0.971-2.049c0.297-0.7,0.568-1.417,0.813-2.153c0.245-0.738,0.464-1.493,0.658-2.271
				s0.362-1.579,0.506-2.402c0.138-0.795,0.244-1.571,0.316-2.328c0.075-0.758,0.116-1.498,0.125-2.22
				C80.251,73.852,80.228,73.148,80.172,72.463z M66.796,80.041l-0.019,0.123c-0.129,0.789-0.304,1.526-0.525,2.211
				c-0.221,0.685-0.488,1.318-0.803,1.9c-0.313,0.583-0.675,1.114-1.082,1.595s-0.862,0.913-1.363,1.293
				c-0.504,0.382-1.039,0.723-1.608,1.021c-0.569,0.299-1.172,0.556-1.807,0.771c-0.638,0.215-1.309,0.389-2.014,0.521
				c-0.706,0.131-1.446,0.222-2.223,0.27l-2.253,0.14l2.816-18.551l2.279-0.074c0.785-0.026,1.521-0.003,2.206,0.065
				c0.685,0.069,1.32,0.185,1.907,0.348c0.586,0.163,1.122,0.372,1.611,0.628c0.487,0.255,0.927,0.558,1.318,0.906
				c0.391,0.348,0.716,0.751,0.975,1.211c0.259,0.458,0.453,0.973,0.582,1.543c0.129,0.569,0.194,1.194,0.194,1.874
				C66.989,78.517,66.925,79.251,66.796,80.041z"/>
		</g>
	</g>
</g>
</svg>
