<?xml version="1.0" encoding="utf-8"?>
<!-- Generator: Adobe Illustrator 15.0.0, SVG Export Plug-In . SVG Version: 6.00 Build 0)  -->
<!DOCTYPE svg PUBLIC "-//W3C//DTD SVG 1.1//EN" "http://www.w3.org/Graphics/SVG/1.1/DTD/svg11.dtd">
<svg version="1.1" id="图层_1" xmlns="http://www.w3.org/2000/svg" xmlns:xlink="http://www.w3.org/1999/xlink" x="0px" y="0px"
	 width="110.667px" height="110.5px" viewBox="0 0 110.667 110.5" enable-background="new 0 0 110.667 110.5" xml:space="preserve">
<g>
	<g>
		<linearGradient id="SVGID_1_" gradientUnits="userSpaceOnUse" x1="56.5581" y1="97.2783" x2="56.5581" y2="34.7907">
			<stop  offset="0.0051" style="stop-color:#4C005E"/>
			<stop  offset="0.6802" style="stop-color:#E033AD"/>
			<stop  offset="1" style="stop-color:#4C005E"/>
		</linearGradient>
		<path fill="url(#SVGID_1_)" d="M61.127,58.064c1.215-2.671,1.961-5.592,2.188-8.514c0.231-3.002-0.308-6.003-1.516-8.755
			c-0.517-1.177-1.138-2.375-1.8-3.478c-0.493-0.824-1.216-1.675-2.155-1.987c-1.801-0.598-3.568,0.214-4.869,1.478
			c-0.64,0.622-1.064,1.679-0.968,2.598c-1.165,0.66-2.104,2.01-1.56,2.861c-0.009,0.005-0.02,0.01-0.029,0.016
			c-1.472,0.834-0.115,3.287,0.263,4.347c0.056,0.154,0.659-0.032,0.613-0.164c-0.246-0.688-0.541-1.353-0.748-2.054
			c-0.148-0.501-0.177-0.996-0.073-1.51c0.036-0.176,0.109-0.301,0.201-0.382c0.202,0.169,0.489,0.305,0.88,0.393
			c0.088,0.02,0.606-0.042,0.558-0.203c-0.178-0.571-0.585-0.733-1.031-0.667c-0.42-0.726,0.105-1.831,0.969-2.375
			c0.127,0.568,0.48,1.057,1.139,1.315c0.537,0.21,1.427-0.007,1.771-0.48c0.669-0.918-0.892-1.439-1.55-1.48
			c-0.259-0.016-0.531,0.028-0.804,0.117c-0.04-0.611,0.134-1.261,0.415-1.736c0.891-1.509,2.873-2.449,4.524-1.741
			c1.162,0.499,1.853,1.76,2.396,2.826c1.384,2.714,2.483,5.312,2.752,8.383c0.272,3.133-0.347,6.284-1.361,9.236
			c-0.938,2.728-2.624,5.047-3.691,7.704c-0.844,2.097-0.666,3.999,0.599,5.866c0.255,0.375,0.589,0.744,0.972,1.01
			c-1.284,2.943-1.058,8.893-0.901,10.422c0.305,2.999,1.328,6.053,2.462,8.833c0.5,1.228,1.139,2.376,1.382,3.693
			c0.251,1.356-0.433,2.437-1.464,3.247c-1.29,1.014-2.88,0.7-3.828-0.557c-0.415-0.551-0.398-1.254-0.15-1.867
			c0.253-0.628,0.83-1.201,1.454-1.455c0.871-0.355,1.044,0.75,1.012,1.326c-0.007,0.101,0.6,0.024,0.611-0.164
			c0.066-1.144-0.543-1.672-1.638-1.381c-1.028,0.273-1.919,1.18-2.185,2.201c-0.354,1.358,1.13,2.746,2.417,2.817
			c1.644,0.093,3.182-0.907,4.046-2.263c1.328-2.084-0.833-5.096-1.527-7.064c-1.088-3.084-2.055-6.205-2.094-9.502
			c-0.031-2.595,0.026-5.35,0.813-7.84c0.02-0.062,0.041-0.125,0.063-0.188c0.45,0.182,0.945,0.191,1.443-0.097
			c0.573-0.331,0.863-0.886,1.107-1.483c0.01-0.022,0.005-0.041-0.015-0.054c-1.289-0.656-2.18-0.163-2.789,0.928
			c-0.45-0.435-0.8-1.039-1.056-1.517c-0.526-0.973-0.786-2.02-0.648-3.119C58.071,62.85,60.007,60.525,61.127,58.064z
			 M54.22,39.712c0.804,0.577-0.168,1.323-0.879,0.835c-0.404-0.277-0.62-0.69-0.701-1.142
			C53.138,39.272,53.692,39.332,54.22,39.712z M60.474,69.553c0.306-0.316,0.671-0.256,1.037-0.098
			c0.196,0.086-0.192,0.678-0.237,0.757c-0.232,0.407-0.548,0.677-1.032,0.532c-0.144-0.041-0.278-0.107-0.407-0.188
			C59.992,70.189,60.196,69.84,60.474,69.553z"/>
		<g>
			<linearGradient id="SVGID_2_" gradientUnits="userSpaceOnUse" x1="56.8091" y1="36.9966" x2="56.8091" y2="36.2223">
				<stop  offset="0.0051" style="stop-color:#E033AD"/>
				<stop  offset="1" style="stop-color:#4C005E"/>
			</linearGradient>
			<path fill="url(#SVGID_2_)" d="M56.576,35.958c0,0-0.541,0.491-0.541,1.007c0,0,0.723,0.438,1.549-0.181
				C57.583,36.784,57.48,36.216,56.576,35.958z"/>
			<g>
				<linearGradient id="SVGID_3_" gradientUnits="userSpaceOnUse" x1="56.7388" y1="35.501" x2="56.7388" y2="12.2791">
					<stop  offset="0.0051" style="stop-color:#E033AD"/>
					<stop  offset="1" style="stop-color:#4C005E"/>
				</linearGradient>
				<path fill="url(#SVGID_3_)" d="M66.242,13.696c-1.71-3.525-5.322-5.956-9.503-5.956c-4.18,0-7.793,2.431-9.503,5.956l0,0
					c0,0-7.28,12.421,9.503,21.805C73.522,26.118,66.242,13.696,66.242,13.696z"/>
			</g>
			<linearGradient id="SVGID_4_" gradientUnits="userSpaceOnUse" x1="56.7378" y1="36.0991" x2="56.7378" y2="35.4829">
				<stop  offset="0.0051" style="stop-color:#E033AD"/>
				<stop  offset="1" style="stop-color:#4C005E"/>
			</linearGradient>
			<ellipse fill="url(#SVGID_4_)" cx="56.738" cy="35.642" rx="0.516" ry="0.475"/>
			<linearGradient id="SVGID_5_" gradientUnits="userSpaceOnUse" x1="58.7251" y1="27.2446" x2="58.7251" y2="5.9227">
				<stop  offset="0.0051" style="stop-color:#E033AD"/>
				<stop  offset="1" style="stop-color:#4C005E"/>
			</linearGradient>
			<path fill="url(#SVGID_5_)" d="M49.741,18.81c0,6.042,4.145,10.939,9.257,10.939c3.557,0,6.643-2.372,8.192-5.849
				c1.614-5.671-1.05-10.22-1.05-10.22c-1.451-2.991-4.271-5.193-7.646-5.793C53.615,8.196,49.741,12.968,49.741,18.81z"/>
			<linearGradient id="SVGID_6_" gradientUnits="userSpaceOnUse" x1="56.8823" y1="9.9346" x2="56.8823" y2="29.778">
				<stop  offset="0" style="stop-color:#FFFFFF"/>
				<stop  offset="0.5076" style="stop-color:#E033AD"/>
				<stop  offset="1" style="stop-color:#4C005E"/>
			</linearGradient>
			<ellipse fill="url(#SVGID_6_)" cx="56.882" cy="15.617" rx="6.401" ry="6.614"/>
		</g>
	</g>
	<g>
		<g>
			<linearGradient id="SVGID_7_" gradientUnits="userSpaceOnUse" x1="50.9917" y1="69.6934" x2="59.2563" y2="69.6934">
				<stop  offset="0" style="stop-color:#E033AD"/>
				<stop  offset="1" style="stop-color:#4C005E"/>
			</linearGradient>
			<polygon fill="url(#SVGID_7_)" points="52.172,63.16 59.256,72.225 58.158,76.227 50.992,67.291 			"/>
		</g>
		<g>
			<linearGradient id="SVGID_8_" gradientUnits="userSpaceOnUse" x1="46.8335" y1="83.8047" x2="55.5034" y2="83.8047">
				<stop  offset="0" style="stop-color:#E033AD"/>
				<stop  offset="1" style="stop-color:#4C005E"/>
			</linearGradient>
			<polygon fill="url(#SVGID_8_)" points="48.137,77.288 55.503,85.902 54.29,90.322 46.833,81.857 			"/>
		</g>
		<g>
			<linearGradient id="SVGID_9_" gradientUnits="userSpaceOnUse" x1="80.9634" y1="83.3711" x2="60.5472" y2="61.5223">
				<stop  offset="0" style="stop-color:#E033AD"/>
				<stop  offset="1" style="stop-color:#4C005E"/>
			</linearGradient>
			<polygon fill="url(#SVGID_9_)" points="74.429,64.295 80.763,73.564 59.256,72.225 52.172,63.16 			"/>
		</g>
		<g>
			<linearGradient id="SVGID_10_" gradientUnits="userSpaceOnUse" x1="74.4292" y1="63.2764" x2="83.4917" y2="63.2764">
				<stop  offset="0" style="stop-color:#E033AD"/>
				<stop  offset="1" style="stop-color:#4C005E"/>
			</linearGradient>
			<polygon fill="url(#SVGID_10_)" points="77.361,52.989 83.492,62.615 80.763,73.564 74.429,64.295 			"/>
		</g>
		<g>
			<linearGradient id="SVGID_11_" gradientUnits="userSpaceOnUse" x1="88.7056" y1="104.7539" x2="60.2299" y2="80.5765">
				<stop  offset="0" style="stop-color:#E033AD"/>
				<stop  offset="1" style="stop-color:#4C005E"/>
			</linearGradient>
			<polygon fill="url(#SVGID_11_)" points="69.078,78.749 75.732,87.526 55.503,85.902 48.137,77.288 			"/>
		</g>
		<g>
			<linearGradient id="SVGID_12_" gradientUnits="userSpaceOnUse" x1="69.0776" y1="77.9961" x2="78.229" y2="77.9961">
				<stop  offset="0" style="stop-color:#E033AD"/>
				<stop  offset="1" style="stop-color:#4C005E"/>
			</linearGradient>
			<polygon fill="url(#SVGID_12_)" points="71.763,68.465 78.229,77.582 75.732,87.526 69.078,78.749 			"/>
		</g>
		<g>
			<linearGradient id="SVGID_13_" gradientUnits="userSpaceOnUse" x1="49.0864" y1="46.5625" x2="57.3246" y2="94.2011">
				<stop  offset="0.0051" style="stop-color:#FADBF1"/>
				<stop  offset="0.4416" style="stop-color:#E033AD"/>
				<stop  offset="1" style="stop-color:#4C005E"/>
			</linearGradient>
			<polygon fill="url(#SVGID_13_)" points="77.361,52.989 74.429,64.295 52.172,63.16 50.992,67.291 71.763,68.465 69.078,78.749 
				48.137,77.288 46.833,81.857 69.747,83.596 66.601,95.742 29.844,92.372 42.097,51.7 			"/>
		</g>
		<g>
			<linearGradient id="SVGID_14_" gradientUnits="userSpaceOnUse" x1="66.6011" y1="93.7744" x2="76.4224" y2="93.7744">
				<stop  offset="0" style="stop-color:#E033AD"/>
				<stop  offset="1" style="stop-color:#4C005E"/>
			</linearGradient>
			<polygon fill="url(#SVGID_14_)" points="69.747,83.596 76.422,92.229 73.503,103.953 66.601,95.742 			"/>
		</g>
		<g>
			<linearGradient id="SVGID_15_" gradientUnits="userSpaceOnUse" x1="23.7979" y1="94.3428" x2="67.8535" y2="100.0735">
				<stop  offset="0" style="stop-color:#E033AD"/>
				<stop  offset="1" style="stop-color:#4C005E"/>
			</linearGradient>
			<polygon fill="url(#SVGID_15_)" points="66.601,95.742 73.503,103.953 37.981,100.355 29.844,92.372 			"/>
		</g>
	</g>
</g>
</svg>
