<?xml version="1.0" encoding="utf-8"?>
<!-- Generator: Adobe Illustrator 15.0.0, SVG Export Plug-In . SVG Version: 6.00 Build 0)  -->
<!DOCTYPE svg PUBLIC "-//W3C//DTD SVG 1.1//EN" "http://www.w3.org/Graphics/SVG/1.1/DTD/svg11.dtd">
<svg version="1.1" id="图层_1" xmlns="http://www.w3.org/2000/svg" xmlns:xlink="http://www.w3.org/1999/xlink" x="0px" y="0px"
	 width="110.667px" height="110.5px" viewBox="0 0 110.667 110.5" enable-background="new 0 0 110.667 110.5" xml:space="preserve">
<g>
	<g>
		<linearGradient id="SVGID_1_" gradientUnits="userSpaceOnUse" x1="51.1616" y1="87.5947" x2="51.1616" y2="27.8734">
			<stop  offset="0" style="stop-color:#1A87A0"/>
			<stop  offset="0.6091" style="stop-color:#69C8E2"/>
			<stop  offset="0.7767" style="stop-color:#D1EEF6"/>
			<stop  offset="0.8782" style="stop-color:#69C8E2"/>
			<stop  offset="1" style="stop-color:#1A87A0"/>
		</linearGradient>
		<path fill="url(#SVGID_1_)" d="M57.599,61.368c-1.138,0.085-2.264,0.942-2.658,1.996c-0.012,0.03-0.021,0.061-0.031,0.091
			c-1.851-0.683-2.644-2.672-2.424-4.534c0.257-2.161,1.714-4.136,2.894-5.887c1.129-1.679,2.213-3.291,2.762-5.259
			c0.586-2.102,0.8-4.32,0.723-6.497c-0.133-3.822-1.804-8.92-6.367-9.068c-1.289-0.043-2.782,0.483-3.63,1.483
			c-0.248,0.292-0.435,0.599-0.568,0.914c-2.415-0.306-5.235,0.23-4.811,3.12c0.017,0.108,0.619-0.018,0.598-0.16
			c-0.392-2.654,1.876-3.11,4.111-2.687c-0.412,1.278,0.001,2.671,0.809,3.861c0.952,1.405,3.023,1.876,4.082,0.294
			c1.157-1.727-1.364-3.389-2.665-3.907c-0.445-0.177-0.994-0.332-1.589-0.44c0.251-0.708,0.738-1.34,1.479-1.792
			c2.322-1.418,5.042,0.431,6.304,2.367c1.225,1.882,1.585,4.26,1.66,6.459c0.081,2.304-0.246,4.651-0.926,6.852
			c-0.597,1.929-1.903,3.579-3.008,5.237c-1.816,2.729-4.435,7.847-0.123,9.792c0.198,0.09,0.407,0.164,0.619,0.222
			c-0.051,0.516,0.075,1.115,0.354,1.569c-0.063,0.057-0.12,0.112-0.164,0.162c-1.523,1.796-1.56,4.885-1.319,7.087
			c0.371,3.392,1.952,6.528,2.882,9.781c0.376,1.313,0.614,2.673,0.761,4.03c0.117,1.087,0.111,2.433-0.89,3.118
			c-0.54,0.37-2.205,0.435-2.698-0.249c-0.23-0.321-0.01-0.816,0.119-1.129c0.311-0.759,0.778-1.455,0.818-2.295
			c0.004-0.076-0.589-0.008-0.597,0.159c-0.036,0.754-0.432,1.422-0.741,2.092c-0.179,0.384-0.495,1.08-0.109,1.449
			c0.857,0.822,2.996,0.574,3.863-0.159c1.26-1.065,0.881-2.985,0.658-4.414c-0.432-2.755-1.436-5.32-2.332-7.947
			c-0.868-2.543-1.433-5.125-1.138-7.82c0.107-0.991,0.303-1.973,0.71-2.888c0.107-0.243,0.245-0.469,0.405-0.677
			c0.273,0.291,0.637,0.458,1.078,0.395c0.38-0.055,1.948-0.738,1.385-1.347c-0.463-0.502-1.47-0.154-2.182,0.282
			c-0.17-0.355-0.256-0.721-0.256-1.08c0.859,0.102,1.743-0.067,2.444-0.586C58.766,62.71,58.935,61.266,57.599,61.368z
			 M51.601,36.309c0.724,0.589,1.271,1.532,1.055,2.477c-0.19,0.836-1.114,1.173-1.888,0.873c-0.686-0.266-1.123-0.981-1.49-1.576
			c-0.6-0.976-0.787-2.086-0.539-3.079C49.884,35.293,50.963,35.788,51.601,36.309z M57.322,65.274
			c-0.29,0.902-1.097,0.538-1.489-0.021c0.024-0.023,0.046-0.047,0.07-0.068C56.044,65.063,57.603,64.396,57.322,65.274z
			 M57.604,63.155c-0.476,0.69-1.379,0.66-2.135,0.475c0.063-0.45,0.261-0.881,0.588-1.255c0.38-0.433,1.721-1.332,1.939-0.345
			C58.081,62.409,57.808,62.86,57.604,63.155z"/>
		<g>
			<linearGradient id="SVGID_2_" gradientUnits="userSpaceOnUse" x1="52.6523" y1="34.1143" x2="52.6523" y2="33.359">
				<stop  offset="0" style="stop-color:#69C8E2"/>
				<stop  offset="1" style="stop-color:#1A87A0"/>
			</linearGradient>
			<path fill="url(#SVGID_2_)" d="M52.426,33.101c0,0-0.529,0.479-0.529,0.982c0,0,0.705,0.427,1.512-0.176
				C53.408,33.906,53.307,33.352,52.426,33.101z"/>
			<g>
				<linearGradient id="SVGID_3_" gradientUnits="userSpaceOnUse" x1="52.5845" y1="34.7485" x2="52.5845" y2="18.5477">
					<stop  offset="0" style="stop-color:#69C8E2"/>
					<stop  offset="0.2132" style="stop-color:#58BAD4"/>
					<stop  offset="1" style="stop-color:#1A87A0"/>
				</linearGradient>
				<path fill="url(#SVGID_3_)" d="M61.854,11.385c-1.669-3.439-5.192-5.811-9.271-5.811s-7.603,2.372-9.27,5.811l0,0
					c0,0-7.103,12.117,9.27,21.271C68.956,23.501,61.854,11.385,61.854,11.385z"/>
			</g>
			<linearGradient id="SVGID_4_" gradientUnits="userSpaceOnUse" x1="52.5835" y1="33.2388" x2="52.5835" y2="32.6381">
				<stop  offset="0" style="stop-color:#69C8E2"/>
				<stop  offset="1" style="stop-color:#1A87A0"/>
			</linearGradient>
			<ellipse fill="url(#SVGID_4_)" cx="52.583" cy="32.792" rx="0.503" ry="0.463"/>
			<linearGradient id="SVGID_5_" gradientUnits="userSpaceOnUse" x1="54.522" y1="26.2358" x2="54.522" y2="8.2512">
				<stop  offset="0" style="stop-color:#69C8E2"/>
				<stop  offset="1" style="stop-color:#1A87A0"/>
			</linearGradient>
			<path fill="url(#SVGID_5_)" d="M45.758,16.373c0,5.893,4.043,10.67,9.029,10.67c3.471,0,6.48-2.313,7.992-5.705
				c1.574-5.533-1.025-9.97-1.025-9.97c-1.414-2.918-4.165-5.066-7.458-5.651C49.537,6.02,45.758,10.674,45.758,16.373z"/>
			<linearGradient id="SVGID_6_" gradientUnits="userSpaceOnUse" x1="52.7236" y1="7.8286" x2="52.7236" y2="21.8818">
				<stop  offset="0" style="stop-color:#EDF8FC"/>
				<stop  offset="0.4564" style="stop-color:#69C8E2"/>
				<stop  offset="1" style="stop-color:#47ACC6"/>
			</linearGradient>
			<ellipse fill="url(#SVGID_6_)" cx="52.724" cy="13.258" rx="6.244" ry="6.452"/>
		</g>
	</g>
	<g>
		<linearGradient id="SVGID_7_" gradientUnits="userSpaceOnUse" x1="39.229" y1="45.2925" x2="62.5995" y2="69.0658">
			<stop  offset="0" style="stop-color:#69C8E2"/>
			<stop  offset="0.4564" style="stop-color:#69C8E2"/>
			<stop  offset="1" style="stop-color:#1A87A0"/>
		</linearGradient>
		<polygon fill="url(#SVGID_7_)" points="59.235,71.8 47.417,67.521 64.081,64.937 76.168,68.968 		"/>
		<linearGradient id="SVGID_8_" gradientUnits="userSpaceOnUse" x1="46.0225" y1="107.1152" x2="38.2322" y2="60.642">
			<stop  offset="0" style="stop-color:#69C8E2"/>
			<stop  offset="0.4564" style="stop-color:#69C8E2"/>
			<stop  offset="1" style="stop-color:#1A87A0"/>
		</linearGradient>
		<polygon fill="url(#SVGID_8_)" points="45.775,100.919 34.432,95.451 35.053,50.62 46.812,54.341 		"/>
		<linearGradient id="SVGID_9_" gradientUnits="userSpaceOnUse" x1="45.5078" y1="39.1206" x2="68.8782" y2="62.8939">
			<stop  offset="0" style="stop-color:#69C8E2"/>
			<stop  offset="0.4564" style="stop-color:#69C8E2"/>
			<stop  offset="1" style="stop-color:#1A87A0"/>
		</linearGradient>
		<polygon fill="url(#SVGID_9_)" points="46.812,54.341 35.053,50.62 65.943,46.933 78.235,50.277 		"/>
		<linearGradient id="SVGID_10_" gradientUnits="userSpaceOnUse" x1="57.0562" y1="44.6665" x2="63.5032" y2="84.96">
			<stop  offset="0" style="stop-color:#FFFFFF"/>
			<stop  offset="0.4564" style="stop-color:#69C8E2"/>
			<stop  offset="1" style="stop-color:#1A87A0"/>
		</linearGradient>
		<polygon fill="url(#SVGID_10_)" points="78.235,50.277 77.665,63.12 59.418,65.961 59.235,71.8 76.168,68.968 75.672,80.389 
			58.864,83.592 58.407,98.149 45.775,100.919 46.812,54.341 		"/>
	</g>
</g>
</svg>
