<?xml version="1.0" encoding="utf-8"?>
<!-- Generator: Adobe Illustrator 15.0.0, SVG Export Plug-In . SVG Version: 6.00 Build 0)  -->
<!DOCTYPE svg PUBLIC "-//W3C//DTD SVG 1.1//EN" "http://www.w3.org/Graphics/SVG/1.1/DTD/svg11.dtd">
<svg version="1.1" id="图层_1" xmlns="http://www.w3.org/2000/svg" xmlns:xlink="http://www.w3.org/1999/xlink" x="0px" y="0px"
	 width="110.667px" height="110.5px" viewBox="0 0 110.667 110.5" enable-background="new 0 0 110.667 110.5" xml:space="preserve">
<g>
	<g>
		
			<linearGradient id="SVGID_1_" gradientUnits="userSpaceOnUse" x1="1677.9922" y1="92.2759" x2="1677.9922" y2="31.7133" gradientTransform="matrix(-1 0 0 1 1731.9883 0)">
			<stop  offset="0.0051" style="stop-color:#E28100"/>
			<stop  offset="0.335" style="stop-color:#E28100"/>
			<stop  offset="0.7005" style="stop-color:#FFE66D"/>
			<stop  offset="0.7767" style="stop-color:#FFD400"/>
			<stop  offset="1" style="stop-color:#E28100"/>
		</linearGradient>
		<path fill="url(#SVGID_1_)" d="M49.74,54.033c1.044,2.293,2.847,4.458,3.167,7.022c0.128,1.024-0.114,1.999-0.603,2.906
			c-0.24,0.444-0.565,1.007-0.984,1.412c-0.567-1.016-1.397-1.475-2.598-0.864c-0.018,0.013-0.022,0.03-0.014,0.051
			c0.228,0.557,0.498,1.073,1.031,1.381c0.465,0.269,0.925,0.259,1.345,0.091c0.021,0.057,0.04,0.116,0.06,0.173
			c0.731,2.32,0.786,4.886,0.757,7.303c-0.011,0.853-0.089,1.693-0.217,2.524c0.204,0.017,0.406,0.036,0.608,0.059
			c0.027-0.199,0.052-0.397,0.072-0.596c0.146-1.423,0.357-6.963-0.841-9.707c0.357-0.248,0.669-0.592,0.905-0.94
			c1.179-1.739,1.344-3.511,0.558-5.463c-0.993-2.476-2.563-4.636-3.437-7.176c-0.946-2.75-1.523-5.685-1.269-8.603
			c0.249-2.86,1.274-5.28,2.562-7.808c0.508-0.994,1.151-2.168,2.234-2.632c1.536-0.659,3.384,0.216,4.214,1.622
			c0.261,0.442,0.424,1.047,0.385,1.617c-0.254-0.083-0.507-0.124-0.748-0.109c-0.613,0.039-2.066,0.523-1.443,1.378
			c0.321,0.441,1.149,0.644,1.649,0.447c0.614-0.24,0.943-0.696,1.062-1.225c0.805,0.507,1.292,1.537,0.903,2.214
			c-0.417-0.062-0.796,0.089-0.961,0.62c-0.046,0.152,0.437,0.208,0.519,0.19c0.364-0.081,0.631-0.208,0.819-0.365
			c0.087,0.075,0.154,0.192,0.188,0.355c0.097,0.479,0.07,0.94-0.068,1.407c-0.193,0.653-0.467,1.272-0.695,1.912
			c-0.045,0.124,0.519,0.296,0.568,0.153c0.353-0.987,1.617-3.272,0.244-4.049c-0.008-0.005-0.018-0.009-0.025-0.014
			c0.507-0.793-0.367-2.051-1.452-2.666c0.09-0.855-0.306-1.84-0.901-2.42c-1.211-1.177-2.858-1.934-4.535-1.376
			c-0.876,0.292-1.548,1.083-2.008,1.851c-0.616,1.028-1.195,2.143-1.677,3.24c-1.125,2.563-1.626,5.358-1.41,8.155
			C47.913,48.826,48.608,51.546,49.74,54.033z M50.565,65.845c-0.451,0.134-0.746-0.118-0.961-0.497
			c-0.043-0.073-0.403-0.625-0.222-0.706c0.341-0.147,0.681-0.203,0.967,0.092c0.259,0.267,0.448,0.592,0.595,0.935
			C50.824,65.745,50.699,65.806,50.565,65.845z M56.993,37.718c-0.662,0.455-1.567-0.24-0.82-0.777
			c0.494-0.354,1.01-0.41,1.474-0.286C57.569,37.076,57.369,37.46,56.993,37.718z"/>
		<linearGradient id="SVGID_2_" gradientUnits="userSpaceOnUse" x1="54.2148" y1="34.3584" x2="54.2148" y2="33.6374">
			<stop  offset="0" style="stop-color:#FFE66D"/>
			<stop  offset="0.302" style="stop-color:#FFD400"/>
			<stop  offset="1" style="stop-color:#E28100"/>
		</linearGradient>
		<path fill="url(#SVGID_2_)" d="M53.998,33.391c0,0-0.504,0.457-0.504,0.937c0,0,0.673,0.409,1.441-0.168
			C54.936,34.16,54.84,33.631,53.998,33.391z"/>
		<g>
			<linearGradient id="SVGID_3_" gradientUnits="userSpaceOnUse" x1="54.1489" y1="34.9644" x2="54.1489" y2="19.4965">
				<stop  offset="0" style="stop-color:#FFE66D"/>
				<stop  offset="0.302" style="stop-color:#FFD400"/>
				<stop  offset="1" style="stop-color:#E28100"/>
			</linearGradient>
			<path fill="url(#SVGID_3_)" d="M63,12.657c-1.594-3.284-4.957-5.548-8.852-5.548c-3.894,0-7.258,2.264-8.85,5.548l0,0
				c0,0-6.782,11.568,8.85,20.309C69.781,24.225,63,12.657,63,12.657z"/>
		</g>
		<linearGradient id="SVGID_4_" gradientUnits="userSpaceOnUse" x1="54.1489" y1="33.5225" x2="54.1489" y2="32.9493">
			<stop  offset="0" style="stop-color:#FFE66D"/>
			<stop  offset="0.302" style="stop-color:#FFD400"/>
			<stop  offset="1" style="stop-color:#E28100"/>
		</linearGradient>
		<ellipse fill="url(#SVGID_4_)" cx="54.149" cy="33.097" rx="0.481" ry="0.442"/>
		<linearGradient id="SVGID_5_" gradientUnits="userSpaceOnUse" x1="55.9995" y1="26.8369" x2="55.9995" y2="9.6647">
			<stop  offset="0" style="stop-color:#FFE66D"/>
			<stop  offset="0.302" style="stop-color:#FFD400"/>
			<stop  offset="1" style="stop-color:#E28100"/>
		</linearGradient>
		<path fill="url(#SVGID_5_)" d="M47.631,17.419c0,5.627,3.861,10.189,8.622,10.189c3.313,0,6.187-2.209,7.631-5.447
			c1.504-5.283-0.979-9.52-0.979-9.52c-1.352-2.786-3.979-4.837-7.121-5.396C51.24,7.534,47.631,11.978,47.631,17.419z"/>
		<linearGradient id="SVGID_6_" gradientUnits="userSpaceOnUse" x1="54.2822" y1="11.2383" x2="54.2822" y2="31.8836">
			<stop  offset="0" style="stop-color:#FFFAE2"/>
			<stop  offset="0.4872" style="stop-color:#FFD400"/>
			<stop  offset="1" style="stop-color:#F1AC00"/>
		</linearGradient>
		<ellipse fill="url(#SVGID_6_)" cx="54.282" cy="14.446" rx="5.963" ry="6.16"/>
	</g>
	<g>
		<linearGradient id="SVGID_7_" gradientUnits="userSpaceOnUse" x1="62.417" y1="92.2637" x2="69.1327" y2="60.0281">
			<stop  offset="0.4822" style="stop-color:#FFD400"/>
			<stop  offset="1" style="stop-color:#E28100"/>
		</linearGradient>
		<polygon fill="url(#SVGID_7_)" points="69.855,55.359 76.003,63.877 66.918,73.475 60.346,65.382 		"/>
		<linearGradient id="SVGID_8_" gradientUnits="userSpaceOnUse" x1="74.7178" y1="96.332" x2="55.1077" y2="76.722">
			<stop  offset="0.4822" style="stop-color:#FFD400"/>
			<stop  offset="1" style="stop-color:#E28100"/>
		</linearGradient>
		<path fill="url(#SVGID_8_)" d="M49.539,87.731c-2.451-2.476-4.9-4.951-7.352-7.426c-0.027-0.027-0.055-0.056-0.082-0.083
			c-0.026-0.028-0.054-0.057-0.079-0.085c-0.027-0.028-0.054-0.058-0.08-0.086c-0.025-0.029-0.051-0.058-0.076-0.088
			c-0.192-0.221-0.371-0.456-0.534-0.7c-0.164-0.246-0.314-0.503-0.448-0.771c-0.136-0.268-0.258-0.548-0.365-0.84
			c-0.107-0.292-0.2-0.595-0.281-0.909c-0.079-0.314-0.141-0.636-0.186-0.968c-0.046-0.332-0.072-0.672-0.082-1.025
			s-0.002-0.717,0.022-1.095c0.026-0.377,0.069-0.769,0.131-1.175c0.056-0.365,0.124-0.724,0.205-1.074
			c0.082-0.351,0.178-0.694,0.286-1.03c0.108-0.335,0.229-0.665,0.365-0.985c0.135-0.321,0.282-0.635,0.444-0.941
			s0.335-0.604,0.517-0.892c0.184-0.288,0.376-0.565,0.579-0.833c0.203-0.269,0.418-0.527,0.643-0.776
			c0.225-0.248,0.46-0.487,0.705-0.717c0.245-0.229,0.499-0.447,0.761-0.653s0.532-0.402,0.812-0.585
			c0.279-0.184,0.567-0.357,0.862-0.518c0.296-0.161,0.602-0.312,0.914-0.45c0.313-0.139,0.63-0.262,0.953-0.37
			c0.321-0.108,0.647-0.2,0.979-0.278c0.33-0.078,0.665-0.14,1.005-0.187s0.684-0.078,1.032-0.094c0.451-0.021,0.893-0.021,1.325,0
			c0.432,0.021,0.853,0.062,1.265,0.123c0.412,0.062,0.813,0.144,1.206,0.247c0.393,0.103,0.775,0.226,1.148,0.37
			c0.373,0.144,0.74,0.305,1.102,0.482c0.362,0.178,0.719,0.374,1.069,0.586c0.352,0.213,0.697,0.442,1.037,0.688
			c0.341,0.247,0.676,0.511,1.005,0.792l6.572,8.093c-0.319-0.274-0.645-0.532-0.975-0.773c-0.329-0.241-0.664-0.466-1.005-0.674
			c-0.34-0.208-0.685-0.4-1.034-0.576c-0.351-0.175-0.706-0.334-1.066-0.477c-0.361-0.142-0.731-0.265-1.11-0.368
			c-0.379-0.104-0.768-0.187-1.165-0.25c-0.398-0.063-0.805-0.107-1.221-0.131c-0.417-0.023-0.843-0.028-1.277-0.012
			c-0.336,0.012-0.668,0.04-0.995,0.082c-0.328,0.042-0.65,0.099-0.969,0.171c-0.318,0.072-0.632,0.158-0.942,0.26
			c-0.31,0.102-0.614,0.217-0.916,0.348c-0.301,0.131-0.593,0.274-0.878,0.427c-0.283,0.153-0.56,0.317-0.828,0.493
			c-0.267,0.175-0.526,0.362-0.777,0.559c-0.252,0.197-0.494,0.406-0.729,0.625c-0.235,0.22-0.459,0.449-0.675,0.688
			c-0.215,0.239-0.419,0.487-0.612,0.744c-0.194,0.258-0.378,0.524-0.552,0.801s-0.337,0.562-0.491,0.857
			c-0.153,0.295-0.293,0.597-0.421,0.906c-0.127,0.31-0.242,0.626-0.344,0.95c-0.101,0.324-0.19,0.655-0.266,0.993
			c-0.076,0.338-0.14,0.684-0.188,1.036c-0.057,0.393-0.094,0.77-0.115,1.135s-0.026,0.716-0.014,1.057
			c0.013,0.341,0.042,0.671,0.089,0.992c0.046,0.32,0.108,0.632,0.188,0.936c0.081,0.305,0.174,0.599,0.28,0.881
			c0.106,0.283,0.226,0.554,0.359,0.814c0.133,0.26,0.278,0.51,0.439,0.748c0.16,0.238,0.333,0.465,0.521,0.681
			c0.025,0.028,0.051,0.058,0.076,0.085c0.025,0.028,0.051,0.056,0.076,0.084c0.026,0.027,0.053,0.056,0.078,0.083
			C49.485,87.677,49.512,87.704,49.539,87.731z"/>
		<linearGradient id="SVGID_9_" gradientUnits="userSpaceOnUse" x1="47.1846" y1="81.0146" x2="61.5791" y2="81.0146">
			<stop  offset="0" style="stop-color:#FFFFFF"/>
			<stop  offset="0.4822" style="stop-color:#FFD400"/>
			<stop  offset="1" style="stop-color:#E28100"/>
		</linearGradient>
		<polygon fill="url(#SVGID_9_)" points="54.706,77.121 61.579,84.762 54.332,84.908 47.185,77.338 		"/>
		<linearGradient id="SVGID_10_" gradientUnits="userSpaceOnUse" x1="73.2632" y1="66.9551" x2="70.5769" y2="93.5495">
			<stop  offset="0.4822" style="stop-color:#FFD400"/>
			<stop  offset="1" style="stop-color:#E28100"/>
		</linearGradient>
		<polygon fill="url(#SVGID_10_)" points="69.885,67.336 76.119,75.446 73.911,95.292 67.43,87.937 		"/>
		<linearGradient id="SVGID_11_" gradientUnits="userSpaceOnUse" x1="31.3057" y1="94.9365" x2="73.9111" y2="94.9365">
			<stop  offset="0" style="stop-color:#FFFFFF"/>
			<stop  offset="0.4822" style="stop-color:#FFD400"/>
			<stop  offset="1" style="stop-color:#E28100"/>
		</linearGradient>
		<path fill="url(#SVGID_11_)" d="M39.128,96.905c-2.607-2.334-5.215-4.669-7.822-7.004c0.411,0.368,0.841,0.718,1.291,1.049
			c0.45,0.332,0.919,0.645,1.408,0.938c0.489,0.294,0.998,0.569,1.526,0.825c0.528,0.257,1.076,0.495,1.645,0.713
			c0.697,0.268,1.416,0.502,2.154,0.703c0.741,0.2,1.502,0.367,2.283,0.498c0.783,0.131,1.586,0.229,2.41,0.291
			c0.826,0.062,1.671,0.089,2.538,0.081c1.017-0.009,2.017-0.058,3-0.145c0.986-0.087,1.956-0.214,2.908-0.38
			c0.954-0.166,1.89-0.371,2.809-0.615c0.92-0.245,1.822-0.529,2.707-0.853c0.885-0.324,1.745-0.673,2.582-1.046
			c0.837-0.374,1.648-0.772,2.436-1.194c0.789-0.423,1.552-0.87,2.289-1.342c0.738-0.472,1.45-0.967,2.138-1.487l6.481,7.355
			c-0.658,0.495-1.339,0.967-2.045,1.416c-0.705,0.448-1.437,0.873-2.19,1.274c-0.754,0.401-1.533,0.778-2.336,1.131
			c-0.802,0.354-1.626,0.683-2.476,0.989c-0.848,0.305-1.714,0.572-2.598,0.801c-0.882,0.229-1.781,0.419-2.698,0.571
			c-0.915,0.153-1.848,0.268-2.797,0.345c-0.947,0.076-1.91,0.115-2.889,0.116c-0.835,0.001-1.65-0.031-2.445-0.097
			c-0.795-0.066-1.569-0.166-2.326-0.298c-0.754-0.132-1.488-0.298-2.204-0.497c-0.715-0.198-1.409-0.43-2.085-0.694
			c-0.549-0.215-1.079-0.448-1.592-0.699c-0.512-0.251-1.005-0.521-1.479-0.808s-0.931-0.592-1.368-0.916
			C39.946,97.604,39.528,97.263,39.128,96.905z"/>
		<linearGradient id="SVGID_12_" gradientUnits="userSpaceOnUse" x1="47.3169" y1="42.4927" x2="48.1228" y2="85.2037">
			<stop  offset="0" style="stop-color:#FFFFFF"/>
			<stop  offset="0.4822" style="stop-color:#FFD400"/>
			<stop  offset="1" style="stop-color:#E28100"/>
		</linearGradient>
		<path fill="url(#SVGID_12_)" d="M52.46,50.054c0.923-0.055,1.819-0.073,2.688-0.056c0.873,0.017,1.717,0.07,2.536,0.159
			c0.82,0.089,1.614,0.214,2.381,0.375c0.769,0.161,1.511,0.359,2.227,0.593c0.716,0.234,1.411,0.499,2.083,0.792
			c0.676,0.293,1.327,0.616,1.957,0.968c0.632,0.353,1.24,0.735,1.827,1.147c0.588,0.413,1.153,0.855,1.696,1.328l-9.51,10.023
			c-0.329-0.281-0.664-0.545-1.005-0.792c-0.34-0.246-0.686-0.476-1.037-0.688c-0.351-0.212-0.707-0.408-1.069-0.586
			c-0.361-0.178-0.729-0.339-1.102-0.482c-0.373-0.145-0.756-0.268-1.148-0.37c-0.393-0.104-0.794-0.185-1.206-0.247
			c-0.412-0.062-0.833-0.103-1.265-0.123c-0.433-0.021-0.874-0.021-1.325,0c-0.349,0.016-0.692,0.047-1.032,0.094
			s-0.675,0.109-1.005,0.187c-0.331,0.078-0.657,0.17-0.979,0.278c-0.323,0.108-0.641,0.231-0.953,0.37
			c-0.313,0.138-0.618,0.289-0.914,0.45c-0.295,0.161-0.583,0.334-0.862,0.518c-0.279,0.184-0.55,0.379-0.812,0.585
			s-0.516,0.424-0.761,0.653c-0.245,0.23-0.48,0.469-0.705,0.717c-0.225,0.25-0.439,0.508-0.643,0.776
			c-0.203,0.268-0.396,0.545-0.579,0.833c-0.182,0.288-0.354,0.585-0.517,0.892s-0.31,0.621-0.444,0.941
			c-0.136,0.321-0.257,0.65-0.365,0.985c-0.108,0.336-0.204,0.679-0.286,1.03c-0.081,0.351-0.149,0.709-0.205,1.074
			c-0.062,0.407-0.104,0.798-0.131,1.175c-0.024,0.378-0.032,0.742-0.022,1.095s0.036,0.694,0.082,1.025
			c0.045,0.332,0.106,0.653,0.186,0.968c0.081,0.314,0.174,0.618,0.281,0.909c0.107,0.292,0.229,0.572,0.365,0.84
			c0.134,0.269,0.284,0.526,0.448,0.771c0.163,0.245,0.342,0.479,0.534,0.7c0.191,0.222,0.397,0.432,0.616,0.627
			c0.219,0.196,0.45,0.38,0.695,0.55c0.244,0.17,0.503,0.327,0.774,0.471c0.271,0.145,0.558,0.275,0.855,0.393
			c0.299,0.118,0.607,0.22,0.927,0.307c0.32,0.086,0.651,0.157,0.994,0.211c0.343,0.055,0.696,0.094,1.062,0.117
			c0.365,0.023,0.741,0.031,1.129,0.022c0.313-0.008,0.614-0.02,0.898-0.037c0.285-0.017,0.555-0.04,0.81-0.066
			c0.256-0.027,0.496-0.059,0.722-0.096s0.437-0.078,0.632-0.125c0.195-0.047,0.387-0.099,0.573-0.155s0.368-0.119,0.545-0.186
			c0.179-0.067,0.351-0.14,0.52-0.218c0.168-0.078,0.332-0.161,0.491-0.249l0.593-4.408l-7.521,0.217l1.309-9.168l21.392-0.834
			L67.43,87.937c-0.688,0.52-1.399,1.015-2.138,1.487c-0.737,0.472-1.5,0.918-2.289,1.342c-0.787,0.422-1.599,0.82-2.436,1.194
			c-0.837,0.374-1.697,0.722-2.582,1.046c-0.885,0.324-1.787,0.608-2.707,0.853c-0.919,0.245-1.854,0.449-2.809,0.615
			c-0.952,0.166-1.922,0.292-2.908,0.38c-0.983,0.087-1.983,0.135-3,0.145c-0.867,0.008-1.712-0.019-2.538-0.081
			c-0.824-0.063-1.627-0.16-2.41-0.291c-0.781-0.131-1.542-0.298-2.283-0.498c-0.738-0.2-1.457-0.435-2.154-0.703
			c-0.697-0.268-1.364-0.564-2.002-0.89c-0.637-0.325-1.244-0.678-1.822-1.06c-0.578-0.381-1.127-0.791-1.647-1.228
			c-0.519-0.437-1.009-0.901-1.472-1.395c-0.461-0.491-0.888-1.007-1.281-1.546c-0.392-0.538-0.75-1.101-1.074-1.687
			c-0.324-0.585-0.616-1.194-0.873-1.826c-0.256-0.631-0.479-1.285-0.671-1.964c-0.189-0.676-0.339-1.37-0.446-2.081
			c-0.108-0.71-0.174-1.438-0.2-2.182c-0.026-0.744-0.012-1.503,0.043-2.282c0.055-0.776,0.15-1.57,0.285-2.381
			c0.135-0.81,0.302-1.598,0.5-2.366s0.428-1.517,0.691-2.249c0.261-0.73,0.556-1.444,0.882-2.143
			c0.327-0.699,0.686-1.382,1.078-2.053c0.392-0.671,0.808-1.321,1.249-1.949c0.44-0.628,0.904-1.235,1.393-1.821
			c0.488-0.586,1.002-1.151,1.539-1.695c0.537-0.545,1.099-1.069,1.686-1.573c0.586-0.503,1.191-0.98,1.814-1.434
			c0.625-0.454,1.268-0.883,1.93-1.287c0.662-0.405,1.344-0.785,2.045-1.141c0.701-0.356,1.424-0.688,2.164-0.995
			c0.741-0.307,1.494-0.582,2.258-0.825c0.766-0.243,1.542-0.454,2.331-0.633s1.591-0.325,2.404-0.439
			C50.794,50.186,51.62,50.104,52.46,50.054z"/>
	</g>
</g>
</svg>
