<?xml version="1.0" encoding="utf-8"?>
<!-- Generator: Adobe Illustrator 15.0.0, SVG Export Plug-In . SVG Version: 6.00 Build 0)  -->
<!DOCTYPE svg PUBLIC "-//W3C//DTD SVG 1.1//EN" "http://www.w3.org/Graphics/SVG/1.1/DTD/svg11.dtd">
<svg version="1.1" id="图层_1" xmlns="http://www.w3.org/2000/svg" xmlns:xlink="http://www.w3.org/1999/xlink" x="0px" y="0px"
	 width="40px" height="120px" viewBox="0 0 40 120" enable-background="new 0 0 40 120" xml:space="preserve">
<g>
	<g>
		
			<linearGradient id="SVGID_1_" gradientUnits="userSpaceOnUse" x1="33.7266" y1="407.0889" x2="8.8246" y2="425.1812" gradientTransform="matrix(1.2844 0.0383 -0.0383 1.2844 7.3662 -509.7487)">
			<stop  offset="0.1" style="stop-color:#2B8200"/>
			<stop  offset="0.2131" style="stop-color:#328801"/>
			<stop  offset="0.3742" style="stop-color:#449903"/>
			<stop  offset="0.5631" style="stop-color:#63B507"/>
			<stop  offset="0.7212" style="stop-color:#82D10B"/>
			<stop  offset="0.782" style="stop-color:#9AD442"/>
			<stop  offset="0.8303" style="stop-color:#ABD769"/>
			<stop  offset="0.9501" style="stop-color:#ACD86B"/>
			<stop  offset="1" style="stop-color:#B1DB72"/>
		</linearGradient>
		<path fill-rule="evenodd" clip-rule="evenodd" fill="url(#SVGID_1_)" d="M20.254,0.389c9.69,0.283,18.1,7.608,16.89,22.035
			C36.206,33.64,25.343,47.3,19.709,48.635l1.551,3.345c-1.335-0.474-2.27,1.031-2.794,0.801c-0.593-0.26-0.519-1.328-0.823-2.07
			l0.77-2.004C13.008,47.888,2.165,33.024,2.055,21.398C1.922,7.498,10.565,0.105,20.254,0.389L20.254,0.389z"/>
		<path fill-rule="evenodd" clip-rule="evenodd" fill="none" d="M20.01,10.025c5.911-1.295,12.414,4.015,14.523,11.859
			c2.11,7.845-0.971,15.255-6.881,16.551c-5.912,1.295-12.413-4.014-14.524-11.859C11.018,18.731,14.098,11.322,20.01,10.025z"/>
		<text transform="matrix(1 0 0 1 14.2266 25.6699)" fill="#FFFFFF" font-family="'AdobeSongStd-Light-GBpc-EUC-H'" font-size="18">1</text>
		<path fill-rule="evenodd" clip-rule="evenodd" fill="#B3E070" d="M6.779,28.012c0.825-1.153,3.503,1.656,5.982,6.274
			c2.479,4.62,3.819,9.299,2.995,10.451c-0.825,1.153-3.504-1.656-5.982-6.275C7.296,33.844,5.955,29.165,6.779,28.012z"/>
		<path fill-rule="evenodd" clip-rule="evenodd" fill="#87C031" d="M8.279,8.605c1.119-0.175,1.891,0.783,1.725,2.139
			c-0.165,1.355-1.206,2.596-2.327,2.77c-1.117,0.175-1.89-0.783-1.724-2.138C6.119,10.02,7.16,8.779,8.279,8.605z"/>
		<path fill-rule="evenodd" clip-rule="evenodd" fill="#BBE876" d="M7.352,15.026c0.465-0.073,0.788,0.326,0.718,0.891
			C8,16.482,7.566,17,7.1,17.072c-0.467,0.072-0.789-0.327-0.718-0.891C6.45,15.616,6.885,15.099,7.352,15.026z"/>
		
			<linearGradient id="SVGID_2_" gradientUnits="userSpaceOnUse" x1="15.083" y1="401.8516" x2="13.6638" y2="391.7532" gradientTransform="matrix(1.2844 0.0383 -0.0383 1.2844 28.5019 -497.7175)">
			<stop  offset="0.02" style="stop-color:#FFFFFF"/>
			<stop  offset="0.98" style="stop-color:#D5FF96"/>
		</linearGradient>
		<path fill-rule="evenodd" clip-rule="evenodd" fill="url(#SVGID_2_)" d="M29.665,5.641c1.257,0.874,2.775,2.981,4.48,7.812
			c-1.024,0.288-2.188,0.917-3.001,1.563c-0.129-0.962-0.834-5.491-2.855-8.567C28.566,6.022,29.267,5.688,29.665,5.641
			L29.665,5.641z M34.443,14.622c0.419,0.867,0.656,2.093,0.72,3.462c-0.829,0.389-2.365,0.854-3.336,1.208
			c-0.129-0.939-0.425-2.931-0.546-3.419C31.954,15.052,33.979,14.374,34.443,14.622L34.443,14.622z"/>
		<path fill-rule="evenodd" clip-rule="evenodd" fill="#71B30E" d="M18.969,48.451c0.248-0.125,1.164,2.924,0.665,2.751
			c-0.5-0.17-0.326-0.676-0.445-0.468c-0.118,0.207-0.122,1.279-0.373,1.588c-0.693,0.856,0.232-2.256-0.543-2.174
			C17.776,50.202,18.664,48.607,18.969,48.451L18.969,48.451z"/>
		<path fill-rule="evenodd" clip-rule="evenodd" fill="#D3F79D" d="M34.542,20.873c0.248,0.495,0.29,1.917-0.007,2.262
			c-0.475,0.542-1.646,0.834-2.254,0.331c-0.33-0.274-0.03-2.011,0.11-2.213C32.839,20.608,34.353,20.497,34.542,20.873
			L34.542,20.873z"/>
	</g>
	<path fill-rule="evenodd" clip-rule="evenodd" fill="#BF0046" d="M27.942,77.244c-0.654-2.559-1.109-5.15-1.703-7.722
		c-0.515-2.226-1.398-4.396-2.212-6.516c-0.847-2.207-1.404-4.502-2.346-6.677c-0.274-0.636-1.877-5.463-2.359-6.909
		c0.376,0.011,0.752,0.022,1.129,0.031c0.312,0.009,0.463-0.228,0.458-0.464c0.006-0.236-0.146-0.474-0.458-0.466
		c-0.335,0.011-0.672,0.02-1.008,0.029c-0.002-0.021-0.004-0.04-0.007-0.06c-0.03-0.301-0.42-0.314-0.491-0.046
		c-0.005-0.001-0.008-0.002-0.015-0.003c-0.104-0.011-0.184,0.048-0.237,0.126c-0.107,0.002-0.216,0.006-0.322,0.012
		c-0.134-0.147-0.413-0.154-0.462,0.085c-0.024,0.008-0.05,0.014-0.075,0.022c-0.009,0.003-0.018,0.005-0.025,0.009
		c-0.018,0.007-0.038,0.01-0.055,0.017c0.002,0.004,0.004,0.01,0.006,0.013c-0.188,0.125-0.26,0.429-0.006,0.534
		c0.271,0.115,0.558,0.135,0.849,0.144c0.025,1.491,0.581,2.708,1.091,4.183c0.645,1.864,1.309,3.719,1.939,5.588
		c0.567,1.679,1.195,3.401,1.638,5.114c0.437,1.681,1.279,3.21,1.718,4.91c0.486,1.888,0.806,3.791,1.197,5.697
		c0.452,2.195,0.938,4.163,0.836,6.421c-0.182,4.081-0.009,8.056-1.312,11.991c-0.541,1.628-1.346,3.146-2.634,4.268
		c-0.095-1.357-0.44-2.755-0.961-3.917c-1.211-2.71-5.48-3.291-6.27-0.031c-0.396,1.636,0.736,3.243,1.647,4.501
		c0.778,1.074,2.25,1.779,3.6,1.591c0.297-0.04,0.58-0.107,0.852-0.188c-0.134,1.114-0.45,2.21-0.907,3.321
		c-0.735,1.782-1.569,3.458-1.842,5.383c-0.188,1.343-0.267,2.887-0.258,4.252c0.019,3.304,1.8,5.875,4.646,7.588
		c0.307,0.186,0.675-0.265,0.392-0.501c-2.07-1.706-3.84-3.706-4.019-6.453c-0.068-1.036,0.162-1.993,0.242-3.012
		c0.113-1.421,0.119-2.655,0.593-4.024c0.791-2.281,1.917-4.214,2.244-6.635c0.018-0.132,0.024-0.268,0.035-0.403
		c2.622-1.503,3.777-5.033,4.478-7.79c0.556-2.184,0.565-4.582,0.592-6.819C28.165,82.071,28.535,79.56,27.942,77.244z
		 M17.065,95.385c-1.227-1.949,1.292-3.472,3.003-2.523c1.183,0.656,1.409,2.086,1.685,3.267c0.178,0.76,0.252,1.497,0.253,2.225
		C19.597,99.666,18.114,97.051,17.065,95.385z"/>
</g>
</svg>
