<?xml version="1.0" encoding="utf-8"?>
<!-- Generator: Adobe Illustrator 15.0.0, SVG Export Plug-In . SVG Version: 6.00 Build 0)  -->
<!DOCTYPE svg PUBLIC "-//W3C//DTD SVG 1.1//EN" "http://www.w3.org/Graphics/SVG/1.1/DTD/svg11.dtd">
<svg version="1.1" id="图层_1" xmlns="http://www.w3.org/2000/svg" xmlns:xlink="http://www.w3.org/1999/xlink" x="0px" y="0px"
	 width="40px" height="120px" viewBox="0 0 40 120" enable-background="new 0 0 40 120" xml:space="preserve">
<g>
	<g>
		
			<linearGradient id="SVGID_1_" gradientUnits="userSpaceOnUse" x1="42.8047" y1="494.0781" x2="17.8868" y2="512.182" gradientTransform="matrix(1.4702 -0.0086 0.0086 1.4702 -29.6693 -704.1862)">
			<stop  offset="0.09" style="stop-color:#FFC917"/>
			<stop  offset="0.5" style="stop-color:#FFC917"/>
			<stop  offset="0.91" style="stop-color:#FFF343"/>
		</linearGradient>
		<path fill-rule="evenodd" clip-rule="evenodd" fill="url(#SVGID_1_)" d="M19.852,5.98c11.107-0.066,21.045,8.147,20.262,25.049
			c-0.608,13.138-12.483,29.539-18.878,31.326l1.265,3.849c-0.137,0.812-1.283-0.328-1.883,0.105
			c-0.834,0.604-2.169,0.244-2.652-0.223l1.788-3.595C13.528,61.759,0.493,44.839-0.118,31.263
			C-0.847,15.032,8.744,6.044,19.852,5.98L19.852,5.98z"/>
		<path fill-rule="evenodd" clip-rule="evenodd" fill="none" d="M20.073,19.367c7.224-1.927,15.417,4.599,18.298,14.575
			c2.882,9.977-0.637,19.627-7.862,21.555c-7.223,1.927-15.416-4.598-18.298-14.574C9.33,30.944,12.849,21.295,20.073,19.367z"/>
		<text transform="matrix(1 0 0 1 14.1196 34.8696)" fill="#FFFFFF" font-family="'AdobeSongStd-Light-GBpc-EUC-H'" font-size="18">2</text>
		<path fill-rule="evenodd" clip-rule="evenodd" fill="#FFEB17" d="M5.732,38.968c0.896-1.38,4.082,1.791,7.113,7.085
			c3.032,5.293,4.762,10.704,3.864,12.084c-0.896,1.379-4.081-1.792-7.112-7.086C6.565,45.759,4.835,40.348,5.732,38.968z"/>
		<path fill-rule="evenodd" clip-rule="evenodd" fill="#FFEB17" d="M6.479,16.065c1.274-0.249,2.198,0.838,2.065,2.428
			c-0.134,1.59-1.275,3.081-2.549,3.331c-1.273,0.249-2.197-0.837-2.064-2.427C4.064,17.805,5.205,16.315,6.479,16.065z"/>
		<path fill-rule="evenodd" clip-rule="evenodd" fill="#FFE785" d="M5.683,23.604c0.531-0.104,0.916,0.349,0.86,1.012
			c-0.056,0.662-0.531,1.284-1.061,1.388c-0.531,0.104-0.917-0.349-0.861-1.011C4.676,24.329,5.153,23.708,5.683,23.604z"/>
		
			<linearGradient id="SVGID_2_" gradientUnits="userSpaceOnUse" x1="138.085" y1="647.9365" x2="130.8625" y2="634.3531" gradientTransform="matrix(0.9324 -0.3614 0.3614 0.9324 -324.379 -528.7599)">
			<stop  offset="0.11" style="stop-color:#FFFFFF"/>
			<stop  offset="0.89" style="stop-color:#FFFFA3"/>
		</linearGradient>
		<path fill-rule="evenodd" clip-rule="evenodd" fill="url(#SVGID_2_)" d="M30.86,12.258c1.475,0.969,3.303,3.37,5.455,8.942
			c-1.16,0.376-2.467,1.161-3.37,1.95c-0.189-1.12-1.185-6.38-3.628-9.893C29.618,12.75,30.406,12.331,30.86,12.258L30.86,12.258z
			 M36.706,22.553c0.516,0.997,0.84,2.419,0.969,4.017c-0.934,0.486-2.674,1.092-3.771,1.546c-0.187-1.092-0.607-3.407-0.77-3.973
			C33.874,23.158,36.162,22.284,36.706,22.553L36.706,22.553z"/>
		<path fill-rule="evenodd" clip-rule="evenodd" fill="#EBBD28" d="M20.424,62.604c0,0-0.814,0.827-1.062,1.804
			c-0.205,0.808,0.212,2.16,0.377,1.581c0.101-0.36,0.378-2.121,0.792-2.206c0.414-0.087,1.029,2.578,1.091,1.603
			C21.665,64.743,20.795,62.097,20.424,62.604L20.424,62.604z"/>
		<path fill-rule="evenodd" clip-rule="evenodd" fill="#FFFFB0" d="M37.075,29.78c0.248,0.507,0.292,1.959-0.009,2.312
			c-0.472,0.553-1.646,0.853-2.256,0.337c-0.33-0.279-0.028-2.054,0.111-2.26C35.371,29.51,36.887,29.396,37.075,29.78L37.075,29.78
			z"/>
	</g>
	<path fill-rule="evenodd" clip-rule="evenodd" fill="#BF0046" d="M25.376,58.834c-0.455-0.106-1.328-0.08-2.049,0.047
		c0.18-1.001,0.016-2.29-1.24-2.271c-1.48,0.02-2.591,1.053-2.998,2.429c-0.324,1.101-0.177,2.48,0.557,3.347
		c-0.065,0.017-0.132,0.034-0.199,0.038c-0.077,0.006-0.136,0.042-0.183,0.084c-1.28-0.028-1.745,0.94-2.627,2.197
		c-0.477,0.68-0.46,1.896-0.285,2.663c0.269,1.168,0.379,1.988-0.411,3.011c-0.722,0.935-1.957,1.297-3.06,1.098
		c-0.125-0.021-0.213,0.115-0.125,0.215c1.262,1.418,3.488-0.665,4.206-1.733c0.687-1.022,0.003-2.464,0.012-3.561
		c0.005-0.95,0.418-1.436,0.782-2.247c0.448-1,1.394-1.017,2.325-0.948c1.238,1.971,2.568,4.29,3.2,6.505
		c1.001,3.5-2.458,6.554-5.003,8.357c-3.682,2.613-6.687,6.874-5.911,11.592c0.313,1.896,1.274,3.853,2.487,5.32
		c0.582,0.701,1.253,1.36,1.964,1.93c1.083,0.863,2.439,1.447,3.272,2.577c1.432,1.943,1.476,6.321,0.137,8.331
		c-1.054,1.582-1.925,2.928-1.892,4.906c0.004,0.244,0.387,0.313,0.438,0.059c0.434-2.189,1.785-3.772,2.818-5.683
		c0.436-0.805,0.313-2.033,0.313-2.905c0.001-1.173,0.091-2.337-0.225-3.476c-0.641-2.319-2.587-3.022-4.248-4.425
		c-2.209-1.864-3.505-4.05-4.155-6.886c-0.758-3.308,1.654-6.678,3.778-8.902c0.998-1.045,2.303-1.814,3.441-2.702
		c1.077-0.839,1.896-1.998,2.692-3.093c1.332-1.829,1.478-3.661,0.81-5.776c-0.476-1.51-1.361-3.121-2.325-4.561
		c0.982,0.555,2.283,0.838,3.088,0.95c1.49,0.208,5.167,0.399,5.437-1.808C30.547,60.657,27.682,59.371,25.376,58.834z
		 M19.885,59.67c0.039-1.029,0.805-1.801,1.728-2.126c1.362-0.48,0.94,1.133,0.824,1.512c-0.009,0.034-0.023,0.065-0.034,0.099
		c-1.298,0.641-1.651,1.154-1.998,2.586c-0.002,0.013,0,0.024,0,0.036c-0.095,0.07-0.188,0.139-0.275,0.193
		C19.684,61.452,19.864,60.236,19.885,59.67z M28.421,64.364c-1.371,0.556-2.662,0.115-4.023,0.115c-0.735,0-2.52-0.753-3.125-1.565
		c0.329,0.075,0.599-0.371,0.254-0.622c-0.125-0.092-0.235-0.132-0.344-0.143c0.167-0.151,0.324-0.3,0.456-0.415
		c0.628-0.553,1.067-1.186,1.396-1.933c0.424-0.091,0.909-0.14,1.458-0.218c1.09-0.158,2.101,0.231,3.063,0.689
		C28.878,60.901,30.768,63.418,28.421,64.364z"/>
</g>
</svg>
