<?xml version="1.0" encoding="utf-8"?>
<!-- Generator: Adobe Illustrator 15.0.0, SVG Export Plug-In . SVG Version: 6.00 Build 0)  -->
<!DOCTYPE svg PUBLIC "-//W3C//DTD SVG 1.1//EN" "http://www.w3.org/Graphics/SVG/1.1/DTD/svg11.dtd">
<svg version="1.1" id="图层_1" xmlns="http://www.w3.org/2000/svg" xmlns:xlink="http://www.w3.org/1999/xlink" x="0px" y="0px"
	 width="40px" height="120px" viewBox="0 0 40 120" enable-background="new 0 0 40 120" xml:space="preserve">
<g>
	<g>
		
			<linearGradient id="SVGID_1_" gradientUnits="userSpaceOnUse" x1="347.2617" y1="874.9297" x2="323.9532" y2="891.8643" gradientTransform="matrix(1.2423 0.1066 -0.1066 1.2423 -303.7151 -1108.2136)">
			<stop  offset="0.2545" style="stop-color:#FF0000"/>
			<stop  offset="0.5636" style="stop-color:#D90000"/>
			<stop  offset="0.9333" style="stop-color:#FF7F7F"/>
		</linearGradient>
		<path fill-rule="evenodd" clip-rule="evenodd" fill="url(#SVGID_1_)" d="M21.554,1.968c8.667,0.745,15.831,7.86,14.011,20.986
			c-1.415,10.205-11.849,22.145-16.964,23.084l1.218,3.134c-0.549,1.344-1.313-0.083-2.08,0.129
			c-0.806,0.223-1.553,0.032-1.956-0.588l1.652-2.675C12.633,45.02,3.676,30.892,4.171,20.259
			C4.763,7.549,12.886,1.225,21.554,1.968L21.554,1.968z"/>
		
			<radialGradient id="SVGID_2_" cx="722.0596" cy="1828.9678" r="29.4186" gradientTransform="matrix(0.6125 -0.0978 0.1055 0.4779 -603.3979 -789.0044)" gradientUnits="userSpaceOnUse">
			<stop  offset="0" style="stop-color:#FFC9C9"/>
			<stop  offset="0.1605" style="stop-color:#FFC5C5"/>
			<stop  offset="0.315" style="stop-color:#FFBABA"/>
			<stop  offset="0.4671" style="stop-color:#FFA6A6"/>
			<stop  offset="0.6178" style="stop-color:#FF8B8B"/>
			<stop  offset="0.7674" style="stop-color:#FF6868"/>
			<stop  offset="0.9141" style="stop-color:#FF3D3D"/>
			<stop  offset="1" style="stop-color:#FF2121"/>
		</radialGradient>
		<path fill-rule="evenodd" clip-rule="evenodd" fill="url(#SVGID_2_)" d="M22.106,3.593c5.421-0.866,11.102,4.262,12.688,11.45
			c1.587,7.188-1.52,13.719-6.938,14.585c-5.421,0.865-11.102-4.262-12.689-11.451C13.579,10.988,16.686,4.458,22.106,3.593z"/>
		<path fill-rule="evenodd" clip-rule="evenodd" fill="#FF3F3F" d="M10.402,8.878c1.011-0.103,1.654,0.811,1.436,2.041
			c-0.217,1.23-1.214,2.312-2.225,2.416c-1.01,0.104-1.654-0.811-1.436-2.042C8.395,10.063,9.391,8.982,10.402,8.878z"/>
		<path fill-rule="evenodd" clip-rule="evenodd" fill="#FF8282" d="M9.242,14.702c0.422-0.043,0.689,0.337,0.599,0.849
			c-0.091,0.513-0.506,0.964-0.927,1.006c-0.421,0.043-0.689-0.337-0.599-0.85C8.406,15.195,8.821,14.743,9.242,14.702z"/>
		
			<linearGradient id="SVGID_3_" gradientUnits="userSpaceOnUse" x1="328.5313" y1="869.3154" x2="327.193" y2="859.793" gradientTransform="matrix(1.2423 0.1066 -0.1066 1.2423 -283.89 -1095.4138)">
			<stop  offset="0.02" style="stop-color:#FFFFFF"/>
			<stop  offset="0.98" style="stop-color:#FFE0E0"/>
		</linearGradient>
		<path fill-rule="evenodd" clip-rule="evenodd" fill="url(#SVGID_3_)" d="M29.719,7.24c1.081,0.861,2.336,2.864,3.615,7.365
			c-0.931,0.211-2.007,0.729-2.768,1.279c-0.069-0.886-0.468-5.061-2.122-7.975C28.717,7.535,29.36,7.264,29.719,7.24L29.719,7.24z
			 M33.542,15.688c0.331,0.813,0.482,1.946,0.468,3.2c-0.763,0.314-2.163,0.662-3.052,0.937c-0.066-0.865-0.231-2.701-0.315-3.153
			C31.29,15.957,33.138,15.439,33.542,15.688L33.542,15.688z"/>
		<path fill-rule="evenodd" clip-rule="evenodd" fill="#FF9999" d="M18.097,45.884c-0.208-0.14-1.905,2.507-1.442,2.403
			c0.462-0.105,0.905-0.962,0.988-0.761c0.085,0.202,0.071,0.265,0.262,0.57c0.527,0.852-0.064-1.161,0.618-1.007
			C18.961,47.187,18.353,46.057,18.097,45.884L18.097,45.884z"/>
		<path fill-rule="evenodd" clip-rule="evenodd" fill="#FF3F3F" d="M8.383,30.892c0.609-1.02,2.992,1.18,5.323,4.915
			c2.331,3.736,3.726,7.591,3.117,8.611c-0.608,1.02-2.992-1.181-5.323-4.916C9.169,35.767,7.773,31.912,8.383,30.892z"/>
		<path fill-rule="evenodd" clip-rule="evenodd" fill="#FFB5B5" d="M33.536,20.527c0.301,0.425,0.555,1.742,0.333,2.108
			c-0.348,0.574-1.374,1.02-2.007,0.64c-0.343-0.206-0.329-1.869-0.231-2.078C31.941,20.533,33.308,20.205,33.536,20.527
			L33.536,20.527z"/>
	</g>
	<path fill-rule="evenodd" clip-rule="evenodd" fill="#BF0046" d="M22.197,112.289c-0.871,0.157-2.382,1.562-2.144,2.558
		c0.185,0.77,0.581,1.154,1.335,1.373c0.824,0.24,1.139-0.671,1.5-1.174c0.205-0.286-0.232-0.59-0.469-0.363
		c-0.21,0.182-0.402,0.381-0.576,0.595c-1.113-0.417-1.232-0.957-0.357-1.617c0.644-0.807,1.273-0.641,1.889,0.498
		c0.068,0.551-0.146,1.135-0.357,1.622c-1.476,3.397-4.229-0.367-4.112-2.514c0.117-2.171,0.969-4.049,1.956-5.959
		c0.811-1.567,1.724-3.002,1.872-4.801c0.259-3.163-0.676-5.955-2.754-8.345c-1.03-1.183-2.807-1.854-4.032-2.822
		c-2.356-1.86-2.131-4.173-1.069-6.639c1.599-3.715,5.104-6.227,8.102-8.745c2.521-2.118,3.831-5.762,3.935-8.998
		c0.097-2.988-2.271-6.497-4.034-8.733c-1.225-1.554-2.526-3.346-3.535-5.045c-1.195-2.014-0.969-4.264-1.166-6.498
		c-0.002-0.02-0.01-0.036-0.015-0.053c0.118,0.031,0.221,0.084,0.35,0.107c0.457,0.079,0.66-0.594,0.195-0.705
		c-0.159-0.039-0.309-0.096-0.473-0.106c-0.166-0.011-0.341,0.004-0.514,0.025c-0.073-0.057-0.178-0.083-0.263-0.065
		c-0.02,0.003-0.048,0.012-0.078,0.023c-0.083-0.047-0.209-0.021-0.234,0.088c-0.003,0.021-0.011,0.04-0.024,0.057
		c-0.075,0.104,0,0.271,0.122,0.298c0,0,0.009,0.003,0.017,0.007c0.025,0.096,0.082,0.185,0.193,0.2
		c0.055,0.008,0.11,0.012,0.165,0.019c-0.014,0.031-0.025,0.066-0.029,0.106c-0.176,1.995-0.365,4.079,0.452,5.966
		c0.897,2.071,2.413,4.117,3.786,5.889c1.539,1.989,2.997,4.403,3.732,6.814c0.787,2.577-0.496,5.981-1.842,8.183
		c-1.316,2.155-4.042,3.456-5.788,5.253c-1.59,1.638-3.132,3.38-4.022,5.507c-0.762,1.819-1.303,3.522-0.514,5.415
		c0.705,1.689,2.366,2.872,3.887,3.758c2.174,1.264,3.722,3.12,4.33,5.612c0.829,3.401-0.695,5.989-2.152,8.915
		c-0.874,1.755-1.239,3.351-1.491,5.272c-0.179,1.37,0.637,3.546,1.913,4.248c0.977,0.539,2.129,0.964,2.962,0.002
		c0.827-0.956,1.594-2.501,1.253-3.807C23.851,112.751,23.23,112.102,22.197,112.289z"/>
</g>
<text transform="matrix(1 0 0 1 14.752 26.8325)" fill="#FFFFFF" font-family="'AdobeSongStd-Light-GBpc-EUC-H'" font-size="18">3</text>
</svg>
