<?xml version="1.0" encoding="utf-8"?>
<!-- Generator: Adobe Illustrator 15.0.0, SVG Export Plug-In . SVG Version: 6.00 Build 0)  -->
<!DOCTYPE svg PUBLIC "-//W3C//DTD SVG 1.1//EN" "http://www.w3.org/Graphics/SVG/1.1/DTD/svg11.dtd">
<svg version="1.1" id="图层_1" xmlns="http://www.w3.org/2000/svg" xmlns:xlink="http://www.w3.org/1999/xlink" x="0px" y="0px"
	 width="40px" height="120px" viewBox="0 0 40 120" enable-background="new 0 0 40 120" xml:space="preserve">
<g>
	<g>
		
			<linearGradient id="SVGID_1_" gradientUnits="userSpaceOnUse" x1="5.2163" y1="580.3643" x2="26.084" y2="567.3246" gradientTransform="matrix(1.32 0.0716 -0.0716 1.32 39.5457 -736.7362)">
			<stop  offset="0" style="stop-color:#72D1FA"/>
			<stop  offset="0.1818" style="stop-color:#71D0FA"/>
			<stop  offset="0.2561" style="stop-color:#5ABDED"/>
			<stop  offset="0.419" style="stop-color:#2D98D4"/>
			<stop  offset="0.5449" style="stop-color:#1081C4"/>
			<stop  offset="0.6176" style="stop-color:#0678BE"/>
			<stop  offset="0.92" style="stop-color:#0073BA"/>
		</linearGradient>
		<path fill-rule="evenodd" clip-rule="evenodd" fill="url(#SVGID_1_)" d="M20.751,0.064c8.247,0.447,15.255,6.986,13.92,19.493
			c-1.083,10.143-11.417,22.371-16.003,22.484l1.203,2.826c-0.895-0.513-2.058,0.777-2.69,0.047
			c-0.558-0.645-1.389-0.01-1.151-0.363l1.557-2.709C12.87,40.126,4.658,27.632,4.805,17.938C4.987,5.859,12.505-0.384,20.751,0.064
			L20.751,0.064z"/>
		
			<radialGradient id="SVGID_2_" cx="305.6738" cy="862.6797" r="28.7801" gradientTransform="matrix(0.6136 -0.1331 0.1478 0.5268 -285.3333 -402.8936)" gradientUnits="userSpaceOnUse">
			<stop  offset="0" style="stop-color:#91DEFF"/>
			<stop  offset="0.1815" style="stop-color:#78CDF4"/>
			<stop  offset="0.549" style="stop-color:#4CADE1"/>
			<stop  offset="0.834" style="stop-color:#3099D5"/>
			<stop  offset="1" style="stop-color:#2692D0"/>
		</radialGradient>
		<path fill-rule="evenodd" clip-rule="evenodd" fill="url(#SVGID_2_)" d="M20.968,1.605c4.862-1.053,10.417,3.844,12.406,10.939
			c1.991,7.095-0.335,13.703-5.196,14.758c-4.861,1.054-10.417-3.843-12.408-10.938C13.779,9.268,16.106,2.662,20.968,1.605z"/>
		<path fill-rule="evenodd" clip-rule="evenodd" fill="#8FD4F7" d="M8.802,23.916c0.728-0.984,2.949,1.512,4.963,5.575
			c2.014,4.063,3.056,8.156,2.329,9.141c-0.727,0.984-2.95-1.512-4.962-5.575C9.118,28.993,8.074,24.9,8.802,23.916z"/>
		<path fill-rule="evenodd" clip-rule="evenodd" fill="#54B1E3" d="M10.377,6.953c0.957-0.128,1.594,0.719,1.424,1.894
			c-0.17,1.173-1.083,2.229-2.04,2.357c-0.956,0.129-1.594-0.719-1.424-1.893C8.508,8.137,9.42,7.08,10.377,6.953z"/>
		<path fill-rule="evenodd" clip-rule="evenodd" fill="#8FD4F7" d="M9.45,12.512c0.399-0.054,0.664,0.3,0.594,0.789
			c-0.071,0.49-0.451,0.929-0.851,0.982c-0.398,0.054-0.665-0.3-0.593-0.789C8.672,13.005,9.052,12.565,9.45,12.512z"/>
		
			<linearGradient id="SVGID_3_" gradientUnits="userSpaceOnUse" x1="6.2686" y1="552.0859" x2="9.0425" y2="559.3123" gradientTransform="matrix(1.32 0.0716 -0.0716 1.32 59.1942 -722.8632)">
			<stop  offset="0.01" style="stop-color:#ABE6FF"/>
			<stop  offset="0.99" style="stop-color:#FFFFFF"/>
		</linearGradient>
		<path fill-rule="evenodd" clip-rule="evenodd" fill="url(#SVGID_3_)" d="M27.997,5.18c1.051,0.784,2.301,2.647,3.65,6.878
			c-0.878,0.229-1.883,0.752-2.588,1.297c-0.091-0.84-0.596-4.788-2.251-7.502C27.055,5.489,27.658,5.213,27.997,5.18L27.997,5.18z
			 M31.877,13.081c0.338,0.762,0.495,2.186,0.539,3.023c-0.714,0.32-2.033,0.691-2.868,0.98c-0.089-0.82-0.297-2.556-0.394-2.984
			C29.747,13.404,31.484,12.857,31.877,13.081L31.877,13.081z"/>
		<path fill-rule="evenodd" clip-rule="evenodd" fill="#8FD4F7" d="M31.692,18.225c0.207,0.418,0.241,1.619-0.007,1.912
			c-0.389,0.457-1.36,0.705-1.865,0.278c-0.272-0.23-0.022-1.699,0.094-1.869C30.283,18.002,31.536,17.908,31.692,18.225
			L31.692,18.225z"/>
		<path fill-rule="evenodd" clip-rule="evenodd" fill="#0375BC" d="M18.109,41.803c-0.351-0.021-1.663,2.443-1.151,2.547
			c0.511,0.103,0.386-1.216,0.624-1.329c0.238-0.114-0.218,0.872,0.122,0.965c0.339,0.094,0.257-1.114,0.304-1.227
			c0.047-0.114,0.686,2.04,0.904,1.66C19.129,44.042,18.109,41.803,18.109,41.803L18.109,41.803z"/>
	</g>
	<path fill-rule="evenodd" clip-rule="evenodd" fill="#2690CE" d="M26.276,119.706c-1.841-3.493-5.817-5.35-6.894-9.25
		c-1.256-4.554,0.979-8.491,3.404-12.173c1.011-1.533,1.697-3.118,2.125-4.904c0.455-1.906,1.113-3.529,0.908-5.524
		c-0.159-1.56-0.613-3.004-1.299-4.406c-0.848-1.733-1.807-3.628-2.969-5.166c-0.982-1.301-1.708-2.763-2.809-4
		c-1.267-1.428-2.719-2.57-3.631-4.291c-1.936-3.65-0.599-8.53,1.603-11.714c0.99-1.429,2.386-2.604,3.066-4.232
		c0.718-1.714,0.759-3.334,0.731-5.172c-0.023-1.536-0.538-2.989-1.164-4.376c-0.322-0.717-0.807-1.326-1.148-2.036
		c-0.022-0.047-0.058-0.106-0.097-0.167c0.022-0.009,0.044-0.012,0.067-0.022c0.287-0.129,0.623,0.091,0.91,0.147
		c0.5,0.097,0.699-0.679,0.209-0.754c-0.168-0.026-0.307-0.123-0.476-0.147c-0.175-0.028-0.356-0.01-0.532-0.005
		c-0.17,0.006-0.321-0.003-0.456,0.114c-0.039,0.033-0.09,0.056-0.144,0.075c-0.135-0.16-0.421-0.136-0.503,0.076
		c-0.038,0.002-0.078,0.005-0.11,0.01c-0.163,0.025-0.248,0.257-0.157,0.387c0.011,0.008,0.023,0.016,0.035,0.024
		c0.021,0.191,0.221,0.233,0.325,0.129c0.022,0.004,0.042,0.005,0.064,0.009c0.39,0.273,0.337,0.934,0.565,1.32
		c0.474,0.808,0.869,1.667,1.091,2.579c0.482,1.985,0.701,4.182,0.135,6.19c-0.548,1.942-1.985,3.223-3.15,4.788
		c-1.12,1.506-1.918,3.113-2.456,4.908c-0.909,3.035-0.708,6.576,0.984,9.311c0.878,1.418,2.256,2.495,3.405,3.68
		c1.285,1.326,2.221,2.992,3.257,4.507c2.202,3.222,4.414,7.285,3.42,11.275c-0.511,2.052-1.044,4.181-2.086,6.032
		c-0.947,1.687-2.112,3.216-2.964,4.963c-1.502,3.068-1.899,6.717-0.51,9.912c0.647,1.491,1.677,2.582,2.858,3.674
		c1.493,1.382,2.821,2.874,4.091,4.461C26.118,120.111,26.373,119.888,26.276,119.706z"/>
</g>
<text transform="matrix(1 0 0 1 15.0576 23.7017)" fill="#FFFFFF" font-family="'AdobeSongStd-Light-GBpc-EUC-H'" font-size="18">4</text>
</svg>
