<?xml version="1.0" encoding="utf-8"?>
<!-- Generator: Adobe Illustrator 15.0.0, SVG Export Plug-In . SVG Version: 6.00 Build 0)  -->
<!DOCTYPE svg PUBLIC "-//W3C//DTD SVG 1.1//EN" "http://www.w3.org/Graphics/SVG/1.1/DTD/svg11.dtd">
<svg version="1.1" id="图层_1" xmlns="http://www.w3.org/2000/svg" xmlns:xlink="http://www.w3.org/1999/xlink" x="0px" y="0px"
	 width="40px" height="120px" viewBox="0 0 40 120" enable-background="new 0 0 40 120" xml:space="preserve">
<g>
	
		<linearGradient id="SVGID_1_" gradientUnits="userSpaceOnUse" x1="191.6719" y1="647.1211" x2="154.9218" y2="673.8216" gradientTransform="matrix(1.0523 0.026 -0.026 1.0523 -145.9926 -668.8615)">
		<stop  offset="0.06" style="stop-color:#5E0022"/>
		<stop  offset="0.697" style="stop-color:#BF0046"/>
		<stop  offset="0.7317" style="stop-color:#C4084D"/>
		<stop  offset="0.7872" style="stop-color:#D12061"/>
		<stop  offset="0.8559" style="stop-color:#E74580"/>
		<stop  offset="0.8909" style="stop-color:#F45B93"/>
		<stop  offset="0.8915" style="stop-color:#F45B93"/>
		<stop  offset="0.9122" style="stop-color:#F96299"/>
		<stop  offset="0.9697" style="stop-color:#FA649B"/>
	</linearGradient>
	<path fill-rule="evenodd" clip-rule="evenodd" fill="url(#SVGID_1_)" d="M20.589,0.014c11.575,0.287,21.669,9.16,20.315,26.745
		c-1.053,13.672-13.948,30.383-20.667,32.043l1.872,4.065c0.321,0.695-1.729-0.58-2.241-0.252c-1.144,0.729-2.583,0.559-3.156-0.031
		l1.977-3.688C12.226,57.933-0.819,39.889-1.022,25.723C-1.267,8.789,9.014-0.271,20.589,0.014L20.589,0.014z"/>
	
		<radialGradient id="SVGID_2_" cx="546.0752" cy="1169.5244" r="53.0484" gradientTransform="matrix(0.5189 -0.1364 0.1205 0.4219 -384.2071 -403.3909)" gradientUnits="userSpaceOnUse">
		<stop  offset="0.01" style="stop-color:#FFD6DE"/>
		<stop  offset="0.0786" style="stop-color:#FFCDD8"/>
		<stop  offset="0.1925" style="stop-color:#FFB3C9"/>
		<stop  offset="0.3375" style="stop-color:#FF8AB1"/>
		<stop  offset="0.5061" style="stop-color:#FF528F"/>
		<stop  offset="0.6364" style="stop-color:#FF2172"/>
		<stop  offset="0.99" style="stop-color:#AD003F"/>
	</radialGradient>
	<path fill-rule="evenodd" clip-rule="evenodd" fill="url(#SVGID_2_)" d="M20.59,1.58c7.239-1.903,15.425,4.667,18.282,14.673
		s-0.694,19.662-7.935,21.564c-7.239,1.902-15.424-4.669-18.282-14.676C9.799,13.136,13.351,3.482,20.59,1.58z"/>
	<path fill-rule="evenodd" clip-rule="evenodd" fill="#E03976" d="M6.333,10.098c1.336-0.22,2.264,0.942,2.074,2.595
		c-0.188,1.653-1.426,3.17-2.762,3.39c-1.334,0.219-2.264-0.942-2.073-2.596C3.763,11.834,4.998,10.318,6.333,10.098z"/>
	<path fill-rule="evenodd" clip-rule="evenodd" fill="#F774A4" d="M5.265,17.927c0.556-0.091,0.943,0.393,0.864,1.082
		c-0.079,0.688-0.595,1.32-1.15,1.412c-0.557,0.091-0.943-0.393-0.864-1.081S4.709,18.019,5.265,17.927z"/>
	
		<linearGradient id="SVGID_3_" gradientUnits="userSpaceOnUse" x1="170.8008" y1="628.2451" x2="171.0742" y2="643.9095" gradientTransform="matrix(1.0523 0.026 -0.026 1.0523 -129.6117 -659.093)">
		<stop  offset="0" style="stop-color:#FFC9D5"/>
		<stop  offset="1" style="stop-color:#FFFFFF"/>
	</linearGradient>
	<path fill-rule="evenodd" clip-rule="evenodd" fill="url(#SVGID_3_)" d="M31.226,6.357c1.506,1.056,3.334,3.616,5.399,9.49
		c-1.22,0.356-2.606,1.132-3.572,1.923c-0.163-1.172-1.032-6.685-3.465-10.421C29.917,6.829,30.751,6.417,31.226,6.357L31.226,6.357
		z M36.99,17.269c0.505,1.056,0.796,2.547,0.881,4.216c-0.988,0.479-2.821,1.053-3.979,1.49c-0.16-1.144-0.524-3.567-0.675-4.163
		C34.019,17.809,36.432,16.971,36.99,17.269L36.99,17.269z"/>
	<path fill-rule="evenodd" clip-rule="evenodd" fill="#BF0046" d="M19.227,58.95c0,0-1.174,3.367-0.657,3.423
		c0.519,0.059,0.684-1.892,0.907-1.631C19.701,61,19.7,61.09,20.152,61.471c1.25,1.047,0.418-1.073-0.095-2.002
		C19.73,58.875,19.299,58.509,19.227,58.95L19.227,58.95z"/>
	<path fill-rule="evenodd" clip-rule="evenodd" fill="#F774A4" d="M5.741,38.739c0.728-1.437,4.153,1.316,7.651,6.146
		c3.499,4.83,5.745,9.907,5.017,11.344c-0.728,1.436-4.153-1.317-7.651-6.146C7.259,45.251,5.013,40.174,5.741,38.739z"/>
	<path fill-rule="evenodd" clip-rule="evenodd" fill="#FFB1C8" d="M37.734,24.789c0.362,0.738,0.425,2.852-0.013,3.365
		c-0.686,0.806-2.396,1.242-3.283,0.492c-0.481-0.407-0.042-2.992,0.162-3.292C35.253,24.395,37.46,24.23,37.734,24.789
		L37.734,24.789z"/>
</g>
<path fill-rule="evenodd" clip-rule="evenodd" fill="#BF0046" d="M29.367,110.916c-0.884-0.832-1.602-1.756-2.413-2.639
	c-1.868-2.033-1.199-4.471-0.32-6.75c0.945-2.447,1.01-4.791-1.252-6.434c-2.966-2.154-8.746-1.279-9.099-6.131
	c-0.178-2.451,0.139-4.531,1.749-6.459c0.876-1.045,1.957-1.877,2.705-3.031c1.413-2.182-0.84-5.828-1.611-7.793
	c-0.811-2.064-1.447-4.201-1.383-6.439c0.04-1.42,0.299-2.516,1.229-3.682c0.312-0.387,0.974-1.257,1.617-1.775
	c0.193,0.034,0.388,0.059,0.582,0.07c0.397,0.024,0.57-0.34,0.515-0.654c0.084-0.18-0.003-0.436-0.269-0.449
	c-0.084-0.005-0.172,0.002-0.26,0.015c-0.548-0.009-1.033-0.242-1.58-0.186c-0.223,0.022-0.421,0.086-0.629,0.164
	c-0.21,0.079-0.518-0.072-0.743-0.065l0.002,0.016c-0.404,0.026-0.554,0.606-0.104,0.741c0.49,0.148,0.777,0.271,1.29,0.146
	c0.085-0.02,0.169-0.024,0.252-0.019c-0.967,0.812-1.837,2.042-2.121,2.781c-1.245,3.242-0.309,6.424,0.814,9.555
	c0.748,2.088,1.813,3.918,1.923,6.191c0.084,1.736-2.528,3.193-3.368,4.473c-1.548,2.357-1.877,5.086-1.244,7.842
	c0.643,2.793,4.226,3.4,6.38,4.338c0.735,0.32,1.386,0.727,2.039,1.186c1.813,1.275,1.764,2.545,1.109,4.469
	c-0.525,1.543-1.133,2.869-1.321,4.506c-0.301,2.619,2.088,5.08,3.906,6.629c2.089,1.779,3.297,4.125,0.814,6.367
	c-1.055,0.953-2.149,1.867-3.19,2.832c-0.288,0.27,0.078,0.668,0.398,0.516c2.136-1.016,4.361-2.76,5.429-4.916
	C32.082,114.578,30.598,112.074,29.367,110.916z"/>
<text transform="matrix(1 0 0 1 15.3457 31.5522)" fill="#FFFFFF" font-family="'AdobeSongStd-Light-GBpc-EUC-H'" font-size="18">5</text>
</svg>
