<?xml version="1.0" encoding="utf-8"?>
<!-- Generator: Adobe Illustrator 15.0.0, SVG Export Plug-In . SVG Version: 6.00 Build 0)  -->
<!DOCTYPE svg PUBLIC "-//W3C//DTD SVG 1.1//EN" "http://www.w3.org/Graphics/SVG/1.1/DTD/svg11.dtd">
<svg version="1.1" id="图层_1" xmlns="http://www.w3.org/2000/svg" xmlns:xlink="http://www.w3.org/1999/xlink" x="0px" y="0px"
	 width="110.667px" height="110.5px" viewBox="0 0 110.667 110.5" enable-background="new 0 0 110.667 110.5" xml:space="preserve">
<g>
	<g>
		<linearGradient id="SVGID_1_" gradientUnits="userSpaceOnUse" x1="54.4819" y1="96.5469" x2="54.4819" y2="34.914">
			<stop  offset="0" style="stop-color:#517F00"/>
			<stop  offset="0.6447" style="stop-color:#ABF900"/>
			<stop  offset="1" style="stop-color:#517F00"/>
		</linearGradient>
		<path fill="url(#SVGID_1_)" d="M47.589,46.212c0.092-0.859,0.567-1.341,1.195-1.563c0.001,0.079,0.001,0.159,0.005,0.238
			c0.071,1.596,0.741,3.067,2.138,3.903c0.895,0.537,2.121,0.577,2.676-0.431c0.417-0.761,0.212-1.935-0.197-2.648
			c-0.479-0.834-1.49-1.303-2.38-1.529c-0.517-0.132-1.082-0.171-1.621-0.105c0.012-0.23,0.036-0.456,0.07-0.675
			c0.06-0.381,0.245-0.908,0.523-1.381c0.137,0.242,0.307,0.468,0.521,0.668c0.854,0.795,1.997,0.489,2.276-0.632
			c0.31-1.242-0.771-1.828-1.82-1.41c-0.265,0.105-0.499,0.241-0.711,0.396c-0.083-0.653,0.054-1.375,0.194-2.003
			c0.33-1.485,1.459-2.593,2.759-3.303c2.971-1.623,5.052,0.921,6.255,3.383c2.397,4.907,2.333,10.728,0.888,15.903
			c-0.468,1.682-1.376,3.16-2.251,4.656c-1.024,1.75-2.048,3.504-2.855,5.366c-1.12,2.583-1.845,6.266,0.875,7.963
			c-0.399,0.728-0.627,1.532-0.536,2.321c0.066,0.572,0.422,1.129,0.898,1.563c-0.34,0.506-0.588,1.141-0.745,1.802
			c-0.278,1.175-0.336,2.421-0.263,3.624c0.099,1.582,0.931,2.98,1.755,4.294c1.049,1.674,2.4,3.375,2.682,5.387
			c0.077,0.545,0.042,1.118-0.078,1.683c0.125,0.188,0.243,0.379,0.361,0.572c0.331-1.106,0.398-2.268,0.144-3.2
			c-0.688-2.527-2.679-4.501-3.746-6.857c-0.702-1.551-0.62-3.31-0.36-4.959c0.111-0.707,0.3-1.407,0.628-2.045
			c1.127,0.779,2.614,0.857,2.809-0.861c0.007-0.056-0.021-0.121-0.073-0.15c-1.21-0.668-2.138-0.402-2.799,0.31
			c-0.485-0.559-0.688-1.32-0.61-2.06c0.043-0.407,0.194-0.799,0.401-1.171c0.048,0.023,0.095,0.047,0.145,0.069
			c0.877,0.386,1.843,0.37,2.525-0.366c0.469-0.506,0.657-1.352,0.346-1.977c-0.377-0.756-1.397-0.244-1.85,0.108
			c-0.503,0.394-0.988,0.908-1.374,1.487c-0.939-0.732-1.515-2.035-1.58-3.126c-0.111-1.888,0.727-3.786,1.524-5.447
			c1.61-3.354,3.961-6.286,4.876-9.938c1.274-5.088,1.058-10.623-1.265-15.375c-0.856-1.75-2.143-3.532-4.155-3.949
			c-1.881-0.39-4.056,1.172-5.127,2.551c-0.868,1.119-1.354,2.833-0.897,4.203c-0.63,0.72-0.918,1.7-0.973,2.702
			c-0.936,0.276-1.692,0.93-1.813,2.053C46.947,46.567,47.561,46.482,47.589,46.212z M57.821,76.235
			c0.399-0.137,1.337,0.024,1.168,0.566c-0.274,0.875-1.309,0.405-1.803,0.047c-0.026-0.019-0.048-0.042-0.073-0.063
			C57.294,76.542,57.534,76.333,57.821,76.235z M57.839,71.67c0.263-0.28,0.901-0.94,1.225-0.418
			c0.486,0.786-0.365,1.939-1.192,1.902c-0.372-0.016-0.715-0.121-1.029-0.284C57.144,72.431,57.506,72.026,57.839,71.67z
			 M51.817,40.947c0.724,0.21,0.514,2.154-0.484,1.65c-0.524-0.265-0.817-0.65-0.965-1.093
			C50.757,41.062,51.251,40.784,51.817,40.947z M52.02,45.147c0.845,0.526,1.15,1.331,1.171,2.289c0.027,1.214-0.817,1.53-1.8,1.009
			c-1.428-0.758-1.981-2.376-1.995-3.929C50.289,44.426,51.321,44.711,52.02,45.147z"/>
		<g>
			
				<linearGradient id="SVGID_2_" gradientUnits="userSpaceOnUse" x1="1938.2236" y1="36.9053" x2="1938.2236" y2="36.1444" gradientTransform="matrix(-1 0 0 1 1993.3301 0)">
				<stop  offset="0" style="stop-color:#ABF900"/>
				<stop  offset="1" style="stop-color:#517F00"/>
			</linearGradient>
			<path fill="url(#SVGID_2_)" d="M55.333,35.884c0,0,0.534,0.482,0.534,0.989c0,0-0.709,0.431-1.522-0.178
				C54.345,36.696,54.446,36.138,55.333,35.884z"/>
			<g>
				<linearGradient id="SVGID_3_" gradientUnits="userSpaceOnUse" x1="55.0376" y1="37.5449" x2="55.0376" y2="21.2202">
					<stop  offset="0" style="stop-color:#ABF900"/>
					<stop  offset="1" style="stop-color:#517F00"/>
				</linearGradient>
				<path fill="url(#SVGID_3_)" d="M64.378,14.001c-1.681-3.465-5.232-5.854-9.342-5.854c-4.109,0-7.66,2.39-9.34,5.854l0,0
					c0,0-7.157,12.21,9.34,21.434C71.535,26.211,64.378,14.001,64.378,14.001z"/>
			</g>
			<linearGradient id="SVGID_4_" gradientUnits="userSpaceOnUse" x1="55.0376" y1="36.0234" x2="55.0376" y2="35.418">
				<stop  offset="0" style="stop-color:#ABF900"/>
				<stop  offset="1" style="stop-color:#517F00"/>
			</linearGradient>
			<ellipse fill="url(#SVGID_4_)" cx="55.037" cy="35.574" rx="0.507" ry="0.466"/>
			<linearGradient id="SVGID_5_" gradientUnits="userSpaceOnUse" x1="56.9897" y1="28.9678" x2="56.9897" y2="10.844">
				<stop  offset="0" style="stop-color:#ABF900"/>
				<stop  offset="1" style="stop-color:#517F00"/>
			</linearGradient>
			<path fill="url(#SVGID_5_)" d="M48.159,19.028c0,5.938,4.073,10.753,9.099,10.753c3.496,0,6.53-2.332,8.054-5.75
				c1.586-5.575-1.033-10.046-1.033-10.046c-1.426-2.94-4.199-5.105-7.516-5.695C51.967,8.595,48.159,13.286,48.159,19.028z"/>
			<linearGradient id="SVGID_6_" gradientUnits="userSpaceOnUse" x1="55.1782" y1="10.418" x2="55.1782" y2="24.5801">
				<stop  offset="0" style="stop-color:#FFFFFF"/>
				<stop  offset="0.4308" style="stop-color:#ABF900"/>
				<stop  offset="1" style="stop-color:#79B500"/>
			</linearGradient>
			<ellipse fill="url(#SVGID_6_)" cx="55.178" cy="15.89" rx="6.293" ry="6.501"/>
		</g>
	</g>
	<g>
		<g>
			<linearGradient id="SVGID_7_" gradientUnits="userSpaceOnUse" x1="60.9658" y1="113.0366" x2="60.9658" y2="84.83">
				<stop  offset="0" style="stop-color:#C7FB55"/>
				<stop  offset="0.198" style="stop-color:#ABF900"/>
				<stop  offset="1" style="stop-color:#517F00"/>
			</linearGradient>
			<polygon fill="url(#SVGID_7_)" points="66.525,100.678 54.814,95.605 55.254,80.444 67.118,84.961 			"/>
		</g>
		<g>
			<linearGradient id="SVGID_8_" gradientUnits="userSpaceOnUse" x1="61.9126" y1="81.6069" x2="61.9126" y2="53.6685">
				<stop  offset="0" style="stop-color:#C7FB55"/>
				<stop  offset="0.198" style="stop-color:#ABF900"/>
				<stop  offset="1" style="stop-color:#517F00"/>
			</linearGradient>
			<polygon fill="url(#SVGID_8_)" points="67.604,72.048 55.615,67.996 56.065,52.471 68.21,55.929 			"/>
		</g>
		<g>
			<linearGradient id="SVGID_9_" gradientUnits="userSpaceOnUse" x1="56.0649" y1="53.4971" x2="80.166" y2="53.4971">
				<stop  offset="0" style="stop-color:#ABF900"/>
				<stop  offset="1" style="stop-color:#517F00"/>
			</linearGradient>
			<polygon fill="url(#SVGID_9_)" points="68.21,55.929 56.065,52.471 67.84,51.065 80.166,54.382 			"/>
		</g>
		<g>
			<linearGradient id="SVGID_10_" gradientUnits="userSpaceOnUse" x1="43.5815" y1="90.5698" x2="56.476" y2="70.1537">
				<stop  offset="0" style="stop-color:#C7FB55"/>
				<stop  offset="0.198" style="stop-color:#ABF900"/>
				<stop  offset="1" style="stop-color:#517F00"/>
			</linearGradient>
			<polygon fill="url(#SVGID_10_)" points="56.258,73.883 44.459,69.668 55.615,67.996 67.604,72.048 			"/>
		</g>
		<g>
			<linearGradient id="SVGID_11_" gradientUnits="userSpaceOnUse" x1="31.8774" y1="56.4648" x2="56.7451" y2="56.4648">
				<stop  offset="0.0051" style="stop-color:#ABF900"/>
				<stop  offset="1" style="stop-color:#517F00"/>
			</linearGradient>
			<polygon fill="url(#SVGID_11_)" points="43.582,59.114 31.877,55.359 44.793,53.816 56.745,57.411 			"/>
		</g>
		<g>
			<linearGradient id="SVGID_12_" gradientUnits="userSpaceOnUse" x1="36.7197" y1="128.2891" x2="37.5257" y2="71.6074">
				<stop  offset="0" style="stop-color:#C7FB55"/>
				<stop  offset="0.198" style="stop-color:#ABF900"/>
				<stop  offset="1" style="stop-color:#517F00"/>
			</linearGradient>
			<polygon fill="url(#SVGID_12_)" points="42.632,105.918 31.339,100.399 31.877,55.359 43.582,59.114 			"/>
		</g>
		<g>
			<linearGradient id="SVGID_13_" gradientUnits="userSpaceOnUse" x1="59.3232" y1="50.0508" x2="62.5469" y2="96.7934">
				<stop  offset="0" style="stop-color:#C7FB55"/>
				<stop  offset="0.198" style="stop-color:#ABF900"/>
				<stop  offset="1" style="stop-color:#517F00"/>
			</linearGradient>
			<polygon fill="url(#SVGID_13_)" points="80.166,54.382 78.151,98.128 66.525,100.678 67.118,84.961 55.868,87.074 
				55.393,103.119 42.632,105.918 43.582,59.114 56.745,57.411 56.258,73.883 67.604,72.048 68.21,55.929 			"/>
		</g>
	</g>
</g>
</svg>
