<?xml version="1.0" encoding="utf-8"?>
<!-- Generator: Adobe Illustrator 15.0.0, SVG Export Plug-In . SVG Version: 6.00 Build 0)  -->
<!DOCTYPE svg PUBLIC "-//W3C//DTD SVG 1.1//EN" "http://www.w3.org/Graphics/SVG/1.1/DTD/svg11.dtd">
<svg version="1.1" id="图层_1" xmlns="http://www.w3.org/2000/svg" xmlns:xlink="http://www.w3.org/1999/xlink" x="0px" y="0px"
	 width="110.667px" height="110.5px" viewBox="0 0 110.667 110.5" enable-background="new 0 0 110.667 110.5" xml:space="preserve">
<g>
	<g>
		<linearGradient id="SVGID_1_" gradientUnits="userSpaceOnUse" x1="57.8101" y1="92.0161" x2="57.8101" y2="37.6515">
			<stop  offset="0" style="stop-color:#840033"/>
			<stop  offset="0.7767" style="stop-color:#F92169"/>
			<stop  offset="1" style="stop-color:#840033"/>
		</linearGradient>
		<path fill="url(#SVGID_1_)" d="M65.094,43.929c0.495-3.381-3.678-3.114-5.827-2.455c-1.206,0.37-2.236,0.941-3.021,1.932
			c-1.103,1.393,0.015,3.034,1.654,2.845c1.652-0.19,2.665-2.05,2.907-3.526c0.264-1.613-0.864-3.132-2.371-3.614
			c-3.833-1.228-6.675,2.243-7.496,5.593c-0.968,3.963-0.401,8.756,1.769,12.229c1.145,1.833,2.502,3.537,3.363,5.534
			c0.793,1.84,0.848,4.333-0.986,5.594c-1.032,0.71-2.606,0.828-3.395-0.268c-0.202-0.281-0.344-0.708-0.251-1.049
			c0.105-0.391,0.941,0.085,1.134,0.197c0.673,0.388,1.139,1.053,1.223,1.824c0.092,0.84-0.525,2.328-1.472,1.537
			c-0.17-0.142-0.29-0.342-0.31-0.562c-0.03-0.343,1.055,0.174,1.215,0.274c0.896,0.565,1.236,1.793,1.447,2.76
			c0.555,2.551,0.182,5.107-0.567,7.578c-0.688,2.264-1.626,4.44-2.189,6.743c-0.396,1.621-1.01,3.875-0.14,5.417
			c0.572,1.011,2.184,1.307,3.193,0.839c1.84-0.855,0.223-2.497,0.11-3.845c-0.007-0.1-0.607,0.007-0.595,0.158
			c0.09,1.072,1.118,2.01,0.702,3.108c-0.421,1.109-1.979,0.394-2.506-0.045c-0.527-0.441-0.669-1.184-0.72-1.824
			c-0.089-1.162,0.231-2.456,0.465-3.582c0.3-1.439,0.796-2.835,1.286-4.216c0.906-2.556,1.807-5.102,1.838-7.843
			c0.021-1.748-0.239-4.063-1.59-5.313c-0.307-0.284-2.416-1.102-2.533-0.123c-0.111,0.933,1.205,1.104,1.827,0.91
			c1.396-0.438,1.329-2.498,0.565-3.416c-0.586-0.704-1.748-1.261-2.636-0.792c-0.42,0.223-0.413,0.604-0.284,1.021
			c0.244,0.793,0.988,1.183,1.759,1.276c1.147,0.14,2.759-0.373,3.509-1.283c2.896-3.517-0.976-7.803-2.866-10.768
			c-2.293-3.597-2.735-8.625-1.644-12.699c0.636-2.375,2.36-4.986,5.094-4.965c1.962,0.016,3.556,1.601,3.48,3.554
			c-0.033,0.855-0.458,1.652-0.923,2.343c-0.784,1.166-2.28,1.367-2.839,0.002c-0.594-1.448,1.202-2.692,2.296-3.165
			c2.091-0.904,6.213-1.054,5.731,2.245C64.492,44.146,65.068,44.104,65.094,43.929L65.094,43.929z"/>
		<linearGradient id="SVGID_2_" gradientUnits="userSpaceOnUse" x1="56.9136" y1="40.4751" x2="56.9136" y2="39.7231">
			<stop  offset="0" style="stop-color:#F92169"/>
			<stop  offset="1" style="stop-color:#840033"/>
		</linearGradient>
		<path fill="url(#SVGID_2_)" d="M56.687,39.466c0,0-0.526,0.476-0.526,0.978c0,0,0.703,0.426,1.504-0.175
			C57.666,40.268,57.565,39.716,56.687,39.466z"/>
		<linearGradient id="SVGID_3_" gradientUnits="userSpaceOnUse" x1="56.8452" y1="41.1069" x2="56.8452" y2="24.9683">
			<stop  offset="0" style="stop-color:#F92169"/>
			<stop  offset="1" style="stop-color:#840033"/>
		</linearGradient>
		<path fill="url(#SVGID_3_)" d="M66.079,17.833c-1.661-3.425-5.171-5.789-9.234-5.789c-4.062,0-7.573,2.364-9.233,5.789l0,0
			c0,0-7.076,12.07,9.233,21.188C73.154,29.903,66.079,17.833,66.079,17.833z"/>
		<linearGradient id="SVGID_4_" gradientUnits="userSpaceOnUse" x1="56.8452" y1="39.603" x2="56.8452" y2="39.0049">
			<stop  offset="0" style="stop-color:#F92169"/>
			<stop  offset="1" style="stop-color:#840033"/>
		</linearGradient>
		<ellipse fill="url(#SVGID_4_)" cx="56.845" cy="39.158" rx="0.501" ry="0.462"/>
		<linearGradient id="SVGID_5_" gradientUnits="userSpaceOnUse" x1="58.7754" y1="32.6284" x2="58.7754" y2="14.7121">
			<stop  offset="0" style="stop-color:#F92169"/>
			<stop  offset="1" style="stop-color:#840033"/>
		</linearGradient>
		<path fill="url(#SVGID_5_)" d="M50.045,22.802c0,5.871,4.027,10.631,8.995,10.631c3.457,0,6.456-2.305,7.962-5.685
			c1.569-5.511-1.021-9.931-1.021-9.931c-1.409-2.907-4.15-5.048-7.429-5.629C53.81,12.488,50.045,17.125,50.045,22.802z"/>
		<linearGradient id="SVGID_6_" gradientUnits="userSpaceOnUse" x1="56.9839" y1="14.2905" x2="56.9839" y2="28.2905">
			<stop  offset="0" style="stop-color:#FFFFFF"/>
			<stop  offset="0.4718" style="stop-color:#F92169"/>
			<stop  offset="1" style="stop-color:#B30D48"/>
		</linearGradient>
		<ellipse fill="url(#SVGID_6_)" cx="56.984" cy="19.699" rx="6.22" ry="6.428"/>
	</g>
	<g>
		<g>
			<linearGradient id="SVGID_7_" gradientUnits="userSpaceOnUse" x1="57.3862" y1="115.1079" x2="64.3706" y2="51.98">
				<stop  offset="0" style="stop-color:#F92169"/>
				<stop  offset="1" style="stop-color:#840033"/>
			</linearGradient>
			<polygon fill="url(#SVGID_7_)" points="61.287,50.79 67.849,59.344 62.545,101.136 55.414,94.125 			"/>
		</g>
		<g>
			<linearGradient id="SVGID_8_" gradientUnits="userSpaceOnUse" x1="78.9858" y1="122.896" x2="64.2117" y2="109.1963">
				<stop  offset="0" style="stop-color:#FFFFFF"/>
				<stop  offset="0.3655" style="stop-color:#F92169"/>
				<stop  offset="1" style="stop-color:#840033"/>
			</linearGradient>
			<polygon fill="url(#SVGID_8_)" points="55.414,94.125 62.545,101.136 48.334,101.171 40.665,94.275 			"/>
		</g>
		<g>
			<linearGradient id="SVGID_9_" gradientUnits="userSpaceOnUse" x1="52.3306" y1="44.0884" x2="49.6443" y2="100.5011">
				<stop  offset="0.0051" style="stop-color:#FECBDC"/>
				<stop  offset="0.3655" style="stop-color:#F92169"/>
				<stop  offset="1" style="stop-color:#840033"/>
			</linearGradient>
			<polygon fill="url(#SVGID_9_)" points="61.287,50.79 55.414,94.125 40.665,94.275 47.12,51.61 			"/>
		</g>
	</g>
</g>
</svg>
