<?xml version="1.0" encoding="utf-8"?>
<!-- Generator: Adobe Illustrator 15.0.0, SVG Export Plug-In . SVG Version: 6.00 Build 0)  -->
<!DOCTYPE svg PUBLIC "-//W3C//DTD SVG 1.1//EN" "http://www.w3.org/Graphics/SVG/1.1/DTD/svg11.dtd">
<svg version="1.1" id="图层_1" xmlns="http://www.w3.org/2000/svg" xmlns:xlink="http://www.w3.org/1999/xlink" x="0px" y="0px"
	 width="110.667px" height="110.5px" viewBox="0 0 110.667 110.5" enable-background="new 0 0 110.667 110.5" xml:space="preserve">
<g>
	<g>
		<linearGradient id="SVGID_1_" gradientUnits="userSpaceOnUse" x1="55.6875" y1="97.3691" x2="55.6875" y2="34.881">
			<stop  offset="0.0051" style="stop-color:#4C005E"/>
			<stop  offset="0.6802" style="stop-color:#E033AD"/>
			<stop  offset="1" style="stop-color:#4C005E"/>
		</linearGradient>
		<path fill="url(#SVGID_1_)" d="M60.258,58.155c1.214-2.671,1.96-5.591,2.187-8.514c0.231-3.001-0.308-6.003-1.516-8.755
			c-0.516-1.177-1.137-2.375-1.799-3.478c-0.494-0.825-1.215-1.675-2.156-1.987c-1.8-0.599-3.569,0.213-4.869,1.477
			c-0.641,0.623-1.064,1.679-0.968,2.598c-1.166,0.66-2.104,2.011-1.559,2.862c-0.01,0.006-0.02,0.01-0.029,0.016
			c-1.472,0.833-0.115,3.287,0.262,4.346c0.055,0.154,0.66-0.031,0.612-0.164c-0.245-0.688-0.54-1.353-0.748-2.054
			c-0.149-0.501-0.176-0.995-0.073-1.51c0.035-0.176,0.109-0.301,0.201-0.383c0.203,0.169,0.489,0.306,0.88,0.393
			c0.087,0.019,0.606-0.042,0.557-0.204c-0.177-0.571-0.585-0.733-1.031-0.667c-0.418-0.726,0.105-1.831,0.97-2.375
			c0.126,0.568,0.48,1.056,1.138,1.314c0.538,0.211,1.427-0.006,1.772-0.479c0.668-0.918-0.892-1.439-1.55-1.48
			c-0.259-0.017-0.531,0.027-0.804,0.116c-0.041-0.611,0.134-1.261,0.415-1.736c0.891-1.509,2.875-2.449,4.525-1.741
			c1.162,0.498,1.853,1.759,2.396,2.826c1.384,2.715,2.484,5.312,2.752,8.383c0.273,3.132-0.347,6.285-1.362,9.237
			c-0.937,2.727-2.624,5.046-3.691,7.704c-0.843,2.097-0.666,3.999,0.598,5.866c0.255,0.375,0.589,0.745,0.973,1.01
			c-1.285,2.944-1.058,8.894-0.902,10.421c0.306,3,1.328,6.053,2.462,8.834c0.5,1.227,1.138,2.375,1.382,3.692
			c0.25,1.357-0.433,2.436-1.464,3.247c-1.291,1.014-2.88,0.701-3.828-0.557c-0.416-0.551-0.398-1.254-0.151-1.867
			c0.253-0.627,0.831-1.201,1.455-1.456c0.871-0.355,1.043,0.751,1.011,1.328c-0.006,0.1,0.601,0.024,0.612-0.165
			c0.066-1.144-0.542-1.673-1.638-1.382c-1.028,0.275-1.918,1.181-2.185,2.202c-0.353,1.358,1.13,2.746,2.417,2.818
			c1.645,0.092,3.182-0.907,4.046-2.262c1.329-2.085-0.833-5.098-1.527-7.065c-1.088-3.084-2.055-6.206-2.094-9.503
			c-0.031-2.594,0.026-5.349,0.813-7.839c0.02-0.062,0.041-0.125,0.063-0.188c0.451,0.181,0.945,0.191,1.444-0.097
			c0.573-0.332,0.863-0.885,1.106-1.483c0.01-0.022,0.005-0.04-0.015-0.054c-1.289-0.656-2.179-0.163-2.789,0.929
			c-0.451-0.436-0.8-1.04-1.057-1.517c-0.525-0.974-0.785-2.021-0.648-3.121C57.201,62.941,59.137,60.617,60.258,58.155z
			 M53.35,39.804c0.803,0.576-0.169,1.323-0.88,0.834c-0.403-0.277-0.62-0.69-0.701-1.142C52.268,39.363,52.821,39.422,53.35,39.804
			z M59.604,69.644c0.306-0.317,0.671-0.257,1.038-0.098c0.196,0.085-0.193,0.678-0.237,0.757c-0.233,0.407-0.548,0.676-1.032,0.533
			c-0.143-0.042-0.279-0.108-0.408-0.188C59.122,70.28,59.325,69.931,59.604,69.644z"/>
		<g>
			<linearGradient id="SVGID_2_" gradientUnits="userSpaceOnUse" x1="55.939" y1="37.0874" x2="55.939" y2="36.3135">
				<stop  offset="0.0051" style="stop-color:#E033AD"/>
				<stop  offset="1" style="stop-color:#4C005E"/>
			</linearGradient>
			<path fill="url(#SVGID_2_)" d="M55.706,36.049c0,0-0.542,0.49-0.542,1.006c0,0,0.722,0.438,1.548-0.181
				C56.713,36.874,56.61,36.307,55.706,36.049z"/>
			<g>
				<linearGradient id="SVGID_3_" gradientUnits="userSpaceOnUse" x1="55.8687" y1="35.5923" x2="55.8687" y2="12.37">
					<stop  offset="0.0051" style="stop-color:#E033AD"/>
					<stop  offset="1" style="stop-color:#4C005E"/>
				</linearGradient>
				<path fill="url(#SVGID_3_)" d="M65.371,13.788c-1.709-3.525-5.322-5.957-9.502-5.957c-4.181,0-7.793,2.431-9.502,5.957l0,0
					c0,0-7.281,12.421,9.502,21.805C72.651,26.208,65.371,13.788,65.371,13.788z"/>
			</g>
			<linearGradient id="SVGID_4_" gradientUnits="userSpaceOnUse" x1="55.8687" y1="36.1904" x2="55.8687" y2="35.5742">
				<stop  offset="0.0051" style="stop-color:#E033AD"/>
				<stop  offset="1" style="stop-color:#4C005E"/>
			</linearGradient>
			<ellipse fill="url(#SVGID_4_)" cx="55.868" cy="35.732" rx="0.516" ry="0.476"/>
			<linearGradient id="SVGID_5_" gradientUnits="userSpaceOnUse" x1="57.855" y1="27.3364" x2="57.855" y2="6.0145">
				<stop  offset="0.0051" style="stop-color:#E033AD"/>
				<stop  offset="1" style="stop-color:#4C005E"/>
			</linearGradient>
			<path fill="url(#SVGID_5_)" d="M48.871,18.901c0,6.042,4.145,10.939,9.257,10.939c3.556,0,6.642-2.373,8.192-5.85
				c1.615-5.671-1.05-10.22-1.05-10.22c-1.451-2.991-4.271-5.194-7.646-5.792C52.746,8.287,48.871,13.059,48.871,18.901z"/>
			<linearGradient id="SVGID_6_" gradientUnits="userSpaceOnUse" x1="56.0112" y1="10.0254" x2="56.0112" y2="29.8696">
				<stop  offset="0" style="stop-color:#FFFFFF"/>
				<stop  offset="0.5076" style="stop-color:#E033AD"/>
				<stop  offset="1" style="stop-color:#4C005E"/>
			</linearGradient>
			<ellipse fill="url(#SVGID_6_)" cx="56.011" cy="15.708" rx="6.401" ry="6.614"/>
		</g>
	</g>
	<g>
		<g>
			<linearGradient id="SVGID_7_" gradientUnits="userSpaceOnUse" x1="48.4751" y1="103.1104" x2="51.5644" y2="58.3831">
				<stop  offset="0" style="stop-color:#E033AD"/>
				<stop  offset="1" style="stop-color:#4C005E"/>
			</linearGradient>
			<path fill="url(#SVGID_7_)" d="M47.085,55.07l-0.726,27.307c-0.01,0.38-0.039,0.743-0.087,1.091
				c-0.047,0.348-0.114,0.679-0.199,0.995c-0.085,0.315-0.188,0.615-0.311,0.899c-0.123,0.284-0.263,0.552-0.423,0.805
				c-0.161,0.252-0.332,0.479-0.514,0.68c-0.183,0.201-0.376,0.375-0.581,0.525c-0.205,0.149-0.421,0.271-0.648,0.369
				c-0.228,0.097-0.467,0.168-0.716,0.214c-0.18,0.033-0.356,0.054-0.527,0.064c-0.171,0.01-0.337,0.009-0.499-0.004
				c-0.162-0.013-0.319-0.037-0.472-0.072c-0.152-0.036-0.301-0.083-0.444-0.142c3.896,1.594,7.791,3.187,11.687,4.781
				c0.145,0.059,0.294,0.106,0.449,0.142c0.155,0.035,0.314,0.059,0.478,0.07c0.165,0.012,0.333,0.011,0.507-0.001
				c0.173-0.012,0.352-0.036,0.535-0.072c0.255-0.05,0.498-0.126,0.729-0.229c0.231-0.104,0.452-0.233,0.662-0.39
				c0.209-0.157,0.407-0.34,0.594-0.55c0.187-0.209,0.363-0.446,0.528-0.71c0.164-0.263,0.31-0.543,0.437-0.839
				c0.127-0.295,0.235-0.607,0.325-0.935c0.089-0.329,0.16-0.673,0.211-1.034c0.052-0.361,0.084-0.738,0.099-1.132l0.998-28.35
				L47.085,55.07z"/>
		</g>
		<g>
			<linearGradient id="SVGID_8_" gradientUnits="userSpaceOnUse" x1="59.0425" y1="48.6611" x2="59.0425" y2="60.8397">
				<stop  offset="0" style="stop-color:#E033AD"/>
				<stop  offset="1" style="stop-color:#4C005E"/>
			</linearGradient>
			<polygon fill="url(#SVGID_8_)" points="59.178,58.552 47.085,55.07 58.723,53.69 71,57.033 			"/>
		</g>
		<g>
			<linearGradient id="SVGID_9_" gradientUnits="userSpaceOnUse" x1="57.5757" y1="85.2456" x2="32.5028" y2="95.2749">
				<stop  offset="0" style="stop-color:#E033AD"/>
				<stop  offset="1" style="stop-color:#4C005E"/>
			</linearGradient>
			<polygon fill="url(#SVGID_9_)" points="41.295,99.73 29.854,94.577 38.2,85.024 49.869,89.729 			"/>
		</g>
		<g>
			<linearGradient id="SVGID_10_" gradientUnits="userSpaceOnUse" x1="29.8545" y1="99.5498" x2="46.4365" y2="99.5498">
				<stop  offset="0" style="stop-color:#EF96D5"/>
				<stop  offset="0.4416" style="stop-color:#E033AD"/>
				<stop  offset="1" style="stop-color:#4C005E"/>
			</linearGradient>
			<path fill="url(#SVGID_10_)" d="M46.437,104.522c-3.828-1.758-7.656-3.514-11.484-5.271c-0.262-0.121-0.517-0.249-0.765-0.386
				c-0.248-0.138-0.488-0.284-0.722-0.438c-0.234-0.155-0.46-0.318-0.679-0.49c-0.219-0.173-0.43-0.354-0.634-0.543
				c-0.215-0.2-0.425-0.408-0.628-0.625c-0.204-0.218-0.401-0.444-0.592-0.678c-0.191-0.235-0.377-0.478-0.557-0.731
				c-0.18-0.252-0.353-0.514-0.521-0.783l11.441,5.154c0.168,0.278,0.342,0.546,0.522,0.807c0.181,0.26,0.367,0.51,0.56,0.752
				c0.192,0.241,0.391,0.474,0.596,0.697c0.206,0.223,0.417,0.437,0.634,0.641c0.206,0.194,0.419,0.38,0.64,0.556
				c0.221,0.176,0.449,0.343,0.686,0.501c0.236,0.157,0.479,0.307,0.73,0.446C45.914,104.27,46.171,104.4,46.437,104.522z"/>
		</g>
		<g>
			<linearGradient id="SVGID_11_" gradientUnits="userSpaceOnUse" x1="59.8076" y1="42.3623" x2="54.7036" y2="102.2682">
				<stop  offset="0.0051" style="stop-color:#FADBF1"/>
				<stop  offset="0.4416" style="stop-color:#E033AD"/>
				<stop  offset="1" style="stop-color:#4C005E"/>
			</linearGradient>
			<path fill="url(#SVGID_11_)" d="M71,57.033l-1.195,27.47c-0.031,0.718-0.079,1.414-0.143,2.086
				c-0.064,0.673-0.145,1.322-0.242,1.95c-0.097,0.627-0.21,1.232-0.34,1.815c-0.129,0.583-0.276,1.145-0.439,1.684
				c-0.162,0.539-0.347,1.069-0.554,1.59s-0.437,1.033-0.688,1.537c-0.251,0.504-0.525,0.999-0.822,1.485
				c-0.296,0.486-0.616,0.965-0.958,1.435c-0.316,0.435-0.648,0.852-0.995,1.251c-0.348,0.401-0.711,0.785-1.09,1.153
				c-0.379,0.368-0.775,0.719-1.187,1.053c-0.412,0.335-0.84,0.653-1.284,0.955c-0.446,0.302-0.903,0.581-1.372,0.837
				c-0.47,0.257-0.952,0.491-1.445,0.702c-0.495,0.211-1.002,0.4-1.521,0.565c-0.521,0.166-1.054,0.31-1.6,0.43
				c-0.435,0.095-0.858,0.176-1.272,0.243c-0.415,0.066-0.818,0.118-1.21,0.155c-0.393,0.038-0.775,0.06-1.147,0.067
				c-0.373,0.008-0.734,0-1.083-0.021c-0.352-0.023-0.694-0.058-1.028-0.106c-0.335-0.048-0.66-0.108-0.977-0.181
				c-0.317-0.073-0.625-0.159-0.925-0.257c-0.3-0.098-0.592-0.209-0.874-0.333c-0.283-0.125-0.558-0.258-0.824-0.402
				c-0.268-0.144-0.525-0.299-0.776-0.463s-0.492-0.338-0.726-0.523s-0.459-0.379-0.676-0.584c-0.217-0.204-0.428-0.418-0.634-0.641
				c-0.205-0.223-0.404-0.456-0.596-0.697c-0.193-0.242-0.379-0.492-0.56-0.752c-0.18-0.26-0.354-0.529-0.522-0.807l8.574-10.001
				c0.17,0.279,0.342,0.541,0.515,0.784c0.173,0.243,0.348,0.467,0.523,0.675c0.175,0.206,0.353,0.395,0.531,0.566
				c0.178,0.17,0.358,0.323,0.539,0.458c0.182,0.135,0.372,0.247,0.572,0.335s0.409,0.154,0.627,0.196
				c0.218,0.042,0.445,0.062,0.682,0.057c0.236-0.004,0.482-0.031,0.737-0.081s0.498-0.126,0.729-0.229
				c0.231-0.104,0.452-0.233,0.662-0.39c0.209-0.157,0.407-0.34,0.594-0.55c0.187-0.209,0.363-0.446,0.528-0.71
				c0.164-0.263,0.31-0.543,0.437-0.839c0.127-0.295,0.235-0.607,0.325-0.935c0.089-0.329,0.16-0.673,0.211-1.034
				c0.052-0.361,0.084-0.738,0.099-1.132l0.998-28.35L71,57.033z"/>
		</g>
	</g>
</g>
</svg>
