<?xml version="1.0" encoding="utf-8"?>
<!-- Generator: Adobe Illustrator 15.0.0, SVG Export Plug-In . SVG Version: 6.00 Build 0)  -->
<!DOCTYPE svg PUBLIC "-//W3C//DTD SVG 1.1//EN" "http://www.w3.org/Graphics/SVG/1.1/DTD/svg11.dtd">
<svg version="1.1" id="图层_1" xmlns="http://www.w3.org/2000/svg" xmlns:xlink="http://www.w3.org/1999/xlink" x="0px" y="0px"
	 width="110.667px" height="110.5px" viewBox="0 0 110.667 110.5" enable-background="new 0 0 110.667 110.5" xml:space="preserve">
<g>
	<g>
		<linearGradient id="SVGID_1_" gradientUnits="userSpaceOnUse" x1="50.0112" y1="90.7065" x2="50.0112" y2="30.984">
			<stop  offset="0" style="stop-color:#1A87A0"/>
			<stop  offset="0.6091" style="stop-color:#69C8E2"/>
			<stop  offset="0.7767" style="stop-color:#D1EEF6"/>
			<stop  offset="0.8782" style="stop-color:#69C8E2"/>
			<stop  offset="1" style="stop-color:#1A87A0"/>
		</linearGradient>
		<path fill="url(#SVGID_1_)" d="M42.935,40.679c-0.391-2.653,1.876-3.109,4.111-2.687c-0.413,1.278,0.001,2.671,0.809,3.861
			c0.953,1.406,3.023,1.876,4.083,0.294c1.156-1.727-1.365-3.388-2.666-3.907c-0.445-0.177-0.995-0.332-1.589-0.439
			c0.251-0.709,0.738-1.34,1.48-1.793c2.321-1.417,5.041,0.431,6.303,2.367c1.224,1.881,1.584,4.26,1.661,6.458
			c0.08,2.304-0.247,4.651-0.927,6.852c-0.597,1.929-1.903,3.578-3.007,5.237c-1.817,2.729-4.435,7.846-0.124,9.792
			c0.198,0.09,0.407,0.163,0.619,0.222c-0.05,0.516,0.075,1.115,0.354,1.569c-0.063,0.057-0.12,0.111-0.164,0.162
			c-1.523,1.795-1.561,4.886-1.32,7.087c0.332,3.034,1.631,5.863,2.567,8.754c0.24,0.092,0.479,0.187,0.714,0.289
			c-0.462-1.548-1.021-3.067-1.546-4.607c-0.868-2.542-1.434-5.125-1.139-7.819c0.108-0.992,0.303-1.974,0.71-2.889
			c0.108-0.243,0.246-0.469,0.405-0.677c0.274,0.291,0.637,0.458,1.078,0.394c0.379-0.055,1.949-0.737,1.385-1.347
			c-0.463-0.501-1.471-0.153-2.182,0.282c-0.17-0.355-0.255-0.72-0.255-1.08c0.858,0.102,1.743-0.066,2.444-0.586
			c0.875-0.648,1.043-2.093-0.292-1.991c-1.138,0.086-2.264,0.943-2.659,1.996c-0.011,0.031-0.021,0.061-0.031,0.092
			c-1.85-0.683-2.644-2.672-2.423-4.534c0.256-2.161,1.713-4.135,2.893-5.886c1.13-1.68,2.214-3.292,2.762-5.259
			c0.586-2.102,0.799-4.32,0.723-6.497c-0.132-3.822-1.804-8.92-6.367-9.069c-1.289-0.042-2.783,0.484-3.629,1.483
			c-0.248,0.293-0.435,0.6-0.569,0.915c-2.415-0.306-5.235,0.23-4.81,3.12C42.354,40.947,42.956,40.822,42.935,40.679z
			 M54.754,68.294c0.14-0.121,1.699-0.789,1.418,0.091c-0.289,0.902-1.096,0.538-1.489-0.022
			C54.707,68.34,54.729,68.316,54.754,68.294z M54.906,65.486c0.38-0.433,1.721-1.332,1.94-0.346c0.084,0.38-0.19,0.831-0.392,1.125
			c-0.478,0.69-1.38,0.66-2.136,0.475C54.382,66.29,54.579,65.859,54.906,65.486z M47.588,38.114
			c1.145,0.29,2.224,0.784,2.862,1.305c0.723,0.59,1.27,1.532,1.055,2.478c-0.19,0.835-1.115,1.172-1.888,0.873
			c-0.685-0.266-1.123-0.981-1.49-1.577C47.527,40.218,47.34,39.108,47.588,38.114z"/>
		<g>
			<linearGradient id="SVGID_2_" gradientUnits="userSpaceOnUse" x1="51.5024" y1="37.2246" x2="51.5024" y2="36.4697">
				<stop  offset="0" style="stop-color:#69C8E2"/>
				<stop  offset="1" style="stop-color:#1A87A0"/>
			</linearGradient>
			<path fill="url(#SVGID_2_)" d="M51.275,36.211c0,0-0.528,0.479-0.528,0.981c0,0,0.705,0.428,1.511-0.176
				C52.258,37.017,52.157,36.463,51.275,36.211z"/>
			<g>
				<linearGradient id="SVGID_3_" gradientUnits="userSpaceOnUse" x1="51.4341" y1="37.8589" x2="51.4341" y2="21.6584">
					<stop  offset="0" style="stop-color:#69C8E2"/>
					<stop  offset="0.2132" style="stop-color:#58BAD4"/>
					<stop  offset="1" style="stop-color:#1A87A0"/>
				</linearGradient>
				<path fill="url(#SVGID_3_)" d="M60.704,14.496c-1.668-3.439-5.192-5.811-9.27-5.811c-4.079,0-7.603,2.372-9.27,5.811l0,0
					c0,0-7.102,12.117,9.27,21.27C67.806,26.612,60.704,14.496,60.704,14.496z"/>
			</g>
			<linearGradient id="SVGID_4_" gradientUnits="userSpaceOnUse" x1="51.4341" y1="36.3496" x2="51.4341" y2="35.7486">
				<stop  offset="0" style="stop-color:#69C8E2"/>
				<stop  offset="1" style="stop-color:#1A87A0"/>
			</linearGradient>
			<ellipse fill="url(#SVGID_4_)" cx="51.434" cy="35.903" rx="0.504" ry="0.463"/>
			<linearGradient id="SVGID_5_" gradientUnits="userSpaceOnUse" x1="53.3716" y1="29.3467" x2="53.3716" y2="11.3616">
				<stop  offset="0" style="stop-color:#69C8E2"/>
				<stop  offset="1" style="stop-color:#1A87A0"/>
			</linearGradient>
			<path fill="url(#SVGID_5_)" d="M44.608,19.483c0,5.894,4.042,10.671,9.029,10.671c3.47,0,6.48-2.313,7.992-5.705
				c1.574-5.533-1.025-9.97-1.025-9.97c-1.414-2.918-4.166-5.066-7.458-5.651C48.387,9.13,44.608,13.784,44.608,19.483z"/>
			<linearGradient id="SVGID_6_" gradientUnits="userSpaceOnUse" x1="51.5737" y1="10.9395" x2="51.5737" y2="24.9932">
				<stop  offset="0" style="stop-color:#EDF8FC"/>
				<stop  offset="0.4564" style="stop-color:#69C8E2"/>
				<stop  offset="1" style="stop-color:#47ACC6"/>
			</linearGradient>
			<ellipse fill="url(#SVGID_6_)" cx="51.574" cy="16.369" rx="6.245" ry="6.452"/>
		</g>
	</g>
	<g>
		<linearGradient id="SVGID_7_" gradientUnits="userSpaceOnUse" x1="57.0659" y1="82.1577" x2="48.2013" y2="55.5636">
			<stop  offset="0" style="stop-color:#69C8E2"/>
			<stop  offset="0.4564" style="stop-color:#69C8E2"/>
			<stop  offset="1" style="stop-color:#1A87A0"/>
		</linearGradient>
		<polygon fill="url(#SVGID_7_)" points="48.941,52.918 56.011,61.307 53.88,76.283 46.592,68.419 		"/>
		<linearGradient id="SVGID_8_" gradientUnits="userSpaceOnUse" x1="53.0708" y1="86.9272" x2="83.6931" y2="51.8731">
			<stop  offset="0" style="stop-color:#FFFFFF"/>
			<stop  offset="0.4564" style="stop-color:#69C8E2"/>
			<stop  offset="1" style="stop-color:#1A87A0"/>
		</linearGradient>
		<polygon fill="url(#SVGID_8_)" points="77.906,51.24 83.938,59.962 67.002,78.34 60.176,70.424 		"/>
		<linearGradient id="SVGID_9_" gradientUnits="userSpaceOnUse" x1="39.854" y1="75.2944" x2="55.1666" y2="94.2333">
			<stop  offset="0" style="stop-color:#69C8E2"/>
			<stop  offset="1" style="stop-color:#1A87A0"/>
		</linearGradient>
		<polygon fill="url(#SVGID_9_)" points="48.28,81.514 55.625,88.948 51.445,93.393 43.903,86.155 		"/>
		<linearGradient id="SVGID_10_" gradientUnits="userSpaceOnUse" x1="43.5571" y1="49.2612" x2="46.3775" y2="86.733">
			<stop  offset="0" style="stop-color:#FFFFFF"/>
			<stop  offset="0.4564" style="stop-color:#69C8E2"/>
			<stop  offset="1" style="stop-color:#1A87A0"/>
		</linearGradient>
		<polygon fill="url(#SVGID_10_)" points="43.903,86.155 51.445,93.393 50.154,102.465 42.476,95.572 		"/>
		<linearGradient id="SVGID_11_" gradientUnits="userSpaceOnUse" x1="21.9072" y1="90.0654" x2="55.7527" y2="107.3912">
			<stop  offset="0" style="stop-color:#FFFFFF"/>
			<stop  offset="0.4564" style="stop-color:#69C8E2"/>
			<stop  offset="1" style="stop-color:#1A87A0"/>
		</linearGradient>
		<polygon fill="url(#SVGID_11_)" points="42.476,95.572 50.154,102.465 36.388,102.5 28.209,95.719 		"/>
		<linearGradient id="SVGID_12_" gradientUnits="userSpaceOnUse" x1="42.4033" y1="85.8999" x2="82.2938" y2="106.4494">
			<stop  offset="0" style="stop-color:#FFFFFF"/>
			<stop  offset="0.4564" style="stop-color:#69C8E2"/>
			<stop  offset="1" style="stop-color:#1A87A0"/>
		</linearGradient>
		<polygon fill="url(#SVGID_12_)" points="72.989,95.259 79.531,102.394 62.084,102.436 54.856,95.446 		"/>
		<linearGradient id="SVGID_13_" gradientUnits="userSpaceOnUse" x1="56.1494" y1="53.8623" x2="72.2669" y2="92.1413">
			<stop  offset="0" style="stop-color:#FFFFFF"/>
			<stop  offset="0.4564" style="stop-color:#69C8E2"/>
			<stop  offset="1" style="stop-color:#1A87A0"/>
		</linearGradient>
		<polygon fill="url(#SVGID_13_)" points="60.176,70.424 67.002,78.34 79.531,102.394 72.989,95.259 		"/>
		<linearGradient id="SVGID_14_" gradientUnits="userSpaceOnUse" x1="51.1914" y1="48.6846" x2="54.0118" y2="86.1574">
			<stop  offset="0" style="stop-color:#FFFFFF"/>
			<stop  offset="0.4564" style="stop-color:#69C8E2"/>
			<stop  offset="1" style="stop-color:#1A87A0"/>
		</linearGradient>
		<polygon fill="url(#SVGID_14_)" points="60.176,70.424 72.989,95.259 54.856,95.446 48.28,81.514 43.903,86.155 42.476,95.572 
			28.209,95.719 35.217,53.713 48.941,52.918 46.592,68.419 60.954,52.222 77.906,51.24 		"/>
	</g>
</g>
</svg>
