<?xml version="1.0" encoding="utf-8"?>
<!-- Generator: Adobe Illustrator 15.0.0, SVG Export Plug-In . SVG Version: 6.00 Build 0)  -->
<!DOCTYPE svg PUBLIC "-//W3C//DTD SVG 1.1//EN" "http://www.w3.org/Graphics/SVG/1.1/DTD/svg11.dtd">
<svg version="1.1" id="图层_1" xmlns="http://www.w3.org/2000/svg" xmlns:xlink="http://www.w3.org/1999/xlink" x="0px" y="0px"
	 width="110.667px" height="110.5px" viewBox="0 0 110.667 110.5" enable-background="new 0 0 110.667 110.5" xml:space="preserve">
<g>
	<g>
		
			<linearGradient id="SVGID_1_" gradientUnits="userSpaceOnUse" x1="1680.2383" y1="93.1763" x2="1680.2383" y2="32.6137" gradientTransform="matrix(-1 0 0 1 1731.9883 0)">
			<stop  offset="0.0051" style="stop-color:#E28100"/>
			<stop  offset="0.335" style="stop-color:#E28100"/>
			<stop  offset="0.7005" style="stop-color:#FFE66D"/>
			<stop  offset="0.7767" style="stop-color:#FFD400"/>
			<stop  offset="1" style="stop-color:#E28100"/>
		</linearGradient>
		<path fill="url(#SVGID_1_)" d="M50.662,61.956c0.127,1.024-0.114,2-0.604,2.907c-0.239,0.444-0.564,1.007-0.983,1.412
			c-0.567-1.016-1.397-1.475-2.599-0.864c-0.018,0.013-0.022,0.03-0.014,0.051c0.227,0.557,0.497,1.072,1.03,1.381
			c0.466,0.269,0.926,0.259,1.347,0.091c0.02,0.057,0.039,0.116,0.059,0.174c0.731,2.32,0.785,4.886,0.756,7.302
			c-0.035,3.072-0.936,5.979-1.949,8.851c-0.647,1.833-2.66,4.64-1.423,6.581c0.806,1.262,2.236,2.193,3.769,2.107
			c1.198-0.068,2.58-1.359,2.251-2.625c-0.248-0.952-1.077-1.795-2.034-2.05c-1.021-0.272-1.588,0.221-1.526,1.286
			c0.011,0.176,0.576,0.248,0.57,0.153c-0.03-0.536,0.13-1.566,0.941-1.236c0.582,0.237,1.119,0.771,1.354,1.356
			c0.231,0.57,0.246,1.226-0.14,1.74c-0.883,1.17-2.364,1.462-3.566,0.518c-0.961-0.754-1.596-1.759-1.362-3.025
			c0.228-1.227,0.821-2.296,1.287-3.439c1.056-2.59,2.008-5.434,2.292-8.228c0.146-1.424,0.358-6.964-0.839-9.707
			c0.356-0.247,0.669-0.591,0.905-0.94c1.177-1.739,1.342-3.51,0.558-5.463c-0.993-2.475-2.564-4.635-3.438-7.175
			c-0.946-2.75-1.523-5.686-1.269-8.604c0.25-2.86,1.274-5.28,2.563-7.808c0.507-0.994,1.151-2.167,2.232-2.632
			c1.538-0.66,3.385,0.216,4.215,1.622c0.261,0.442,0.424,1.047,0.386,1.617c-0.254-0.083-0.508-0.124-0.749-0.109
			c-0.612,0.039-2.066,0.524-1.443,1.379c0.321,0.441,1.15,0.644,1.65,0.447c0.613-0.241,0.942-0.696,1.061-1.226
			c0.805,0.507,1.293,1.537,0.902,2.214c-0.416-0.062-0.796,0.088-0.959,0.619c-0.048,0.152,0.437,0.208,0.518,0.19
			c0.364-0.081,0.632-0.208,0.819-0.366c0.086,0.075,0.155,0.192,0.188,0.356c0.096,0.479,0.071,0.939-0.067,1.407
			c-0.193,0.652-0.469,1.272-0.696,1.912c-0.045,0.123,0.518,0.296,0.569,0.152c0.353-0.986,1.616-3.272,0.244-4.048
			c-0.008-0.005-0.018-0.01-0.026-0.015c0.508-0.793-0.368-2.05-1.452-2.666c0.089-0.855-0.305-1.839-0.901-2.419
			c-1.211-1.177-2.858-1.934-4.534-1.376c-0.877,0.292-1.549,1.083-2.009,1.851c-0.616,1.028-1.195,2.143-1.676,3.24
			c-1.125,2.563-1.628,5.358-1.411,8.155c0.209,2.721,0.904,5.441,2.035,7.928C48.538,57.227,50.341,59.392,50.662,61.956z
			 M55.4,37.555c-0.076,0.421-0.277,0.805-0.652,1.063c-0.662,0.455-1.567-0.24-0.82-0.777C54.422,37.486,54.937,37.431,55.4,37.555
			z M48.699,66.57c-0.12,0.075-0.246,0.136-0.38,0.175c-0.451,0.134-0.745-0.118-0.961-0.496c-0.042-0.073-0.404-0.625-0.222-0.706
			c0.342-0.147,0.682-0.204,0.967,0.092C48.362,65.902,48.552,66.227,48.699,66.57z"/>
		<linearGradient id="SVGID_2_" gradientUnits="userSpaceOnUse" x1="51.9688" y1="35.2588" x2="51.9688" y2="34.5375">
			<stop  offset="0" style="stop-color:#FFE66D"/>
			<stop  offset="0.302" style="stop-color:#FFD400"/>
			<stop  offset="1" style="stop-color:#E28100"/>
		</linearGradient>
		<path fill="url(#SVGID_2_)" d="M51.752,34.291c0,0-0.505,0.457-0.505,0.938c0,0,0.675,0.409,1.443-0.168
			C52.69,35.06,52.595,34.532,51.752,34.291z"/>
		<g>
			<linearGradient id="SVGID_3_" gradientUnits="userSpaceOnUse" x1="51.9028" y1="35.8647" x2="51.9028" y2="20.3965">
				<stop  offset="0" style="stop-color:#FFE66D"/>
				<stop  offset="0.302" style="stop-color:#FFD400"/>
				<stop  offset="1" style="stop-color:#E28100"/>
			</linearGradient>
			<path fill="url(#SVGID_3_)" d="M60.754,13.557c-1.593-3.284-4.956-5.548-8.851-5.548c-3.894,0-7.259,2.265-8.851,5.548l0,0
				c0,0-6.782,11.568,8.851,20.309C67.535,25.125,60.754,13.557,60.754,13.557z"/>
		</g>
		<linearGradient id="SVGID_4_" gradientUnits="userSpaceOnUse" x1="51.9038" y1="34.4229" x2="51.9038" y2="33.8494">
			<stop  offset="0" style="stop-color:#FFE66D"/>
			<stop  offset="0.302" style="stop-color:#FFD400"/>
			<stop  offset="1" style="stop-color:#E28100"/>
		</linearGradient>
		<ellipse fill="url(#SVGID_4_)" cx="51.904" cy="33.997" rx="0.481" ry="0.443"/>
		<linearGradient id="SVGID_5_" gradientUnits="userSpaceOnUse" x1="53.7534" y1="27.7368" x2="53.7534" y2="10.5646">
			<stop  offset="0" style="stop-color:#FFE66D"/>
			<stop  offset="0.302" style="stop-color:#FFD400"/>
			<stop  offset="1" style="stop-color:#E28100"/>
		</linearGradient>
		<path fill="url(#SVGID_5_)" d="M45.386,18.319c0,5.627,3.86,10.188,8.621,10.188c3.313,0,6.188-2.208,7.631-5.447
			c1.504-5.283-0.979-9.52-0.979-9.52c-1.351-2.785-3.978-4.837-7.121-5.396C48.994,8.434,45.386,12.878,45.386,18.319z"/>
		<linearGradient id="SVGID_6_" gradientUnits="userSpaceOnUse" x1="52.0366" y1="12.1387" x2="52.0366" y2="32.784">
			<stop  offset="0" style="stop-color:#FFFAE2"/>
			<stop  offset="0.4872" style="stop-color:#FFD400"/>
			<stop  offset="1" style="stop-color:#F1AC00"/>
		</linearGradient>
		<ellipse fill="url(#SVGID_6_)" cx="52.037" cy="15.346" rx="5.962" ry="6.16"/>
	</g>
	<g>
		<linearGradient id="SVGID_7_" gradientUnits="userSpaceOnUse" x1="103.2202" y1="122.0972" x2="66.5541" y2="89.0574">
			<stop  offset="0" style="stop-color:#FFFFFF"/>
			<stop  offset="0.4822" style="stop-color:#FFD400"/>
			<stop  offset="1" style="stop-color:#E28100"/>
		</linearGradient>
		<polygon fill="url(#SVGID_7_)" points="60.627,90.055 48.927,85.288 65.508,82.294 77.473,86.782 		"/>
		<linearGradient id="SVGID_8_" gradientUnits="userSpaceOnUse" x1="41.853" y1="117.2451" x2="42.6587" y2="65.6695">
			<stop  offset="0.4467" style="stop-color:#FFD400"/>
			<stop  offset="1" style="stop-color:#E28100"/>
		</linearGradient>
		<polygon fill="url(#SVGID_8_)" points="47.621,105.5 36.266,100.043 36.906,55.266 48.678,58.979 		"/>
		<linearGradient id="SVGID_9_" gradientUnits="userSpaceOnUse" x1="49.2881" y1="45.7104" x2="49.2881" y2="67.873">
			<stop  offset="0" style="stop-color:#FFFFFF"/>
			<stop  offset="0.4822" style="stop-color:#FFD400"/>
			<stop  offset="1" style="stop-color:#E28100"/>
		</linearGradient>
		<polygon fill="url(#SVGID_9_)" points="48.678,58.979 36.906,55.266 49.661,53.743 61.67,57.299 		"/>
		<linearGradient id="SVGID_10_" gradientUnits="userSpaceOnUse" x1="58.4893" y1="50.1592" x2="63.3244" y2="104.9576">
			<stop  offset="0" style="stop-color:#FFFFFF"/>
			<stop  offset="0.4822" style="stop-color:#FFD400"/>
			<stop  offset="1" style="stop-color:#E28100"/>
		</linearGradient>
		<polygon fill="url(#SVGID_10_)" points="61.67,57.299 60.627,90.055 77.473,86.782 76.933,99.072 47.621,105.5 48.678,58.979 		
			"/>
	</g>
</g>
</svg>
