<?xml version="1.0" encoding="utf-8"?>
<!-- Generator: Adobe Illustrator 15.0.0, SVG Export Plug-In . SVG Version: 6.00 Build 0)  -->
<!DOCTYPE svg PUBLIC "-//W3C//DTD SVG 1.1//EN" "http://www.w3.org/Graphics/SVG/1.1/DTD/svg11.dtd">
<svg version="1.1" id="图层_1" xmlns="http://www.w3.org/2000/svg" xmlns:xlink="http://www.w3.org/1999/xlink" x="0px" y="0px"
	 width="110.667px" height="110.5px" viewBox="0 0 110.667 110.5" enable-background="new 0 0 110.667 110.5" xml:space="preserve">
<g>
	<g>
		<linearGradient id="SVGID_1_" gradientUnits="userSpaceOnUse" x1="55.644" y1="88.9795" x2="55.644" y2="32.1365">
			<stop  offset="0" style="stop-color:#517F00"/>
			<stop  offset="0.6447" style="stop-color:#ABF900"/>
			<stop  offset="1" style="stop-color:#517F00"/>
		</linearGradient>
		<path fill="url(#SVGID_1_)" d="M49.287,42.557c0.219-2.045,2.782-1.795,4.086-0.982c0.778,0.485,1.061,1.227,1.08,2.111
			c0.023,1.121-0.754,1.412-1.661,0.93c-1.638-0.869-2.029-2.969-1.766-4.649c0.14-0.878,0.982-2.605,2.16-2.266
			c0.668,0.193,0.474,1.986-0.446,1.522c-1.31-0.66-1.061-2.139-0.807-3.28c0.304-1.37,1.347-2.392,2.545-3.046
			c2.739-1.497,4.659,0.849,5.769,3.12c2.211,4.525,2.151,9.895,0.82,14.667c-0.433,1.551-1.27,2.915-2.077,4.294
			c-0.944,1.614-1.889,3.232-2.633,4.948c-1.104,2.548-1.793,6.253,1.371,7.642c0.81,0.356,1.7,0.34,2.33-0.338
			c0.433-0.466,0.605-1.246,0.319-1.823c-0.349-0.698-1.29-0.226-1.707,0.1c-1.132,0.886-2.172,2.425-2.001,3.905
			c0.205,1.789,3.482,3.435,3.767,0.924c0.007-0.051-0.02-0.112-0.066-0.138c-1.972-1.088-3.129,0.508-3.56,2.317
			c-0.257,1.084-0.31,2.233-0.242,3.343c0.092,1.459,0.859,2.749,1.619,3.96c0.967,1.543,2.213,3.113,2.473,4.968
			c0.219,1.552-0.521,3.36-1.67,4.388c-1.233,1.106-3.28,0.871-3.771-0.818c-0.418-1.434,0.568-3,2.077-3.057
			c0.314-0.012,0.428-0.418,0.05-0.404c-2.747,0.103-4,4.262-1.129,5.253c3.426,1.182,5.567-3.56,4.837-6.234
			c-0.635-2.331-2.472-4.152-3.455-6.325c-0.647-1.431-0.571-3.052-0.332-4.573c0.112-0.72,0.312-1.431,0.674-2.066
			c0.176-0.307,0.442-0.587,0.782-0.704c0.368-0.127,1.232,0.021,1.077,0.522c-0.253,0.807-1.208,0.374-1.663,0.043
			c-0.703-0.513-1.001-1.388-0.912-2.228c0.103-0.974,0.871-1.859,1.515-2.547c0.242-0.258,0.831-0.868,1.129-0.386
			c0.449,0.725-0.336,1.789-1.099,1.755c-1.655-0.075-2.737-1.95-2.823-3.41c-0.104-1.741,0.67-3.492,1.405-5.024
			c1.484-3.092,3.653-5.797,4.497-9.166c1.175-4.693,0.975-9.798-1.166-14.18c-0.79-1.613-1.977-3.257-3.832-3.642
			c-1.735-0.36-3.742,1.082-4.729,2.353c-1.06,1.365-1.505,3.693-0.132,4.971c0.787,0.735,1.841,0.452,2.1-0.583
			c0.285-1.145-0.712-1.686-1.679-1.3c-1.594,0.634-2.089,2.321-2.018,3.909c0.066,1.472,0.685,2.828,1.972,3.6
			c0.826,0.495,1.956,0.532,2.468-0.398c0.386-0.701,0.196-1.784-0.182-2.442c-0.442-0.769-1.374-1.201-2.195-1.41
			c-1.537-0.392-3.535,0.095-3.73,1.914C48.694,42.885,49.261,42.807,49.287,42.557L49.287,42.557z"/>
		<g>
			
				<linearGradient id="SVGID_2_" gradientUnits="userSpaceOnUse" x1="1937.1104" y1="33.9736" x2="1937.1104" y2="33.2719" gradientTransform="matrix(-1 0 0 1 1993.3301 0)">
				<stop  offset="0" style="stop-color:#ABF900"/>
				<stop  offset="1" style="stop-color:#517F00"/>
			</linearGradient>
			<path fill="url(#SVGID_2_)" d="M56.43,33.032c0,0,0.492,0.445,0.492,0.913c0,0-0.655,0.397-1.404-0.164
				C55.518,33.781,55.612,33.266,56.43,33.032z"/>
			<g>
				<linearGradient id="SVGID_3_" gradientUnits="userSpaceOnUse" x1="56.1558" y1="34.564" x2="56.1558" y2="19.5082">
					<stop  offset="0" style="stop-color:#ABF900"/>
					<stop  offset="1" style="stop-color:#517F00"/>
				</linearGradient>
				<path fill="url(#SVGID_3_)" d="M64.771,12.85c-1.549-3.196-4.823-5.399-8.614-5.399s-7.064,2.204-8.615,5.399l0,0
					c0,0-6.601,11.261,8.615,19.768C71.372,24.111,64.771,12.85,64.771,12.85z"/>
			</g>
			<linearGradient id="SVGID_4_" gradientUnits="userSpaceOnUse" x1="56.1567" y1="33.1597" x2="56.1567" y2="32.6017">
				<stop  offset="0" style="stop-color:#ABF900"/>
				<stop  offset="1" style="stop-color:#517F00"/>
			</linearGradient>
			<ellipse fill="url(#SVGID_4_)" cx="56.157" cy="32.746" rx="0.467" ry="0.43"/>
			<linearGradient id="SVGID_5_" gradientUnits="userSpaceOnUse" x1="57.9565" y1="26.6528" x2="57.9565" y2="9.9377">
				<stop  offset="0" style="stop-color:#ABF900"/>
				<stop  offset="1" style="stop-color:#517F00"/>
			</linearGradient>
			<path fill="url(#SVGID_5_)" d="M49.812,17.486c0,5.477,3.757,9.917,8.392,9.917c3.225,0,6.023-2.15,7.429-5.302
				c1.463-5.142-0.953-9.266-0.953-9.266c-1.315-2.711-3.872-4.708-6.931-5.252C53.325,7.864,49.812,12.19,49.812,17.486z"/>
			<linearGradient id="SVGID_6_" gradientUnits="userSpaceOnUse" x1="56.2861" y1="9.5449" x2="56.2861" y2="22.6062">
				<stop  offset="0" style="stop-color:#FFFFFF"/>
				<stop  offset="0.4308" style="stop-color:#ABF900"/>
				<stop  offset="1" style="stop-color:#79B500"/>
			</linearGradient>
			<ellipse fill="url(#SVGID_6_)" cx="56.286" cy="14.591" rx="5.804" ry="5.997"/>
		</g>
	</g>
	<g>
		<linearGradient id="SVGID_7_" gradientUnits="userSpaceOnUse" x1="55.5615" y1="84.8447" x2="55.1586" y2="51.8043">
			<stop  offset="0" style="stop-color:#C7FB55"/>
			<stop  offset="0.198" style="stop-color:#ABF900"/>
			<stop  offset="1" style="stop-color:#517F00"/>
		</linearGradient>
		<polygon fill="url(#SVGID_7_)" points="48.319,50.013 55.448,58.382 62.223,72.115 55.208,64.142 		"/>
		<linearGradient id="SVGID_8_" gradientUnits="userSpaceOnUse" x1="46.1973" y1="102.6348" x2="46.1973" y2="81.1442">
			<stop  offset="0" style="stop-color:#ABF900"/>
			<stop  offset="1" style="stop-color:#517F00"/>
		</linearGradient>
		<polygon fill="url(#SVGID_8_)" points="44.134,71.017 51.596,78.663 48.576,99.467 40.799,92.596 		"/>
		<linearGradient id="SVGID_9_" gradientUnits="userSpaceOnUse" x1="15.8164" y1="96.0479" x2="52.8858" y2="96.0479">
			<stop  offset="0" style="stop-color:#C7FB55"/>
			<stop  offset="0.198" style="stop-color:#ABF900"/>
			<stop  offset="1" style="stop-color:#517F00"/>
		</linearGradient>
		<polygon fill="url(#SVGID_9_)" points="40.799,92.596 48.576,99.467 35.236,99.5 26.978,92.737 		"/>
		<g>
			<linearGradient id="SVGID_10_" gradientUnits="userSpaceOnUse" x1="61.4121" y1="108.3706" x2="61.4121" y2="83.4747">
				<stop  offset="0" style="stop-color:#C7FB55"/>
				<stop  offset="0.198" style="stop-color:#ABF900"/>
				<stop  offset="1" style="stop-color:#517F00"/>
			</linearGradient>
			<polygon fill="url(#SVGID_10_)" points="64.328,70.319 52.009,86.223 51.758,86.227 59.086,93.41 59.328,93.407 71.066,78.162 
							"/>
		</g>
		<linearGradient id="SVGID_11_" gradientUnits="userSpaceOnUse" x1="46.4756" y1="96.1333" x2="87.5748" y2="95.7303">
			<stop  offset="0" style="stop-color:#C7FB55"/>
			<stop  offset="0.198" style="stop-color:#ABF900"/>
			<stop  offset="1" style="stop-color:#517F00"/>
		</linearGradient>
		<polygon fill="url(#SVGID_11_)" points="76.684,92.228 83.125,99.383 68.431,99.418 61.405,92.385 		"/>
		<linearGradient id="SVGID_12_" gradientUnits="userSpaceOnUse" x1="79.0635" y1="111.1567" x2="83.4957" y2="59.5814">
			<stop  offset="0.0051" style="stop-color:#ABF900"/>
			<stop  offset="1" style="stop-color:#517F00"/>
		</linearGradient>
		<polygon fill="url(#SVGID_12_)" points="81.812,48.073 87.738,56.827 83.125,99.383 76.684,92.228 		"/>
		<linearGradient id="SVGID_13_" gradientUnits="userSpaceOnUse" x1="55.939" y1="46.8013" x2="52.7154" y2="96.05">
			<stop  offset="0" style="stop-color:#C7FB55"/>
			<stop  offset="0.198" style="stop-color:#ABF900"/>
			<stop  offset="1" style="stop-color:#517F00"/>
		</linearGradient>
		<polygon fill="url(#SVGID_13_)" points="81.812,48.073 76.684,92.228 61.405,92.385 64.328,70.319 52.009,86.223 51.758,86.227 
			44.134,71.017 40.799,92.596 26.978,92.737 34.073,50.838 48.319,50.013 55.208,64.142 66.483,48.96 		"/>
	</g>
</g>
</svg>
