<?xml version="1.0" encoding="utf-8"?>
<!-- Generator: Adobe Illustrator 15.0.0, SVG Export Plug-In . SVG Version: 6.00 Build 0)  -->
<!DOCTYPE svg PUBLIC "-//W3C//DTD SVG 1.1//EN" "http://www.w3.org/Graphics/SVG/1.1/DTD/svg11.dtd">
<svg version="1.1" id="图层_1" xmlns="http://www.w3.org/2000/svg" xmlns:xlink="http://www.w3.org/1999/xlink" x="0px" y="0px"
	 width="110.667px" height="110.5px" viewBox="0 0 110.667 110.5" enable-background="new 0 0 110.667 110.5" xml:space="preserve">
<g>
	<g>
		<linearGradient id="SVGID_1_" gradientUnits="userSpaceOnUse" x1="53.6084" y1="89.1978" x2="53.6084" y2="34.8332">
			<stop  offset="0" style="stop-color:#840033"/>
			<stop  offset="0.7767" style="stop-color:#F92169"/>
			<stop  offset="1" style="stop-color:#840033"/>
		</linearGradient>
		<path fill="url(#SVGID_1_)" d="M60.893,41.111c0.494-3.381-3.678-3.114-5.827-2.455c-1.205,0.37-2.235,0.941-3.021,1.932
			c-1.103,1.393,0.016,3.034,1.654,2.845c1.652-0.19,2.665-2.05,2.906-3.526c0.265-1.612-0.863-3.132-2.37-3.614
			c-3.833-1.228-6.675,2.242-7.495,5.593c-0.968,3.963-0.4,8.756,1.769,12.229c1.145,1.833,2.503,3.537,3.363,5.534
			c0.793,1.84,0.848,4.333-0.986,5.594c-1.031,0.71-2.605,0.828-3.396-0.268c-0.201-0.281-0.344-0.708-0.251-1.05
			c0.105-0.39,0.941,0.086,1.135,0.197c0.673,0.387,1.139,1.053,1.223,1.824c0.091,0.84-0.525,2.328-1.473,1.537
			c-0.17-0.141-0.29-0.342-0.309-0.562c-0.031-0.343,1.054,0.174,1.214,0.274c0.896,0.565,1.236,1.793,1.446,2.76
			c0.555,2.551,0.183,5.107-0.567,7.578c-0.688,2.264-1.626,4.44-2.189,6.743c-0.395,1.621-1.01,3.875-0.14,5.417
			c0.572,1.011,2.184,1.307,3.193,0.839c1.839-0.855,0.223-2.498,0.11-3.845c-0.008-0.1-0.607,0.007-0.595,0.158
			c0.089,1.072,1.117,2.01,0.701,3.108c-0.422,1.109-1.979,0.394-2.506-0.045c-0.528-0.441-0.669-1.184-0.72-1.825
			c-0.09-1.161,0.231-2.456,0.465-3.582c0.3-1.439,0.796-2.834,1.286-4.216c0.905-2.555,1.806-5.102,1.839-7.843
			c0.019-1.748-0.24-4.063-1.591-5.313c-0.309-0.284-2.416-1.101-2.533-0.122c-0.111,0.933,1.204,1.104,1.827,0.91
			c1.396-0.438,1.328-2.498,0.564-3.416c-0.586-0.703-1.748-1.26-2.636-0.792c-0.42,0.223-0.412,0.604-0.284,1.022
			c0.243,0.793,0.988,1.183,1.759,1.276c1.148,0.14,2.76-0.373,3.509-1.283c2.896-3.518-0.976-7.804-2.865-10.768
			c-2.294-3.597-2.735-8.625-1.644-12.699c0.636-2.375,2.359-4.986,5.094-4.965c1.962,0.016,3.556,1.601,3.479,3.554
			C56,40.7,55.575,41.497,55.11,42.188c-0.785,1.166-2.28,1.367-2.84,0.002c-0.594-1.448,1.202-2.692,2.296-3.165
			c2.092-0.904,6.214-1.054,5.731,2.244C60.29,41.328,60.866,41.285,60.893,41.111L60.893,41.111z"/>
		<linearGradient id="SVGID_2_" gradientUnits="userSpaceOnUse" x1="52.7114" y1="37.6567" x2="52.7114" y2="36.9047">
			<stop  offset="0" style="stop-color:#F92169"/>
			<stop  offset="1" style="stop-color:#840033"/>
		</linearGradient>
		<path fill="url(#SVGID_2_)" d="M52.486,36.647c0,0-0.527,0.476-0.527,0.978c0,0,0.703,0.426,1.505-0.175
			C53.464,37.45,53.363,36.898,52.486,36.647z"/>
		<linearGradient id="SVGID_3_" gradientUnits="userSpaceOnUse" x1="52.6431" y1="38.2886" x2="52.6431" y2="22.15">
			<stop  offset="0" style="stop-color:#F92169"/>
			<stop  offset="1" style="stop-color:#840033"/>
		</linearGradient>
		<path fill="url(#SVGID_3_)" d="M61.877,15.014c-1.66-3.425-5.171-5.789-9.234-5.789c-4.062,0-7.572,2.364-9.233,5.789l0,0
			c0,0-7.075,12.071,9.233,21.189C68.953,27.085,61.877,15.014,61.877,15.014z"/>
		<linearGradient id="SVGID_4_" gradientUnits="userSpaceOnUse" x1="52.6436" y1="36.7847" x2="52.6436" y2="36.1865">
			<stop  offset="0" style="stop-color:#F92169"/>
			<stop  offset="1" style="stop-color:#840033"/>
		</linearGradient>
		<ellipse fill="url(#SVGID_4_)" cx="52.644" cy="36.34" rx="0.501" ry="0.462"/>
		<linearGradient id="SVGID_5_" gradientUnits="userSpaceOnUse" x1="54.5737" y1="29.8101" x2="54.5737" y2="11.8938">
			<stop  offset="0" style="stop-color:#F92169"/>
			<stop  offset="1" style="stop-color:#840033"/>
		</linearGradient>
		<path fill="url(#SVGID_5_)" d="M45.843,19.983c0,5.871,4.027,10.631,8.995,10.631c3.457,0,6.455-2.305,7.962-5.685
			c1.568-5.511-1.021-9.931-1.021-9.931c-1.41-2.907-4.151-5.048-7.43-5.629C49.608,9.669,45.843,14.307,45.843,19.983z"/>
		<linearGradient id="SVGID_6_" gradientUnits="userSpaceOnUse" x1="52.7822" y1="11.4722" x2="52.7822" y2="25.4716">
			<stop  offset="0" style="stop-color:#FFFFFF"/>
			<stop  offset="0.4718" style="stop-color:#F92169"/>
			<stop  offset="1" style="stop-color:#B30D48"/>
		</linearGradient>
		<ellipse fill="url(#SVGID_6_)" cx="52.782" cy="16.881" rx="6.22" ry="6.427"/>
	</g>
	<g>
		<linearGradient id="SVGID_7_" gradientUnits="userSpaceOnUse" x1="61.6997" y1="90.7183" x2="61.6997" y2="56.3334">
			<stop  offset="0" style="stop-color:#FFFFFF"/>
			<stop  offset="0.3655" style="stop-color:#F92169"/>
			<stop  offset="1" style="stop-color:#840033"/>
		</linearGradient>
		<polygon fill="url(#SVGID_7_)" points="67.297,74.94 55.338,70.752 55.906,51.404 68.062,54.854 		"/>
		<linearGradient id="SVGID_8_" gradientUnits="userSpaceOnUse" x1="67.8989" y1="42.9019" x2="67.8989" y2="62.7812">
			<stop  offset="0" style="stop-color:#FFFFFF"/>
			<stop  offset="0.3655" style="stop-color:#F92169"/>
			<stop  offset="1" style="stop-color:#840033"/>
		</linearGradient>
		<polygon fill="url(#SVGID_8_)" points="68.062,54.854 55.906,51.404 67.559,50.012 79.892,53.324 		"/>
		<linearGradient id="SVGID_9_" gradientUnits="userSpaceOnUse" x1="80.3633" y1="129.1357" x2="66.3946" y2="106.3023">
			<stop  offset="0" style="stop-color:#F92169"/>
			<stop  offset="1" style="stop-color:#840033"/>
		</linearGradient>
		<polygon fill="url(#SVGID_9_)" points="67.576,99.289 55.837,94.249 42.978,76.969 54.687,81.508 		"/>
		<linearGradient id="SVGID_10_" gradientUnits="userSpaceOnUse" x1="42.6719" y1="42.9009" x2="42.6719" y2="62.7816">
			<stop  offset="0" style="stop-color:#FFFFFF"/>
			<stop  offset="0.3655" style="stop-color:#F92169"/>
			<stop  offset="1" style="stop-color:#840033"/>
		</linearGradient>
		<polygon fill="url(#SVGID_10_)" points="42.337,58.181 30.643,54.419 42.773,52.971 54.701,56.582 		"/>
		<linearGradient id="SVGID_11_" gradientUnits="userSpaceOnUse" x1="36.2285" y1="128.2129" x2="36.2285" y2="58.5067">
			<stop  offset="0" style="stop-color:#FFFFFF"/>
			<stop  offset="0.3655" style="stop-color:#F92169"/>
			<stop  offset="1" style="stop-color:#840033"/>
		</linearGradient>
		<polygon fill="url(#SVGID_11_)" points="41.404,105.027 30.12,99.5 30.643,54.419 42.337,58.181 		"/>
		<linearGradient id="SVGID_12_" gradientUnits="userSpaceOnUse" x1="60.6479" y1="49.6426" x2="60.6479" y2="106.0522">
			<stop  offset="0" style="stop-color:#FFFFFF"/>
			<stop  offset="0.3655" style="stop-color:#F92169"/>
			<stop  offset="1" style="stop-color:#840033"/>
		</linearGradient>
		<polygon fill="url(#SVGID_12_)" points="79.892,53.324 77.864,97.032 67.576,99.289 54.687,81.508 54.082,102.248 41.404,105.027 
			42.337,58.181 54.701,56.582 67.297,74.94 68.062,54.854 		"/>
	</g>
</g>
</svg>
