<?xml version="1.0" encoding="utf-8"?>
<!-- Generator: Adobe Illustrator 15.0.0, SVG Export Plug-In . SVG Version: 6.00 Build 0)  -->
<!DOCTYPE svg PUBLIC "-//W3C//DTD SVG 1.1//EN" "http://www.w3.org/Graphics/SVG/1.1/DTD/svg11.dtd">
<svg version="1.1" id="图层_1" xmlns="http://www.w3.org/2000/svg" xmlns:xlink="http://www.w3.org/1999/xlink" x="0px" y="0px"
	 width="110.667px" height="110.5px" viewBox="0 0 110.667 110.5" enable-background="new 0 0 110.667 110.5" xml:space="preserve">
<g>
	<g>
		<linearGradient id="SVGID_1_" gradientUnits="userSpaceOnUse" x1="51.4595" y1="100.0347" x2="51.4595" y2="37.547">
			<stop  offset="0.0051" style="stop-color:#4C005E"/>
			<stop  offset="0.6802" style="stop-color:#E033AD"/>
			<stop  offset="1" style="stop-color:#4C005E"/>
		</linearGradient>
		<path fill="url(#SVGID_1_)" d="M46.195,49.223c-0.245-0.688-0.54-1.353-0.747-2.054c-0.149-0.501-0.177-0.995-0.074-1.509
			c0.036-0.177,0.109-0.302,0.202-0.383c0.202,0.168,0.488,0.305,0.88,0.393c0.087,0.019,0.607-0.042,0.557-0.204
			c-0.177-0.57-0.584-0.732-1.031-0.666c-0.418-0.726,0.105-1.831,0.97-2.376c0.126,0.568,0.479,1.057,1.138,1.314
			c0.537,0.211,1.427-0.005,1.771-0.479c0.669-0.919-0.892-1.44-1.55-1.48c-0.259-0.017-0.532,0.027-0.804,0.116
			c-0.041-0.611,0.134-1.261,0.415-1.736c0.891-1.51,2.874-2.449,4.524-1.741c1.163,0.499,1.854,1.76,2.397,2.826
			c1.384,2.715,2.483,5.312,2.752,8.383c0.273,3.132-0.347,6.284-1.362,9.237c-0.902,2.623-2.496,4.87-3.565,7.403
			c0.174-0.006,0.348-0.004,0.522-0.004c0.748-1.891,2.015-3.629,2.839-5.442c1.215-2.67,1.961-5.591,2.187-8.514
			c0.231-3.001-0.308-6.003-1.516-8.755c-0.516-1.178-1.138-2.374-1.799-3.478c-0.494-0.824-1.216-1.676-2.156-1.987
			c-1.801-0.599-3.569,0.214-4.87,1.478c-0.64,0.623-1.064,1.679-0.967,2.597c-1.165,0.661-2.104,2.012-1.559,2.862
			c-0.009,0.006-0.02,0.01-0.029,0.016c-1.473,0.834-0.116,3.287,0.263,4.347C45.638,49.541,46.242,49.354,46.195,49.223z
			 M49.122,42.471c0.803,0.576-0.169,1.322-0.88,0.833c-0.404-0.276-0.62-0.689-0.702-1.142
			C48.039,42.029,48.592,42.089,49.122,42.471z"/>
		<g>
			<linearGradient id="SVGID_2_" gradientUnits="userSpaceOnUse" x1="51.7104" y1="39.7539" x2="51.7104" y2="38.9803">
				<stop  offset="0.0051" style="stop-color:#E033AD"/>
				<stop  offset="1" style="stop-color:#4C005E"/>
			</linearGradient>
			<path fill="url(#SVGID_2_)" d="M51.478,38.716c0,0-0.542,0.489-0.542,1.006c0,0,0.723,0.438,1.548-0.182
				C52.484,39.54,52.381,38.973,51.478,38.716z"/>
			<g>
				<linearGradient id="SVGID_3_" gradientUnits="userSpaceOnUse" x1="51.6401" y1="38.2588" x2="51.6401" y2="15.0369">
					<stop  offset="0.0051" style="stop-color:#E033AD"/>
					<stop  offset="1" style="stop-color:#4C005E"/>
				</linearGradient>
				<path fill="url(#SVGID_3_)" d="M61.143,16.453c-1.709-3.524-5.322-5.955-9.503-5.955c-4.18,0-7.792,2.431-9.502,5.955l0,0
					c0,0-7.28,12.422,9.502,21.806C68.423,28.875,61.143,16.453,61.143,16.453z"/>
			</g>
			<linearGradient id="SVGID_4_" gradientUnits="userSpaceOnUse" x1="51.6396" y1="38.8564" x2="51.6396" y2="38.2406">
				<stop  offset="0.0051" style="stop-color:#E033AD"/>
				<stop  offset="1" style="stop-color:#4C005E"/>
			</linearGradient>
			<ellipse fill="url(#SVGID_4_)" cx="51.64" cy="38.398" rx="0.516" ry="0.476"/>
			<linearGradient id="SVGID_5_" gradientUnits="userSpaceOnUse" x1="53.6265" y1="30.0029" x2="53.6265" y2="8.6805">
				<stop  offset="0.0051" style="stop-color:#E033AD"/>
				<stop  offset="1" style="stop-color:#4C005E"/>
			</linearGradient>
			<path fill="url(#SVGID_5_)" d="M44.642,21.567c0,6.041,4.145,10.939,9.257,10.939c3.556,0,6.643-2.372,8.192-5.85
				c1.615-5.672-1.05-10.22-1.05-10.22c-1.451-2.992-4.271-5.193-7.646-5.793C48.517,10.953,44.642,15.726,44.642,21.567z"/>
			<linearGradient id="SVGID_6_" gradientUnits="userSpaceOnUse" x1="51.7832" y1="12.6924" x2="51.7832" y2="32.5358">
				<stop  offset="0" style="stop-color:#FFFFFF"/>
				<stop  offset="0.5076" style="stop-color:#E033AD"/>
				<stop  offset="1" style="stop-color:#4C005E"/>
			</linearGradient>
			<ellipse fill="url(#SVGID_6_)" cx="51.783" cy="18.374" rx="6.401" ry="6.614"/>
		</g>
	</g>
	<g>
		<g>
			<linearGradient id="SVGID_7_" gradientUnits="userSpaceOnUse" x1="58.4824" y1="84.292" x2="49.3487" y2="64.2335">
				<stop  offset="0" style="stop-color:#E033AD"/>
				<stop  offset="1" style="stop-color:#4C005E"/>
			</linearGradient>
			<path fill="url(#SVGID_7_)" d="M59.075,65.423c-0.16-0.19-0.33-0.371-0.51-0.54c-0.18-0.171-0.37-0.329-0.569-0.479
				c-0.2-0.149-0.409-0.288-0.628-0.418c-0.219-0.129-0.448-0.248-0.688-0.357c-0.259-0.118-0.529-0.22-0.811-0.304
				c-0.281-0.086-0.573-0.153-0.876-0.205c-0.304-0.05-0.618-0.085-0.943-0.103c-0.325-0.018-0.661-0.019-1.008-0.003
				c-0.336,0.016-0.667,0.047-0.992,0.093c-0.325,0.048-0.644,0.11-0.959,0.189c-0.313,0.079-0.623,0.173-0.926,0.283
				s-0.601,0.236-0.894,0.379s-0.577,0.294-0.852,0.457c-0.275,0.162-0.542,0.334-0.8,0.517s-0.507,0.376-0.749,0.578
				c-0.241,0.203-0.473,0.416-0.697,0.64c-0.224,0.223-0.438,0.454-0.641,0.692c-0.204,0.239-0.398,0.485-0.582,0.739
				c-0.184,0.255-0.358,0.518-0.521,0.786c-0.164,0.271-0.317,0.548-0.461,0.834c-0.144,0.285-0.276,0.574-0.396,0.867
				c-0.12,0.293-0.228,0.588-0.324,0.889c-0.096,0.299-0.18,0.602-0.252,0.908s-0.132,0.616-0.18,0.931l-0.019,0.122
				c-0.048,0.314-0.083,0.626-0.104,0.933c-0.021,0.308-0.028,0.613-0.021,0.913c0.007,0.301,0.027,0.599,0.062,0.893
				c0.034,0.295,0.083,0.586,0.144,0.874c0.062,0.288,0.136,0.567,0.222,0.839c0.086,0.272,0.185,0.536,0.295,0.79
				c0.111,0.255,0.234,0.502,0.369,0.741c0.135,0.238,0.283,0.468,0.443,0.689c0.051,0.071,0.104,0.143,0.158,0.211
				s0.109,0.138,0.167,0.203c0.057,0.067,0.114,0.133,0.173,0.197c0.06,0.064,0.12,0.127,0.182,0.189
				c2.471,2.476,4.941,4.951,7.412,7.427c-0.061-0.06-0.119-0.121-0.177-0.185c-0.058-0.062-0.114-0.126-0.169-0.19
				c-0.055-0.065-0.109-0.132-0.162-0.198c-0.053-0.067-0.104-0.136-0.155-0.206c-0.156-0.215-0.301-0.438-0.434-0.669
				s-0.253-0.471-0.363-0.718s-0.207-0.503-0.292-0.767c-0.086-0.262-0.16-0.533-0.223-0.813c-0.062-0.277-0.111-0.56-0.147-0.844
				c-0.036-0.285-0.059-0.572-0.068-0.863c-0.009-0.29-0.005-0.584,0.012-0.882c0.018-0.297,0.047-0.598,0.091-0.901l0.017-0.117
				c0.043-0.303,0.099-0.603,0.166-0.898c0.067-0.295,0.146-0.587,0.235-0.876c0.09-0.289,0.191-0.573,0.305-0.855
				c0.113-0.281,0.237-0.56,0.374-0.835c0.136-0.274,0.282-0.542,0.438-0.801c0.156-0.261,0.321-0.512,0.497-0.757
				c0.175-0.244,0.36-0.48,0.555-0.71c0.195-0.229,0.399-0.45,0.613-0.664c0.214-0.214,0.437-0.417,0.667-0.61
				c0.23-0.195,0.47-0.379,0.717-0.554c0.248-0.174,0.503-0.338,0.767-0.492c0.265-0.155,0.537-0.301,0.818-0.435
				c0.281-0.135,0.567-0.254,0.859-0.357c0.292-0.104,0.589-0.193,0.892-0.267c0.302-0.072,0.611-0.131,0.924-0.173
				c0.313-0.043,0.632-0.07,0.956-0.082c0.335-0.012,0.659-0.008,0.972,0.013c0.314,0.02,0.618,0.057,0.911,0.107
				c0.293,0.053,0.576,0.121,0.848,0.205c0.273,0.085,0.534,0.186,0.785,0.302c0.231,0.107,0.454,0.226,0.666,0.353
				s0.416,0.263,0.609,0.409c0.194,0.146,0.378,0.302,0.553,0.468c0.174,0.166,0.34,0.341,0.496,0.526
				C63.594,70.795,61.334,68.109,59.075,65.423z"/>
		</g>
		<linearGradient id="SVGID_8_" gradientUnits="userSpaceOnUse" x1="34.1963" y1="80.3076" x2="82.3086" y2="80.3076">
			<stop  offset="0" style="stop-color:#E033AD"/>
			<stop  offset="1" style="stop-color:#4C005E"/>
		</linearGradient>
		<path fill="url(#SVGID_8_)" d="M82.208,75.2c-0.072-0.708-0.184-1.4-0.333-2.08c-0.149-0.679-0.337-1.343-0.563-1.992
			c-0.147-0.423-0.308-0.837-0.482-1.24c-0.174-0.402-0.361-0.794-0.561-1.178c-0.2-0.38-0.413-0.752-0.639-1.113
			c-0.226-0.361-0.464-0.712-0.715-1.053c-2.076-2.809-4.151-5.618-6.226-8.429c0.258,0.351,0.503,0.711,0.734,1.083
			c0.232,0.37,0.45,0.753,0.654,1.146c0.205,0.394,0.396,0.799,0.573,1.213c0.178,0.415,0.341,0.843,0.492,1.279
			c0.229,0.671,0.419,1.355,0.569,2.057c0.15,0.702,0.26,1.42,0.33,2.153s0.099,1.483,0.087,2.248
			c-0.011,0.766-0.063,1.549-0.157,2.346c-0.097,0.828-0.232,1.642-0.406,2.438c-0.173,0.799-0.385,1.58-0.635,2.349
			c-0.251,0.769-0.54,1.521-0.868,2.264s-0.695,1.471-1.101,2.188c-0.406,0.72-0.84,1.418-1.302,2.094
			c-0.462,0.677-0.951,1.33-1.468,1.964c-0.517,0.632-1.062,1.243-1.634,1.832s-1.171,1.155-1.797,1.699
			c-0.626,0.544-1.274,1.06-1.943,1.548c-0.668,0.488-1.358,0.947-2.068,1.379c-0.71,0.431-1.441,0.834-2.192,1.208
			c-0.751,0.374-1.522,0.72-2.314,1.037c-0.792,0.316-1.592,0.595-2.4,0.834c-0.808,0.239-1.624,0.439-2.448,0.602
			c-0.823,0.161-1.654,0.284-2.493,0.37c-0.837,0.084-1.682,0.13-2.534,0.138c-0.851,0.008-1.68-0.021-2.486-0.09
			c-0.805-0.067-1.588-0.172-2.348-0.314s-1.497-0.321-2.211-0.537c-0.714-0.216-1.405-0.468-2.074-0.757
			c-0.482-0.209-0.949-0.431-1.4-0.668c-0.451-0.236-0.887-0.487-1.308-0.751c-0.42-0.264-0.826-0.542-1.217-0.834
			c-0.39-0.291-0.766-0.598-1.126-0.917c2.627,2.328,5.254,4.655,7.881,6.982c0.351,0.312,0.717,0.609,1.096,0.894
			c0.38,0.284,0.773,0.557,1.182,0.814c0.409,0.259,0.833,0.502,1.27,0.733c0.438,0.231,0.89,0.45,1.357,0.655
			c0.648,0.283,1.317,0.531,2.007,0.744c0.691,0.214,1.403,0.393,2.136,0.535c0.735,0.143,1.49,0.25,2.267,0.321
			c0.777,0.071,1.576,0.106,2.396,0.105c0.821-0.001,1.635-0.04,2.44-0.114c0.808-0.076,1.607-0.188,2.398-0.338
			c0.792-0.149,1.577-0.337,2.352-0.561c0.777-0.226,1.545-0.486,2.305-0.787c0.76-0.299,1.5-0.626,2.219-0.98
			c0.72-0.355,1.42-0.737,2.101-1.147c0.68-0.409,1.34-0.847,1.979-1.313c0.64-0.465,1.259-0.957,1.857-1.477
			c0.598-0.52,1.169-1.061,1.715-1.623s1.065-1.146,1.558-1.753c0.493-0.605,0.958-1.232,1.397-1.88
			c0.439-0.649,0.852-1.317,1.237-2.009c0.385-0.688,0.732-1.388,1.042-2.101s0.583-1.438,0.818-2.176
			c0.235-0.739,0.434-1.491,0.594-2.259c0.161-0.768,0.285-1.551,0.372-2.351c0.084-0.768,0.129-1.521,0.134-2.261
			C82.313,76.634,82.28,75.91,82.208,75.2z"/>
		<g>
			
				<linearGradient id="SVGID_9_" gradientUnits="userSpaceOnUse" x1="44.6572" y1="41.5586" x2="52.7162" y2="82.6594" gradientTransform="matrix(1 0 0 1 2 3)">
				<stop  offset="0.0051" style="stop-color:#FFFFFF"/>
				<stop  offset="0.4416" style="stop-color:#E033AD"/>
				<stop  offset="1" style="stop-color:#4C005E"/>
			</linearGradient>
			<path fill="url(#SVGID_9_)" d="M76.04,67.047c-0.07-0.733-0.18-1.451-0.33-2.153c-0.15-0.701-0.34-1.386-0.569-2.057
				c-0.229-0.668-0.491-1.312-0.784-1.929c-0.293-0.618-0.619-1.209-0.975-1.775s-0.744-1.106-1.164-1.621
				c-0.418-0.516-0.868-1.006-1.348-1.471c-0.481-0.463-0.987-0.899-1.519-1.306c-0.53-0.406-1.086-0.784-1.668-1.134
				c-0.581-0.349-1.186-0.669-1.817-0.962c-0.63-0.291-1.285-0.556-1.965-0.792c-0.679-0.235-1.375-0.434-2.09-0.598
				c-0.713-0.164-1.444-0.292-2.193-0.385c-0.748-0.092-1.512-0.149-2.295-0.172c-0.782-0.021-1.582-0.008-2.399,0.04
				c-0.816,0.049-1.622,0.13-2.417,0.245c-0.794,0.116-1.579,0.265-2.354,0.447c-0.774,0.182-1.538,0.398-2.292,0.647
				s-1.499,0.531-2.234,0.848c-0.735,0.314-1.451,0.654-2.146,1.019c-0.696,0.363-1.372,0.749-2.029,1.161
				c-0.656,0.41-1.294,0.845-1.913,1.304c-0.618,0.459-1.219,0.942-1.801,1.45c-0.581,0.507-1.139,1.032-1.673,1.579
				c-0.535,0.545-1.046,1.11-1.533,1.695c-0.488,0.585-0.953,1.189-1.395,1.814c-0.441,0.625-0.86,1.271-1.256,1.935
				c-0.396,0.666-0.758,1.342-1.088,2.031c-0.329,0.689-0.626,1.392-0.889,2.109c-0.263,0.717-0.494,1.45-0.692,2.2
				c-0.198,0.752-0.364,1.52-0.497,2.308c-0.128,0.759-0.218,1.507-0.271,2.242c-0.054,0.737-0.069,1.462-0.048,2.176
				c0.022,0.716,0.082,1.419,0.179,2.11c0.098,0.693,0.233,1.375,0.407,2.044c0.174,0.672,0.38,1.321,0.617,1.95
				c0.239,0.629,0.509,1.236,0.813,1.823c0.304,0.586,0.64,1.151,1.008,1.695c0.37,0.544,0.773,1.066,1.208,1.566
				c0.437,0.503,0.901,0.977,1.394,1.425c0.493,0.45,1.016,0.873,1.566,1.269c0.552,0.397,1.132,0.767,1.741,1.109
				c0.61,0.344,1.25,0.659,1.918,0.948c0.669,0.289,1.36,0.541,2.074,0.757c0.714,0.216,1.451,0.395,2.211,0.537
				s1.543,0.247,2.348,0.314c0.806,0.068,1.635,0.098,2.486,0.09c0.852-0.008,1.697-0.054,2.534-0.138
				c0.839-0.086,1.67-0.209,2.493-0.37c0.824-0.162,1.64-0.362,2.448-0.602c0.809-0.239,1.609-0.518,2.4-0.834
				c0.792-0.317,1.563-0.663,2.314-1.037c0.751-0.374,1.482-0.777,2.192-1.208c0.71-0.432,1.4-0.891,2.068-1.379
				c0.669-0.488,1.316-1.004,1.943-1.548c0.626-0.544,1.225-1.11,1.797-1.699s1.117-1.2,1.634-1.832
				c0.517-0.634,1.006-1.287,1.468-1.964c0.462-0.676,0.896-1.374,1.302-2.094c0.406-0.718,0.773-1.446,1.101-2.188
				s0.617-1.495,0.868-2.264c0.25-0.769,0.462-1.55,0.635-2.349c0.173-0.796,0.309-1.609,0.406-2.438
				c0.093-0.797,0.146-1.58,0.157-2.346C76.139,68.53,76.11,67.78,76.04,67.047z M60.92,71.343
				c-0.014,0.313-0.042,0.629-0.085,0.949l-0.017,0.124c-0.043,0.32-0.098,0.638-0.167,0.951c-0.068,0.314-0.149,0.626-0.243,0.934
				c-0.093,0.307-0.2,0.612-0.318,0.913c-0.119,0.302-0.251,0.6-0.396,0.894c-0.144,0.295-0.299,0.582-0.465,0.861
				c-0.166,0.278-0.343,0.55-0.531,0.813s-0.386,0.518-0.595,0.765s-0.429,0.485-0.659,0.716c-0.23,0.23-0.469,0.45-0.718,0.659
				c-0.249,0.208-0.506,0.406-0.772,0.593c-0.267,0.187-0.542,0.362-0.826,0.528c-0.284,0.165-0.577,0.318-0.878,0.461
				c-0.302,0.144-0.609,0.271-0.92,0.38c-0.313,0.109-0.629,0.202-0.952,0.277c-0.322,0.076-0.65,0.135-0.982,0.178
				c-0.333,0.04-0.671,0.065-1.014,0.074c-0.353,0.009-0.694-0.001-1.024-0.027c-0.329-0.025-0.646-0.068-0.952-0.129
				c-0.305-0.06-0.599-0.137-0.88-0.231c-0.281-0.095-0.552-0.206-0.81-0.335c-0.258-0.128-0.503-0.268-0.737-0.419
				c-0.233-0.152-0.454-0.314-0.663-0.49c-0.208-0.175-0.405-0.362-0.589-0.561c-0.184-0.198-0.356-0.408-0.516-0.63
				c-0.16-0.222-0.308-0.451-0.443-0.689c-0.135-0.239-0.258-0.486-0.369-0.741c-0.111-0.254-0.209-0.518-0.295-0.79
				c-0.086-0.271-0.16-0.551-0.222-0.839c-0.062-0.288-0.11-0.579-0.144-0.874c-0.035-0.294-0.055-0.592-0.062-0.893
				c-0.007-0.3,0-0.605,0.021-0.913c0.021-0.307,0.055-0.618,0.104-0.933l0.019-0.122c0.048-0.314,0.108-0.624,0.18-0.931
				s0.156-0.609,0.252-0.908c0.096-0.301,0.204-0.596,0.324-0.889c0.12-0.293,0.252-0.582,0.396-0.867
				c0.144-0.286,0.297-0.563,0.461-0.834c0.164-0.269,0.337-0.531,0.521-0.786c0.184-0.254,0.377-0.5,0.582-0.739
				c0.204-0.238,0.417-0.47,0.641-0.692c0.224-0.224,0.456-0.437,0.697-0.64c0.241-0.202,0.491-0.396,0.749-0.578
				s0.525-0.354,0.8-0.517c0.275-0.163,0.56-0.314,0.852-0.457s0.59-0.269,0.894-0.379s0.612-0.204,0.926-0.283
				c0.315-0.079,0.634-0.142,0.959-0.189c0.326-0.046,0.656-0.077,0.992-0.093c0.347-0.016,0.683-0.015,1.008,0.003
				c0.325,0.018,0.64,0.053,0.943,0.103c0.303,0.052,0.595,0.119,0.876,0.205c0.282,0.084,0.552,0.186,0.811,0.304
				c0.26,0.119,0.509,0.25,0.746,0.392c0.236,0.143,0.461,0.298,0.675,0.464c0.213,0.167,0.415,0.345,0.604,0.536
				c0.19,0.19,0.369,0.393,0.535,0.607c0.167,0.216,0.321,0.439,0.464,0.673c0.143,0.233,0.274,0.476,0.393,0.728
				c0.119,0.251,0.226,0.512,0.32,0.78c0.095,0.271,0.178,0.549,0.248,0.837c0.071,0.287,0.127,0.579,0.169,0.875
				c0.042,0.296,0.071,0.596,0.084,0.899C60.935,70.724,60.935,71.031,60.92,71.343z"/>
		</g>
	</g>
</g>
</svg>
