<?xml version="1.0" encoding="utf-8"?>
<!-- Generator: Adobe Illustrator 15.0.0, SVG Export Plug-In . SVG Version: 6.00 Build 0)  -->
<!DOCTYPE svg PUBLIC "-//W3C//DTD SVG 1.1//EN" "http://www.w3.org/Graphics/SVG/1.1/DTD/svg11.dtd">
<svg version="1.1" id="图层_1" xmlns="http://www.w3.org/2000/svg" xmlns:xlink="http://www.w3.org/1999/xlink" x="0px" y="0px"
	 width="110.667px" height="110.5px" viewBox="0 0 110.667 110.5" enable-background="new 0 0 110.667 110.5" xml:space="preserve">
<g>
	<g>
		<linearGradient id="SVGID_1_" gradientUnits="userSpaceOnUse" x1="51.3589" y1="92.938" x2="51.3589" y2="33.2157">
			<stop  offset="0" style="stop-color:#1A87A0"/>
			<stop  offset="0.6091" style="stop-color:#69C8E2"/>
			<stop  offset="0.7767" style="stop-color:#D1EEF6"/>
			<stop  offset="0.8782" style="stop-color:#69C8E2"/>
			<stop  offset="1" style="stop-color:#1A87A0"/>
		</linearGradient>
		<path fill="url(#SVGID_1_)" d="M57.796,66.71c-1.138,0.087-2.264,0.943-2.659,1.997c-0.012,0.03-0.021,0.061-0.031,0.092
			c-1.85-0.683-2.644-2.672-2.423-4.534c0.256-2.161,1.713-4.136,2.893-5.886c1.129-1.68,2.213-3.292,2.762-5.259
			c0.586-2.103,0.799-4.32,0.723-6.497c-0.132-3.822-1.804-8.92-6.367-9.069c-1.29-0.042-2.783,0.484-3.63,1.482
			c-0.248,0.294-0.435,0.6-0.569,0.915c-2.414-0.306-5.235,0.229-4.81,3.12c0.016,0.108,0.618-0.018,0.597-0.161
			c-0.391-2.652,1.875-3.108,4.111-2.686c-0.413,1.278,0.001,2.672,0.809,3.861c0.953,1.405,3.023,1.876,4.082,0.294
			c1.157-1.727-1.365-3.389-2.665-3.906c-0.445-0.178-0.995-0.332-1.589-0.439c0.251-0.709,0.738-1.341,1.48-1.794
			c2.321-1.417,5.041,0.432,6.303,2.368c1.225,1.881,1.584,4.259,1.661,6.458c0.08,2.305-0.247,4.651-0.927,6.852
			c-0.596,1.93-1.902,3.578-3.007,5.237c-1.817,2.729-4.435,7.847-0.124,9.792c0.199,0.09,0.407,0.163,0.619,0.222
			c-0.05,0.516,0.076,1.115,0.354,1.569c-0.063,0.057-0.12,0.111-0.164,0.162c-1.523,1.796-1.56,4.886-1.32,7.086
			c0.372,3.393,1.953,6.529,2.883,9.781c0.375,1.313,0.613,2.674,0.76,4.03c0.117,1.088,0.111,2.433-0.889,3.118
			c-0.541,0.369-2.206,0.435-2.699-0.249c-0.231-0.321-0.01-0.816,0.119-1.13c0.311-0.758,0.779-1.454,0.819-2.295
			c0.003-0.075-0.589-0.008-0.597,0.159c-0.036,0.755-0.432,1.422-0.742,2.092c-0.178,0.385-0.495,1.081-0.109,1.45
			c0.858,0.821,2.997,0.574,3.864-0.159c1.26-1.066,0.881-2.985,0.658-4.413c-0.432-2.757-1.435-5.321-2.331-7.947
			c-0.869-2.543-1.434-5.125-1.138-7.82c0.108-0.991,0.303-1.974,0.709-2.888c0.108-0.243,0.246-0.469,0.405-0.678
			c0.274,0.291,0.637,0.458,1.078,0.395c0.38-0.056,1.949-0.738,1.385-1.347c-0.463-0.503-1.47-0.154-2.182,0.281
			c-0.171-0.355-0.255-0.72-0.255-1.079c0.858,0.102,1.743-0.067,2.444-0.586C58.963,68.054,59.132,66.608,57.796,66.71z
			 M51.798,41.651c0.723,0.59,1.27,1.532,1.055,2.479c-0.19,0.835-1.115,1.172-1.888,0.872c-0.685-0.267-1.123-0.98-1.49-1.576
			c-0.6-0.976-0.787-2.086-0.539-3.079C50.081,40.636,51.16,41.131,51.798,41.651z M57.519,70.617
			c-0.289,0.901-1.096,0.537-1.489-0.022c0.024-0.021,0.045-0.046,0.071-0.068C56.241,70.406,57.8,69.738,57.519,70.617z
			 M57.801,68.498c-0.477,0.69-1.38,0.659-2.135,0.475c0.063-0.45,0.26-0.882,0.587-1.255c0.38-0.434,1.721-1.332,1.94-0.345
			C58.278,67.752,58.004,68.202,57.801,68.498z"/>
		<g>
			<linearGradient id="SVGID_2_" gradientUnits="userSpaceOnUse" x1="52.8501" y1="39.457" x2="52.8501" y2="38.7017">
				<stop  offset="0" style="stop-color:#69C8E2"/>
				<stop  offset="1" style="stop-color:#1A87A0"/>
			</linearGradient>
			<path fill="url(#SVGID_2_)" d="M52.623,38.443c0,0-0.529,0.479-0.529,0.982c0,0,0.705,0.427,1.511-0.176
				C53.605,39.25,53.504,38.694,52.623,38.443z"/>
			<g>
				<linearGradient id="SVGID_3_" gradientUnits="userSpaceOnUse" x1="52.7813" y1="40.0918" x2="52.7813" y2="23.8913">
					<stop  offset="0" style="stop-color:#69C8E2"/>
					<stop  offset="0.2132" style="stop-color:#58BAD4"/>
					<stop  offset="1" style="stop-color:#1A87A0"/>
				</linearGradient>
				<path fill="url(#SVGID_3_)" d="M62.051,16.728c-1.668-3.438-5.192-5.811-9.27-5.811c-4.078,0-7.602,2.372-9.27,5.811l0,0
					c0,0-7.102,12.117,9.27,21.271C69.153,28.845,62.051,16.728,62.051,16.728z"/>
			</g>
			<linearGradient id="SVGID_4_" gradientUnits="userSpaceOnUse" x1="52.7808" y1="38.5811" x2="52.7808" y2="37.9804">
				<stop  offset="0" style="stop-color:#69C8E2"/>
				<stop  offset="1" style="stop-color:#1A87A0"/>
			</linearGradient>
			<ellipse fill="url(#SVGID_4_)" cx="52.781" cy="38.135" rx="0.503" ry="0.464"/>
			<linearGradient id="SVGID_5_" gradientUnits="userSpaceOnUse" x1="54.7192" y1="31.5791" x2="54.7192" y2="13.5941">
				<stop  offset="0" style="stop-color:#69C8E2"/>
				<stop  offset="1" style="stop-color:#1A87A0"/>
			</linearGradient>
			<path fill="url(#SVGID_5_)" d="M45.956,21.715c0,5.895,4.042,10.672,9.029,10.672c3.47,0,6.481-2.313,7.992-5.705
				c1.574-5.533-1.025-9.97-1.025-9.97c-1.415-2.918-4.166-5.067-7.458-5.651C49.735,11.362,45.956,16.017,45.956,21.715z"/>
			<linearGradient id="SVGID_6_" gradientUnits="userSpaceOnUse" x1="52.9209" y1="13.1729" x2="52.9209" y2="27.225">
				<stop  offset="0" style="stop-color:#EDF8FC"/>
				<stop  offset="0.4564" style="stop-color:#69C8E2"/>
				<stop  offset="1" style="stop-color:#47ACC6"/>
			</linearGradient>
			<ellipse fill="url(#SVGID_6_)" cx="52.921" cy="18.602" rx="6.245" ry="6.451"/>
		</g>
	</g>
	<g>
		<g>
			<linearGradient id="SVGID_7_" gradientUnits="userSpaceOnUse" x1="71.4731" y1="87.582" x2="64.086" y2="77.3743">
				<stop  offset="0" style="stop-color:#69C8E2"/>
				<stop  offset="1" style="stop-color:#1A87A0"/>
			</linearGradient>
			<path fill="url(#SVGID_7_)" d="M70.559,70.954c-0.043-0.352-0.116-0.673-0.217-0.966s-0.233-0.556-0.394-0.79
				s-0.351-0.44-0.57-0.615c-0.075-0.059-0.152-0.115-0.232-0.169c-0.081-0.052-0.163-0.102-0.249-0.147
				c-0.086-0.047-0.174-0.089-0.266-0.128s-0.185-0.074-0.282-0.106c-3.987-1.327-7.975-2.654-11.962-3.98
				c0.096,0.032,0.188,0.066,0.279,0.105c0.09,0.038,0.178,0.079,0.262,0.125c0.085,0.044,0.167,0.093,0.247,0.144
				c0.079,0.052,0.156,0.107,0.23,0.165c0.218,0.171,0.407,0.37,0.567,0.598c0.16,0.227,0.292,0.481,0.395,0.765
				s0.178,0.594,0.223,0.932c0.046,0.339,0.063,0.706,0.052,1.1l-0.003,0.123c-0.011,0.395-0.051,0.768-0.12,1.122
				c-0.068,0.355-0.165,0.69-0.291,1.007c-0.125,0.315-0.28,0.611-0.463,0.89c-0.184,0.276-0.396,0.535-0.636,0.774
				c-0.242,0.24-0.501,0.457-0.779,0.652c-0.277,0.195-0.574,0.369-0.888,0.521c-0.315,0.15-0.649,0.28-1.001,0.387
				c-0.353,0.107-0.724,0.192-1.114,0.257l-3.303,0.533l11.766,4.425l3.36-0.584c0.397-0.07,0.775-0.162,1.134-0.276
				c0.358-0.115,0.698-0.252,1.02-0.411c0.321-0.161,0.623-0.343,0.907-0.549c0.284-0.205,0.549-0.434,0.796-0.685
				c0.247-0.249,0.465-0.52,0.653-0.809c0.188-0.29,0.348-0.599,0.479-0.928c0.13-0.328,0.232-0.677,0.305-1.046
				c0.072-0.368,0.117-0.758,0.131-1.166l0.005-0.128C70.617,71.685,70.603,71.305,70.559,70.954z"/>
		</g>
		<g>
			<linearGradient id="SVGID_8_" gradientUnits="userSpaceOnUse" x1="84.0132" y1="51.6797" x2="47.613" y2="55.7092">
				<stop  offset="0" style="stop-color:#69C8E2"/>
				<stop  offset="1" style="stop-color:#1A87A0"/>
			</linearGradient>
			<path fill="url(#SVGID_8_)" d="M62.32,52.288c-0.072-0.021-0.146-0.041-0.219-0.061s-0.147-0.039-0.222-0.058
				s-0.149-0.037-0.225-0.054c-0.075-0.018-0.151-0.035-0.228-0.051c-0.487-0.104-0.99-0.187-1.507-0.247
				c-0.519-0.06-1.053-0.098-1.601-0.114c-0.55-0.017-1.116-0.011-1.696,0.018c-0.583,0.028-1.18,0.079-1.793,0.152l-17.143,2.047
				l11.735,3.736l17.461-2.259c0.624-0.081,1.232-0.138,1.823-0.172c0.59-0.033,1.165-0.044,1.723-0.031
				c0.557,0.013,1.099,0.049,1.625,0.107c0.524,0.059,1.034,0.14,1.527,0.243c0.077,0.018,0.154,0.034,0.231,0.053
				c0.076,0.017,0.152,0.035,0.228,0.055c0.075,0.018,0.15,0.037,0.225,0.057c0.074,0.021,0.148,0.041,0.221,0.062
				C70.43,54.611,66.375,53.449,62.32,52.288z"/>
		</g>
		<linearGradient id="SVGID_9_" gradientUnits="userSpaceOnUse" x1="43.5283" y1="50.5649" x2="42.9911" y2="106.0372">
			<stop  offset="0" style="stop-color:#69C8E2"/>
			<stop  offset="1" style="stop-color:#1A87A0"/>
		</linearGradient>
		<polygon fill="url(#SVGID_9_)" points="48.422,104.331 37.1,98.842 37.686,53.921 49.42,57.657 		"/>
		<g>
			
				<linearGradient id="SVGID_10_" gradientUnits="userSpaceOnUse" x1="64.2764" y1="44.4243" x2="63.2018" y2="90.7625" gradientTransform="matrix(1 0 0 1 2 3)">
				<stop  offset="0" style="stop-color:#FFFFFF"/>
				<stop  offset="0.4564" style="stop-color:#69C8E2"/>
				<stop  offset="1" style="stop-color:#1A87A0"/>
			</linearGradient>
			<path fill="url(#SVGID_10_)" d="M82.263,65.572c-0.069-0.563-0.164-1.104-0.283-1.621c-0.12-0.519-0.264-1.014-0.433-1.486
				c-0.17-0.473-0.36-0.922-0.57-1.349c-0.21-0.427-0.441-0.83-0.692-1.211c-0.251-0.38-0.522-0.737-0.814-1.071
				c-0.292-0.334-0.605-0.646-0.939-0.932c-0.334-0.288-0.688-0.552-1.061-0.793c-0.374-0.242-0.766-0.462-1.178-0.657
				c-0.413-0.198-0.844-0.371-1.295-0.521c-0.453-0.151-0.925-0.278-1.417-0.385c-0.493-0.104-1.003-0.185-1.527-0.243
				c-0.526-0.059-1.067-0.095-1.625-0.107c-0.558-0.013-1.133-0.002-1.723,0.031c-0.591,0.034-1.199,0.091-1.823,0.172L49.42,57.657
				l-0.998,46.674l12.688-2.781l0.37-12.08l4.019-0.785c0.62-0.122,1.226-0.262,1.817-0.422c0.59-0.157,1.166-0.335,1.728-0.53
				c0.562-0.196,1.108-0.41,1.642-0.644c0.532-0.232,1.051-0.483,1.557-0.754c0.504-0.269,0.992-0.557,1.461-0.861
				c0.469-0.305,0.92-0.627,1.354-0.967c0.434-0.339,0.851-0.696,1.25-1.07c0.399-0.375,0.781-0.768,1.147-1.178
				c0.365-0.409,0.711-0.836,1.039-1.279c0.327-0.441,0.634-0.9,0.922-1.375c0.289-0.474,0.558-0.965,0.809-1.473
				c0.25-0.507,0.482-1.03,0.695-1.571c0.212-0.54,0.402-1.096,0.569-1.668c0.167-0.572,0.311-1.162,0.432-1.771
				c0.122-0.608,0.221-1.237,0.297-1.886c0.077-0.65,0.131-1.322,0.162-2.017c0.03-0.653,0.035-1.283,0.015-1.891
				C82.377,66.72,82.333,66.135,82.263,65.572z M70.597,72.222c-0.015,0.408-0.059,0.798-0.131,1.166
				c-0.073,0.369-0.175,0.718-0.305,1.046c-0.131,0.329-0.291,0.638-0.479,0.928c-0.188,0.289-0.406,0.56-0.653,0.809
				c-0.247,0.251-0.513,0.479-0.796,0.685c-0.284,0.206-0.586,0.388-0.907,0.549c-0.322,0.159-0.662,0.296-1.02,0.411
				c-0.359,0.114-0.737,0.206-1.134,0.276l-3.36,0.584l0.313-10.238l3.437-0.529c0.417-0.063,0.809-0.098,1.177-0.102
				s0.71,0.023,1.028,0.079c0.317,0.057,0.611,0.143,0.88,0.26c0.268,0.116,0.513,0.263,0.733,0.438
				c0.219,0.175,0.409,0.381,0.57,0.615s0.292,0.497,0.394,0.79s0.174,0.614,0.217,0.966c0.043,0.351,0.058,0.73,0.042,1.14
				L70.597,72.222z"/>
		</g>
	</g>
</g>
</svg>
