<?xml version="1.0" encoding="utf-8"?>
<!-- Generator: Adobe Illustrator 15.0.0, SVG Export Plug-In . SVG Version: 6.00 Build 0)  -->
<!DOCTYPE svg PUBLIC "-//W3C//DTD SVG 1.1//EN" "http://www.w3.org/Graphics/SVG/1.1/DTD/svg11.dtd">
<svg version="1.1" id="图层_1" xmlns="http://www.w3.org/2000/svg" xmlns:xlink="http://www.w3.org/1999/xlink" x="0px" y="0px"
	 width="400px" height="500px" viewBox="0 0 400 500" enable-background="new 0 0 400 500" xml:space="preserve">
<g>
	<g>
		<path fill-rule="evenodd" clip-rule="evenodd" fill="#0068B6" d="M192.926,202.992l-0.348,0.12
			c-1.016,0.346-1.971,0.818-2.97,1.204c-0.722,0.278-1.696,0.604-2.453,0.282c-0.409-0.174-0.688-0.504-0.877-0.898
			c-0.837-1.746-0.91-5.675-0.84-7.854c-0.75,0.006-1.411-0.203-1.807-0.785c-0.117-0.172-0.215-0.345-0.298-0.517
			c-1.564,0.229-3.174,0.189-4.782-0.114c-3.168-0.597-6.35-1.468-9.43-2.413c-4.125-1.265-8.202-2.729-12.204-4.335
			c-9.529-3.822-18.933-8.554-27.5-14.219c-5.165-3.414-10.125-7.24-14.566-11.561c-4.224-4.107-8.041-8.73-10.923-13.882
			c-7.417-13.258-10.305-28.032-5.017-42.598c4.098-11.285,12.656-20.835,22.991-26.823c10.32-6.009,22.854-8.712,34.686-6.68
			c15.271,2.623,26.672,12.453,34.516,25.468c8.575,15.482,10.746,33.991,9.751,51.426c-0.431,7.548-1.457,15.103-2.991,22.504
			c-1.055,5.083-2.359,10.292-4.05,15.206c-0.291,0.843-0.726,1.656-1.261,2.414c0.14,0.181,0.267,0.383,0.383,0.607
			c0.277,0.543,0.213,1.126-0.046,1.7c1.533,0.547,4.564,1.829,5.597,2.97c0.211,0.23,0.362,0.5,0.381,0.817
			c0.042,0.743-0.744,1.723-1.508,2.537c0.397,0.696,0.701,1.356,0.835,1.91c0.101,0.427,0.094,0.859-0.116,1.253
			c-0.385,0.725-1.348,1.084-2.084,1.322C194.975,202.382,193.935,202.617,192.926,202.992z"/>
		<linearGradient id="SVGID_1_" gradientUnits="userSpaceOnUse" x1="176.5132" y1="169.1372" x2="198.1761" y2="203.8051">
			<stop  offset="0" style="stop-color:#009FE8"/>
			<stop  offset="1" style="stop-color:#D2ECFA"/>
		</linearGradient>
		<path fill-rule="evenodd" clip-rule="evenodd" fill="url(#SVGID_1_)" d="M190.589,97.024
			c-18.968-31.472-49.65-29.877-68.855-18.694c-19.23,11.144-35.818,37.006-17.879,69.079c15.142,27.059,58.466,43.272,74.45,46.285
			c7.778,1.465,13.564-3.639,14.976-7.74C197.979,172.309,208.22,128.859,190.589,97.024z"/>
		<path fill-rule="evenodd" clip-rule="evenodd" fill="#00A2E8" d="M101.36,138.961c-7.631-22.979-1.039-44.731,13.676-51.416
			c15.949-7.27,5.762,21.387,14.02,40.826c11.935,28.156,32.777,46.013,25.906,49.404
			C140.621,184.882,106.976,155.635,101.36,138.961z"/>
		<path fill-rule="evenodd" clip-rule="evenodd" fill="#00A7EA" d="M101.609,139.312c-7.25-20.896-1.978-42.889,11.351-48.652
			c14.386-6.26,5.224,20.229,13.245,38.962c11.173,26.206,30.523,42.632,24.155,45.748
			C137.589,181.669,107.131,154.802,101.609,139.312z"/>
		<path fill-rule="evenodd" clip-rule="evenodd" fill="#00ADEB" d="M102.332,139.698c-6.868-18.811-2.916-41.05,9.026-45.887
			c12.824-5.253,4.684,19.071,12.469,37.098c10.411,24.253,28.27,39.252,22.404,42.091
			C135.032,178.492,107.761,154.004,102.332,139.698z"/>
		<path fill-rule="evenodd" clip-rule="evenodd" fill="#00B5ED" d="M103.376,140.107c-6.488-16.728-3.855-39.209,6.701-43.122
			c11.261-4.246,4.144,17.911,11.693,35.232c9.65,22.304,26.015,35.873,20.653,38.435
			C132.795,175.337,108.711,153.231,103.376,140.107z"/>
		<path fill-rule="evenodd" clip-rule="evenodd" fill="#3EBEEF" d="M104.651,140.534c-6.106-14.645-4.793-37.37,4.376-40.358
			c9.698-3.238,3.604,16.753,10.917,33.369c8.888,20.352,23.761,32.491,18.903,34.777C130.79,172.2,109.892,152.475,104.651,140.534
			z"/>
		<path fill-rule="evenodd" clip-rule="evenodd" fill="#73C9F2" d="M106.1,140.973c-5.724-12.56-5.732-35.526,2.052-37.592
			c8.135-2.231,3.064,15.594,10.141,31.504c8.128,18.4,21.507,29.112,17.154,31.121C128.959,169.077,111.248,151.732,106.1,140.973z
			"/>
		<path fill-rule="evenodd" clip-rule="evenodd" fill="#A3DAF6" d="M107.686,141.423c-5.343-10.477-6.671-33.687-0.273-34.827
			c6.573-1.224,2.525,14.435,9.365,29.639c7.366,16.449,19.253,25.731,15.403,27.464C127.265,165.963,112.741,151,107.686,141.423z"
			/>
		<path fill-rule="evenodd" clip-rule="evenodd" fill="#D2ECFA" d="M109.381,141.882c-4.962-8.393-7.609-31.846-2.598-32.064
			c5.011-0.216,1.984,13.277,8.589,27.774c6.605,14.5,17,22.352,13.654,23.809C125.678,162.858,114.343,150.275,109.381,141.882z"/>
		<path fill-rule="evenodd" clip-rule="evenodd" fill="#FFFFFF" d="M113.237,137.385c-3.637-8.239-4.936-16.266-5.147-24.482
			c-0.009-1.013-1.665-1.526-1.864-0.487c-0.66,3.15-0.726,6.805-0.458,10.165c0.407,5.109,1.676,10.349,3.878,15.416
			c0.067,0.218,0.189,0.424,0.363,0.605c0.54,0.567,1.355,0.692,2.012,0.604c0.69-0.093,1.413-0.453,1.411-1.179
			C113.431,137.811,113.362,137.59,113.237,137.385L113.237,137.385z M111.862,142.467L111.862,142.467
			c3.227,5.77,7.598,10.942,12.912,15.439c0.038,0.032,0.076,0.064,0.113,0.096c0.025,0.021,0.016,0.016,0.069,0.058
			c0.377,0.291,0.899,0.352,1.217,0.094c0.374-0.303,0.283-0.794-0.033-1.165c-0.033-0.039-0.067-0.078-0.099-0.114
			c-4.296-4.944-8.085-10.186-11.002-15.757L115,141.044l-0.052-0.07c-0.166-0.223-0.38-0.413-0.628-0.553
			c-0.638-0.36-1.373-0.338-1.91-0.08C111.617,140.723,111.317,141.583,111.862,142.467z"/>
		<path fill-rule="evenodd" clip-rule="evenodd" fill="#009EE7" d="M187.561,93.655c-15.074-19.531-37.425-26.244-51.721-17.493
			c-15.511,9.473,14.814,17.037,26.51,35.094c16.96,26.134,19.955,49.235,26.86,45.301
			C203.643,148.363,198.452,107.894,187.561,93.655z"/>
		<path fill-rule="evenodd" clip-rule="evenodd" fill="#009BE4" d="M187.724,94.244c-13.525-18.026-35.312-26-48.009-17.907
			c-13.742,8.711,14.144,15.92,25.377,33.376c15.746,24.378,18.398,46.08,24.774,42.419
			C202.693,144.819,197.663,107.731,187.724,94.244z"/>
		<path fill-rule="evenodd" clip-rule="evenodd" fill="#0099E2" d="M187.631,95.134c-11.977-16.519-33.197-25.757-44.298-18.321
			c-11.971,7.951,13.475,14.803,24.248,31.658c14.53,22.623,16.841,42.927,22.687,39.538
			C201.489,141.577,196.62,107.872,187.631,95.134z"/>
		<path fill-rule="evenodd" clip-rule="evenodd" fill="#0095DE" d="M187.367,96.228c-10.428-15.012-31.084-25.515-40.587-18.736
			c-10.199,7.19,12.805,13.687,23.117,29.941c13.317,20.869,15.284,39.773,20.6,36.657
			C200.113,138.539,195.404,108.215,187.367,96.228z"/>
		<path fill-rule="evenodd" clip-rule="evenodd" fill="#0091DA" d="M186.979,97.468c-8.879-13.506-28.969-25.27-36.875-19.149
			c-8.43,6.43,12.136,12.569,21.984,28.222c12.104,19.114,13.729,36.621,18.514,33.776
			C198.614,135.648,194.066,108.707,186.979,97.468z"/>
		<path fill-rule="evenodd" clip-rule="evenodd" fill="#008CD6" d="M186.497,98.821c-7.331-12-26.854-25.028-33.165-19.563
			c-6.658,5.668,11.467,11.451,20.854,26.502c10.891,17.36,12.171,33.467,16.429,30.896
			C197.021,132.868,192.634,109.308,186.497,98.821z"/>
		<path fill-rule="evenodd" clip-rule="evenodd" fill="#0087D1" d="M185.943,100.259c-5.783-10.493-24.741-24.783-29.455-19.979
			c-4.887,4.91,10.797,10.336,19.722,24.786c9.677,15.604,10.616,30.313,14.341,28.015
			C195.354,130.174,191.127,109.996,185.943,100.259z"/>
		<path fill-rule="evenodd" clip-rule="evenodd" fill="#0080CA" d="M185.329,101.768c-4.233-8.987-22.625-24.54-25.742-20.392
			c-3.117,4.149,10.128,9.219,18.59,23.067c8.463,13.85,9.059,27.16,12.256,25.134C193.629,127.551,189.562,110.755,185.329,101.768
			z"/>
	</g>
	<g>
		<path fill-rule="evenodd" clip-rule="evenodd" fill="#B50005" d="M192.272,203.663l-0.411-0.037
			c-1.198-0.114-2.392-0.065-3.591-0.128c-0.866-0.046-2.013-0.159-2.639-0.85c-0.339-0.375-0.472-0.853-0.486-1.355
			c-0.059-2.226,1.667-6.383,2.736-8.64c-0.773-0.345-1.353-0.873-1.491-1.669c-0.041-0.235-0.063-0.462-0.069-0.684
			c-1.705-0.492-3.334-1.286-4.841-2.357c-2.97-2.11-5.826-4.513-8.546-6.949c-3.643-3.258-7.144-6.703-10.505-10.263
			c-8.002-8.474-15.459-17.843-21.635-27.801c-3.723-6.003-7.047-12.342-9.615-18.957c-2.441-6.29-4.232-12.929-4.823-19.688
			c-1.52-17.392,2.289-34.253,14.37-47.072c9.361-9.93,22.493-15.95,35.811-17.4c13.314-1.479,27.379,1.552,38.558,9.225
			c14.429,9.902,21.597,25.559,23.666,42.896c1.686,20.268-4.567,40.717-13.567,58.555c-3.896,7.724-8.406,15.174-13.367,22.229
			c-3.405,4.843-7.124,9.702-11.105,14.068c-0.684,0.75-1.501,1.399-2.396,1.944c0.06,0.256,0.099,0.528,0.113,0.817
			c0.035,0.7-0.296,1.282-0.825,1.761c1.32,1.294,3.833,4.059,4.369,5.74c0.11,0.342,0.142,0.694,0.015,1.037
			c-0.297,0.799-1.55,1.46-2.704,1.957c0.088,0.918,0.097,1.751-0.021,2.396c-0.092,0.496-0.298,0.945-0.692,1.262
			c-0.727,0.581-1.876,0.506-2.739,0.413C194.649,203.981,193.478,203.742,192.272,203.663z"/>
		<linearGradient id="SVGID_2_" gradientUnits="userSpaceOnUse" x1="187.9976" y1="160.4854" x2="192.1636" y2="208.1034">
			<stop  offset="0" style="stop-color:#E50012"/>
			<stop  offset="1" style="stop-color:#B50005"/>
		</linearGradient>
		<path fill-rule="evenodd" clip-rule="evenodd" fill="url(#SVGID_2_)" d="M238.401,91.314
			c-5.002-41.922-37.133-54.609-61.91-51.859c-24.784,2.699-53.604,22.086-49.927,64.155c3.107,35.498,40.023,72.801,55.002,83.445
			c7.289,5.179,15.547,2.529,18.872-1.118C211.493,173.813,241.869,132.991,238.401,91.314z"/>
		<path fill-rule="evenodd" clip-rule="evenodd" fill="#E62318" d="M127.878,93.575c2.711-27.697,19.418-47.449,37.54-47.579
			c19.65-0.166-3.895,25.152-4.344,49.425c-0.679,35.147,12.477,63.652,3.891,63.995
			C147.034,160.164,125.991,113.709,127.878,93.575z"/>
		<path fill-rule="evenodd" clip-rule="evenodd" fill="#E73C22" d="M127.972,94.061c2.148-25.333,17.615-45.957,33.894-45.766
			c17.59,0.159-3.916,23.684-4.285,47.104c-0.564,32.743,11.719,59.047,3.775,59.338
			C145.401,155.372,126.531,112.907,127.972,94.061z"/>
		<path fill-rule="evenodd" clip-rule="evenodd" fill="#E9502E" d="M128.535,94.804c1.584-22.966,15.811-44.464,30.249-43.952
			c15.53,0.487-3.939,22.215-4.225,44.784c-0.45,30.338,10.959,54.443,3.657,54.68C144.24,150.839,127.541,112.365,128.535,94.804z"
			/>
		<path fill-rule="evenodd" clip-rule="evenodd" fill="#EA613B" d="M129.417,95.722c1.021-20.599,14.007-42.97,26.603-42.137
			c13.469,0.813-3.96,20.745-4.166,42.464c-0.335,27.932,10.201,49.839,3.541,50.019
			C143.395,146.481,128.867,111.998,129.417,95.722z"/>
		<path fill-rule="evenodd" clip-rule="evenodd" fill="#ED774F" d="M130.526,96.767c0.457-18.232,12.204-41.477,22.958-40.322
			c11.409,1.139-3.983,19.276-4.106,40.143c-0.221,25.528,9.442,45.235,3.424,45.362
			C142.779,142.249,130.422,111.757,130.526,96.767z"/>
		<path fill-rule="evenodd" clip-rule="evenodd" fill="#F08F69" d="M131.808,97.907c-0.107-15.867,10.4-39.984,19.313-38.507
			c9.348,1.466-4.005,17.806-4.045,37.822c-0.108,23.125,8.682,40.631,3.305,40.704C142.335,138.112,132.151,111.612,131.808,97.907
			z"/>
		<path fill-rule="evenodd" clip-rule="evenodd" fill="#F3AB8A" d="M133.225,99.121c-0.67-13.5,8.598-38.491,15.667-36.693
			c7.289,1.791-4.026,16.338-3.986,35.501c0.007,20.719,7.923,36.028,3.189,36.045C142.026,134.049,134.013,111.541,133.225,99.121z
			"/>
		<path fill-rule="evenodd" clip-rule="evenodd" fill="#F8CEB9" d="M134.75,100.395c-1.235-11.132,6.794-36.996,12.021-34.878
			c5.229,2.119-4.048,14.868-3.926,33.182c0.122,18.313,7.165,31.424,3.072,31.386C141.824,130.048,135.985,111.53,134.75,100.395z"
			/>
		<path fill-rule="evenodd" clip-rule="evenodd" fill="#FFFFFF" d="M140.755,97.48c0.051-10.352,2.396-19.388,5.941-28.114
			c0.456-1.067-1.004-2.381-1.685-1.384c-2.118,2.998-3.858,6.806-5.124,10.459c-1.922,5.554-3.024,11.649-3.088,17.999
			c-0.03,0.261,0.001,0.535,0.095,0.807c0.293,0.847,1.071,1.361,1.783,1.575c0.75,0.226,1.654,0.185,1.984-0.578
			C140.76,98.018,140.79,97.753,140.755,97.48L140.755,97.48z M137.022,102.173L137.022,102.173
			c0.659,7.566,2.765,15.044,6.145,22.252c0.023,0.052,0.047,0.104,0.071,0.154c0.016,0.034,0.01,0.025,0.045,0.093
			c0.251,0.484,0.756,0.79,1.202,0.668c0.521-0.144,0.652-0.703,0.499-1.24c-0.018-0.056-0.034-0.111-0.05-0.165
			c-2.131-7.204-3.61-14.48-4.045-21.694l-0.005-0.097l-0.021-0.097c-0.068-0.312-0.202-0.61-0.391-0.874
			c-0.487-0.678-1.25-0.999-1.917-0.979C137.569,100.225,136.867,100.988,137.022,102.173z"/>
		<path fill-rule="evenodd" clip-rule="evenodd" fill="#E40012" d="M236.845,86.359c-6.484-27.562-26.287-45.073-44.923-42.576
			c-20.212,2.683,7.361,24.821,11.062,49.255c5.392,35.375-2.12,61.03,6.748,60.132C228.254,151.325,241.473,106.407,236.845,86.359
			z"/>
		<path fill-rule="evenodd" clip-rule="evenodd" fill="#E30011" d="M236.742,87.052c-5.59-25.255-24.234-43.827-40.937-41.273
			c-18.051,2.714,7.187,23.334,10.692,46.921c4.952,32.966-2.27,56.992,5.932,56.131C228.904,147.159,240.74,105.867,236.742,87.052
			z"/>
		<path fill-rule="evenodd" clip-rule="evenodd" fill="#E00011" d="M236.239,87.944c-4.693-22.95-22.182-42.583-36.947-39.972
			c-15.892,2.745,7.013,21.85,10.319,44.587c4.514,30.555-2.419,52.953,5.115,52.131
			C229.158,143.191,239.607,105.525,236.239,87.944z"/>
		<path fill-rule="evenodd" clip-rule="evenodd" fill="#DF0011" d="M235.469,88.969c-3.799-20.642-20.13-41.337-32.961-38.669
			c-13.731,2.775,6.84,20.363,9.949,42.254c4.076,28.144-2.568,48.913,4.3,48.129C229.141,139.358,238.206,105.317,235.469,88.969z"
			/>
		<path fill-rule="evenodd" clip-rule="evenodd" fill="#DC0010" d="M234.503,90.09c-2.903-18.336-18.077-40.092-28.973-37.366
			c-11.57,2.804,6.666,18.877,9.579,39.92c3.636,25.733-2.718,44.875,3.481,44.128C228.931,135.621,236.611,105.206,234.503,90.09z"
			/>
		<path fill-rule="evenodd" clip-rule="evenodd" fill="#D8000F" d="M233.392,91.284c-2.008-16.03-16.024-38.847-24.984-36.064
			c-9.41,2.835,6.492,17.392,9.206,37.588c3.198,23.322-2.866,40.834,2.667,40.126C228.573,131.957,234.869,105.167,233.392,91.284z
			"/>
		<path fill-rule="evenodd" clip-rule="evenodd" fill="#D4000F" d="M232.165,92.536c-1.113-13.724-13.973-37.602-20.997-34.761
			c-7.25,2.864,6.317,15.904,8.836,35.253c2.758,20.912-3.017,36.795,1.851,36.125C228.101,128.349,233.013,105.185,232.165,92.536z
			"/>
		<path fill-rule="evenodd" clip-rule="evenodd" fill="#CF000E" d="M230.847,93.832c-0.218-11.417-11.92-36.355-17.01-33.459
			c-5.089,2.897,6.145,14.419,8.465,32.92c2.32,18.502-3.165,32.756,1.035,32.124C227.536,124.787,231.064,105.249,230.847,93.832z"
			/>
	</g>
	<linearGradient id="SVGID_3_" gradientUnits="userSpaceOnUse" x1="192.4614" y1="245.8008" x2="196.0562" y2="194.3924">
		<stop  offset="0" style="stop-color:#E50012"/>
		<stop  offset="1" style="stop-color:#860000"/>
	</linearGradient>
	<polygon fill-rule="evenodd" clip-rule="evenodd" fill="url(#SVGID_3_)" points="192.142,186.64 192.942,282.05 194.364,282.311 
		193.441,189.305 	"/>
	<path fill-rule="evenodd" clip-rule="evenodd" fill="#640000" d="M241.683,389.377l9.01,37.589l-6.785,4.166l4.959,8.704
		l-100.576-7.755c3.214-53.127,6.465-106.417,9.687-159.6l68.598-3.262L241.683,389.377L241.683,389.377z M192.785,282.236
		c-4.624,0.22-8.212,4.256-7.997,8.998c0.214,4.741,4.15,8.419,8.774,8.199c4.626-0.22,8.215-4.255,8-8.997
		S197.41,282.017,192.785,282.236z"/>
	<linearGradient id="SVGID_4_" gradientUnits="userSpaceOnUse" x1="272.9727" y1="468.334" x2="149.3068" y2="298.1225">
		<stop  offset="0" style="stop-color:#FCCF00"/>
		<stop  offset="1" style="stop-color:#FFF57F"/>
	</linearGradient>
	<path fill-rule="evenodd" clip-rule="evenodd" fill="url(#SVGID_4_)" d="M158.351,272.872l67.876-3.228l15.064,119.807
		l8.852,37.405l-101.412,4.823L158.351,272.872L158.351,272.872z M192.767,281.83L192.767,281.83
		c-4.852,0.23-8.601,4.449-8.375,9.423c0.224,4.973,4.339,8.818,9.19,8.588c4.85-0.23,8.603-4.451,8.377-9.424
		S197.617,281.6,192.767,281.83z"/>
	<polygon fill-rule="evenodd" clip-rule="evenodd" fill="#E8A900" points="148.731,431.68 250.144,426.856 243.365,430.988 	"/>
	<polygon fill-rule="evenodd" clip-rule="evenodd" fill="#FCCF00" points="148.731,431.68 248.142,439.372 243.365,430.988 	"/>
	<linearGradient id="SVGID_5_" gradientUnits="userSpaceOnUse" x1="207.1377" y1="435.4316" x2="165.2368" y2="349.5221">
		<stop  offset="0" style="stop-color:#FCCF00"/>
		<stop  offset="1" style="stop-color:#FFF57F"/>
	</linearGradient>
	<polygon fill-rule="evenodd" clip-rule="evenodd" fill="url(#SVGID_5_)" points="148.731,431.68 241.288,389.449 250.144,426.856 	
		"/>
	<path fill="#FFFBDA" d="M240.837,431.008l3.072,5.227l-89.971-4.806l-0.879-1.721l-1.471-2.528l8.637-152.122l63.935-2.547
		l15.428,117.719l8.23,36.737L240.837,431.008L240.837,431.008z M240.333,434.109L240.333,434.109l-1.784-3.087l7.798-3.985
		l-8.438-36.045L222.61,274.405l-60.708,2.395l-8.508,149.41l1.885,2.48l0.915,1.878L240.333,434.109z"/>
	<polygon fill="#FFF57F" points="240.838,431.008 243.909,436.233 157.42,431.615 177.584,431.469 240.333,434.109 240.333,434.109 
		238.55,431.022 240.838,431.008 	"/>
	<path fill-rule="evenodd" clip-rule="evenodd" fill="#640000" d="M192.894,282.64c4.382-0.208,8.104,3.262,8.308,7.763
		c0.203,4.494-3.188,8.313-7.572,8.522c-4.388,0.209-8.111-3.273-8.313-7.768C185.111,286.656,188.504,282.848,192.894,282.64
		L192.894,282.64z M192.767,279.858L192.767,279.858c-5.883,0.279-10.44,5.396-10.167,11.428
		c0.273,6.032,5.272,10.698,11.155,10.419c5.876-0.28,10.433-5.4,10.161-11.433C203.644,284.241,198.644,279.579,192.767,279.858z"
		/>
	<path fill-rule="evenodd" clip-rule="evenodd" fill="#8E3410" d="M192.777,280.065c-5.769,0.275-10.236,5.298-9.967,11.212
		c0.267,5.915,5.168,10.487,10.937,10.212c5.761-0.273,10.229-5.29,9.962-11.207C203.439,284.369,198.538,279.791,192.777,280.065
		L192.777,280.065z M192.884,282.425L192.884,282.425c4.495-0.213,8.312,3.35,8.52,7.968c0.209,4.611-3.27,8.53-7.763,8.743
		c-4.505,0.214-8.319-3.357-8.528-7.969C184.904,286.548,188.379,282.64,192.884,282.425z"/>
	<path fill-rule="evenodd" clip-rule="evenodd" fill="#BC7647" d="M192.787,280.278c-5.656,0.268-10.031,5.19-9.768,10.988
		c0.263,5.801,5.062,10.284,10.719,10.016c5.649-0.27,10.022-5.188,9.761-10.99C203.236,284.494,198.437,280.009,192.787,280.278
		L192.787,280.278z M192.874,282.21L192.874,282.21c4.611-0.219,8.524,3.439,8.739,8.173c0.213,4.726-3.353,8.738-7.964,8.957
		c-4.616,0.22-8.529-3.438-8.742-8.163C184.692,286.443,188.258,282.43,192.874,282.21z"/>
	<path fill-rule="evenodd" clip-rule="evenodd" fill="#FCE0AF" d="M192.801,280.589c-5.485,0.261-9.733,5.039-9.479,10.662
		c0.254,5.627,4.915,9.974,10.4,9.713c5.481-0.261,9.726-5.031,9.472-10.656C202.939,284.683,198.28,280.327,192.801,280.589
		L192.801,280.589z M192.86,281.901L192.86,281.901c4.779-0.229,8.836,3.561,9.059,8.466c0.221,4.903-3.477,9.066-8.255,9.292
		c-4.788,0.229-8.842-3.564-9.063-8.468C184.378,286.285,188.072,282.128,192.86,281.901z"/>
	<path fill="#FFF8B0" d="M153.936,431.432l-0.88-1.724l-0.001-0.002l2.223-1.016l0.911,1.876l8.445,0.357L153.936,431.432
		L153.936,431.432z M239.592,390.226L239.592,390.226v0.003l8.224,36.738l-1.472,0.07l-8.436-36.04v-0.006L239.592,390.226z"/>
	<polygon fill="#FFF8B0" points="158.591,303.809 160.224,275.058 224.159,272.511 228.633,306.647 226.829,306.573 222.61,274.405 
		161.903,276.8 160.361,303.879 	"/>
	<linearGradient id="SVGID_6_" gradientUnits="userSpaceOnUse" x1="195.1987" y1="252.3496" x2="198.5311" y2="214.26">
		<stop  offset="0" style="stop-color:#E50012"/>
		<stop  offset="1" style="stop-color:#860000"/>
	</linearGradient>
	<path fill-rule="evenodd" clip-rule="evenodd" fill="url(#SVGID_6_)" d="M198.184,198.851l-2.92,84.481
		c-0.404,0.264-0.899,0.046-1.088-0.615l2.778-80.895C197.264,192.782,198.328,194.64,198.184,198.851z"/>
	<polygon fill-rule="evenodd" clip-rule="evenodd" fill="#FFFFFF" points="140.518,74.856 96.659,77.845 140.419,73.691 
		126.201,61.118 141.338,72.778 141.855,50.955 142.508,72.698 167.744,43.353 143.471,73.313 196.761,66.15 143.488,74.426 
		175.935,101.686 142.553,75.5 142.031,97.194 141.397,75.73 119.751,98.358 	"/>
	<g>
		<path fill-rule="evenodd" clip-rule="evenodd" fill="#F6AA00" d="M188.114,206.066l-0.337-0.265
			c-0.981-0.779-2.054-1.417-3.065-2.152c-0.729-0.532-1.668-1.281-1.815-2.233c-0.08-0.514,0.08-1.001,0.359-1.442
			c1.236-1.948,5.147-4.545,7.387-5.879c-0.475-0.735-0.677-1.52-0.338-2.284c0.101-0.225,0.213-0.435,0.336-0.626
			c-1.206-1.393-2.171-3.003-2.869-4.783c-1.375-3.504-2.481-7.197-3.452-10.839c-1.299-4.875-2.367-9.831-3.247-14.807
			c-2.093-11.843-3.194-24.146-2.833-36.227c0.218-7.283,0.978-14.629,2.558-21.782c1.502-6.799,3.777-13.533,7.168-19.684
			c8.728-15.829,21.807-28.173,39.776-32.332c13.923-3.221,28.88-0.933,41.357,5.394c12.491,6.3,23.032,16.907,28.366,29.866
			c6.884,16.727,4.097,34.276-4.12,50.371c-10.246,18.4-27.533,32.441-45.714,42.671c-7.871,4.431-16.12,8.277-24.533,11.526
			c-5.778,2.231-11.837,4.296-17.842,5.79c-1.03,0.256-2.121,0.349-3.217,0.311c-0.097,0.254-0.22,0.51-0.374,0.767
			c-0.373,0.623-1,0.935-1.739,1.046c0.403,1.863,1.004,5.672,0.5,7.424c-0.102,0.356-0.278,0.677-0.588,0.899
			c-0.721,0.52-2.198,0.376-3.495,0.147c-0.453,0.84-0.928,1.562-1.402,2.049c-0.367,0.375-0.807,0.645-1.335,0.692
			c-0.97,0.088-1.933-0.63-2.632-1.202C190.006,207.693,189.12,206.819,188.114,206.066z"/>
		<linearGradient id="SVGID_7_" gradientUnits="userSpaceOnUse" x1="210.0742" y1="172.3442" x2="195.3878" y2="202.4559">
			<stop  offset="0" style="stop-color:#FFF000"/>
			<stop  offset="1" style="stop-color:#FFFFFF"/>
		</linearGradient>
		<path fill-rule="evenodd" clip-rule="evenodd" fill="url(#SVGID_7_)" d="M293.082,136.227c19.867-38.92-0.88-68.112-24.124-79.835
			c-23.221-11.774-59.618-11.482-80.731,26.81c-17.808,32.312-7.112,85.408-0.176,103.086c3.375,8.603,12.125,11.019,17.139,9.771
			C221.863,191.913,272.015,174.06,293.082,136.227z"/>
		<g>
			<linearGradient id="SVGID_8_" gradientUnits="userSpaceOnUse" x1="199.3198" y1="199.9678" x2="181.8423" y2="204.6509">
				<stop  offset="0" style="stop-color:#FFF000"/>
				<stop  offset="1" style="stop-color:#FFFFFF"/>
			</linearGradient>
			<path fill-rule="evenodd" clip-rule="evenodd" fill="url(#SVGID_8_)" d="M188.132,205.698l-0.165-0.13
				c-2.591-2.059-5.849-3.244-4.459-5.44c1.024-1.612,4.398-4.063,7.302-5.789c0.496,0.671,1.202,1.294,1.906,1.813
				c-0.27,0.379-0.508,0.749-0.707,1.07c-1.014,1.642-2.918,5.131-3.038,6.983c-0.024,0.367,0.033,0.721,0.252,1.021
				c0.785,1.085,3.826,1.19,5.116,1.338l0.079,0.011l0.111,0.013l0.012,0.002c0.38,0.069,0.906,0.187,1.486,0.296
				c-0.442,0.811-0.883,1.476-1.298,1.902c-1.828,1.862-3.775-0.977-6.427-2.959L188.132,205.698z"/>
			<path fill-rule="evenodd" clip-rule="evenodd" fill="#B50005" d="M190.845,191.417c-0.097,0.158-0.186,0.329-0.266,0.51
				c-0.717,1.612,1.509,3.743,4.144,5.13c2.705,1.248,5.774,1.74,6.686,0.222c0.127-0.211,0.23-0.423,0.314-0.634
				c-2.05-0.119-4.11-0.688-5.851-1.507C193.917,194.217,192.23,192.955,190.845,191.417z"/>
			<linearGradient id="SVGID_9_" gradientUnits="userSpaceOnUse" x1="201.96" y1="199.9663" x2="188.9414" y2="203.4546">
				<stop  offset="0" style="stop-color:#FFF000"/>
				<stop  offset="1" style="stop-color:#FFFFFF"/>
			</linearGradient>
			<path fill-rule="evenodd" clip-rule="evenodd" fill="url(#SVGID_9_)" d="M192.263,197.373c-0.976,1.581-2.879,5.1-2.993,6.843
				c-0.019,0.297,0.021,0.588,0.197,0.832c0.696,0.961,3.773,1.087,4.915,1.22l0.082,0.011l0.114,0.013l0.024,0.004
				c1.121,0.203,4.075,0.972,5.064,0.261c0.251-0.18,0.389-0.446,0.471-0.735c0.481-1.673-0.118-5.512-0.513-7.315
				c-1.735,0.136-3.951-0.68-5.033-1.181l-0.006-0.002l-0.008-0.004c-0.43-0.226-1.015-0.569-1.62-0.996
				C192.694,196.692,192.461,197.054,192.263,197.373z"/>
			<path fill-rule="evenodd" clip-rule="evenodd" fill="#FFF000" d="M194.288,74.133c18.385-22.292,44.405-29.787,60.318-19.593
				c17.271,11.032-17.946,19.428-32.374,40.059c-20.916,29.859-25.898,61.869-33.602,57.282
				C172.528,142.327,180.998,90.384,194.288,74.133z"/>
			<path fill-rule="evenodd" clip-rule="evenodd" fill="#FFF105" d="M194.091,74.604c16.523-20.578,41.966-29.528,56.083-20.105
				c15.281,10.141-17.117,18.152-30.98,38.097c-19.426,27.854-23.899,57.476-31.009,53.206
				C173.873,137.275,181.933,90.002,194.091,74.604z"/>
			<path fill-rule="evenodd" clip-rule="evenodd" fill="#FFF23A" d="M194.153,75.563c14.663-18.859,39.525-29.268,51.848-20.616
				c13.293,9.251-16.286,16.875-29.586,36.134c-17.934,25.851-21.901,53.082-28.419,49.131
				C175.479,132.713,183.128,90.109,194.153,75.563z"/>
			<path fill-rule="evenodd" clip-rule="evenodd" fill="#FFF359" d="M194.392,76.855c12.802-17.145,37.087-29.01,47.614-21.128
				c11.303,8.359-15.456,15.598-28.193,34.171c-16.443,23.846-19.902,48.688-25.827,45.055
				C177.259,128.482,184.501,90.548,194.392,76.855z"/>
			<path fill-rule="evenodd" clip-rule="evenodd" fill="#FFF474" d="M194.757,78.384c10.941-15.43,34.647-28.75,43.38-21.64
				c9.312,7.468-14.626,14.321-26.799,32.208c-14.954,21.842-17.905,44.295-23.237,40.98C179.169,124.49,186,91.226,194.757,78.384z
				"/>
			<path fill-rule="evenodd" clip-rule="evenodd" fill="#FFF691" d="M195.219,80.094c9.08-13.713,32.207-28.491,39.143-22.152
				c7.324,6.578-13.795,13.044-25.404,30.245c-13.464,19.837-15.905,39.902-20.646,36.906
				C181.171,120.677,187.594,92.083,195.219,80.094z"/>
			<path fill-rule="evenodd" clip-rule="evenodd" fill="#FFF9B4" d="M195.755,81.945c7.22-11.998,29.768-28.231,34.908-22.664
				c5.334,5.688-12.964,11.769-24.011,28.283c-11.973,17.832-13.907,35.508-18.054,32.83
				C183.251,117.007,189.263,93.082,195.755,81.945z"/>
			<path fill-rule="evenodd" clip-rule="evenodd" fill="#FFFBDA" d="M196.351,83.91c5.358-10.283,27.329-27.972,30.674-23.176
				c3.344,4.796-12.135,10.492-22.617,26.32s-11.907,31.113-15.463,28.755C185.389,113.449,190.992,94.193,196.351,83.91z"/>
			<path fill-rule="evenodd" clip-rule="evenodd" fill="#FFFFFF" d="M203.286,84.816c6.028-8.879,13.303-15.321,21.448-20.813
				c1.015-0.66,0.497-2.62-0.673-2.148c-3.584,1.375-7.307,3.661-10.524,6.086c-4.894,3.686-9.379,8.304-13.107,13.731
				c-0.177,0.206-0.309,0.46-0.384,0.748c-0.233,0.896,0.15,1.781,0.646,2.37c0.525,0.621,1.34,1.099,2.068,0.631
				C202.979,85.281,203.156,85.07,203.286,84.816L203.286,84.816z M197.309,86.73c0.55-1.106,1.604-1.364,2.483-0.828
				c0.595,0.362,1.075,1.071,1.109,1.931c0.014,0.335-0.043,0.668-0.163,0.974l-0.039,0.097l-0.051,0.086
				c-3.791,6.456-6.707,13.558-9.007,20.968c-0.017,0.056-0.035,0.112-0.053,0.17c-0.176,0.55-0.614,0.955-1.152,0.782
				c-0.459-0.148-0.723-0.699-0.665-1.259c0.009-0.079,0.008-0.066,0.015-0.105c0.008-0.057,0.017-0.114,0.026-0.172
				C191.028,101.25,193.51,93.618,197.309,86.73L197.309,86.73z"/>
			<path fill-rule="evenodd" clip-rule="evenodd" fill="#FFEF00" d="M294.046,129.208c10.091-27.056,2.784-53.141-14.947-61.593
				c-19.217-9.188-7.759,25.228-18.493,48.054c-15.517,33.063-37.072,51.813-28.801,56.081
				C249.064,180.69,286.629,148.835,294.046,129.208z"/>
			<path fill-rule="evenodd" clip-rule="evenodd" fill="#FFED00" d="M293.575,129.705c9.555-24.592,3.867-50.92-12.205-58.226
				c-17.343-7.937-7.059,23.87-17.482,45.863c-14.521,30.769-34.848,48.126-27.182,52.047
				C252.076,177.315,286.312,147.93,293.575,129.705z"/>
			<path fill-rule="evenodd" clip-rule="evenodd" fill="#FFEC00" d="M292.631,130.167c9.02-22.127,4.949-48.699-9.461-54.86
				c-15.47-6.685-6.361,22.51-16.473,43.674c-13.527,28.476-32.624,44.436-25.563,48.012
				C254.615,173.905,285.521,146.988,292.631,130.167z"/>
			<path fill-rule="evenodd" clip-rule="evenodd" fill="#FFEA00" d="M291.368,130.604c8.482-19.664,6.032-46.479-6.719-51.494
				c-13.598-5.434-5.662,21.151-15.463,41.483c-12.531,26.184-30.399,40.747-23.942,43.977
				C256.835,170.469,284.413,146.023,291.368,130.604z"/>
			<path fill-rule="evenodd" clip-rule="evenodd" fill="#FFE700" d="M289.874,131.023c7.947-17.2,7.115-44.259-3.974-48.127
				c-11.726-4.183-4.966,19.792-14.453,39.294c-11.537,23.888-28.175,37.056-22.325,39.939
				C258.825,167.016,283.073,145.04,289.874,131.023z"/>
			<path fill-rule="evenodd" clip-rule="evenodd" fill="#FFE500" d="M288.207,131.429c7.41-14.735,8.198-42.039-1.23-44.76
				c-9.854-2.933-4.267,18.433-13.443,37.103c-10.542,21.596-25.951,33.367-20.706,35.906
				C260.641,163.55,281.56,144.042,288.207,131.429z"/>
			<path fill-rule="evenodd" clip-rule="evenodd" fill="#FDE100" d="M286.403,131.823c6.876-12.271,9.282-39.817,1.513-41.393
				c-7.98-1.68-3.569,17.074-12.434,34.914c-9.546,19.302-23.727,29.678-19.086,31.87
				C262.321,160.074,279.91,143.033,286.403,131.823z"/>
			<path fill-rule="evenodd" clip-rule="evenodd" fill="#FCDD00" d="M284.49,132.211c6.34-9.808,10.365-37.599,4.258-38.028
				c-6.108-0.429-2.872,15.715-11.424,32.724c-8.551,17.009-21.502,25.987-17.468,27.834
				C263.892,156.588,278.151,142.018,284.49,132.211z"/>
			<path fill-rule="evenodd" clip-rule="evenodd" fill="#F6AA00" d="M191.434,193.06c0.217,2.354,7.065,5.219,8.422,4.061
				C198.435,197.201,193.307,195.659,191.434,193.06z"/>
			<path fill-rule="evenodd" clip-rule="evenodd" fill="#FFFFFF" d="M190.894,194.928c-1.536,0.938-7.127,4.515-6.875,6.142
				c0.223,1.441,3.664,3.124,4.754,3.99c-0.879-1.97-2.839-2.298-3.545-3.99C184.607,199.582,188.308,197.654,190.894,194.928z"/>
		</g>
	</g>
	<polygon fill-rule="evenodd" clip-rule="evenodd" fill="#FFFFFF" points="190.556,116.626 147.984,119.526 190.459,115.495 
		176.659,103.292 191.351,114.609 191.854,93.426 192.486,114.53 216.981,86.046 193.421,115.127 245.146,108.176 193.438,116.208 
		224.932,142.668 192.53,117.251 192.024,138.308 191.409,117.475 170.398,139.438 	"/>
</g>
<text transform="matrix(1 0 0 1 172.6665 369.667)" font-family="'STXinwei'" font-size="24">开始</text>
</svg>
