<?xml version="1.0" encoding="utf-8"?>
<!-- Generator: Adobe Illustrator 15.0.0, SVG Export Plug-In . SVG Version: 6.00 Build 0)  -->
<!DOCTYPE svg PUBLIC "-//W3C//DTD SVG 1.1//EN" "http://www.w3.org/Graphics/SVG/1.1/DTD/svg11.dtd">
<svg version="1.1" id="图层_1" xmlns="http://www.w3.org/2000/svg" xmlns:xlink="http://www.w3.org/1999/xlink" x="0px" y="0px"
	 width="110.667px" height="110.5px" viewBox="0 0 110.667 110.5" enable-background="new 0 0 110.667 110.5" xml:space="preserve">
<g>
	<g>
		
			<linearGradient id="SVGID_1_" gradientUnits="userSpaceOnUse" x1="1676.5352" y1="93.5835" x2="1676.5352" y2="33.0217" gradientTransform="matrix(-1 0 0 1 1731.9883 0)">
			<stop  offset="0.0051" style="stop-color:#E28100"/>
			<stop  offset="0.335" style="stop-color:#E28100"/>
			<stop  offset="0.7005" style="stop-color:#FFE66D"/>
			<stop  offset="0.7767" style="stop-color:#FFD400"/>
			<stop  offset="1" style="stop-color:#E28100"/>
		</linearGradient>
		<path fill="url(#SVGID_1_)" d="M51.197,55.341c1.044,2.293,2.848,4.458,3.167,7.023c0.128,1.023-0.114,1.998-0.602,2.905
			c-0.24,0.444-0.565,1.007-0.985,1.412c-0.567-1.016-1.396-1.475-2.597-0.865c-0.018,0.014-0.023,0.03-0.014,0.052
			c0.227,0.557,0.497,1.073,1.031,1.382c0.465,0.268,0.925,0.259,1.345,0.091c0.021,0.058,0.04,0.115,0.059,0.173
			c0.259,0.819,0.432,1.669,0.547,2.531c0.185-0.012,0.37-0.02,0.555-0.025c-0.146-1.097-0.374-2.127-0.721-2.922
			c0.356-0.248,0.669-0.592,0.906-0.941c1.177-1.738,1.342-3.51,0.558-5.463c-0.995-2.475-2.565-4.636-3.438-7.176
			c-0.946-2.749-1.523-5.685-1.268-8.603c0.249-2.861,1.273-5.28,2.562-7.809c0.507-0.993,1.151-2.168,2.233-2.631
			c1.537-0.66,3.385,0.216,4.214,1.621c0.261,0.442,0.424,1.048,0.386,1.617c-0.254-0.083-0.508-0.124-0.749-0.109
			c-0.613,0.039-2.066,0.523-1.443,1.379c0.321,0.441,1.15,0.644,1.649,0.447c0.614-0.24,0.943-0.696,1.061-1.225
			c0.805,0.507,1.293,1.536,0.904,2.212c-0.417-0.061-0.796,0.091-0.96,0.621c-0.047,0.152,0.437,0.208,0.518,0.19
			c0.365-0.081,0.631-0.209,0.82-0.366c0.086,0.075,0.154,0.192,0.188,0.355c0.096,0.48,0.071,0.94-0.068,1.407
			c-0.193,0.653-0.468,1.272-0.696,1.912c-0.044,0.124,0.519,0.297,0.57,0.153c0.353-0.986,1.617-3.271,0.245-4.049
			c-0.009-0.006-0.018-0.01-0.027-0.014c0.507-0.793-0.367-2.051-1.451-2.666c0.089-0.855-0.306-1.84-0.901-2.42
			c-1.21-1.176-2.858-1.934-4.536-1.376c-0.875,0.292-1.548,1.083-2.008,1.851c-0.616,1.028-1.195,2.144-1.675,3.24
			c-1.125,2.563-1.627,5.358-1.411,8.155C49.371,50.134,50.065,52.854,51.197,55.341z M52.021,67.153
			c-0.451,0.134-0.745-0.117-0.96-0.497c-0.042-0.072-0.404-0.625-0.222-0.705c0.341-0.147,0.681-0.203,0.967,0.091
			c0.259,0.268,0.449,0.593,0.596,0.936C52.282,67.053,52.156,67.113,52.021,67.153z M58.45,39.026
			c-0.662,0.455-1.567-0.24-0.82-0.778c0.494-0.354,1.009-0.409,1.473-0.285C59.026,38.384,58.826,38.768,58.45,39.026z"/>
		<linearGradient id="SVGID_2_" gradientUnits="userSpaceOnUse" x1="55.6714" y1="35.6665" x2="55.6714" y2="34.9455">
			<stop  offset="0" style="stop-color:#FFE66D"/>
			<stop  offset="0.302" style="stop-color:#FFD400"/>
			<stop  offset="1" style="stop-color:#E28100"/>
		</linearGradient>
		<path fill="url(#SVGID_2_)" d="M55.455,34.699c0,0-0.504,0.457-0.504,0.937c0,0,0.673,0.41,1.442-0.167
			C56.393,35.469,56.297,34.938,55.455,34.699z"/>
		<g>
			<linearGradient id="SVGID_3_" gradientUnits="userSpaceOnUse" x1="55.606" y1="36.2725" x2="55.606" y2="20.8045">
				<stop  offset="0" style="stop-color:#FFE66D"/>
				<stop  offset="0.302" style="stop-color:#FFD400"/>
				<stop  offset="1" style="stop-color:#E28100"/>
			</linearGradient>
			<path fill="url(#SVGID_3_)" d="M64.457,13.965c-1.593-3.283-4.957-5.548-8.851-5.548c-3.894,0-7.258,2.265-8.851,5.548l0,0
				c0,0-6.782,11.568,8.851,20.309C71.238,25.533,64.457,13.965,64.457,13.965z"/>
		</g>
		<linearGradient id="SVGID_4_" gradientUnits="userSpaceOnUse" x1="55.606" y1="34.8301" x2="55.606" y2="34.2573">
			<stop  offset="0" style="stop-color:#FFE66D"/>
			<stop  offset="0.302" style="stop-color:#FFD400"/>
			<stop  offset="1" style="stop-color:#E28100"/>
		</linearGradient>
		<ellipse fill="url(#SVGID_4_)" cx="55.606" cy="34.404" rx="0.481" ry="0.442"/>
		<linearGradient id="SVGID_5_" gradientUnits="userSpaceOnUse" x1="57.4565" y1="28.1445" x2="57.4565" y2="10.9723">
			<stop  offset="0" style="stop-color:#FFE66D"/>
			<stop  offset="0.302" style="stop-color:#FFD400"/>
			<stop  offset="1" style="stop-color:#E28100"/>
		</linearGradient>
		<path fill="url(#SVGID_5_)" d="M49.088,18.728c0,5.626,3.86,10.188,8.622,10.188c3.313,0,6.187-2.209,7.631-5.447
			c1.503-5.282-0.979-9.52-0.979-9.52c-1.352-2.786-3.978-4.838-7.122-5.396C52.697,8.842,49.088,13.286,49.088,18.728z"/>
		<linearGradient id="SVGID_6_" gradientUnits="userSpaceOnUse" x1="55.7388" y1="12.5459" x2="55.7388" y2="33.1912">
			<stop  offset="0" style="stop-color:#FFFAE2"/>
			<stop  offset="0.4872" style="stop-color:#FFD400"/>
			<stop  offset="1" style="stop-color:#F1AC00"/>
		</linearGradient>
		<ellipse fill="url(#SVGID_6_)" cx="55.739" cy="15.754" rx="5.962" ry="6.16"/>
	</g>
	<g>
		<linearGradient id="SVGID_7_" gradientUnits="userSpaceOnUse" x1="67.2573" y1="112.3848" x2="55.1684" y2="80.4164">
			<stop  offset="0" style="stop-color:#FFD400"/>
			<stop  offset="1" style="stop-color:#E28100"/>
		</linearGradient>
		<path fill="url(#SVGID_7_)" d="M56.777,62.175c-0.164-0.194-0.338-0.379-0.522-0.554c-0.184-0.174-0.378-0.339-0.583-0.492
			c-0.204-0.155-0.417-0.299-0.64-0.433c-0.223-0.133-0.457-0.257-0.699-0.371c-0.263-0.123-0.538-0.229-0.822-0.317
			c-0.284-0.088-0.58-0.158-0.884-0.212c-0.306-0.053-0.621-0.09-0.947-0.108c-0.326-0.019-0.662-0.02-1.008-0.004
			c-0.335,0.016-0.666,0.047-0.991,0.095c-0.325,0.049-0.645,0.113-0.959,0.195c-0.313,0.081-0.623,0.178-0.926,0.292
			c-0.304,0.113-0.602,0.244-0.895,0.392c-0.293,0.146-0.578,0.305-0.854,0.474c-0.276,0.168-0.543,0.348-0.802,0.538
			c-0.259,0.189-0.51,0.391-0.751,0.603c-0.242,0.211-0.476,0.434-0.702,0.667c-0.226,0.232-0.441,0.473-0.646,0.72
			s-0.4,0.502-0.584,0.764c-0.185,0.261-0.36,0.53-0.524,0.807c-0.165,0.275-0.319,0.56-0.463,0.849
			c-0.145,0.291-0.277,0.585-0.398,0.881c-0.12,0.297-0.229,0.596-0.325,0.897c-0.097,0.303-0.181,0.608-0.253,0.916
			c-0.072,0.309-0.133,0.619-0.181,0.933l-0.018,0.122c-0.049,0.313-0.083,0.626-0.106,0.934c-0.022,0.31-0.032,0.616-0.028,0.919
			s0.021,0.605,0.05,0.902c0.03,0.299,0.073,0.595,0.129,0.888c0.056,0.294,0.125,0.578,0.206,0.855
			c0.082,0.276,0.176,0.545,0.283,0.806c0.107,0.259,0.227,0.512,0.36,0.755s0.279,0.479,0.438,0.705
			c0.056,0.078,0.112,0.156,0.17,0.233c0.059,0.076,0.119,0.15,0.181,0.225c0.062,0.073,0.125,0.146,0.189,0.217
			c0.065,0.069,0.13,0.14,0.199,0.207c2.475,2.472,4.95,4.944,7.425,7.416c-0.066-0.065-0.131-0.134-0.194-0.202
			c-0.063-0.069-0.125-0.139-0.185-0.21c-0.06-0.072-0.119-0.145-0.175-0.218c-0.058-0.075-0.113-0.15-0.167-0.228
			c-0.156-0.221-0.299-0.449-0.43-0.685c-0.13-0.235-0.249-0.479-0.354-0.732c-0.105-0.252-0.198-0.513-0.28-0.78
			c-0.081-0.269-0.15-0.543-0.207-0.827s-0.101-0.57-0.133-0.858c-0.031-0.289-0.05-0.579-0.057-0.874
			c-0.007-0.292,0-0.589,0.019-0.887c0.019-0.298,0.05-0.599,0.093-0.901l0.017-0.117c0.044-0.303,0.099-0.604,0.167-0.899
			c0.067-0.298,0.146-0.592,0.236-0.883c0.09-0.292,0.192-0.58,0.306-0.865c0.113-0.285,0.239-0.568,0.376-0.848
			c0.136-0.28,0.283-0.552,0.439-0.817c0.156-0.267,0.322-0.524,0.499-0.775c0.176-0.251,0.362-0.495,0.558-0.733
			c0.195-0.237,0.401-0.468,0.617-0.69c0.215-0.224,0.439-0.437,0.671-0.638c0.231-0.202,0.472-0.396,0.72-0.576
			c0.249-0.183,0.505-0.353,0.771-0.514c0.265-0.16,0.538-0.31,0.82-0.45c0.281-0.14,0.568-0.263,0.86-0.37
			c0.292-0.108,0.589-0.199,0.892-0.274c0.302-0.075,0.61-0.136,0.923-0.179c0.313-0.044,0.632-0.072,0.956-0.084
			c0.334-0.013,0.658-0.008,0.973,0.013c0.314,0.022,0.62,0.06,0.914,0.114c0.295,0.054,0.581,0.125,0.855,0.213
			c0.275,0.088,0.541,0.192,0.796,0.314c0.235,0.112,0.46,0.232,0.677,0.364c0.216,0.132,0.423,0.272,0.622,0.424
			c0.198,0.15,0.386,0.312,0.565,0.48c0.179,0.172,0.348,0.351,0.508,0.542C61.3,67.549,59.038,64.862,56.777,62.175z"/>
		<linearGradient id="SVGID_8_" gradientUnits="userSpaceOnUse" x1="46.7056" y1="80.5913" x2="58.2061" y2="80.5913">
			<stop  offset="0.4822" style="stop-color:#FFD400"/>
			<stop  offset="1" style="stop-color:#E28100"/>
		</linearGradient>
		<polygon fill="url(#SVGID_8_)" points="51.076,78.931 58.206,86.366 53.957,82.359 46.706,74.816 		"/>
		<linearGradient id="SVGID_9_" gradientUnits="userSpaceOnUse" x1="72.3071" y1="90.4849" x2="24.49" y2="95.0517">
			<stop  offset="0" style="stop-color:#FFD400"/>
			<stop  offset="1" style="stop-color:#E28100"/>
		</linearGradient>
		<path fill="url(#SVGID_9_)" d="M39.724,94.357c-2.629-2.33-5.259-4.658-7.889-6.987c0.36,0.319,0.735,0.624,1.124,0.915
			c0.39,0.292,0.795,0.569,1.215,0.833s0.855,0.514,1.306,0.749c0.451,0.236,0.917,0.458,1.398,0.666
			c0.669,0.289,1.359,0.541,2.072,0.756c0.714,0.216,1.451,0.394,2.208,0.536c0.76,0.142,1.542,0.247,2.346,0.313
			c0.806,0.068,1.633,0.098,2.483,0.09c0.652-0.006,1.298-0.034,1.939-0.085c0.643-0.051,1.279-0.124,1.911-0.219
			c0.632-0.096,1.259-0.213,1.88-0.354c0.622-0.139,1.239-0.302,1.85-0.485c0.611-0.186,1.213-0.388,1.806-0.608
			c0.594-0.222,1.179-0.461,1.754-0.72c0.576-0.258,1.143-0.533,1.699-0.828c0.557-0.296,1.105-0.607,1.643-0.938l6.859,7.186
			c-0.516,0.314-1.04,0.61-1.575,0.891c-0.533,0.279-1.076,0.541-1.628,0.786c-0.552,0.244-1.113,0.471-1.683,0.68
			c-0.569,0.208-1.147,0.398-1.734,0.571c-0.587,0.174-1.179,0.325-1.777,0.456c-0.597,0.13-1.2,0.238-1.808,0.325
			c-0.607,0.087-1.22,0.152-1.839,0.196c-0.617,0.044-1.24,0.067-1.868,0.068c-0.819,0.001-1.617-0.034-2.394-0.105
			c-0.775-0.071-1.53-0.178-2.264-0.319c-0.732-0.144-1.444-0.321-2.135-0.534c-0.689-0.213-1.357-0.462-2.005-0.744
			c-0.466-0.204-0.917-0.423-1.354-0.653c-0.437-0.231-0.859-0.475-1.267-0.732c-0.407-0.258-0.801-0.528-1.18-0.813
			C40.44,94.966,40.075,94.667,39.724,94.357z"/>
		<linearGradient id="SVGID_10_" gradientUnits="userSpaceOnUse" x1="72.6606" y1="94.478" x2="74.4516" y2="71.7344">
			<stop  offset="0.4822" style="stop-color:#FFD400"/>
			<stop  offset="1" style="stop-color:#E28100"/>
		</linearGradient>
		<path fill="url(#SVGID_10_)" d="M79.825,71.866c-0.072-0.707-0.183-1.4-0.332-2.079c-0.149-0.678-0.337-1.342-0.562-1.99
			c-0.148-0.424-0.31-0.84-0.484-1.243c-0.174-0.403-0.361-0.797-0.563-1.18c-0.2-0.382-0.413-0.755-0.64-1.117
			c-0.226-0.361-0.465-0.713-0.718-1.054c-2.079-2.811-4.157-5.62-6.236-8.432c0.259,0.351,0.504,0.712,0.736,1.084
			c0.232,0.373,0.451,0.755,0.656,1.149c0.205,0.394,0.396,0.8,0.574,1.216c0.178,0.416,0.342,0.844,0.493,1.282
			c0.229,0.669,0.419,1.354,0.569,2.055c0.149,0.702,0.259,1.418,0.329,2.151c0.069,0.732,0.098,1.481,0.086,2.246
			c-0.011,0.766-0.064,1.547-0.157,2.344c-0.074,0.629-0.168,1.245-0.284,1.846c-0.115,0.604-0.252,1.193-0.409,1.771
			c-0.158,0.579-0.337,1.147-0.537,1.705c-0.201,0.559-0.422,1.108-0.666,1.649c-0.243,0.544-0.502,1.076-0.777,1.601
			c-0.275,0.525-0.567,1.04-0.875,1.546s-0.632,1.003-0.972,1.49c-0.34,0.487-0.696,0.966-1.068,1.434l6.523,7.485
			c0.354-0.447,0.693-0.905,1.017-1.373c0.323-0.466,0.631-0.942,0.924-1.429c0.292-0.485,0.568-0.979,0.83-1.482
			c0.261-0.504,0.506-1.016,0.736-1.536s0.439-1.048,0.628-1.586c0.188-0.537,0.357-1.083,0.504-1.64
			c0.148-0.557,0.274-1.124,0.381-1.705c0.107-0.58,0.193-1.173,0.26-1.78c0.084-0.768,0.129-1.521,0.135-2.26
			C79.93,73.299,79.897,72.575,79.825,71.866z"/>
		<linearGradient id="SVGID_11_" gradientUnits="userSpaceOnUse" x1="65.8745" y1="84.4067" x2="75.0092" y2="96.9446">
			<stop  offset="0.0051" style="stop-color:#FFD400"/>
			<stop  offset="1" style="stop-color:#F1AD00"/>
		</linearGradient>
		<polygon fill="url(#SVGID_11_)" points="72.253,85.209 78.641,92.587 71.649,99.5 64.924,92.445 		"/>
		<g>
			
				<linearGradient id="SVGID_12_" gradientUnits="userSpaceOnUse" x1="41.2056" y1="46.7544" x2="52.7574" y2="81.4097" gradientTransform="matrix(1 0 0 1 2 3)">
				<stop  offset="0" style="stop-color:#FFEF9C"/>
				<stop  offset="0.4822" style="stop-color:#FFD400"/>
				<stop  offset="1" style="stop-color:#E28100"/>
			</linearGradient>
			<path fill="url(#SVGID_12_)" d="M73.647,63.709c-0.069-0.733-0.179-1.449-0.329-2.151c-0.15-0.7-0.339-1.386-0.569-2.055
				c-0.229-0.668-0.49-1.312-0.784-1.928c-0.292-0.617-0.617-1.208-0.973-1.774c-0.355-0.565-0.742-1.104-1.161-1.619
				c-0.417-0.515-0.867-1.004-1.347-1.469c-0.479-0.463-0.985-0.899-1.516-1.306c-0.53-0.405-1.085-0.782-1.667-1.131
				c-0.58-0.349-1.185-0.669-1.815-0.962c-0.629-0.291-1.283-0.555-1.962-0.79c-0.678-0.235-1.374-0.435-2.088-0.598
				c-0.712-0.163-1.442-0.291-2.19-0.383c-0.747-0.093-1.511-0.15-2.293-0.172c-0.781-0.021-1.58-0.009-2.396,0.04
				c-0.815,0.048-1.62,0.13-2.416,0.246c-0.794,0.115-1.578,0.264-2.352,0.446c-0.773,0.182-1.536,0.397-2.291,0.646
				c-0.753,0.25-1.497,0.532-2.232,0.849c-0.734,0.314-1.449,0.654-2.145,1.018c-0.695,0.363-1.371,0.749-2.028,1.16
				c-0.656,0.411-1.293,0.846-1.912,1.305c-0.619,0.458-1.218,0.941-1.798,1.448c-0.582,0.507-1.139,1.032-1.673,1.579
				c-0.534,0.545-1.045,1.109-1.533,1.694s-0.952,1.188-1.394,1.813c-0.442,0.624-0.86,1.269-1.255,1.933
				c-0.396,0.666-0.759,1.342-1.088,2.03c-0.33,0.689-0.626,1.392-0.889,2.108s-0.494,1.449-0.692,2.199
				c-0.198,0.751-0.363,1.519-0.497,2.306c-0.128,0.758-0.219,1.506-0.272,2.24c-0.054,0.737-0.07,1.461-0.048,2.175
				s0.08,1.417,0.177,2.108c0.097,0.692,0.232,1.373,0.406,2.042c0.173,0.671,0.379,1.32,0.617,1.948
				c0.237,0.628,0.508,1.235,0.81,1.821c0.303,0.587,0.639,1.152,1.008,1.694c0.369,0.544,0.771,1.064,1.206,1.565
				c0.436,0.501,0.9,0.977,1.393,1.424c0.493,0.449,1.014,0.871,1.564,1.267c0.551,0.396,1.13,0.766,1.738,1.107
				c0.61,0.344,1.249,0.658,1.916,0.947c0.669,0.289,1.359,0.541,2.072,0.756c0.714,0.216,1.451,0.394,2.208,0.536
				c0.76,0.142,1.542,0.247,2.346,0.313c0.806,0.068,1.633,0.098,2.483,0.09c0.652-0.006,1.298-0.034,1.939-0.085
				c0.643-0.051,1.279-0.124,1.911-0.219c0.632-0.096,1.259-0.213,1.88-0.354c0.622-0.139,1.239-0.302,1.85-0.485
				c0.611-0.186,1.213-0.388,1.806-0.608c0.594-0.222,1.179-0.461,1.754-0.72c0.576-0.258,1.143-0.533,1.699-0.828
				c0.557-0.296,1.105-0.607,1.643-0.938l4.454,4.454l7.329-7.236l-4.266-3.868c0.373-0.468,0.728-0.946,1.068-1.434
				c0.34-0.487,0.665-0.984,0.972-1.49s0.6-1.021,0.875-1.546c0.275-0.524,0.535-1.057,0.777-1.601
				c0.244-0.541,0.465-1.091,0.666-1.649c0.2-0.558,0.379-1.126,0.537-1.705c0.157-0.578,0.294-1.168,0.409-1.771
				c0.116-0.601,0.21-1.217,0.284-1.846c0.093-0.797,0.146-1.578,0.157-2.344C73.746,65.19,73.717,64.441,73.647,63.709z
				 M58.641,68.185c-0.015,0.313-0.043,0.63-0.086,0.95l-0.016,0.122c-0.026,0.196-0.06,0.398-0.1,0.603
				c-0.041,0.205-0.089,0.414-0.144,0.627c-0.055,0.215-0.117,0.433-0.186,0.653c-0.069,0.222-0.146,0.447-0.228,0.678l-4.134-3.986
				l-7.042,6.985l4.37,4.114c-0.262,0.09-0.524,0.17-0.786,0.238c-0.263,0.069-0.524,0.127-0.785,0.176
				c-0.261,0.047-0.521,0.085-0.782,0.111c-0.26,0.027-0.52,0.043-0.779,0.05c-0.353,0.008-0.694-0.002-1.025-0.029
				c-0.33-0.026-0.649-0.072-0.957-0.135c-0.308-0.063-0.604-0.144-0.889-0.242c-0.285-0.098-0.558-0.214-0.82-0.348
				c-0.263-0.134-0.512-0.278-0.749-0.435c-0.236-0.157-0.459-0.325-0.669-0.506c-0.211-0.18-0.408-0.373-0.592-0.576
				s-0.356-0.419-0.515-0.646c-0.159-0.227-0.305-0.462-0.438-0.705s-0.253-0.496-0.36-0.755c-0.107-0.261-0.201-0.529-0.283-0.806
				c-0.081-0.277-0.15-0.562-0.206-0.855c-0.056-0.293-0.099-0.589-0.129-0.888c-0.03-0.297-0.046-0.6-0.05-0.902
				s0.006-0.609,0.028-0.919c0.022-0.308,0.057-0.62,0.106-0.934l0.018-0.122c0.048-0.313,0.109-0.624,0.181-0.933
				c0.072-0.308,0.157-0.613,0.253-0.916c0.096-0.302,0.205-0.601,0.325-0.897c0.121-0.296,0.253-0.59,0.398-0.881
				c0.144-0.289,0.299-0.573,0.463-0.849c0.164-0.276,0.339-0.546,0.524-0.807c0.184-0.262,0.379-0.517,0.584-0.764
				s0.42-0.487,0.646-0.72c0.226-0.233,0.459-0.456,0.702-0.667c0.242-0.212,0.492-0.413,0.751-0.603
				c0.259-0.19,0.526-0.37,0.802-0.538c0.276-0.169,0.561-0.327,0.854-0.474c0.293-0.147,0.591-0.278,0.895-0.392
				c0.303-0.114,0.613-0.211,0.926-0.292c0.314-0.082,0.634-0.146,0.959-0.195c0.325-0.048,0.656-0.079,0.991-0.095
				c0.347-0.016,0.683-0.015,1.008,0.004c0.327,0.019,0.642,0.056,0.947,0.108c0.305,0.054,0.6,0.124,0.884,0.212
				c0.284,0.089,0.559,0.194,0.822,0.317c0.264,0.124,0.516,0.259,0.757,0.406s0.47,0.307,0.688,0.478
				c0.218,0.171,0.424,0.355,0.619,0.551c0.194,0.195,0.377,0.402,0.548,0.623c0.171,0.219,0.33,0.448,0.476,0.686
				s0.28,0.484,0.4,0.74c0.121,0.257,0.229,0.521,0.324,0.796c0.095,0.275,0.177,0.558,0.248,0.852
				c0.069,0.292,0.125,0.589,0.167,0.889c0.042,0.3,0.069,0.603,0.083,0.91C58.656,67.562,58.656,67.871,58.641,68.185z"/>
		</g>
		<linearGradient id="SVGID_13_" gradientUnits="userSpaceOnUse" x1="60.4707" y1="93.7456" x2="71.6489" y2="93.7456">
			<stop  offset="0" style="stop-color:#FFD400"/>
			<stop  offset="1" style="stop-color:#E28100"/>
		</linearGradient>
		<polygon fill="url(#SVGID_13_)" points="64.924,92.445 71.649,99.5 67.33,95.177 60.471,87.991 		"/>
	</g>
</g>
</svg>
