<?xml version="1.0" encoding="utf-8"?>
<!-- Generator: Adobe Illustrator 15.0.0, SVG Export Plug-In . SVG Version: 6.00 Build 0)  -->
<!DOCTYPE svg PUBLIC "-//W3C//DTD SVG 1.1//EN" "http://www.w3.org/Graphics/SVG/1.1/DTD/svg11.dtd">
<svg version="1.1" id="图层_1" xmlns="http://www.w3.org/2000/svg" xmlns:xlink="http://www.w3.org/1999/xlink" x="0px" y="0px"
	 width="110.667px" height="110.5px" viewBox="0 0 110.667 110.5" enable-background="new 0 0 110.667 110.5" xml:space="preserve">
<g>
	<g>
		<linearGradient id="SVGID_1_" gradientUnits="userSpaceOnUse" x1="54.7266" y1="89.5952" x2="54.7266" y2="32.7522">
			<stop  offset="0" style="stop-color:#517F00"/>
			<stop  offset="0.6447" style="stop-color:#ABF900"/>
			<stop  offset="1" style="stop-color:#517F00"/>
		</linearGradient>
		<path fill="url(#SVGID_1_)" d="M48.37,43.173c0.219-2.045,2.781-1.795,4.085-0.983c0.779,0.485,1.061,1.229,1.08,2.112
			c0.024,1.12-0.753,1.41-1.66,0.931c-1.639-0.87-2.03-2.969-1.766-4.65c0.138-0.877,0.981-2.605,2.16-2.266
			c0.668,0.193,0.473,1.986-0.447,1.522c-1.309-0.66-1.06-2.14-0.806-3.28c0.304-1.369,1.347-2.392,2.544-3.046
			c2.74-1.496,4.659,0.85,5.769,3.12c2.212,4.525,2.151,9.895,0.82,14.666c-0.432,1.553-1.27,2.916-2.077,4.296
			c-0.943,1.613-1.888,3.23-2.633,4.947c-1.104,2.548-1.793,6.253,1.371,7.642c0.811,0.356,1.701,0.341,2.33-0.338
			c0.433-0.467,0.606-1.246,0.319-1.823c-0.349-0.698-1.289-0.226-1.707,0.101c-1.131,0.886-2.171,2.425-2,3.905
			c0.205,1.788,3.481,3.435,3.767,0.924c0.007-0.053-0.02-0.112-0.067-0.139c-1.971-1.088-3.128,0.509-3.559,2.317
			c-0.257,1.084-0.311,2.233-0.242,3.342c0.092,1.46,0.858,2.749,1.618,3.962c0.969,1.542,2.214,3.111,2.474,4.968
			c0.219,1.551-0.521,3.36-1.671,4.388c-1.233,1.107-3.28,0.87-3.77-0.817c-0.419-1.434,0.567-3.001,2.076-3.057
			c0.314-0.012,0.428-0.419,0.051-0.404c-2.747,0.103-4,4.262-1.129,5.253c3.426,1.183,5.567-3.56,4.836-6.234
			c-0.634-2.331-2.471-4.151-3.454-6.325c-0.648-1.43-0.571-3.052-0.333-4.573c0.113-0.719,0.313-1.431,0.675-2.066
			c0.175-0.306,0.442-0.586,0.782-0.703c0.367-0.126,1.232,0.021,1.077,0.522c-0.254,0.807-1.208,0.374-1.663,0.043
			c-0.704-0.513-1.001-1.388-0.912-2.229c0.103-0.974,0.87-1.858,1.515-2.547c0.241-0.258,0.83-0.868,1.129-0.386
			c0.449,0.726-0.336,1.788-1.1,1.756c-1.654-0.076-2.737-1.95-2.823-3.41c-0.103-1.741,0.67-3.492,1.406-5.024
			c1.484-3.093,3.653-5.797,4.496-9.166c1.176-4.693,0.976-9.798-1.165-14.179c-0.791-1.614-1.977-3.259-3.833-3.643
			c-1.734-0.359-3.741,1.081-4.729,2.353c-1.06,1.365-1.504,3.693-0.132,4.972c0.788,0.734,1.841,0.451,2.099-0.583
			c0.286-1.146-0.711-1.686-1.679-1.3c-1.593,0.634-2.088,2.321-2.016,3.909c0.065,1.472,0.684,2.829,1.971,3.601
			c0.826,0.495,1.956,0.531,2.468-0.398c0.385-0.7,0.195-1.784-0.182-2.441c-0.441-0.77-1.374-1.202-2.195-1.41
			c-1.538-0.392-3.535,0.095-3.731,1.913C47.778,43.5,48.344,43.423,48.37,43.173L48.37,43.173z"/>
		<g>
			
				<linearGradient id="SVGID_2_" gradientUnits="userSpaceOnUse" x1="1938.0273" y1="34.5889" x2="1938.0273" y2="33.8872" gradientTransform="matrix(-1 0 0 1 1993.3301 0)">
				<stop  offset="0" style="stop-color:#ABF900"/>
				<stop  offset="1" style="stop-color:#517F00"/>
			</linearGradient>
			<path fill="url(#SVGID_2_)" d="M55.513,33.647c0,0,0.492,0.444,0.492,0.912c0,0-0.655,0.397-1.404-0.163
				C54.601,34.396,54.694,33.881,55.513,33.647z"/>
			<g>
				<linearGradient id="SVGID_3_" gradientUnits="userSpaceOnUse" x1="55.2388" y1="35.1787" x2="55.2388" y2="20.1232">
					<stop  offset="0" style="stop-color:#ABF900"/>
					<stop  offset="1" style="stop-color:#517F00"/>
				</linearGradient>
				<path fill="url(#SVGID_3_)" d="M63.854,13.466c-1.55-3.196-4.824-5.399-8.615-5.399c-3.79,0-7.064,2.203-8.614,5.399l0,0
					c0,0-6.601,11.261,8.614,19.768C70.455,24.727,63.854,13.466,63.854,13.466z"/>
			</g>
			<linearGradient id="SVGID_4_" gradientUnits="userSpaceOnUse" x1="55.2388" y1="33.7764" x2="55.2388" y2="33.2181">
				<stop  offset="0" style="stop-color:#ABF900"/>
				<stop  offset="1" style="stop-color:#517F00"/>
			</linearGradient>
			<ellipse fill="url(#SVGID_4_)" cx="55.239" cy="33.361" rx="0.467" ry="0.431"/>
			<linearGradient id="SVGID_5_" gradientUnits="userSpaceOnUse" x1="57.0396" y1="27.2686" x2="57.0396" y2="10.5534">
				<stop  offset="0" style="stop-color:#ABF900"/>
				<stop  offset="1" style="stop-color:#517F00"/>
			</linearGradient>
			<path fill="url(#SVGID_5_)" d="M48.895,18.102c0,5.477,3.756,9.918,8.391,9.918c3.225,0,6.022-2.15,7.428-5.304
				c1.463-5.142-0.953-9.265-0.953-9.265c-1.314-2.711-3.872-4.709-6.931-5.252C52.406,8.479,48.895,12.805,48.895,18.102z"/>
			<linearGradient id="SVGID_6_" gradientUnits="userSpaceOnUse" x1="55.3687" y1="10.1611" x2="55.3687" y2="23.223">
				<stop  offset="0" style="stop-color:#FFFFFF"/>
				<stop  offset="0.4308" style="stop-color:#ABF900"/>
				<stop  offset="1" style="stop-color:#79B500"/>
			</linearGradient>
			<ellipse fill="url(#SVGID_6_)" cx="55.368" cy="15.207" rx="5.803" ry="5.997"/>
		</g>
	</g>
	<g>
		<linearGradient id="SVGID_7_" gradientUnits="userSpaceOnUse" x1="89.9932" y1="130.9395" x2="64.2035" y2="97.3592">
			<stop  offset="0" style="stop-color:#ABF900"/>
			<stop  offset="1" style="stop-color:#517F00"/>
		</linearGradient>
		<polygon fill="url(#SVGID_7_)" points="66.576,96.786 54.891,91.683 48.431,80.819 60.121,85.595 		"/>
		<linearGradient id="SVGID_8_" gradientUnits="userSpaceOnUse" x1="80.5313" y1="87.7085" x2="59.4432" y2="70.7843">
			<stop  offset="0" style="stop-color:#ABF900"/>
			<stop  offset="1" style="stop-color:#517F00"/>
		</linearGradient>
		<path fill="url(#SVGID_8_)" d="M68.014,68.01c-0.041-0.312-0.107-0.595-0.202-0.851c-0.094-0.257-0.216-0.485-0.364-0.687
			s-0.324-0.375-0.527-0.521c-0.063-0.045-0.127-0.087-0.193-0.127c-0.065-0.041-0.133-0.078-0.204-0.113
			c-0.069-0.036-0.142-0.069-0.215-0.099c-0.073-0.031-0.149-0.06-0.227-0.086c-3.987-1.331-7.975-2.663-11.962-3.995
			c0.076,0.025,0.151,0.053,0.224,0.083s0.145,0.063,0.213,0.097c0.069,0.035,0.137,0.071,0.202,0.111
			c0.065,0.039,0.129,0.08,0.191,0.124c0.201,0.143,0.377,0.311,0.524,0.506c0.148,0.196,0.27,0.417,0.365,0.665
			c0.095,0.247,0.164,0.521,0.206,0.821c0.043,0.301,0.06,0.627,0.05,0.979l-0.004,0.123c-0.009,0.332-0.044,0.648-0.103,0.952
			c-0.061,0.304-0.145,0.592-0.254,0.867c-0.109,0.273-0.244,0.535-0.405,0.781c-0.159,0.246-0.345,0.479-0.555,0.698
			s-0.439,0.417-0.688,0.596c-0.248,0.179-0.515,0.338-0.801,0.476c-0.287,0.14-0.593,0.258-0.918,0.356
			c-0.325,0.098-0.669,0.177-1.033,0.235l-5.306,0.852l11.746,4.424l5.398-0.934c0.369-0.063,0.72-0.149,1.052-0.255
			c0.33-0.104,0.643-0.23,0.935-0.376c0.292-0.146,0.564-0.314,0.818-0.502s0.488-0.396,0.704-0.625s0.405-0.472,0.57-0.729
			c0.164-0.257,0.304-0.528,0.418-0.814c0.113-0.286,0.202-0.587,0.266-0.901c0.063-0.314,0.102-0.645,0.114-0.989l0.004-0.128
			C68.068,68.659,68.054,68.32,68.014,68.01z"/>
		<linearGradient id="SVGID_9_" gradientUnits="userSpaceOnUse" x1="39.7905" y1="41.5566" x2="38.716" y2="85.3447">
			<stop  offset="0" style="stop-color:#ABF900"/>
			<stop  offset="1" style="stop-color:#517F00"/>
		</linearGradient>
		<polygon fill="url(#SVGID_9_)" points="44.313,101.668 33.021,96.149 33.558,51.105 45.262,54.861 		"/>
		<g>
			
				<linearGradient id="SVGID_10_" gradientUnits="userSpaceOnUse" x1="55.0181" y1="41.583" x2="62.4056" y2="96.2504" gradientTransform="matrix(1 0 0 1 2 3)">
				<stop  offset="0" style="stop-color:#C7FB55"/>
				<stop  offset="0.198" style="stop-color:#ABF900"/>
				<stop  offset="1" style="stop-color:#517F00"/>
			</linearGradient>
			<path fill="url(#SVGID_10_)" d="M75.421,78.01c0.439-0.518,0.853-1.057,1.237-1.62c0.386-0.562,0.744-1.147,1.075-1.756
				c0.33-0.608,0.624-1.241,0.881-1.901c0.258-0.658,0.478-1.344,0.661-2.06c0.185-0.715,0.331-1.459,0.442-2.234
				c0.111-0.776,0.187-1.585,0.224-2.428c0.026-0.568,0.034-1.117,0.025-1.645c-0.01-0.529-0.036-1.037-0.079-1.523
				c-0.045-0.488-0.106-0.956-0.186-1.402s-0.176-0.872-0.29-1.278s-0.246-0.799-0.395-1.18s-0.315-0.749-0.499-1.105
				c-0.185-0.356-0.386-0.701-0.605-1.032c-0.22-0.332-0.457-0.651-0.712-0.957c-0.295-0.355-0.616-0.687-0.965-0.994
				s-0.725-0.593-1.126-0.854c-0.403-0.261-0.833-0.498-1.289-0.711c-0.458-0.215-0.942-0.404-1.454-0.57
				c-0.515-0.166-1.067-0.298-1.659-0.396c-0.592-0.099-1.225-0.164-1.896-0.193c-0.674-0.031-1.387-0.026-2.141,0.012
				c-0.756,0.038-1.552,0.112-2.39,0.221l-19.02,2.459l-0.949,46.807l12.764-2.799l0.377-12.756l2.667-0.519l6.455,11.191
				l13.31-2.919l-7.443-13.028c0.553-0.426,1.077-0.875,1.573-1.348C74.512,79.021,74.98,78.525,75.421,78.01z M68.05,69.153
				c-0.013,0.345-0.052,0.675-0.114,0.989c-0.063,0.314-0.152,0.615-0.266,0.901c-0.114,0.286-0.254,0.558-0.418,0.814
				c-0.165,0.258-0.354,0.501-0.57,0.729s-0.45,0.438-0.704,0.625s-0.526,0.355-0.818,0.502c-0.292,0.146-0.604,0.271-0.935,0.376
				c-0.332,0.105-0.683,0.191-1.052,0.255l-5.398,0.934l0.267-9.017l5.483-0.851c0.363-0.057,0.707-0.088,1.029-0.094
				c0.324-0.006,0.627,0.015,0.909,0.06c0.282,0.046,0.546,0.116,0.789,0.212c0.241,0.096,0.465,0.217,0.668,0.362
				s0.379,0.319,0.527,0.521s0.271,0.43,0.364,0.687c0.095,0.256,0.161,0.539,0.202,0.851c0.04,0.311,0.055,0.649,0.04,1.016
				L68.05,69.153z"/>
		</g>
		<linearGradient id="SVGID_11_" gradientUnits="userSpaceOnUse" x1="33.5581" y1="51.7603" x2="72.041" y2="51.7603">
			<stop  offset="0" style="stop-color:#C7FB55"/>
			<stop  offset="0.198" style="stop-color:#ABF900"/>
			<stop  offset="1" style="stop-color:#517F00"/>
		</linearGradient>
		<path fill="url(#SVGID_11_)" d="M59.873,49.181c-0.497-0.143-1.027-0.256-1.593-0.339c-0.565-0.085-1.167-0.14-1.803-0.166
			c-0.636-0.025-1.308-0.021-2.016,0.011c-0.708,0.034-1.453,0.097-2.234,0.191l-18.67,2.228l11.704,3.756l19.02-2.459
			c0.794-0.103,1.551-0.175,2.271-0.214c0.719-0.04,1.401-0.05,2.047-0.027c0.645,0.022,1.254,0.075,1.828,0.158
			c0.572,0.083,1.109,0.196,1.613,0.34C67.984,51.5,63.929,50.341,59.873,49.181z"/>
	</g>
</g>
</svg>
