<?xml version="1.0" encoding="utf-8"?>
<!-- Generator: Adobe Illustrator 15.0.0, SVG Export Plug-In . SVG Version: 6.00 Build 0)  -->
<!DOCTYPE svg PUBLIC "-//W3C//DTD SVG 1.1//EN" "http://www.w3.org/Graphics/SVG/1.1/DTD/svg11.dtd">
<svg version="1.1" id="图层_1" xmlns="http://www.w3.org/2000/svg" xmlns:xlink="http://www.w3.org/1999/xlink" x="0px" y="0px"
	 width="110.667px" height="110.5px" viewBox="0 0 110.667 110.5" enable-background="new 0 0 110.667 110.5" xml:space="preserve">
<g>
	<g>
		<linearGradient id="SVGID_1_" gradientUnits="userSpaceOnUse" x1="56.7114" y1="90.2026" x2="56.7114" y2="35.8385">
			<stop  offset="0" style="stop-color:#840033"/>
			<stop  offset="0.7767" style="stop-color:#F92169"/>
			<stop  offset="1" style="stop-color:#840033"/>
		</linearGradient>
		<path fill="url(#SVGID_1_)" d="M63.995,42.116c0.495-3.382-3.677-3.114-5.827-2.455c-1.205,0.37-2.235,0.941-3.021,1.932
			c-1.103,1.393,0.016,3.034,1.653,2.846c1.653-0.19,2.666-2.051,2.907-3.526c0.265-1.613-0.863-3.133-2.37-3.614
			c-3.834-1.228-6.676,2.243-7.495,5.594c-0.969,3.962-0.401,8.756,1.769,12.228c1.146,1.833,2.503,3.537,3.363,5.535
			c0.794,1.839,0.848,4.332-0.986,5.594c-1.032,0.709-2.606,0.827-3.395-0.269c-0.202-0.281-0.345-0.708-0.252-1.05
			c0.104-0.39,0.941,0.086,1.134,0.197c0.673,0.388,1.139,1.053,1.223,1.824c0.092,0.84-0.525,2.328-1.472,1.537
			c-0.17-0.143-0.289-0.342-0.31-0.563c-0.03-0.342,1.056,0.174,1.214,0.273c0.898,0.565,1.237,1.794,1.447,2.76
			c0.555,2.552,0.182,5.107-0.566,7.578c-0.688,2.265-1.626,4.44-2.19,6.743c-0.396,1.62-1.01,3.875-0.14,5.417
			c0.571,1.011,2.184,1.307,3.192,0.839c1.84-0.855,0.223-2.497,0.11-3.846c-0.008-0.1-0.606,0.007-0.595,0.158
			c0.09,1.071,1.118,2.01,0.701,3.108c-0.421,1.108-1.979,0.393-2.506-0.046c-0.527-0.44-0.669-1.184-0.719-1.824
			c-0.091-1.161,0.231-2.456,0.464-3.582c0.301-1.439,0.797-2.834,1.286-4.216c0.906-2.555,1.806-5.102,1.839-7.843
			c0.021-1.748-0.24-4.063-1.591-5.313c-0.307-0.285-2.416-1.101-2.533-0.123c-0.11,0.934,1.205,1.104,1.827,0.91
			c1.396-0.438,1.329-2.498,0.564-3.416c-0.586-0.703-1.746-1.261-2.635-0.792c-0.421,0.223-0.413,0.604-0.284,1.021
			c0.244,0.793,0.987,1.184,1.759,1.276c1.147,0.14,2.759-0.373,3.509-1.283c2.896-3.517-0.976-7.803-2.865-10.767
			c-2.293-3.598-2.735-8.626-1.645-12.699c0.637-2.375,2.361-4.986,5.095-4.965c1.961,0.015,3.555,1.6,3.48,3.553
			c-0.034,0.855-0.458,1.652-0.924,2.345c-0.784,1.164-2.279,1.366-2.839,0.002c-0.595-1.448,1.202-2.692,2.296-3.165
			c2.092-0.904,6.213-1.055,5.732,2.244C63.394,42.332,63.971,42.29,63.995,42.116L63.995,42.116z"/>
		<linearGradient id="SVGID_2_" gradientUnits="userSpaceOnUse" x1="55.8149" y1="38.6616" x2="55.8149" y2="37.9093">
			<stop  offset="0" style="stop-color:#F92169"/>
			<stop  offset="1" style="stop-color:#840033"/>
		</linearGradient>
		<path fill="url(#SVGID_2_)" d="M55.589,37.652c0,0-0.526,0.477-0.526,0.978c0,0,0.703,0.427,1.505-0.175
			C56.567,38.455,56.467,37.902,55.589,37.652z"/>
		<linearGradient id="SVGID_3_" gradientUnits="userSpaceOnUse" x1="55.7466" y1="39.293" x2="55.7466" y2="23.155">
			<stop  offset="0" style="stop-color:#F92169"/>
			<stop  offset="1" style="stop-color:#840033"/>
		</linearGradient>
		<path fill="url(#SVGID_3_)" d="M64.98,16.02c-1.661-3.426-5.172-5.788-9.234-5.788s-7.573,2.362-9.233,5.788l0,0
			c0,0-7.075,12.07,9.233,21.188C72.057,28.09,64.98,16.02,64.98,16.02z"/>
		<linearGradient id="SVGID_4_" gradientUnits="userSpaceOnUse" x1="55.7461" y1="37.7891" x2="55.7461" y2="37.1909">
			<stop  offset="0" style="stop-color:#F92169"/>
			<stop  offset="1" style="stop-color:#840033"/>
		</linearGradient>
		<ellipse fill="url(#SVGID_4_)" cx="55.746" cy="37.345" rx="0.501" ry="0.462"/>
		<linearGradient id="SVGID_5_" gradientUnits="userSpaceOnUse" x1="57.6763" y1="30.8154" x2="57.6763" y2="12.8979">
			<stop  offset="0" style="stop-color:#F92169"/>
			<stop  offset="1" style="stop-color:#840033"/>
		</linearGradient>
		<path fill="url(#SVGID_5_)" d="M48.945,20.989c0,5.87,4.028,10.631,8.995,10.631c3.457,0,6.456-2.306,7.963-5.686
			c1.568-5.511-1.021-9.931-1.021-9.931c-1.41-2.907-4.15-5.047-7.43-5.63C52.711,10.675,48.945,15.312,48.945,20.989z"/>
		<linearGradient id="SVGID_6_" gradientUnits="userSpaceOnUse" x1="55.8857" y1="12.4771" x2="55.8857" y2="26.477">
			<stop  offset="0" style="stop-color:#FFFFFF"/>
			<stop  offset="0.4718" style="stop-color:#F92169"/>
			<stop  offset="1" style="stop-color:#B30D48"/>
		</linearGradient>
		<ellipse fill="url(#SVGID_6_)" cx="55.886" cy="17.886" rx="6.221" ry="6.428"/>
	</g>
	<g>
		<g>
			<linearGradient id="SVGID_7_" gradientUnits="userSpaceOnUse" x1="62.5693" y1="64.0923" x2="77.1641" y2="64.0923">
				<stop  offset="0" style="stop-color:#F92169"/>
				<stop  offset="1" style="stop-color:#840033"/>
			</linearGradient>
			<polygon fill="url(#SVGID_7_)" points="70.996,55.055 77.164,63.581 69.121,73.13 62.569,65.016 			"/>
		</g>
		<g>
			<linearGradient id="SVGID_8_" gradientUnits="userSpaceOnUse" x1="51.6528" y1="49.6777" x2="57.8311" y2="68.2126">
				<stop  offset="0" style="stop-color:#F92169"/>
				<stop  offset="1" style="stop-color:#840033"/>
			</linearGradient>
			<path fill="url(#SVGID_8_)" d="M54.093,72.367c-2.368-2.665-4.735-5.331-7.104-7.996c-0.014-0.016-0.026-0.031-0.039-0.047
				c-0.013-0.015-0.024-0.031-0.036-0.047c-0.011-0.016-0.021-0.031-0.031-0.048c-0.01-0.016-0.019-0.03-0.027-0.046
				c-0.032-0.06-0.06-0.119-0.08-0.183c-0.021-0.063-0.036-0.13-0.046-0.2c-0.01-0.071-0.014-0.149-0.012-0.232
				c0.003-0.084,0.011-0.174,0.026-0.275c0.019-0.129,0.052-0.253,0.102-0.372c0.048-0.119,0.112-0.232,0.191-0.34
				c0.078-0.107,0.173-0.209,0.281-0.307c0.108-0.097,0.232-0.188,0.37-0.273c0.139-0.085,0.293-0.162,0.462-0.229
				c0.17-0.067,0.354-0.125,0.557-0.175c0.201-0.049,0.418-0.088,0.651-0.119c0.232-0.03,0.481-0.052,0.746-0.064
				c0.499-0.023,1.003-0.026,1.514-0.01c0.511,0.018,1.029,0.056,1.553,0.112c0.524,0.059,1.056,0.137,1.592,0.235
				c0.538,0.099,1.082,0.218,1.633,0.358s1.093,0.306,1.625,0.496c0.533,0.191,1.056,0.407,1.57,0.649s1.021,0.509,1.517,0.803
				s0.983,0.613,1.462,0.958l6.552,8.114c-0.464-0.337-0.935-0.65-1.416-0.938c-0.48-0.288-0.97-0.551-1.468-0.79
				c-0.497-0.238-1.004-0.451-1.519-0.641c-0.516-0.188-1.038-0.354-1.571-0.495c-0.532-0.141-1.058-0.26-1.576-0.361
				c-0.52-0.101-1.032-0.181-1.539-0.24c-0.505-0.062-1.004-0.103-1.498-0.123c-0.492-0.021-0.979-0.023-1.46-0.005
				c-0.256,0.01-0.496,0.027-0.721,0.055c-0.225,0.028-0.434,0.064-0.627,0.11c-0.193,0.045-0.373,0.099-0.535,0.163
				c-0.163,0.063-0.312,0.137-0.443,0.218c-0.133,0.081-0.252,0.168-0.355,0.262c-0.104,0.093-0.194,0.189-0.27,0.293
				c-0.074,0.104-0.136,0.213-0.181,0.327c-0.047,0.114-0.079,0.234-0.097,0.36c-0.013,0.096-0.02,0.184-0.021,0.266
				c-0.001,0.08,0.003,0.154,0.012,0.224c0.011,0.069,0.026,0.133,0.047,0.194c0.021,0.062,0.048,0.12,0.078,0.176
				c0.009,0.016,0.019,0.031,0.028,0.047s0.02,0.031,0.031,0.047c0.011,0.014,0.022,0.029,0.034,0.045
				C54.066,72.337,54.079,72.353,54.093,72.367z"/>
		</g>
		<g>
			<linearGradient id="SVGID_9_" gradientUnits="userSpaceOnUse" x1="72.6216" y1="105.3584" x2="40.9239" y2="73.6607">
				<stop  offset="0" style="stop-color:#F92169"/>
				<stop  offset="1" style="stop-color:#840033"/>
			</linearGradient>
			<path fill="url(#SVGID_9_)" d="M53.341,80.057c2.337,2.505,4.674,5.011,7.011,7.516c-0.042-0.045-0.089-0.089-0.139-0.133
				c-0.05-0.042-0.104-0.084-0.162-0.124c-0.058-0.041-0.118-0.081-0.183-0.118c-0.065-0.039-0.134-0.076-0.207-0.112
				c-0.193-0.098-0.433-0.195-0.715-0.293c-0.283-0.098-0.609-0.195-0.98-0.293c-0.37-0.099-0.784-0.198-1.242-0.297
				c-0.457-0.099-0.958-0.198-1.503-0.297c-0.571-0.108-1.136-0.222-1.69-0.341c-0.555-0.118-1.101-0.241-1.639-0.369
				c-0.537-0.128-1.065-0.261-1.587-0.398c-0.52-0.138-1.03-0.28-1.533-0.428c-0.503-0.146-0.985-0.305-1.452-0.474
				c-0.465-0.17-0.911-0.349-1.341-0.541c-0.429-0.191-0.839-0.394-1.231-0.606c-0.391-0.213-0.766-0.438-1.121-0.673
				c-0.141-0.094-0.276-0.188-0.409-0.285c-0.133-0.098-0.263-0.197-0.389-0.299c-0.125-0.102-0.248-0.206-0.366-0.314
				c-0.119-0.106-0.234-0.215-0.346-0.326c-2.538-2.53-5.077-5.061-7.615-7.591c0.114,0.114,0.232,0.226,0.354,0.335
				s0.247,0.216,0.377,0.32c0.129,0.104,0.263,0.206,0.398,0.307c0.137,0.1,0.277,0.195,0.422,0.291
				c0.365,0.24,0.751,0.469,1.154,0.686c0.404,0.218,0.827,0.423,1.269,0.618c0.442,0.193,0.904,0.376,1.385,0.547
				s0.981,0.33,1.5,0.479c0.52,0.147,1.049,0.291,1.586,0.429c0.538,0.138,1.086,0.27,1.642,0.397s1.121,0.251,1.695,0.368
				c0.574,0.118,1.158,0.23,1.75,0.338c0.564,0.098,1.082,0.195,1.556,0.294c0.475,0.1,0.903,0.197,1.286,0.296
				c0.384,0.099,0.722,0.197,1.015,0.296c0.292,0.099,0.539,0.198,0.739,0.297c0.074,0.037,0.146,0.075,0.213,0.114
				c0.067,0.039,0.13,0.08,0.19,0.121c0.059,0.041,0.114,0.085,0.165,0.128C53.25,79.965,53.297,80.01,53.341,80.057z"/>
		</g>
		<g>
			<linearGradient id="SVGID_10_" gradientUnits="userSpaceOnUse" x1="27.623" y1="86.917" x2="75.6602" y2="86.917">
				<stop  offset="0" style="stop-color:#FFFFFF"/>
				<stop  offset="0.3655" style="stop-color:#F92169"/>
				<stop  offset="1" style="stop-color:#840033"/>
			</linearGradient>
			<path fill="url(#SVGID_10_)" d="M67.322,71.879c2.143,2.64,4.286,5.28,6.431,7.92c0.107,0.132,0.211,0.268,0.311,0.405
				s0.194,0.278,0.286,0.42c0.092,0.144,0.179,0.288,0.261,0.436c0.083,0.147,0.162,0.298,0.236,0.45
				c0.181,0.369,0.331,0.76,0.452,1.172c0.12,0.413,0.211,0.848,0.271,1.304c0.06,0.455,0.09,0.934,0.09,1.433
				c0,0.5-0.031,1.021-0.092,1.563c-0.067,0.596-0.16,1.171-0.281,1.727c-0.12,0.556-0.267,1.094-0.44,1.614
				s-0.375,1.023-0.604,1.512s-0.482,0.96-0.766,1.419c-0.282,0.46-0.587,0.903-0.913,1.328c-0.326,0.426-0.674,0.833-1.043,1.224
				c-0.369,0.392-0.761,0.764-1.173,1.12c-0.413,0.355-0.847,0.694-1.302,1.015s-0.932,0.623-1.428,0.907
				c-0.495,0.285-1.013,0.551-1.549,0.798c-0.535,0.248-1.092,0.477-1.668,0.688s-1.172,0.403-1.788,0.577
				c-0.615,0.174-1.243,0.325-1.884,0.456c-0.64,0.131-1.293,0.239-1.958,0.326c-0.664,0.088-1.341,0.152-2.03,0.196
				c-0.688,0.044-1.388,0.066-2.1,0.067c-1.086,0.002-2.146-0.035-3.181-0.109c-1.031-0.074-2.036-0.187-3.016-0.337
				c-0.978-0.149-1.928-0.336-2.853-0.561c-0.923-0.224-1.819-0.484-2.691-0.782c-0.713-0.243-1.4-0.512-2.061-0.805
				c-0.66-0.294-1.293-0.611-1.9-0.953c-0.604-0.341-1.185-0.707-1.737-1.096c-0.554-0.39-1.079-0.803-1.58-1.24
				c-2.667-2.332-5.335-4.664-8.001-6.996c0.513,0.449,1.054,0.873,1.621,1.271c0.569,0.399,1.166,0.774,1.791,1.122
				c0.625,0.35,1.277,0.674,1.957,0.973c0.684,0.298,1.393,0.571,2.13,0.817c0.9,0.302,1.828,0.564,2.782,0.789
				c0.957,0.226,1.941,0.412,2.953,0.56c1.016,0.147,2.057,0.256,3.127,0.325c1.072,0.068,2.172,0.099,3.3,0.088
				c0.739-0.007,1.465-0.036,2.181-0.087c0.716-0.052,1.418-0.125,2.108-0.22c0.692-0.097,1.371-0.215,2.037-0.354
				c0.667-0.141,1.32-0.305,1.961-0.489c0.642-0.186,1.262-0.391,1.862-0.613c0.601-0.225,1.182-0.467,1.74-0.728
				c0.56-0.262,1.099-0.541,1.615-0.841c0.52-0.299,1.017-0.617,1.491-0.953c0.477-0.338,0.931-0.692,1.362-1.065
				c0.433-0.372,0.842-0.763,1.229-1.172c0.387-0.408,0.751-0.835,1.094-1.279s0.662-0.906,0.961-1.385
				c0.297-0.479,0.566-0.972,0.808-1.479c0.24-0.51,0.453-1.032,0.639-1.575c0.185-0.541,0.343-1.1,0.472-1.678
				c0.13-0.578,0.231-1.175,0.306-1.793c0.067-0.563,0.104-1.104,0.108-1.623c0.004-0.518-0.023-1.013-0.082-1.485
				c-0.06-0.472-0.15-0.922-0.271-1.348c-0.122-0.427-0.275-0.831-0.46-1.211c-0.076-0.157-0.156-0.313-0.242-0.464
				c-0.085-0.153-0.174-0.303-0.268-0.449c-0.093-0.147-0.191-0.292-0.294-0.434S67.433,72.016,67.322,71.879z"/>
		</g>
		<g>
			<linearGradient id="SVGID_11_" gradientUnits="userSpaceOnUse" x1="51.1509" y1="43.7305" x2="45.2409" y2="113.0386">
				<stop  offset="0" style="stop-color:#FFFFFF"/>
				<stop  offset="0.3655" style="stop-color:#F92169"/>
				<stop  offset="1" style="stop-color:#840033"/>
			</linearGradient>
			<path fill="url(#SVGID_11_)" d="M52.165,50.434c1.029-0.06,2.024-0.09,2.986-0.088c0.964,0.001,1.893,0.035,2.787,0.099
				c0.897,0.065,1.76,0.162,2.587,0.29c0.83,0.129,1.624,0.288,2.383,0.48c0.761,0.192,1.5,0.416,2.216,0.672
				c0.718,0.255,1.414,0.542,2.087,0.861c0.675,0.319,1.327,0.671,1.958,1.056c0.632,0.384,1.241,0.802,1.827,1.251l-8.427,9.961
				c-0.479-0.345-0.966-0.664-1.462-0.958s-1.002-0.561-1.517-0.803s-1.037-0.458-1.57-0.649c-0.532-0.19-1.074-0.355-1.625-0.496
				s-1.095-0.26-1.633-0.358c-0.536-0.099-1.067-0.177-1.592-0.235c-0.523-0.057-1.042-0.095-1.553-0.112
				c-0.511-0.017-1.015-0.014-1.514,0.01c-0.265,0.013-0.514,0.034-0.746,0.064c-0.233,0.031-0.45,0.07-0.651,0.119
				c-0.202,0.05-0.387,0.107-0.557,0.175c-0.169,0.067-0.323,0.145-0.462,0.229c-0.138,0.086-0.262,0.177-0.37,0.273
				c-0.108,0.098-0.203,0.199-0.281,0.307c-0.079,0.107-0.144,0.221-0.191,0.34c-0.05,0.119-0.083,0.243-0.102,0.372
				c-0.016,0.102-0.023,0.191-0.026,0.275c-0.002,0.083,0.002,0.161,0.012,0.232c0.01,0.07,0.025,0.138,0.046,0.2
				c0.021,0.063,0.048,0.123,0.08,0.183c0.031,0.057,0.071,0.114,0.12,0.171c0.047,0.057,0.104,0.111,0.169,0.167
				c0.066,0.055,0.139,0.108,0.221,0.16c0.083,0.054,0.173,0.104,0.271,0.155c0.098,0.05,0.206,0.1,0.324,0.148
				s0.246,0.097,0.384,0.143c0.138,0.047,0.284,0.093,0.441,0.136c0.156,0.045,0.324,0.088,0.5,0.131
				c0.178,0.043,0.367,0.085,0.568,0.127c0.204,0.042,0.419,0.083,0.647,0.124c0.228,0.04,0.47,0.08,0.724,0.12
				c0.255,0.039,0.522,0.077,0.803,0.116c0.672,0.093,1.33,0.192,1.972,0.299c0.643,0.107,1.271,0.222,1.884,0.344
				s1.212,0.252,1.795,0.388s1.151,0.28,1.703,0.432c0.554,0.152,1.086,0.316,1.598,0.495c0.512,0.178,1.003,0.369,1.473,0.573
				c0.471,0.206,0.919,0.424,1.347,0.655c0.429,0.232,0.837,0.478,1.222,0.735c0.386,0.26,0.746,0.535,1.082,0.823
				c0.336,0.291,0.646,0.596,0.933,0.915c0.285,0.319,0.546,0.655,0.781,1.005c0.235,0.351,0.444,0.716,0.629,1.097
				c0.185,0.38,0.338,0.784,0.46,1.211c0.121,0.426,0.212,0.876,0.271,1.348c0.059,0.473,0.086,0.968,0.082,1.485
				c-0.005,0.519-0.041,1.06-0.108,1.623c-0.074,0.618-0.176,1.215-0.306,1.793c-0.129,0.578-0.287,1.137-0.472,1.678
				c-0.186,0.543-0.398,1.065-0.639,1.575c-0.241,0.508-0.511,1-0.808,1.479c-0.299,0.479-0.618,0.94-0.961,1.385
				s-0.707,0.871-1.094,1.279c-0.388,0.409-0.797,0.8-1.229,1.172c-0.432,0.373-0.886,0.728-1.362,1.065
				c-0.475,0.336-0.972,0.654-1.491,0.953c-0.517,0.3-1.056,0.579-1.615,0.841c-0.559,0.261-1.14,0.503-1.74,0.728
				c-0.601,0.223-1.221,0.428-1.862,0.613c-0.641,0.185-1.294,0.349-1.961,0.489c-0.666,0.14-1.345,0.258-2.037,0.354
				c-0.69,0.095-1.393,0.168-2.108,0.22c-0.716,0.051-1.441,0.08-2.181,0.087c-1.128,0.011-2.228-0.02-3.3-0.088
				c-1.07-0.069-2.111-0.178-3.127-0.325c-1.012-0.147-1.996-0.334-2.953-0.56c-0.954-0.225-1.882-0.487-2.782-0.789
				c-0.897-0.3-1.755-0.64-2.57-1.017c-0.813-0.376-1.586-0.791-2.317-1.243c-0.73-0.451-1.42-0.94-2.068-1.467
				c-0.647-0.524-1.255-1.086-1.822-1.686l8.993-9.365c0.503,0.435,1.02,0.838,1.55,1.209c0.532,0.373,1.077,0.714,1.637,1.023
				c0.561,0.31,1.134,0.587,1.722,0.833c0.59,0.246,1.191,0.459,1.809,0.641c0.618,0.183,1.238,0.341,1.863,0.474
				c0.625,0.134,1.255,0.243,1.887,0.328c0.633,0.084,1.271,0.144,1.91,0.179c0.643,0.036,1.286,0.047,1.934,0.031
				c0.335-0.007,0.648-0.025,0.938-0.053s0.56-0.064,0.807-0.112c0.248-0.047,0.473-0.104,0.676-0.172
				c0.203-0.068,0.385-0.146,0.543-0.233c0.159-0.088,0.301-0.183,0.425-0.284c0.123-0.104,0.231-0.213,0.32-0.33
				c0.09-0.118,0.161-0.242,0.217-0.376c0.054-0.131,0.092-0.271,0.112-0.418c0.025-0.189,0.022-0.364-0.01-0.523
				c-0.031-0.161-0.092-0.309-0.18-0.444c-0.09-0.137-0.206-0.261-0.35-0.377c-0.146-0.115-0.317-0.221-0.518-0.32
				c-0.2-0.099-0.447-0.198-0.739-0.297c-0.293-0.099-0.631-0.197-1.015-0.296c-0.383-0.099-0.812-0.196-1.286-0.296
				c-0.474-0.099-0.991-0.196-1.556-0.294c-0.592-0.107-1.176-0.22-1.75-0.338c-0.574-0.117-1.14-0.24-1.695-0.368
				s-1.104-0.26-1.642-0.397c-0.537-0.138-1.066-0.281-1.586-0.429c-0.519-0.148-1.02-0.308-1.5-0.479s-0.942-0.354-1.385-0.547
				c-0.441-0.195-0.864-0.4-1.269-0.618c-0.403-0.217-0.789-0.445-1.154-0.686c-0.366-0.241-0.708-0.497-1.027-0.769
				c-0.318-0.272-0.613-0.561-0.884-0.864c-0.271-0.303-0.519-0.622-0.742-0.958c-0.224-0.335-0.424-0.686-0.602-1.053
				c-0.176-0.366-0.319-0.757-0.429-1.171c-0.109-0.413-0.186-0.85-0.229-1.311c-0.043-0.459-0.052-0.943-0.028-1.45
				c0.024-0.506,0.081-1.035,0.172-1.589c0.085-0.521,0.191-1.029,0.319-1.522c0.128-0.494,0.276-0.974,0.448-1.442
				c0.17-0.467,0.363-0.924,0.577-1.371c0.215-0.447,0.451-0.884,0.71-1.313s0.538-0.846,0.836-1.249
				c0.299-0.404,0.616-0.796,0.954-1.175s0.696-0.746,1.074-1.101c0.377-0.354,0.774-0.697,1.191-1.027
				c0.417-0.331,0.855-0.646,1.312-0.945c0.457-0.299,0.934-0.583,1.431-0.851c0.497-0.269,1.013-0.521,1.549-0.759
				c0.538-0.237,1.095-0.459,1.672-0.665s1.172-0.392,1.785-0.557c0.614-0.165,1.245-0.311,1.895-0.435
				c0.651-0.125,1.319-0.229,2.007-0.313C50.732,50.539,51.439,50.477,52.165,50.434z"/>
		</g>
	</g>
</g>
</svg>
