<?xml version="1.0" encoding="utf-8"?>
<!-- Generator: Adobe Illustrator 15.0.0, SVG Export Plug-In . SVG Version: 6.00 Build 0)  -->
<!DOCTYPE svg PUBLIC "-//W3C//DTD SVG 1.1//EN" "http://www.w3.org/Graphics/SVG/1.1/DTD/svg11.dtd">
<svg version="1.1" id="图层_1" xmlns="http://www.w3.org/2000/svg" xmlns:xlink="http://www.w3.org/1999/xlink" x="0px" y="0px"
	 width="110.667px" height="110.5px" viewBox="0 0 110.667 110.5" enable-background="new 0 0 110.667 110.5" xml:space="preserve">
<g>
	<g>
		<linearGradient id="SVGID_1_" gradientUnits="userSpaceOnUse" x1="53.9224" y1="89.5835" x2="53.9224" y2="33.9179">
			<stop  offset="0.0051" style="stop-color:#4C005E"/>
			<stop  offset="0.6802" style="stop-color:#E033AD"/>
			<stop  offset="1" style="stop-color:#4C005E"/>
		</linearGradient>
		<path fill="url(#SVGID_1_)" d="M57.994,54.65c1.081-2.379,1.746-4.98,1.947-7.584c0.206-2.674-0.274-5.348-1.352-7.8
			c-0.459-1.049-1.013-2.114-1.602-3.099c-0.44-0.733-1.083-1.49-1.921-1.77c-1.604-0.532-3.179,0.19-4.337,1.316
			c-0.57,0.556-0.947,1.496-0.861,2.314c-1.038,0.588-1.875,1.791-1.39,2.549c-0.009,0.006-0.018,0.009-0.026,0.015
			c-1.312,0.742-0.103,2.928,0.234,3.872c0.049,0.136,0.587-0.029,0.546-0.146c-0.22-0.612-0.481-1.205-0.667-1.829
			c-0.132-0.447-0.156-0.887-0.064-1.346c0.031-0.156,0.097-0.269,0.179-0.341c0.181,0.15,0.436,0.271,0.784,0.351
			c0.078,0.018,0.541-0.038,0.496-0.183c-0.157-0.507-0.521-0.652-0.919-0.592c-0.373-0.648,0.094-1.632,0.864-2.118
			c0.113,0.507,0.427,0.942,1.014,1.172c0.479,0.188,1.271-0.006,1.578-0.427c0.597-0.818-0.794-1.282-1.38-1.319
			c-0.23-0.015-0.474,0.025-0.717,0.104c-0.035-0.544,0.119-1.123,0.369-1.546c0.794-1.344,2.561-2.182,4.031-1.552
			c1.035,0.444,1.65,1.568,2.135,2.518c1.232,2.419,2.212,4.732,2.451,7.468c0.243,2.79-0.309,5.6-1.213,8.229
			c-0.835,2.429-2.337,4.495-3.288,6.862c-0.752,1.868-0.593,3.563,0.533,5.226c0.227,0.334,0.525,0.664,0.867,0.9
			c-1.146,2.622-0.943,7.922-0.804,9.283c0.271,2.673,1.183,5.393,2.192,7.87c0.445,1.093,1.014,2.115,1.232,3.289
			c0.223,1.209-0.386,2.171-1.305,2.893c-1.15,0.903-2.565,0.624-3.41-0.495c-0.371-0.492-0.355-1.117-0.135-1.664
			c0.226-0.559,0.74-1.069,1.296-1.296c0.776-0.316,0.931,0.668,0.9,1.183c-0.006,0.089,0.535,0.021,0.545-0.147
			c0.06-1.019-0.483-1.489-1.459-1.23c-0.916,0.245-1.709,1.051-1.946,1.961c-0.314,1.211,1.007,2.446,2.153,2.51
			c1.465,0.083,2.834-0.807,3.604-2.015c1.184-1.857-0.741-4.541-1.36-6.294c-0.969-2.747-1.831-5.527-1.865-8.465
			c-0.028-2.312,0.023-4.765,0.724-6.983c0.018-0.056,0.037-0.111,0.057-0.168c0.401,0.162,0.843,0.172,1.287-0.086
			c0.51-0.295,0.768-0.788,0.985-1.321c0.009-0.02,0.004-0.036-0.014-0.048c-1.148-0.585-1.941-0.145-2.483,0.827
			c-0.402-0.388-0.714-0.926-0.941-1.351c-0.469-0.868-0.699-1.8-0.577-2.78C55.271,58.914,56.995,56.844,57.994,54.65z
			 M51.84,38.303c0.715,0.513-0.15,1.178-0.783,0.743c-0.359-0.248-0.553-0.614-0.625-1.017
			C50.875,37.909,51.368,37.964,51.84,38.303z M57.411,64.885c0.271-0.281,0.598-0.229,0.925-0.087
			c0.173,0.076-0.173,0.604-0.213,0.675c-0.207,0.362-0.487,0.603-0.918,0.475c-0.128-0.038-0.249-0.097-0.364-0.168
			C56.982,65.451,57.163,65.141,57.411,64.885z"/>
		<g>
			<linearGradient id="SVGID_2_" gradientUnits="userSpaceOnUse" x1="54.1455" y1="35.8823" x2="54.1455" y2="35.1927">
				<stop  offset="0.0051" style="stop-color:#E033AD"/>
				<stop  offset="1" style="stop-color:#4C005E"/>
			</linearGradient>
			<path fill="url(#SVGID_2_)" d="M53.938,34.957c0,0-0.482,0.438-0.482,0.896c0,0,0.644,0.391,1.379-0.16
				C54.835,35.693,54.743,35.187,53.938,34.957z"/>
			<g>
				<linearGradient id="SVGID_3_" gradientUnits="userSpaceOnUse" x1="54.0835" y1="34.5508" x2="54.0835" y2="13.8637">
					<stop  offset="0.0051" style="stop-color:#E033AD"/>
					<stop  offset="1" style="stop-color:#4C005E"/>
				</linearGradient>
				<path fill="url(#SVGID_3_)" d="M62.549,15.126c-1.523-3.14-4.741-5.306-8.466-5.306c-3.724,0-6.941,2.166-8.465,5.306l0,0
					c0,0-6.486,11.065,8.465,19.425C69.034,26.191,62.549,15.126,62.549,15.126z"/>
			</g>
			<linearGradient id="SVGID_4_" gradientUnits="userSpaceOnUse" x1="54.0835" y1="35.083" x2="54.0835" y2="34.5342">
				<stop  offset="0.0051" style="stop-color:#E033AD"/>
				<stop  offset="1" style="stop-color:#4C005E"/>
			</linearGradient>
			<ellipse fill="url(#SVGID_4_)" cx="54.083" cy="34.676" rx="0.459" ry="0.423"/>
			<linearGradient id="SVGID_5_" gradientUnits="userSpaceOnUse" x1="55.853" y1="27.1963" x2="55.853" y2="8.2017">
				<stop  offset="0.0051" style="stop-color:#E033AD"/>
				<stop  offset="1" style="stop-color:#4C005E"/>
			</linearGradient>
			<path fill="url(#SVGID_5_)" d="M47.85,19.681c0,5.383,3.691,9.746,8.246,9.746c3.167,0,5.917-2.113,7.298-5.211
				c1.438-5.052-0.936-9.104-0.936-9.104c-1.292-2.664-3.805-4.627-6.812-5.16C51.301,10.227,47.85,14.478,47.85,19.681z"/>
			<linearGradient id="SVGID_6_" gradientUnits="userSpaceOnUse" x1="54.2109" y1="11.7744" x2="54.2109" y2="29.4511">
				<stop  offset="0" style="stop-color:#FFFFFF"/>
				<stop  offset="0.5076" style="stop-color:#E033AD"/>
				<stop  offset="1" style="stop-color:#4C005E"/>
			</linearGradient>
			<ellipse fill="url(#SVGID_6_)" cx="54.211" cy="16.838" rx="5.702" ry="5.891"/>
		</g>
	</g>
	<g>
		<g>
			<linearGradient id="SVGID_7_" gradientUnits="userSpaceOnUse" x1="48.356" y1="108.9502" x2="50.6842" y2="65.074">
				<stop  offset="0" style="stop-color:#E033AD"/>
				<stop  offset="1" style="stop-color:#4C005E"/>
			</linearGradient>
			<polygon fill="url(#SVGID_7_)" points="55.231,100.129 43.713,94.841 44.36,63.523 56.181,67.625 			"/>
		</g>
		<g>
			<linearGradient id="SVGID_8_" gradientUnits="userSpaceOnUse" x1="39.0425" y1="39.6543" x2="39.0425" y2="74.2129">
				<stop  offset="0.0051" style="stop-color:#FFFFFF"/>
				<stop  offset="0.4416" style="stop-color:#E033AD"/>
				<stop  offset="1" style="stop-color:#4C005E"/>
			</linearGradient>
			<polygon fill="url(#SVGID_8_)" points="44.702,69.409 33.098,65.145 33.263,52.13 44.987,55.872 			"/>
		</g>
		<g>
			<linearGradient id="SVGID_9_" gradientUnits="userSpaceOnUse" x1="112.4736" y1="51.9678" x2="22.2121" y2="51.9678">
				<stop  offset="0.0051" style="stop-color:#FFFFFF"/>
				<stop  offset="0.4416" style="stop-color:#E033AD"/>
				<stop  offset="1" style="stop-color:#4C005E"/>
			</linearGradient>
			<polygon fill="url(#SVGID_9_)" points="44.987,55.872 33.263,52.13 67.324,48.063 79.638,51.392 			"/>
		</g>
		<g>
			<linearGradient id="SVGID_10_" gradientUnits="userSpaceOnUse" x1="61.7524" y1="39.9946" x2="63.1854" y2="110.0188">
				<stop  offset="0.0051" style="stop-color:#FFFFFF"/>
				<stop  offset="0.4416" style="stop-color:#E033AD"/>
				<stop  offset="1" style="stop-color:#4C005E"/>
			</linearGradient>
			<polygon fill="url(#SVGID_10_)" points="79.638,51.392 79.062,64.069 68.612,65.692 67.404,97.459 55.231,100.129 56.181,67.625 
				44.702,69.409 44.987,55.872 			"/>
		</g>
	</g>
</g>
</svg>
