<?xml version="1.0" encoding="utf-8"?>
<!-- Generator: Adobe Illustrator 15.0.0, SVG Export Plug-In . SVG Version: 6.00 Build 0)  -->
<!DOCTYPE svg PUBLIC "-//W3C//DTD SVG 1.1//EN" "http://www.w3.org/Graphics/SVG/1.1/DTD/svg11.dtd">
<svg version="1.1" id="图层_1" xmlns="http://www.w3.org/2000/svg" xmlns:xlink="http://www.w3.org/1999/xlink" x="0px" y="0px"
	 width="110.667px" height="110.5px" viewBox="0 0 110.667 110.5" enable-background="new 0 0 110.667 110.5" xml:space="preserve">
<g>
	<g>
		<linearGradient id="SVGID_1_" gradientUnits="userSpaceOnUse" x1="55.4038" y1="91.3213" x2="55.4038" y2="31.6005">
			<stop  offset="0" style="stop-color:#1A87A0"/>
			<stop  offset="0.6091" style="stop-color:#69C8E2"/>
			<stop  offset="0.7767" style="stop-color:#D1EEF6"/>
			<stop  offset="0.8782" style="stop-color:#69C8E2"/>
			<stop  offset="1" style="stop-color:#1A87A0"/>
		</linearGradient>
		<path fill="url(#SVGID_1_)" d="M48.328,41.295c-0.392-2.653,1.876-3.11,4.111-2.686c-0.413,1.278,0.001,2.67,0.809,3.86
			c0.953,1.406,3.022,1.875,4.082,0.294c1.156-1.727-1.365-3.388-2.665-3.905c-0.445-0.179-0.995-0.333-1.589-0.441
			c0.251-0.708,0.737-1.34,1.479-1.792c2.321-1.417,5.041,0.431,6.303,2.366c1.225,1.882,1.585,4.26,1.662,6.459
			c0.079,2.304-0.248,4.651-0.928,6.853c-0.14,0.453-0.319,0.89-0.527,1.315c0.131,0.059,0.26,0.12,0.389,0.183
			c0.378-0.725,0.701-1.479,0.93-2.297c0.586-2.103,0.799-4.32,0.722-6.496c-0.131-3.823-1.804-8.921-6.367-9.069
			c-1.288-0.043-2.782,0.483-3.629,1.482c-0.249,0.294-0.436,0.599-0.569,0.914c-2.414-0.306-5.235,0.229-4.81,3.121
			C47.746,41.563,48.349,41.438,48.328,41.295z M52.98,38.73c1.146,0.289,2.226,0.784,2.862,1.305
			c0.724,0.59,1.271,1.533,1.056,2.478c-0.19,0.837-1.115,1.173-1.888,0.874c-0.685-0.268-1.124-0.982-1.49-1.577
			C52.92,40.834,52.732,39.724,52.98,38.73z"/>
		<g>
			<linearGradient id="SVGID_2_" gradientUnits="userSpaceOnUse" x1="56.895" y1="37.8413" x2="56.895" y2="37.0857">
				<stop  offset="0" style="stop-color:#69C8E2"/>
				<stop  offset="1" style="stop-color:#1A87A0"/>
			</linearGradient>
			<path fill="url(#SVGID_2_)" d="M56.668,36.827c0,0-0.528,0.479-0.528,0.982c0,0,0.704,0.428,1.511-0.177
				C57.65,37.633,57.55,37.079,56.668,36.827z"/>
			<g>
				<linearGradient id="SVGID_3_" gradientUnits="userSpaceOnUse" x1="56.8267" y1="38.4756" x2="56.8267" y2="22.2751">
					<stop  offset="0" style="stop-color:#69C8E2"/>
					<stop  offset="0.2132" style="stop-color:#58BAD4"/>
					<stop  offset="1" style="stop-color:#1A87A0"/>
				</linearGradient>
				<path fill="url(#SVGID_3_)" d="M66.097,15.111c-1.668-3.438-5.191-5.811-9.27-5.811c-4.079,0-7.603,2.372-9.271,5.811l0,0
					c0,0-7.103,12.117,9.271,21.271C73.199,27.229,66.097,15.111,66.097,15.111z"/>
			</g>
			<linearGradient id="SVGID_4_" gradientUnits="userSpaceOnUse" x1="56.8267" y1="36.9648" x2="56.8267" y2="36.3642">
				<stop  offset="0" style="stop-color:#69C8E2"/>
				<stop  offset="1" style="stop-color:#1A87A0"/>
			</linearGradient>
			<ellipse fill="url(#SVGID_4_)" cx="56.827" cy="36.52" rx="0.503" ry="0.463"/>
			<linearGradient id="SVGID_5_" gradientUnits="userSpaceOnUse" x1="58.7642" y1="29.9639" x2="58.7642" y2="11.978">
				<stop  offset="0" style="stop-color:#69C8E2"/>
				<stop  offset="1" style="stop-color:#1A87A0"/>
			</linearGradient>
			<path fill="url(#SVGID_5_)" d="M50,20.1c0,5.894,4.043,10.672,9.029,10.672c3.471,0,6.48-2.314,7.993-5.706
				c1.573-5.533-1.025-9.97-1.025-9.97c-1.415-2.918-4.166-5.067-7.458-5.651C53.78,9.746,50,14.4,50,20.1z"/>
			<linearGradient id="SVGID_6_" gradientUnits="userSpaceOnUse" x1="56.9663" y1="11.5566" x2="56.9663" y2="25.6098">
				<stop  offset="0" style="stop-color:#EDF8FC"/>
				<stop  offset="0.4564" style="stop-color:#69C8E2"/>
				<stop  offset="1" style="stop-color:#47ACC6"/>
			</linearGradient>
			<ellipse fill="url(#SVGID_6_)" cx="56.966" cy="16.985" rx="6.245" ry="6.452"/>
		</g>
	</g>
	<g>
		<g>
			<linearGradient id="SVGID_7_" gradientUnits="userSpaceOnUse" x1="46.5444" y1="91.2363" x2="52.2752" y2="55.7766">
				<stop  offset="0" style="stop-color:#FFFFFF"/>
				<stop  offset="0.4564" style="stop-color:#69C8E2"/>
				<stop  offset="1" style="stop-color:#1A87A0"/>
			</linearGradient>
			<path fill="url(#SVGID_7_)" d="M52.57,87.222c-0.014-0.015-0.028-0.029-0.042-0.045c-0.014-0.015-0.026-0.028-0.04-0.044
				c-0.261-0.289-0.477-0.622-0.649-0.999c-0.172-0.377-0.3-0.799-0.384-1.264c-0.085-0.466-0.124-0.976-0.121-1.528
				c0.004-0.553,0.051-1.148,0.142-1.788l3.12-22.062l-7.037-8.41l-3.442,22.84c-0.1,0.663-0.154,1.28-0.163,1.853
				c-0.009,0.573,0.027,1.101,0.11,1.582c0.083,0.48,0.212,0.916,0.386,1.305c0.176,0.39,0.396,0.733,0.663,1.029
				c0.014,0.016,0.028,0.031,0.042,0.047l0.043,0.045c0.015,0.015,0.028,0.03,0.043,0.045c0.014,0.015,0.028,0.03,0.043,0.045
				c2.457,2.479,4.914,4.958,7.371,7.437c-0.015-0.015-0.028-0.029-0.042-0.043C52.599,87.251,52.584,87.236,52.57,87.222z"/>
		</g>
		<g>
			<linearGradient id="SVGID_8_" gradientUnits="userSpaceOnUse" x1="52.5088" y1="100.5273" x2="69.1642" y2="39.6368">
				<stop  offset="0" style="stop-color:#69C8E2"/>
				<stop  offset="1" style="stop-color:#1A87A0"/>
			</linearGradient>
			<path fill="url(#SVGID_8_)" d="M75.484,49.452l-2.799,23.403c-0.113,0.947-0.255,1.861-0.429,2.742
				c-0.173,0.882-0.377,1.731-0.61,2.548c-0.232,0.816-0.496,1.601-0.79,2.35c-0.293,0.749-0.617,1.466-0.97,2.146
				c-0.354,0.682-0.733,1.333-1.137,1.955c-0.403,0.623-0.83,1.214-1.282,1.776s-0.928,1.095-1.428,1.596
				c-0.5,0.502-1.023,0.973-1.571,1.412c-0.548,0.44-1.118,0.853-1.709,1.234c-0.592,0.383-1.205,0.736-1.839,1.061
				c-0.635,0.324-1.29,0.619-1.966,0.886s-1.373,0.504-2.091,0.712c-0.717,0.208-1.448,0.39-2.192,0.548s-1.501,0.289-2.272,0.397
				c-0.77,0.107-1.552,0.19-2.348,0.247c-0.795,0.058-1.603,0.091-2.423,0.099c-0.818,0.008-1.613-0.009-2.385-0.051
				c-0.769-0.042-1.514-0.108-2.235-0.2c-0.721-0.091-1.417-0.207-2.089-0.348s-1.318-0.306-1.943-0.495
				c-0.522-0.157-1.025-0.337-1.508-0.535c-0.479-0.198-0.94-0.417-1.38-0.654c-0.438-0.237-0.858-0.495-1.256-0.772
				c-0.398-0.276-0.775-0.574-1.132-0.89c2.625,2.324,5.25,4.647,7.876,6.971c0.348,0.308,0.715,0.597,1.101,0.866
				c0.387,0.271,0.794,0.522,1.219,0.755c0.427,0.233,0.873,0.446,1.339,0.642c0.467,0.195,0.953,0.371,1.459,0.527
				c0.604,0.188,1.229,0.352,1.878,0.492c0.649,0.141,1.322,0.258,2.017,0.351c0.696,0.094,1.416,0.164,2.157,0.21
				c0.744,0.047,1.51,0.069,2.299,0.067c0.79-0.002,1.567-0.027,2.333-0.077c0.767-0.049,1.52-0.123,2.26-0.221
				c0.741-0.098,1.47-0.22,2.186-0.366c0.715-0.146,1.417-0.316,2.105-0.511c0.689-0.195,1.358-0.418,2.008-0.67
				c0.648-0.251,1.276-0.531,1.884-0.839c0.608-0.308,1.195-0.644,1.762-1.008s1.111-0.755,1.636-1.176
				c0.523-0.419,1.023-0.869,1.5-1.349c0.478-0.479,0.932-0.987,1.361-1.525c0.431-0.539,0.838-1.106,1.22-1.702
				c0.384-0.596,0.743-1.222,1.079-1.875c0.334-0.654,0.64-1.341,0.917-2.063c0.276-0.72,0.523-1.473,0.742-2.259
				c0.219-0.784,0.408-1.603,0.567-2.452c0.16-0.849,0.292-1.729,0.394-2.641l2.521-22.583L75.484,49.452z"/>
		</g>
		<linearGradient id="SVGID_9_" gradientUnits="userSpaceOnUse" x1="49.9185" y1="38.5122" x2="54.2166" y2="84.0009">
			<stop  offset="0" style="stop-color:#FFFFFF"/>
			<stop  offset="0.4564" style="stop-color:#69C8E2"/>
			<stop  offset="1" style="stop-color:#1A87A0"/>
		</linearGradient>
		<path fill="url(#SVGID_9_)" d="M75.484,49.452l-2.799,23.403c-0.113,0.947-0.255,1.861-0.429,2.742
			c-0.173,0.882-0.377,1.731-0.61,2.548c-0.232,0.816-0.496,1.601-0.79,2.35c-0.293,0.749-0.617,1.466-0.97,2.146
			c-0.354,0.682-0.733,1.333-1.137,1.955c-0.403,0.623-0.83,1.214-1.282,1.776s-0.928,1.095-1.428,1.596
			c-0.5,0.502-1.023,0.973-1.571,1.412c-0.548,0.44-1.118,0.853-1.709,1.234c-0.592,0.383-1.205,0.736-1.839,1.061
			c-0.635,0.324-1.29,0.619-1.966,0.886s-1.373,0.504-2.091,0.712c-0.717,0.208-1.448,0.39-2.192,0.548s-1.501,0.289-2.272,0.397
			c-0.77,0.107-1.552,0.19-2.348,0.247c-0.795,0.058-1.603,0.091-2.423,0.099c-0.818,0.008-1.613-0.009-2.385-0.051
			c-0.769-0.042-1.514-0.108-2.235-0.2c-0.721-0.091-1.417-0.207-2.089-0.348s-1.318-0.306-1.943-0.495
			c-0.622-0.188-1.216-0.405-1.78-0.651C36.633,92.574,36.1,92.301,35.595,92s-0.979-0.629-1.426-0.986
			c-0.446-0.355-0.862-0.74-1.251-1.151c-0.386-0.411-0.742-0.85-1.066-1.315s-0.619-0.96-0.881-1.482
			c-0.262-0.521-0.493-1.069-0.694-1.646c-0.2-0.576-0.369-1.18-0.509-1.811c-0.139-0.631-0.242-1.292-0.309-1.984
			c-0.067-0.692-0.098-1.414-0.094-2.168c0.005-0.752,0.044-1.535,0.12-2.35c0.074-0.813,0.186-1.657,0.331-2.531l3.771-22.677
			l13.972-0.815l-3.442,22.84c-0.1,0.663-0.154,1.28-0.163,1.853c-0.009,0.573,0.027,1.101,0.11,1.582
			c0.083,0.48,0.212,0.916,0.386,1.305c0.176,0.39,0.396,0.733,0.663,1.029c0.268,0.297,0.563,0.556,0.885,0.776
			s0.672,0.403,1.048,0.546c0.378,0.144,0.783,0.249,1.216,0.315c0.433,0.065,0.893,0.093,1.381,0.081
			c0.498-0.013,0.979-0.06,1.443-0.144c0.463-0.083,0.909-0.201,1.336-0.355c0.429-0.154,0.838-0.344,1.228-0.569
			c0.392-0.225,0.765-0.484,1.119-0.78c0.354-0.296,0.675-0.639,0.963-1.028c0.288-0.389,0.543-0.824,0.766-1.306
			c0.224-0.481,0.412-1.008,0.568-1.58c0.156-0.573,0.279-1.19,0.37-1.854l3.195-23.474L75.484,49.452z"/>
	</g>
</g>
</svg>
