<?xml version="1.0" encoding="utf-8"?>
<!-- Generator: Adobe Illustrator 15.0.0, SVG Export Plug-In . SVG Version: 6.00 Build 0)  -->
<!DOCTYPE svg PUBLIC "-//W3C//DTD SVG 1.1//EN" "http://www.w3.org/Graphics/SVG/1.1/DTD/svg11.dtd">
<svg version="1.1" id="图层_1" xmlns="http://www.w3.org/2000/svg" xmlns:xlink="http://www.w3.org/1999/xlink" x="0px" y="0px"
	 width="110.667px" height="110.5px" viewBox="0 0 110.667 110.5" enable-background="new 0 0 110.667 110.5" xml:space="preserve">
<g>
	<g>
		
			<linearGradient id="SVGID_1_" gradientUnits="userSpaceOnUse" x1="1676.4561" y1="94.3569" x2="1676.4561" y2="33.7951" gradientTransform="matrix(-1 0 0 1 1731.9883 0)">
			<stop  offset="0.0051" style="stop-color:#E28100"/>
			<stop  offset="0.335" style="stop-color:#E28100"/>
			<stop  offset="0.7005" style="stop-color:#FFE66D"/>
			<stop  offset="0.7767" style="stop-color:#FFD400"/>
			<stop  offset="1" style="stop-color:#E28100"/>
		</linearGradient>
		<path fill="url(#SVGID_1_)" d="M51.275,56.115c1.044,2.293,2.847,4.458,3.167,7.021c0.128,1.024-0.114,2-0.603,2.907
			c-0.24,0.444-0.565,1.007-0.985,1.411c-0.567-1.016-1.397-1.475-2.598-0.864c-0.018,0.014-0.022,0.03-0.013,0.052
			c0.227,0.557,0.498,1.071,1.031,1.382c0.465,0.268,0.925,0.258,1.346,0.09c0.02,0.057,0.04,0.116,0.059,0.174
			c0.258,0.819,0.431,1.669,0.546,2.531c0.185-0.012,0.37-0.02,0.556-0.025c-0.146-1.097-0.375-2.127-0.721-2.923
			c0.357-0.247,0.668-0.591,0.905-0.94c1.178-1.739,1.342-3.51,0.558-5.464c-0.994-2.475-2.564-4.635-3.438-7.175
			c-0.946-2.75-1.523-5.686-1.268-8.603c0.249-2.861,1.273-5.28,2.562-7.809c0.507-0.993,1.151-2.168,2.233-2.633
			c1.538-0.658,3.384,0.217,4.214,1.623c0.261,0.442,0.424,1.047,0.386,1.616c-0.254-0.082-0.507-0.124-0.749-0.108
			c-0.613,0.038-2.066,0.522-1.443,1.379c0.322,0.44,1.15,0.644,1.65,0.447c0.614-0.24,0.943-0.696,1.061-1.227
			c0.805,0.508,1.293,1.538,0.903,2.214c-0.417-0.061-0.796,0.089-0.96,0.621c-0.047,0.15,0.437,0.208,0.518,0.189
			c0.364-0.081,0.631-0.208,0.819-0.366c0.087,0.075,0.155,0.192,0.188,0.356c0.097,0.479,0.071,0.94-0.068,1.407
			c-0.193,0.653-0.468,1.272-0.696,1.912c-0.044,0.123,0.519,0.296,0.57,0.153c0.352-0.988,1.616-3.272,0.244-4.049
			c-0.008-0.006-0.018-0.01-0.026-0.015c0.507-0.793-0.368-2.051-1.452-2.665c0.089-0.855-0.306-1.84-0.901-2.42
			c-1.21-1.177-2.858-1.934-4.535-1.376c-0.875,0.291-1.547,1.082-2.008,1.851c-0.616,1.028-1.195,2.144-1.676,3.239
			c-1.125,2.563-1.626,5.358-1.411,8.155C49.448,50.908,50.144,53.629,51.275,56.115z M52.1,67.927
			c-0.451,0.134-0.745-0.117-0.96-0.496c-0.042-0.073-0.404-0.626-0.222-0.705c0.341-0.148,0.681-0.204,0.966,0.091
			c0.259,0.268,0.449,0.593,0.596,0.936C52.359,67.826,52.233,67.888,52.1,67.927z M58.528,39.8c-0.663,0.455-1.567-0.24-0.82-0.777
			c0.495-0.354,1.009-0.409,1.473-0.285C59.104,39.158,58.904,39.542,58.528,39.8z"/>
		<linearGradient id="SVGID_2_" gradientUnits="userSpaceOnUse" x1="55.7495" y1="36.4399" x2="55.7495" y2="35.719">
			<stop  offset="0" style="stop-color:#FFE66D"/>
			<stop  offset="0.302" style="stop-color:#FFD400"/>
			<stop  offset="1" style="stop-color:#E28100"/>
		</linearGradient>
		<path fill="url(#SVGID_2_)" d="M55.533,35.473c0,0-0.504,0.457-0.504,0.938c0,0,0.673,0.408,1.442-0.168
			C56.471,36.242,56.375,35.713,55.533,35.473z"/>
		<g>
			<linearGradient id="SVGID_3_" gradientUnits="userSpaceOnUse" x1="55.6841" y1="37.0469" x2="55.6841" y2="21.5784">
				<stop  offset="0" style="stop-color:#FFE66D"/>
				<stop  offset="0.302" style="stop-color:#FFD400"/>
				<stop  offset="1" style="stop-color:#E28100"/>
			</linearGradient>
			<path fill="url(#SVGID_3_)" d="M64.535,14.738c-1.593-3.283-4.957-5.548-8.851-5.548c-3.894,0-7.258,2.265-8.85,5.548l0,0
				c0,0-6.782,11.569,8.85,20.31C71.316,26.308,64.535,14.738,64.535,14.738z"/>
		</g>
		<linearGradient id="SVGID_4_" gradientUnits="userSpaceOnUse" x1="55.6841" y1="35.6045" x2="55.6841" y2="35.031">
			<stop  offset="0" style="stop-color:#FFE66D"/>
			<stop  offset="0.302" style="stop-color:#FFD400"/>
			<stop  offset="1" style="stop-color:#E28100"/>
		</linearGradient>
		<ellipse fill="url(#SVGID_4_)" cx="55.684" cy="35.179" rx="0.481" ry="0.442"/>
		<linearGradient id="SVGID_5_" gradientUnits="userSpaceOnUse" x1="57.5342" y1="28.9189" x2="57.5342" y2="11.7467">
			<stop  offset="0" style="stop-color:#FFE66D"/>
			<stop  offset="0.302" style="stop-color:#FFD400"/>
			<stop  offset="1" style="stop-color:#E28100"/>
		</linearGradient>
		<path fill="url(#SVGID_5_)" d="M49.166,19.501c0,5.627,3.86,10.189,8.622,10.189c3.313,0,6.187-2.21,7.63-5.447
			c1.503-5.283-0.978-9.521-0.978-9.521c-1.351-2.785-3.978-4.837-7.122-5.395C52.775,9.616,49.166,14.06,49.166,19.501z"/>
		<linearGradient id="SVGID_6_" gradientUnits="userSpaceOnUse" x1="55.8174" y1="13.3203" x2="55.8174" y2="33.9656">
			<stop  offset="0" style="stop-color:#FFFAE2"/>
			<stop  offset="0.4872" style="stop-color:#FFD400"/>
			<stop  offset="1" style="stop-color:#F1AC00"/>
		</linearGradient>
		<ellipse fill="url(#SVGID_6_)" cx="55.817" cy="16.528" rx="5.962" ry="6.16"/>
	</g>
	<g>
		<g>
			<linearGradient id="SVGID_7_" gradientUnits="userSpaceOnUse" x1="45.1582" y1="44.9648" x2="49.9934" y2="69.9471">
				<stop  offset="0" style="stop-color:#FFFFFF"/>
				<stop  offset="0.4822" style="stop-color:#FFD400"/>
				<stop  offset="1" style="stop-color:#E28100"/>
			</linearGradient>
			<polygon fill="url(#SVGID_7_)" points="43.106,49.698 50.2,58.084 55.009,80.523 47.878,72.858 			"/>
		</g>
		<g>
			<linearGradient id="SVGID_8_" gradientUnits="userSpaceOnUse" x1="14.7104" y1="95.9834" x2="64.6725" y2="95.9834">
				<stop  offset="0" style="stop-color:#FFFFFF"/>
				<stop  offset="0.4822" style="stop-color:#FFD400"/>
				<stop  offset="1" style="stop-color:#E28100"/>
			</linearGradient>
			<polygon fill="url(#SVGID_8_)" points="52.048,92.467 59.193,99.469 45.587,99.5 37.927,92.609 			"/>
		</g>
		<g>
			<linearGradient id="SVGID_9_" gradientUnits="userSpaceOnUse" x1="91.5938" y1="26.478" x2="63.3886" y2="81.2765">
				<stop  offset="0.4822" style="stop-color:#FFD400"/>
				<stop  offset="1" style="stop-color:#E28100"/>
			</linearGradient>
			<polygon fill="url(#SVGID_9_)" points="75.771,47.801 81.691,56.562 59.193,99.469 52.048,92.467 			"/>
		</g>
		<g>
			<linearGradient id="SVGID_10_" gradientUnits="userSpaceOnUse" x1="53.8525" y1="35.6504" x2="44.988" y2="93.6735">
				<stop  offset="0" style="stop-color:#FFEF9C"/>
				<stop  offset="0.4822" style="stop-color:#FFD400"/>
				<stop  offset="1" style="stop-color:#E28100"/>
			</linearGradient>
			<polygon fill="url(#SVGID_10_)" points="59.576,48.742 75.771,47.801 52.048,92.467 37.927,92.609 27.796,50.589 43.106,49.698 
				47.878,72.858 			"/>
		</g>
	</g>
</g>
</svg>
