<?xml version="1.0" encoding="utf-8"?>
<!-- Generator: Adobe Illustrator 15.0.0, SVG Export Plug-In . SVG Version: 6.00 Build 0)  -->
<!DOCTYPE svg PUBLIC "-//W3C//DTD SVG 1.1//EN" "http://www.w3.org/Graphics/SVG/1.1/DTD/svg11.dtd">
<svg version="1.1" id="图层_1" xmlns="http://www.w3.org/2000/svg" xmlns:xlink="http://www.w3.org/1999/xlink" x="0px" y="0px"
	 width="110.667px" height="110.5px" viewBox="0 0 110.667 110.5" enable-background="new 0 0 110.667 110.5" xml:space="preserve">
<g>
	<g>
		<linearGradient id="SVGID_1_" gradientUnits="userSpaceOnUse" x1="54.0747" y1="94.689" x2="54.0747" y2="34.2538">
			<stop  offset="0" style="stop-color:#517F00"/>
			<stop  offset="0.6447" style="stop-color:#ABF900"/>
			<stop  offset="1" style="stop-color:#517F00"/>
		</linearGradient>
		<path fill="url(#SVGID_1_)" d="M47.316,45.333c0.233-2.175,2.958-1.909,4.344-1.045c0.828,0.516,1.128,1.305,1.148,2.244
			c0.025,1.192-0.801,1.501-1.766,0.99c-1.742-0.925-2.159-3.157-1.877-4.944c0.147-0.933,1.044-2.77,2.296-2.409
			c0.71,0.206,0.503,2.113-0.475,1.619c-1.392-0.702-1.127-2.275-0.857-3.487c0.323-1.457,1.431-2.543,2.705-3.239
			c2.914-1.59,4.954,0.904,6.134,3.318c2.351,4.812,2.287,10.52,0.871,15.594c-0.459,1.649-1.349,3.099-2.207,4.565
			c-1.004,1.716-2.008,3.436-2.8,5.262c-1.173,2.708-1.906,6.647,1.458,8.123c0.861,0.379,1.808,0.362,2.477-0.358
			c0.459-0.496,0.644-1.325,0.339-1.938c-0.37-0.742-1.37-0.239-1.814,0.106c-1.203,0.941-2.309,2.578-2.128,4.151
			c0.219,1.902,3.703,3.652,4.006,0.983c0.007-0.056-0.021-0.119-0.071-0.147c-2.097-1.157-3.327,0.54-3.784,2.463
			c-0.273,1.152-0.33,2.374-0.257,3.554c0.097,1.552,0.913,2.923,1.721,4.211c1.029,1.642,2.353,3.31,2.63,5.283
			c0.232,1.648-0.555,3.571-1.776,4.665c-1.313,1.176-3.488,0.926-4.009-0.87c-0.444-1.523,0.605-3.19,2.208-3.25
			c0.335-0.013,0.455-0.444,0.054-0.429c-2.92,0.109-4.253,4.531-1.201,5.585c3.643,1.257,5.919-3.784,5.142-6.628
			c-0.674-2.478-2.627-4.414-3.673-6.725c-0.689-1.521-0.608-3.245-0.354-4.862c0.12-0.766,0.332-1.521,0.717-2.197
			c0.187-0.326,0.47-0.625,0.831-0.749c0.392-0.133,1.312,0.023,1.146,0.557c-0.27,0.857-1.284,0.396-1.768,0.045
			c-0.749-0.545-1.064-1.476-0.97-2.369c0.108-1.035,0.925-1.977,1.61-2.707c0.257-0.275,0.883-0.923,1.2-0.411
			c0.478,0.771-0.357,1.902-1.168,1.866c-1.759-0.079-2.91-2.072-3.002-3.625c-0.109-1.852,0.713-3.713,1.495-5.342
			c1.579-3.288,3.885-6.163,4.781-9.745c1.25-4.989,1.037-10.417-1.24-15.075c-0.839-1.716-2.101-3.464-4.074-3.872
			c-1.845-0.383-3.978,1.149-5.028,2.501c-1.127,1.451-1.6,3.927-0.14,5.286c0.837,0.779,1.958,0.479,2.231-0.619
			c0.304-1.219-0.756-1.794-1.785-1.383c-1.694,0.674-2.22,2.468-2.145,4.156c0.07,1.564,0.728,3.007,2.096,3.828
			c0.878,0.525,2.08,0.565,2.624-0.424c0.41-0.745,0.209-1.896-0.193-2.596c-0.47-0.818-1.461-1.277-2.333-1.499
			c-1.635-0.417-3.759,0.101-3.967,2.035C46.687,45.681,47.288,45.599,47.316,45.333L47.316,45.333z"/>
		<g>
			
				<linearGradient id="SVGID_2_" gradientUnits="userSpaceOnUse" x1="1938.6426" y1="36.207" x2="1938.6426" y2="35.4609" gradientTransform="matrix(-1 0 0 1 1993.3301 0)">
				<stop  offset="0" style="stop-color:#ABF900"/>
				<stop  offset="1" style="stop-color:#517F00"/>
			</linearGradient>
			<path fill="url(#SVGID_2_)" d="M54.911,35.206c0,0,0.522,0.473,0.522,0.97c0,0-0.696,0.423-1.492-0.174
				C53.941,36.002,54.04,35.454,54.911,35.206z"/>
			<g>
				<linearGradient id="SVGID_3_" gradientUnits="userSpaceOnUse" x1="54.6196" y1="36.834" x2="54.6196" y2="20.8268">
					<stop  offset="0" style="stop-color:#ABF900"/>
					<stop  offset="1" style="stop-color:#517F00"/>
				</linearGradient>
				<path fill="url(#SVGID_3_)" d="M63.779,13.748c-1.648-3.398-5.13-5.74-9.16-5.74c-4.03,0-7.51,2.342-9.158,5.74l0,0
					c0,0-7.018,11.973,9.158,21.018C70.797,25.721,63.779,13.748,63.779,13.748z"/>
			</g>
			<linearGradient id="SVGID_4_" gradientUnits="userSpaceOnUse" x1="54.6191" y1="35.3428" x2="54.6191" y2="34.7491">
				<stop  offset="0" style="stop-color:#ABF900"/>
				<stop  offset="1" style="stop-color:#517F00"/>
			</linearGradient>
			<ellipse fill="url(#SVGID_4_)" cx="54.619" cy="34.902" rx="0.497" ry="0.457"/>
			<linearGradient id="SVGID_5_" gradientUnits="userSpaceOnUse" x1="56.5337" y1="28.4238" x2="56.5337" y2="10.652">
				<stop  offset="0" style="stop-color:#ABF900"/>
				<stop  offset="1" style="stop-color:#517F00"/>
			</linearGradient>
			<path fill="url(#SVGID_5_)" d="M47.874,18.677c0,5.823,3.994,10.545,8.922,10.545c3.428,0,6.403-2.287,7.897-5.638
				c1.555-5.467-1.013-9.852-1.013-9.852c-1.398-2.882-4.117-5.007-7.37-5.584C51.609,8.447,47.874,13.046,47.874,18.677z"/>
			<linearGradient id="SVGID_6_" gradientUnits="userSpaceOnUse" x1="54.7573" y1="10.2344" x2="54.7573" y2="24.1216">
				<stop  offset="0" style="stop-color:#FFFFFF"/>
				<stop  offset="0.4308" style="stop-color:#ABF900"/>
				<stop  offset="1" style="stop-color:#79B500"/>
			</linearGradient>
			<ellipse fill="url(#SVGID_6_)" cx="54.757" cy="15.6" rx="6.17" ry="6.376"/>
		</g>
	</g>
	<g>
		<g>
			<linearGradient id="SVGID_7_" gradientUnits="userSpaceOnUse" x1="69.0039" y1="52.6226" x2="93.0972" y2="52.6226">
				<stop  offset="0" style="stop-color:#C7FB55"/>
				<stop  offset="0.198" style="stop-color:#ABF900"/>
				<stop  offset="1" style="stop-color:#517F00"/>
			</linearGradient>
			<polygon fill="url(#SVGID_7_)" points="81.312,54.979 69.004,51.65 80.631,50.266 93.097,53.458 			"/>
		</g>
		<g>
			<linearGradient id="SVGID_8_" gradientUnits="userSpaceOnUse" x1="126.8257" y1="155.1611" x2="83.7118" y2="83.036">
				<stop  offset="0" style="stop-color:#C7FB55"/>
				<stop  offset="0.198" style="stop-color:#ABF900"/>
				<stop  offset="1" style="stop-color:#517F00"/>
			</linearGradient>
			<polygon fill="url(#SVGID_8_)" points="75.398,77.235 63.378,73.063 69.004,51.65 81.312,54.979 			"/>
		</g>
		<g>
			<linearGradient id="SVGID_9_" gradientUnits="userSpaceOnUse" x1="83.8047" y1="134.6572" x2="64.4643" y2="95.1706">
				<stop  offset="0" style="stop-color:#ABF900"/>
				<stop  offset="1" style="stop-color:#517F00"/>
			</linearGradient>
			<polygon fill="url(#SVGID_9_)" points="69.771,101.244 58.049,96.18 52.369,76.133 64.199,80.522 			"/>
		</g>
		<g>
			<linearGradient id="SVGID_10_" gradientUnits="userSpaceOnUse" x1="109.2783" y1="165.6523" x2="66.1634" y2="93.5255">
				<stop  offset="0" style="stop-color:#C7FB55"/>
				<stop  offset="0.198" style="stop-color:#ABF900"/>
				<stop  offset="1" style="stop-color:#517F00"/>
			</linearGradient>
			<polygon fill="url(#SVGID_10_)" points="52.792,81.149 41.15,76.634 47.669,54.064 59.631,57.645 			"/>
		</g>
		<g>
			<linearGradient id="SVGID_11_" gradientUnits="userSpaceOnUse" x1="47.6694" y1="55.2217" x2="70.4521" y2="55.2217">
				<stop  offset="0" style="stop-color:#C7FB55"/>
				<stop  offset="0.198" style="stop-color:#ABF900"/>
				<stop  offset="1" style="stop-color:#517F00"/>
			</linearGradient>
			<polygon fill="url(#SVGID_11_)" points="59.631,57.645 47.669,54.064 58.307,52.799 70.452,56.25 			"/>
		</g>
		<g>
			<linearGradient id="SVGID_12_" gradientUnits="userSpaceOnUse" x1="21.8701" y1="58.3813" x2="47.7495" y2="58.3813">
				<stop  offset="0" style="stop-color:#C7FB55"/>
				<stop  offset="0.198" style="stop-color:#ABF900"/>
				<stop  offset="1" style="stop-color:#517F00"/>
			</linearGradient>
			<polygon fill="url(#SVGID_12_)" points="33.31,61.179 21.87,57.269 36.01,55.584 47.75,59.313 			"/>
		</g>
		<g>
			<linearGradient id="SVGID_13_" gradientUnits="userSpaceOnUse" x1="50.6187" y1="137.6099" x2="32.8897" y2="77.5735">
				<stop  offset="0" style="stop-color:#C7FB55"/>
				<stop  offset="0.198" style="stop-color:#ABF900"/>
				<stop  offset="1" style="stop-color:#517F00"/>
			</linearGradient>
			<polygon fill="url(#SVGID_13_)" points="45.85,106.5 34.543,100.988 21.87,57.269 33.31,61.179 			"/>
		</g>
		<g>
			<linearGradient id="SVGID_14_" gradientUnits="userSpaceOnUse" x1="62.7129" y1="53.0347" x2="68.7568" y2="105.8174">
				<stop  offset="0" style="stop-color:#C7FB55"/>
				<stop  offset="0.198" style="stop-color:#ABF900"/>
				<stop  offset="1" style="stop-color:#517F00"/>
			</linearGradient>
			<polygon fill="url(#SVGID_14_)" points="81.312,54.979 93.097,53.458 79.903,99.018 69.771,101.244 64.199,80.522 
				56.976,104.055 45.85,106.5 33.31,61.179 47.75,59.313 52.792,81.149 59.631,57.645 70.452,56.25 75.398,77.235 			"/>
		</g>
	</g>
</g>
</svg>
