<?xml version="1.0" encoding="utf-8"?>
<!-- Generator: Adobe Illustrator 15.0.0, SVG Export Plug-In . SVG Version: 6.00 Build 0)  -->
<!DOCTYPE svg PUBLIC "-//W3C//DTD SVG 1.1//EN" "http://www.w3.org/Graphics/SVG/1.1/DTD/svg11.dtd">
<svg version="1.1" id="图层_1" xmlns="http://www.w3.org/2000/svg" xmlns:xlink="http://www.w3.org/1999/xlink" x="0px" y="0px"
	 width="400px" height="300px" viewBox="0 0 400 300" enable-background="new 0 0 400 300" xml:space="preserve">
<g>
	<g>
		<path fill-rule="evenodd" clip-rule="evenodd" fill="#0068B6" d="M310.074,149.627l-0.258-0.029
			c-0.752-0.092-1.502-0.081-2.254-0.141c-0.543-0.044-1.264-0.134-1.645-0.579c-0.209-0.241-0.285-0.544-0.285-0.86
			c-0.002-1.398,1.145-3.981,1.85-5.382c-0.479-0.229-0.836-0.571-0.91-1.073c-0.023-0.148-0.033-0.292-0.033-0.43
			c-1.063-0.339-2.074-0.865-3.006-1.563c-1.834-1.376-3.59-2.935-5.264-4.51c-2.238-2.108-4.385-4.331-6.443-6.626
			c-4.898-5.458-9.439-11.471-13.168-17.831c-2.246-3.834-4.238-7.873-5.752-12.073c-1.438-3.991-2.461-8.193-2.73-12.45
			c-0.689-10.952,1.961-21.483,9.746-29.333c6.033-6.082,14.373-9.643,22.764-10.329c8.387-0.704,17.178,1.437,24.084,6.444
			c8.914,6.465,13.178,16.423,14.213,27.351c0.752,12.763-3.488,25.505-9.416,36.562c-2.564,4.787-5.512,9.393-8.734,13.74
			c-2.215,2.986-4.625,5.976-7.193,8.652c-0.441,0.459-0.965,0.854-1.533,1.182c0.033,0.162,0.053,0.333,0.057,0.514
			c0.014,0.441-0.205,0.802-0.545,1.094c0.811,0.836,2.348,2.614,2.658,3.68c0.064,0.217,0.078,0.439-0.006,0.652
			c-0.199,0.496-0.996,0.891-1.729,1.184c0.041,0.578,0.033,1.102-0.051,1.505c-0.064,0.31-0.201,0.589-0.453,0.78
			c-0.465,0.354-1.188,0.287-1.729,0.215C311.563,149.868,310.83,149.698,310.074,149.627z"/>
		<linearGradient id="SVGID_1_" gradientUnits="userSpaceOnUse" x1="309.666" y1="122.1187" x2="312.831" y2="152.2312">
			<stop  offset="0" style="stop-color:#009FE8"/>
			<stop  offset="1" style="stop-color:#D2ECFA"/>
		</linearGradient>
		<path fill-rule="evenodd" clip-rule="evenodd" fill="url(#SVGID_1_)" d="M340.766,79.817
			c-2.504-26.424-22.496-34.937-38.104-33.625c-15.613,1.277-34.014,12.973-32.346,39.468c1.412,22.354,24.037,46.413,33.285,53.354
			c4.5,3.377,9.729,1.851,11.873-0.385C322.604,131.198,342.311,106.061,340.766,79.817z"/>
		<path fill-rule="evenodd" clip-rule="evenodd" fill="#00A2E8" d="M271.295,79.376c2.125-17.356,12.922-29.484,24.309-29.263
			c12.348,0.228-2.83,15.738-3.482,30.981c-0.961,22.071,6.869,40.202,1.471,40.273C282.314,121.537,269.803,91.995,271.295,79.376z
			"/>
		<path fill-rule="evenodd" clip-rule="evenodd" fill="#00A7EA" d="M271.348,79.682c1.734-15.879,11.766-28.577,21.99-28.184
			c11.049,0.396-2.822,14.814-3.41,29.523c-0.854,20.563,6.463,37.297,1.467,37.346C281.363,118.499,270.154,91.5,271.348,79.682z"
			/>
		<path fill-rule="evenodd" clip-rule="evenodd" fill="#00ADEB" d="M271.689,80.159c1.346-14.402,10.611-27.67,19.674-27.105
			c9.748,0.568-2.813,13.892-3.338,28.067c-0.744,19.054,6.057,34.392,1.465,34.416C280.701,115.629,270.797,91.176,271.689,80.159z
			"/>
		<path fill-rule="evenodd" clip-rule="evenodd" fill="#00B5ED" d="M272.229,80.75c0.955-12.925,9.455-26.762,17.355-26.025
			c8.451,0.737-2.803,12.967-3.264,26.609c-0.637,17.545,5.65,31.485,1.463,31.486C280.238,112.877,271.637,90.968,272.229,80.75z"
			/>
		<path fill-rule="evenodd" clip-rule="evenodd" fill="#3EBEEF" d="M272.91,81.426c0.564-11.448,8.299-25.854,15.037-24.948
			c7.15,0.908-2.795,12.044-3.189,25.153c-0.529,16.035,5.242,28.58,1.459,28.559C279.914,110.208,272.617,90.842,272.91,81.426z"/>
		<path fill-rule="evenodd" clip-rule="evenodd" fill="#73C9F2" d="M273.699,82.164c0.174-9.97,7.143-24.946,12.719-23.869
			c5.852,1.079-2.787,11.12-3.117,23.696c-0.42,14.525,4.834,25.674,1.455,25.629C279.699,107.602,273.705,90.78,273.699,82.164z"/>
		<path fill-rule="evenodd" clip-rule="evenodd" fill="#A3DAF6" d="M274.57,82.951c-0.217-8.493,5.986-24.038,10.402-22.79
			c4.551,1.248-2.779,10.197-3.047,22.238c-0.311,13.018,4.43,22.77,1.455,22.701C279.566,105.044,274.877,90.767,274.57,82.951z"/>
		<path fill-rule="evenodd" clip-rule="evenodd" fill="#D2ECFA" d="M275.508,83.778c-0.605-7.018,4.832-23.131,8.084-21.713
			c3.254,1.42-2.77,9.273-2.971,20.782c-0.203,11.509,4.021,19.864,1.451,19.771C279.502,102.527,276.115,90.793,275.508,83.778z"/>
		<path fill-rule="evenodd" clip-rule="evenodd" fill="#FFFFFF" d="M279.326,82.046c0.189-6.503,1.801-12.141,4.16-17.563
			c0.303-0.663-0.594-1.513-1.037-0.898c-1.375,1.85-2.527,4.211-3.377,6.485c-1.293,3.458-2.078,7.269-2.215,11.257
			c-0.023,0.162-0.008,0.336,0.047,0.508c0.17,0.538,0.652,0.873,1.096,1.02c0.467,0.156,1.037,0.145,1.256-0.328
			C279.32,82.383,279.344,82.219,279.326,82.046L279.326,82.046z M276.908,84.932L276.908,84.932
			c0.299,4.766,1.51,9.499,3.521,14.085c0.016,0.032,0.029,0.065,0.043,0.098c0.01,0.022,0.006,0.016,0.027,0.06
			c0.15,0.307,0.463,0.508,0.744,0.439c0.33-0.081,0.422-0.43,0.332-0.77c-0.01-0.036-0.02-0.071-0.027-0.105
			c-1.23-4.561-2.049-9.158-2.211-13.697l-0.002-0.061l-0.012-0.063c-0.039-0.197-0.117-0.387-0.232-0.556
			c-0.297-0.435-0.77-0.648-1.189-0.647C277.281,83.717,276.83,84.186,276.908,84.932z"/>
		<path fill-rule="evenodd" clip-rule="evenodd" fill="#009EE7" d="M339.865,76.678c-3.654-17.427-15.828-28.762-27.576-27.508
			c-12.74,1.346,4.246,15.719,6.199,31.133c2.848,22.318-2.262,38.311,3.324,37.896C333.477,117.35,342.467,89.35,339.865,76.678z"
			/>
		<path fill-rule="evenodd" clip-rule="evenodd" fill="#009BE4" d="M339.789,77.112c-3.127-15.963-14.559-27.945-25.09-26.622
			c-11.383,1.401,4.16,14.782,6.002,29.661c2.609,20.795-2.295,35.77,2.871,35.367C333.949,114.745,342.014,88.999,339.789,77.112z"
			/>
		<path fill-rule="evenodd" clip-rule="evenodd" fill="#0099E2" d="M339.459,77.663c-2.598-14.498-13.287-27.127-22.604-25.735
			c-10.025,1.456,4.074,13.846,5.805,28.188c2.369,19.273-2.326,33.229,2.42,32.839C334.168,112.256,341.309,88.766,339.459,77.663z
			"/>
		<path fill-rule="evenodd" clip-rule="evenodd" fill="#0095DE" d="M338.959,78.293c-2.072-13.033-12.016-26.311-20.117-24.85
			c-8.67,1.512,3.986,12.909,5.605,26.715c2.133,17.752-2.357,30.689,1.969,30.313C334.217,109.846,340.43,88.612,338.959,78.293z"
			/>
		<path fill-rule="evenodd" clip-rule="evenodd" fill="#0091DA" d="M338.336,78.983c-1.545-11.57-10.746-25.494-17.633-23.966
			c-7.313,1.567,3.9,11.973,5.41,25.243c1.891,16.23-2.393,28.148,1.516,27.784C334.141,107.495,339.43,88.514,338.336,78.983z"/>
		<path fill-rule="evenodd" clip-rule="evenodd" fill="#008CD6" d="M337.619,79.713c-1.018-10.105-9.477-24.677-15.146-23.079
			c-5.955,1.623,3.813,11.036,5.211,23.771c1.654,14.708-2.424,25.607,1.064,25.256C333.973,105.186,338.336,88.461,337.619,79.713z
			"/>
		<path fill-rule="evenodd" clip-rule="evenodd" fill="#0087D1" d="M336.83,80.479c-0.49-8.641-8.205-23.859-12.662-22.194
			c-4.598,1.679,3.727,10.1,5.014,22.299c1.414,13.185-2.455,23.067,0.611,22.729C333.73,102.912,337.17,88.441,336.83,80.479z"/>
		<path fill-rule="evenodd" clip-rule="evenodd" fill="#0080CA" d="M335.982,81.272c0.037-7.178-6.936-23.043-10.178-21.309
			c-3.24,1.733,3.641,9.162,4.816,20.826c1.176,11.663-2.486,20.526,0.162,20.201C333.43,100.665,335.945,88.448,335.982,81.272z"/>
	</g>
	<g>
		<path fill-rule="evenodd" clip-rule="evenodd" fill="#EE92BA" d="M108.33,148.656l0.236-0.052
			c0.689-0.157,1.387-0.219,2.079-0.346c0.501-0.093,1.16-0.245,1.475-0.694c0.171-0.243,0.215-0.532,0.187-0.825
			c-0.125-1.299-1.424-3.587-2.206-4.819c0.425-0.259,0.725-0.61,0.748-1.083c0.008-0.141,0.004-0.273-0.009-0.402
			c0.957-0.416,1.848-1,2.648-1.738c1.577-1.451,3.066-3.065,4.476-4.688c1.887-2.17,3.678-4.438,5.379-6.764
			c4.052-5.533,7.723-11.547,10.605-17.807c1.737-3.773,3.22-7.712,4.242-11.754c0.973-3.843,1.542-7.841,1.404-11.817
			c-0.354-10.231-3.769-19.753-11.707-26.296c-6.15-5.069-14.217-7.578-22.065-7.416c-7.849,0.146-15.813,2.972-21.769,8.279
			c-7.688,6.852-10.742,16.5-10.711,26.741c0.461,11.917,5.553,23.341,12.057,33.037c2.816,4.198,5.969,8.191,9.355,11.92
			c2.326,2.56,4.835,5.105,7.461,7.345c0.451,0.385,0.973,0.7,1.531,0.95c-0.017,0.153-0.02,0.313-0.008,0.483
			c0.029,0.41,0.264,0.724,0.605,0.963c-0.675,0.852-1.941,2.649-2.133,3.668c-0.04,0.207-0.033,0.415,0.065,0.604
			c0.229,0.442,1.005,0.732,1.712,0.935c0.014,0.54,0.068,1.025,0.182,1.392c0.09,0.282,0.241,0.527,0.493,0.682
			c0.464,0.283,1.128,0.153,1.622,0.033C106.97,149.022,107.635,148.793,108.33,148.656z"/>
		<linearGradient id="SVGID_2_" gradientUnits="userSpaceOnUse" x1="107.1763" y1="126.9175" x2="107.5316" y2="147.2727">
			<stop  offset="0" style="stop-color:#F8D2E2"/>
			<stop  offset="1" style="stop-color:#FFFFFF"/>
		</linearGradient>
		<path fill-rule="evenodd" clip-rule="evenodd" fill="url(#SVGID_2_)" d="M73.508,87.17c-0.073-24.765,17.711-34.573,32.316-34.844
			c14.606-0.305,32.748,8.796,33.604,33.547c0.719,20.883-18.098,45.372-26.052,52.695c-3.87,3.564-8.862,2.646-11.056,0.777
			C95.029,133.127,74.458,111.675,73.508,87.17z"/>
		<path fill-rule="evenodd" clip-rule="evenodd" fill="#F8D4E4" d="M138.695,79.75c-3.548-15.907-14.67-26.135-25.219-24.842
			c-11.44,1.389,4.056,14.338,6.044,28.424c2.896,20.395-2.728,37.969,2.291,37.521C132.292,119.933,141.225,91.32,138.695,79.75z"
			/>
		<path fill-rule="evenodd" clip-rule="evenodd" fill="#F8D6E5" d="M138.674,80.04c-3.052-14.574-13.514-25.402-22.969-24.062
			c-10.219,1.423,3.963,13.48,5.844,27.077c2.658,19.004-2.613,35.234,2.027,34.803C132.9,117.022,140.854,90.894,138.674,80.04z"/>
		<path fill-rule="evenodd" clip-rule="evenodd" fill="#F9D8E6" d="M138.4,80.514c-2.556-13.239-12.359-24.67-20.72-23.281
			c-8.998,1.457,3.871,12.625,5.644,25.732c2.42,17.613-2.5,32.498,1.764,32.083C133.253,114.297,140.228,90.655,138.4,80.514z"/>
		<path fill-rule="evenodd" clip-rule="evenodd" fill="#F9DBE8" d="M137.953,81.116c-2.06-11.906-11.204-23.938-18.471-22.502
			c-7.776,1.491,3.779,11.769,5.444,24.387c2.183,16.225-2.387,29.764,1.5,29.365C133.435,111.698,139.43,90.542,137.953,81.116z"/>
		<path fill-rule="evenodd" clip-rule="evenodd" fill="#FADFEB" d="M137.381,81.807c-1.563-10.572-10.049-23.205-16.221-21.722
			c-6.555,1.524,3.688,10.912,5.244,23.042c1.945,14.832-2.272,27.027,1.236,26.646C133.492,109.19,138.508,90.519,137.381,81.807z"
			/>
		<path fill-rule="evenodd" clip-rule="evenodd" fill="#FAE3EE" d="M136.717,82.567c-1.066-9.238-8.895-22.473-13.973-20.941
			c-5.332,1.559,3.597,10.056,5.045,21.696c1.707,13.442-2.158,24.292,0.974,23.927C133.456,106.75,137.493,90.565,136.717,82.567z"
			/>
		<path fill-rule="evenodd" clip-rule="evenodd" fill="#FBE8F1" d="M135.98,83.38c-0.571-7.904-7.739-21.741-11.724-20.161
			c-4.111,1.594,3.505,9.199,4.845,20.351c1.47,12.053-2.044,21.556,0.71,21.208C133.346,104.364,136.405,90.665,135.98,83.38z"/>
		<path fill-rule="evenodd" clip-rule="evenodd" fill="#FCEFF5" d="M135.183,84.237c-0.074-6.57-6.584-21.008-9.474-19.381
			s3.412,8.343,4.645,19.006c1.232,10.662-1.93,18.82,0.447,18.489S135.257,90.807,135.183,84.237z"/>
		<path fill-rule="evenodd" clip-rule="evenodd" fill="#FFFFFF" d="M131.483,82.995c-0.766-6.018-2.773-11.098-5.456-15.904
			c-0.341-0.587,0.415-1.461,0.881-0.933c1.445,1.584,2.729,3.667,3.725,5.696c1.513,3.086,2.587,6.548,3.077,10.236
			c0.036,0.149,0.037,0.312,0.002,0.477c-0.109,0.516-0.525,0.873-0.924,1.051c-0.42,0.188-0.949,0.233-1.195-0.186
			C131.519,83.307,131.483,83.157,131.483,82.995L131.483,82.995z M133.989,85.442L133.989,85.442
			c0.154,4.451-0.539,8.961-1.99,13.409c-0.011,0.032-0.021,0.063-0.031,0.095c-0.007,0.021-0.004,0.016-0.02,0.058
			c-0.112,0.3-0.385,0.517-0.651,0.479c-0.313-0.044-0.43-0.359-0.378-0.684c0.005-0.033,0.011-0.066,0.017-0.1
			c0.728-4.351,1.069-8.695,0.81-12.925l-0.004-0.057l0.005-0.058c0.018-0.188,0.073-0.371,0.165-0.539
			c0.235-0.431,0.656-0.675,1.045-0.714C133.532,84.35,133.995,84.742,133.989,85.442z"/>
		<path fill-rule="evenodd" clip-rule="evenodd" fill="#F7D0E1" d="M74.805,83.348c1.811-16.301,12.082-27.826,23.1-27.783
			c11.946,0.033-2.516,14.793-2.931,29.092c-0.618,20.703,5.414,35.582,0.192,35.728C84.262,120.706,73.54,95.198,74.805,83.348z"/>
		<path fill-rule="evenodd" clip-rule="evenodd" fill="#F7CEE0" d="M74.915,83.718c1.454-14.91,10.978-26.959,20.873-26.739
			c10.691,0.213-2.521,13.928-2.881,27.726c-0.535,19.287,5.236,33.151,0.405,33.269C83.61,118.241,73.928,94.813,74.915,83.718z"/>
		<path fill-rule="evenodd" clip-rule="evenodd" fill="#F6CADE" d="M75.27,84.186c1.098-13.52,9.872-26.091,18.646-25.693
			c9.438,0.39-2.524,13.063-2.83,26.357c-0.451,17.871,5.059,30.72,0.618,30.81C83.204,115.875,74.563,94.527,75.27,84.186z"/>
		<path fill-rule="evenodd" clip-rule="evenodd" fill="#F6C6DB" d="M75.792,84.72c0.741-12.13,8.768-25.224,16.419-24.649
			c8.184,0.568-2.529,12.196-2.78,24.991c-0.368,16.455,4.881,28.288,0.831,28.351C82.964,113.575,75.363,94.306,75.792,84.72z"/>
		<path fill-rule="evenodd" clip-rule="evenodd" fill="#F6C4DA" d="M76.433,85.301c0.384-10.739,7.661-24.355,14.192-23.604
			c6.929,0.746-2.534,11.33-2.731,23.623c-0.284,15.039,4.704,25.856,1.045,25.891C82.844,111.322,76.283,94.133,76.433,85.301z"/>
		<path fill-rule="evenodd" clip-rule="evenodd" fill="#F5BED6" d="M77.165,85.918c0.027-9.349,6.557-23.488,11.966-22.56
			c5.675,0.926-2.539,10.465-2.681,22.257c-0.201,13.623,4.525,23.426,1.257,23.432C82.815,109.104,77.292,93.996,77.165,85.918z"/>
		<path fill-rule="evenodd" clip-rule="evenodd" fill="#F4BAD3" d="M77.967,86.564c-0.33-7.958,5.451-22.62,9.738-21.515
			c4.42,1.104-2.543,9.599-2.631,20.891c-0.117,12.207,4.349,20.992,1.471,20.972C82.856,106.916,78.374,93.886,77.967,86.564z"/>
		<path fill-rule="evenodd" clip-rule="evenodd" fill="#F3B3CF" d="M78.826,87.232c-0.686-6.568,4.347-21.753,7.513-20.47
			s-2.548,8.732-2.581,19.523s4.171,18.562,1.683,18.512C82.954,104.749,79.511,93.799,78.826,87.232z"/>
	</g>
	<g>
		<path fill-rule="evenodd" clip-rule="evenodd" fill="#EE92BA" d="M302.213,180.914l-0.236,0.078
			c-0.691,0.223-1.342,0.535-2.021,0.787c-0.49,0.182-1.152,0.393-1.658,0.158c-0.273-0.127-0.455-0.359-0.578-0.635
			c-0.539-1.221-0.529-3.938-0.451-5.443c-0.508-0.006-0.949-0.16-1.207-0.568c-0.076-0.121-0.141-0.242-0.193-0.363
			c-1.059,0.135-2.145,0.084-3.225-0.15c-2.127-0.461-4.26-1.111-6.324-1.811c-2.762-0.936-5.49-2.01-8.166-3.18
			c-6.371-2.787-12.643-6.199-18.338-10.244c-3.434-2.439-6.723-5.16-9.656-8.213c-2.787-2.904-5.293-6.158-7.162-9.763
			c-4.809-9.278-6.539-19.537-2.76-29.529c2.928-7.742,8.84-14.217,15.896-18.202c7.047-4.001,15.541-5.681,23.49-4.098
			c10.26,2.043,17.805,9.011,22.904,18.128c5.557,10.834,6.75,23.664,5.824,35.704c-0.4,5.213-1.203,10.42-2.346,15.516
			c-0.785,3.498-1.742,7.082-2.955,10.453c-0.207,0.578-0.514,1.135-0.885,1.65c0.092,0.127,0.176,0.27,0.248,0.426
			c0.18,0.379,0.129,0.781-0.055,1.174c1.027,0.402,3.051,1.334,3.732,2.137c0.139,0.164,0.236,0.352,0.244,0.572
			c0.018,0.514-0.527,1.18-1.055,1.732c0.258,0.486,0.453,0.947,0.535,1.332c0.063,0.297,0.051,0.596-0.096,0.865
			c-0.271,0.494-0.926,0.729-1.426,0.883C303.604,180.523,302.898,180.67,302.213,180.914z"/>
		<linearGradient id="SVGID_3_" gradientUnits="userSpaceOnUse" x1="293.5762" y1="160.7988" x2="303.507" y2="177.9995">
			<stop  offset="0" style="stop-color:#F8D2E2"/>
			<stop  offset="1" style="stop-color:#FFFFFF"/>
		</linearGradient>
		<path fill-rule="evenodd" clip-rule="evenodd" fill="url(#SVGID_3_)" d="M302.377,107.949
			c-12.33-22.047-33.047-21.403-46.162-13.96c-13.133,7.417-24.697,25.051-13.068,47.496c9.816,18.937,38.797,30.798,49.531,33.121
			c5.225,1.131,9.201-2.313,10.213-5.127C306.26,160.115,313.801,130.225,302.377,107.949z"/>
		<path fill-rule="evenodd" clip-rule="evenodd" fill="#F8D4E4" d="M240.734,135.659c-4.811-16.004-0.047-30.945,9.975-35.348
			c10.861-4.786,3.574,14.875,8.857,28.439c7.637,19.648,21.432,32.308,16.748,34.55
			C266.539,167.998,244.277,147.271,240.734,135.659z"/>
		<path fill-rule="evenodd" clip-rule="evenodd" fill="#F8D6E5" d="M240.896,135.905c-4.584-14.558-0.707-29.688,8.367-33.471
			c9.793-4.113,3.227,14.066,8.361,27.139c7.15,18.287,19.961,29.935,15.621,31.994C264.541,165.73,244.393,146.698,240.896,135.905
			z"/>
		<path fill-rule="evenodd" clip-rule="evenodd" fill="#F9D8E6" d="M241.379,136.182c-4.357-13.111-1.367-28.428,6.758-31.594
			c8.725-3.44,2.879,13.256,7.867,25.838c6.666,16.927,18.488,27.564,14.492,29.441C262.863,163.496,244.83,146.156,241.379,136.182
			z"/>
		<path fill-rule="evenodd" clip-rule="evenodd" fill="#F9DBE8" d="M242.076,136.481c-4.131-11.664-2.025-27.17,5.15-29.717
			c7.656-2.768,2.531,12.447,7.369,24.537c6.182,15.566,17.021,25.193,13.367,26.884C261.4,161.281,245.482,145.635,242.076,136.481
			z"/>
		<path fill-rule="evenodd" clip-rule="evenodd" fill="#FADFEB" d="M242.93,136.794c-3.902-10.218-2.686-25.91,3.543-27.84
			c6.588-2.094,2.184,11.638,6.873,23.237c5.697,14.205,15.549,22.822,12.24,24.33C260.094,159.082,246.291,145.129,242.93,136.794z
			"/>
		<path fill-rule="evenodd" clip-rule="evenodd" fill="#FAE3EE" d="M243.9,137.12c-3.676-8.77-3.346-24.65,1.934-25.962
			c5.52-1.421,1.838,10.828,6.379,21.935c5.211,12.846,14.078,20.453,11.113,21.777C258.904,156.895,247.215,144.637,243.9,137.12z"
			/>
		<path fill-rule="evenodd" clip-rule="evenodd" fill="#FBE8F1" d="M244.963,137.456c-3.449-7.324-4.006-23.394,0.326-24.086
			c4.451-0.748,1.49,10.02,5.883,20.635c4.727,11.484,12.607,18.08,9.984,19.22C257.809,154.717,248.232,144.152,244.963,137.456z"
			/>
		<path fill-rule="evenodd" clip-rule="evenodd" fill="#FCEFF5" d="M246.1,137.797c-3.223-5.877-4.666-22.135-1.283-22.209
			s1.145,9.21,5.387,19.334c4.242,10.123,11.137,15.709,8.859,16.666C256.783,152.545,249.322,143.674,246.1,137.797z"/>
		<path fill-rule="evenodd" clip-rule="evenodd" fill="#FFFFFF" d="M248.766,134.747c-2.332-5.752-3.09-11.321-3.113-17.006
			c0.01-0.701-1.1-1.08-1.248-0.365c-0.492,2.168-0.59,4.695-0.459,7.022c0.199,3.538,0.979,7.181,2.391,10.717
			c0.043,0.151,0.121,0.296,0.236,0.425c0.355,0.399,0.904,0.498,1.348,0.447c0.467-0.055,0.959-0.293,0.969-0.795
			C248.891,135.043,248.848,134.889,248.766,134.747L248.766,134.747z M247.766,138.24L247.766,138.24
			c2.09,4.038,4.963,7.68,8.48,10.869c0.025,0.022,0.051,0.046,0.074,0.067c0.018,0.016,0.012,0.012,0.047,0.041
			c0.25,0.208,0.6,0.258,0.818,0.084c0.258-0.204,0.203-0.546-0.006-0.807c-0.021-0.027-0.043-0.054-0.064-0.08
			c-2.824-3.483-5.303-7.164-7.189-11.061l-0.025-0.052l-0.033-0.05c-0.109-0.156-0.25-0.29-0.416-0.391
			c-0.424-0.26-0.92-0.255-1.287-0.084C247.625,137.03,247.41,137.62,247.766,138.24z"/>
		<path fill-rule="evenodd" clip-rule="evenodd" fill="#F7D0E1" d="M299.313,105.235c-9.77-13.534-24.668-18.371-34.438-12.535
			c-10.6,6.316,9.641,11.822,17.168,24.311c10.914,18.074,13.002,34.47,17.715,31.853
			C309.609,143.411,306.367,115.099,299.313,105.235z"/>
		<path fill-rule="evenodd" clip-rule="evenodd" fill="#F7CEE0" d="M299.4,105.622c-8.758-12.486-23.252-18.182-31.936-12.779
			c-9.395,5.814,9.213,11.052,16.439,23.123c10.131,16.859,11.941,32.217,16.295,29.779
			C308.955,140.877,305.83,114.961,299.4,105.622z"/>
		<path fill-rule="evenodd" clip-rule="evenodd" fill="#F6CADE" d="M299.318,106.224c-7.744-11.438-21.834-17.991-29.432-13.022
			c-8.193,5.314,8.781,10.279,15.709,21.936c9.348,15.644,10.883,29.961,14.875,27.705
			C308.131,138.561,305.123,115.042,299.318,106.224z"/>
		<path fill-rule="evenodd" clip-rule="evenodd" fill="#F6C6DB" d="M299.123,106.973c-6.732-10.39-20.418-17.803-26.932-13.266
			c-6.988,4.813,8.354,9.508,14.982,20.746c8.564,14.43,9.822,27.707,13.453,25.632C307.193,136.39,304.303,115.266,299.123,106.973
			z"/>
		<path fill-rule="evenodd" clip-rule="evenodd" fill="#F6C4DA" d="M298.844,107.827c-5.719-9.342-19.002-17.613-24.43-13.508
			c-5.783,4.311,7.924,8.735,14.254,19.557c7.781,13.216,8.764,25.453,12.033,23.559
			C306.172,134.325,303.398,115.596,298.844,107.827z"/>
		<path fill-rule="evenodd" clip-rule="evenodd" fill="#F5BED6" d="M298.502,108.76c-4.705-8.294-17.586-17.424-21.928-13.752
			c-4.578,3.809,7.496,7.965,13.525,18.369c6.998,12.001,7.705,23.199,10.611,21.484
			C305.088,132.338,302.432,116.006,298.502,108.76z"/>
		<path fill-rule="evenodd" clip-rule="evenodd" fill="#F4BAD3" d="M298.111,109.756c-3.691-7.246-16.168-17.234-19.424-13.995
			c-3.375,3.308,7.064,7.192,12.795,17.181c6.215,10.786,6.645,20.944,9.191,19.411
			C303.955,130.415,301.416,116.477,298.111,109.756z"/>
		<path fill-rule="evenodd" clip-rule="evenodd" fill="#F3B3CF" d="M297.684,110.801c-2.68-6.197-14.752-17.044-16.924-14.238
			c-2.172,2.807,6.637,6.421,12.066,15.992c5.432,9.572,5.586,18.69,7.771,17.338C302.785,128.542,300.361,117,297.684,110.801z"/>
	</g>
	<g>
		<path fill-rule="evenodd" clip-rule="evenodd" fill="#F6AA00" d="M306.117,148.292l-0.148-0.23
			c-0.43-0.676-0.939-1.283-1.395-1.939c-0.328-0.475-0.738-1.123-0.646-1.732c0.051-0.331,0.234-0.596,0.48-0.807
			c1.088-0.936,3.865-1.72,5.426-2.076c-0.141-0.545-0.113-1.064,0.229-1.461c0.102-0.117,0.205-0.222,0.314-0.314
			c-0.447-1.096-0.711-2.275-0.789-3.504c-0.15-2.419-0.109-4.896,0.002-7.317c0.148-3.239,0.449-6.479,0.861-9.694
			c0.984-7.652,2.639-15.382,5.105-22.678c1.488-4.396,3.305-8.723,5.566-12.762c2.15-3.84,4.74-7.482,7.877-10.541
			c8.07-7.87,18.039-12.726,29.348-11.588c8.76,0.883,17.098,5.338,23.229,11.748c6.145,6.396,10.34,15.022,11.047,24.018
			c0.91,11.611-4.002,21.744-11.822,29.882c-9.439,9.128-22.193,14.157-34.758,16.68c-5.439,1.093-10.992,1.752-16.529,2.013
			c-3.803,0.18-7.738,0.2-11.535-0.117c-0.652-0.055-1.309-0.221-1.945-0.468c-0.104,0.136-0.223,0.267-0.361,0.392
			c-0.336,0.303-0.762,0.365-1.215,0.282c-0.111,1.22-0.471,3.665-1.094,4.63c-0.125,0.197-0.289,0.357-0.512,0.429
			c-0.52,0.17-1.357-0.22-2.076-0.625c-0.422,0.419-0.834,0.763-1.205,0.962c-0.285,0.154-0.592,0.229-0.91,0.15
			c-0.586-0.146-1.016-0.781-1.318-1.273C306.922,149.67,306.566,148.958,306.117,148.292z"/>
		<linearGradient id="SVGID_4_" gradientUnits="userSpaceOnUse" x1="324.0029" y1="133.373" x2="312.235" y2="145.9926">
			<stop  offset="0" style="stop-color:#FFF000"/>
			<stop  offset="1" style="stop-color:#FFFFFF"/>
		</linearGradient>
		<path fill-rule="evenodd" clip-rule="evenodd" fill="url(#SVGID_4_)" d="M380.672,127.157
			c18.912-19.676,12.205-41.725,0.771-53.628c-11.408-11.931-32.793-19.194-52.316-0.155c-16.469,16.066-20.117,50.64-19.354,62.842
			c0.371,5.938,5.049,9.2,8.219,9.465C328.537,146.561,361.262,145.926,380.672,127.157z"/>
		<path fill-rule="evenodd" clip-rule="evenodd" fill="#FFF000" d="M334.373,69.081c14.936-9.838,31.584-9.088,39.006,0.384
			c8.061,10.261-14.145,8.181-26.451,17.815c-17.834,13.935-26.73,32.441-30.389,28.067
			C308.887,106.227,323.549,76.276,334.373,69.081z"/>
		<path fill-rule="evenodd" clip-rule="evenodd" fill="#FFF105" d="M334.168,69.327c13.527-9.172,30.107-9.429,36.621-0.794
			c7.063,9.311-13.42,7.571-25.27,16.902c-16.584,13.018-24.738,30.17-28.107,26.112C310.617,103.42,324.168,76.234,334.168,69.327z
			"/>
		<path fill-rule="evenodd" clip-rule="evenodd" fill="#FFF23A" d="M334.025,69.926c12.115-8.506,28.631-9.77,34.236-1.974
			c6.061,8.36-12.695,6.963-24.086,15.99c-15.338,12.1-22.748,27.899-25.83,24.156C312.41,100.965,324.85,76.543,334.025,69.926z"/>
		<path fill-rule="evenodd" clip-rule="evenodd" fill="#FFF359" d="M333.926,70.762c10.703-7.84,27.15-10.11,31.848-3.15
			c5.063,7.41-11.971,6.354-22.902,15.077c-14.09,11.183-20.756,25.628-23.549,22.2C314.244,98.75,325.572,77.092,333.926,70.762z"
			/>
		<path fill-rule="evenodd" clip-rule="evenodd" fill="#FFF474" d="M333.854,71.77c9.293-7.174,25.674-10.451,29.463-4.329
			c4.063,6.46-11.246,5.745-21.721,14.165c-12.842,10.265-18.762,23.357-21.27,20.245C316.107,96.706,326.324,77.811,333.854,71.77z
			"/>
		<path fill-rule="evenodd" clip-rule="evenodd" fill="#FFF691" d="M333.805,72.908c7.883-6.509,24.195-10.792,27.076-5.508
			c3.063,5.51-10.521,5.136-20.535,13.253C328.75,90,323.572,101.739,321.354,98.942C317.994,94.79,327.098,78.661,333.805,72.908z"
			/>
		<path fill-rule="evenodd" clip-rule="evenodd" fill="#FFF9B4" d="M333.773,74.146c6.471-5.843,22.717-11.132,24.689-6.687
			c2.064,4.561-9.795,4.527-19.352,12.342C328.764,88.23,324.33,98.616,322.4,96.135C319.898,92.975,327.889,79.612,333.773,74.146z
			"/>
		<path fill-rule="evenodd" clip-rule="evenodd" fill="#FFFBDA" d="M333.756,75.466c5.061-5.177,21.238-11.474,22.303-7.864
			s-9.07,3.918-18.168,11.429c-9.1,7.511-12.789,16.544-14.432,14.378S328.695,80.643,333.756,75.466z"/>
		<path fill-rule="evenodd" clip-rule="evenodd" fill="#FFFFFF" d="M337.65,77.437c5.191-4.183,10.656-6.624,16.455-8.31
			c0.719-0.193,0.781-1.496,0.008-1.447c-2.357,0.105-4.965,0.739-7.305,1.56c-3.555,1.248-7.047,3.147-10.244,5.696
			c-0.143,0.089-0.268,0.217-0.365,0.377c-0.305,0.498-0.244,1.117-0.063,1.578c0.191,0.485,0.578,0.944,1.094,0.808
			C337.383,77.658,337.527,77.567,337.65,77.437L337.65,77.437z M333.791,77.383L333.791,77.383
			c-3.514,3.424-6.393,7.57-8.623,12.278c-0.016,0.033-0.031,0.067-0.047,0.101c-0.01,0.021-0.008,0.014-0.027,0.061
			c-0.141,0.329-0.088,0.72,0.154,0.904c0.281,0.215,0.615,0.057,0.82-0.242c0.021-0.031,0.043-0.063,0.063-0.094
			c2.732-4.049,5.768-7.785,9.195-10.947l0.045-0.042l0.041-0.051c0.127-0.162,0.223-0.354,0.277-0.562
			c0.141-0.531-0.008-1.063-0.289-1.405C334.984,76.878,334.318,76.82,333.791,77.383z"/>
		<path fill-rule="evenodd" clip-rule="evenodd" fill="#FFEF00" d="M382.549,123.073c10.967-14.439,11.555-31.844,2.742-40.625
			c-9.547-9.533-9.258,13.802-19.811,25.528c-15.268,16.995-31.402,24.024-27.352,28.319
			C346.574,145.277,374.537,133.529,382.549,123.073z"/>
		<path fill-rule="evenodd" clip-rule="evenodd" fill="#FFED00" d="M382.18,123.281c10.191-13.046,11.775-30.269,3.721-38.011
			c-8.682-8.388-8.594,13.115-18.809,24.398c-14.258,15.799-29.41,22.229-25.65,26.189
			C348.969,143.834,374.52,132.913,382.18,123.281z"/>
		<path fill-rule="evenodd" clip-rule="evenodd" fill="#FFEC00" d="M381.541,123.37c9.416-11.652,11.994-28.693,4.699-35.396
			c-7.818-7.242-7.932,12.43-17.809,23.27c-13.246,14.604-27.416,20.434-23.947,24.059
			C351.094,142.274,374.232,132.176,381.541,123.37z"/>
		<path fill-rule="evenodd" clip-rule="evenodd" fill="#FFEA00" d="M380.719,123.377c8.643-10.26,12.215-27.116,5.68-32.782
			c-6.955-6.095-7.27,11.743-16.809,22.142c-12.234,13.407-25.424,18.637-22.244,21.927
			C353.037,140.633,373.764,131.36,380.719,123.377z"/>
		<path fill-rule="evenodd" clip-rule="evenodd" fill="#FFE700" d="M379.766,123.328c7.867-8.866,12.434-25.54,6.658-30.168
			c-6.092-4.948-6.607,11.058-15.809,21.013c-11.221,12.211-23.432,16.841-20.541,19.797
			C354.848,138.933,373.162,130.487,379.766,123.328z"/>
		<path fill-rule="evenodd" clip-rule="evenodd" fill="#FFE500" d="M378.713,123.234c7.094-7.472,12.654-23.965,7.637-27.554
			c-5.227-3.803-5.943,10.371-14.807,19.883c-10.211,11.018-21.439,15.046-18.84,17.667
			C356.559,137.19,372.461,129.568,378.713,123.234z"/>
		<path fill-rule="evenodd" clip-rule="evenodd" fill="#FDE100" d="M377.582,123.106c6.32-6.078,12.875-22.389,8.615-24.938
			c-4.363-2.657-5.279,9.685-13.805,18.753c-9.199,9.822-19.447,13.25-17.137,15.537
			C358.193,135.413,371.682,128.616,377.582,123.106z"/>
		<path fill-rule="evenodd" clip-rule="evenodd" fill="#FCDD00" d="M376.389,122.952c5.547-4.686,13.096-20.814,9.596-22.325
			s-4.617,8.999-12.805,17.624c-8.189,8.627-17.455,11.455-15.436,13.406S370.842,127.637,376.389,122.952z"/>
	</g>
	<g>
		<path fill-rule="evenodd" clip-rule="evenodd" fill="#001764" d="M105.846,180.004l-0.127,0.223
			c-0.378,0.645-0.666,1.328-1.017,1.986c-0.253,0.475-0.615,1.09-1.15,1.26c-0.29,0.092-0.581,0.041-0.854-0.082
			c-1.207-0.553-2.979-2.617-3.905-3.813c-0.388,0.344-0.823,0.531-1.286,0.4c-0.137-0.039-0.265-0.086-0.384-0.141
			c-0.714,0.828-1.568,1.537-2.539,2.104c-1.913,1.115-3.953,2.088-5.974,2.979c-2.705,1.191-5.474,2.256-8.266,3.209
			c-6.647,2.273-13.63,4.004-20.591,4.857c-4.195,0.516-8.467,0.719-12.686,0.422c-4.011-0.279-8.038-1.02-11.813-2.465
			c-9.712-3.719-17.736-10.295-21.414-20.463c-2.849-7.877-2.609-16.846,0.127-24.718c2.719-7.877,8.051-14.992,15.106-19.262
			c9.106-5.511,19.38-5.425,29.208-2.028c11.297,4.382,20.596,13.276,27.773,23.03c3.108,4.222,5.908,8.72,8.377,13.365
			c1.695,3.189,3.316,6.559,4.604,9.947c0.222,0.582,0.354,1.211,0.41,1.857c0.152,0.035,0.309,0.084,0.467,0.152
			c0.385,0.164,0.608,0.504,0.726,0.928c1.041-0.402,3.184-1.09,4.226-0.949c0.212,0.027,0.408,0.104,0.559,0.266
			c0.35,0.377,0.373,1.256,0.335,2.035c0.515,0.191,0.963,0.406,1.277,0.641c0.241,0.184,0.428,0.416,0.493,0.723
			c0.119,0.561-0.224,1.188-0.502,1.648C106.644,178.752,106.207,179.348,105.846,180.004z"/>
		<linearGradient id="SVGID_5_" gradientUnits="userSpaceOnUse" x1="82.1455" y1="171.3008" x2="107.5956" y2="181.0701">
			<stop  offset="0" style="stop-color:#004097"/>
			<stop  offset="1" style="stop-color:#008BD5"/>
		</linearGradient>
		<path fill-rule="evenodd" clip-rule="evenodd" fill="url(#SVGID_5_)" d="M57.857,124.51c-23.765-8.211-39.031,6.525-44.091,21.184
			c-5.092,14.65-2.311,35.96,21.184,44.957c19.825,7.588,49.533-3.365,59.183-8.992c4.695-2.736,5.454-8.078,4.378-10.908
			C94.933,161.344,81.085,133.522,57.857,124.51z"/>
		<path fill-rule="evenodd" clip-rule="evenodd" fill="#00469B" d="M29.923,187.271c-14.115-8.809-20.285-23.4-15.577-33.627
			c5.094-11.097,12.44,8.805,25.318,15.441c18.641,9.627,37.371,9.723,35.291,14.643C70.627,194.01,40.206,193.629,29.923,187.271z"
			/>
		<path fill-rule="evenodd" clip-rule="evenodd" fill="#0050A2" d="M30.208,187.346c-12.997-7.869-19.961-21.994-15.566-31.1
			c4.725-9.851,11.647,8.432,24.091,14.799c17.383,8.928,34.706,8.938,32.766,13.482C67.631,193.668,39.918,193.113,30.208,187.346z
			"/>
		<path fill-rule="evenodd" clip-rule="evenodd" fill="#005AAA" d="M30.754,187.225c-11.879-6.93-19.638-20.586-15.557-28.572
			c4.355-8.607,10.855,8.057,22.864,14.154c16.125,8.232,32.04,8.154,30.241,12.324C64.897,193.129,39.895,192.404,30.754,187.225z"
			/>
		<path fill-rule="evenodd" clip-rule="evenodd" fill="#0065B3" d="M31.478,186.971c-10.76-5.99-19.313-19.18-15.546-26.045
			c3.987-7.363,10.063,7.684,21.638,13.51c14.867,7.535,29.375,7.371,27.716,11.164C62.341,192.459,40.048,191.561,31.478,186.971z"
			/>
		<path fill-rule="evenodd" clip-rule="evenodd" fill="#0070BC" d="M32.331,186.621c-9.643-5.051-18.99-17.771-15.536-23.518
			c3.618-6.117,9.271,7.311,20.411,12.867c13.609,6.838,26.709,6.586,25.19,10.004C59.913,191.691,40.329,190.623,32.331,186.621z"
			/>
		<path fill-rule="evenodd" clip-rule="evenodd" fill="#007DC8" d="M33.279,186.201c-8.524-4.113-18.666-16.367-15.526-20.99
			c3.25-4.873,8.479,6.936,19.185,12.223c12.353,6.141,24.044,5.803,22.665,8.846C57.581,190.854,40.707,189.611,33.279,186.201z"/>
		<path fill-rule="evenodd" clip-rule="evenodd" fill="#008DD7" d="M34.302,185.723c-7.405-3.172-18.342-14.959-15.515-18.463
			c2.881-3.627,7.686,6.563,17.957,11.58c11.095,5.443,21.379,5.018,20.141,7.686C55.325,189.959,41.16,188.545,34.302,185.723z"/>
		<path fill-rule="evenodd" clip-rule="evenodd" fill="#009FE8" d="M35.387,185.201c-6.287-2.234-18.018-13.553-15.506-15.936
			c2.514-2.385,6.894,6.188,16.731,10.936c9.837,4.748,18.714,4.234,17.614,6.525C53.129,189.02,41.674,187.434,35.387,185.201z"/>
		<path fill-rule="evenodd" clip-rule="evenodd" fill="#FFFFFF" d="M35.409,181.055c-5.529-2.75-9.748-6.445-13.485-10.734
			c-0.451-0.537-1.54-0.063-1.185,0.582c1.047,1.98,2.626,3.961,4.248,5.633c2.467,2.543,5.44,4.766,8.823,6.473
			c0.131,0.084,0.286,0.139,0.456,0.158c0.531,0.059,1.012-0.244,1.313-0.59c0.319-0.361,0.536-0.881,0.214-1.268
			C35.698,181.195,35.565,181.109,35.409,181.055L35.409,181.055z M36.937,184.391c-0.675-0.225-0.898-0.82-0.654-1.383
			c0.166-0.381,0.539-0.725,1.03-0.82c0.191-0.039,0.386-0.035,0.57,0.01l0.059,0.014l0.053,0.021
			c3.977,1.652,8.264,2.734,12.682,3.43c0.033,0.006,0.067,0.012,0.102,0.018c0.328,0.053,0.593,0.275,0.532,0.605
			c-0.052,0.281-0.35,0.486-0.675,0.5c-0.046,0.002-0.039,0.002-0.062,0.002c-0.034,0-0.067,0-0.101-0.002
			C45.721,186.791,41.163,186.01,36.937,184.391L36.937,184.391z"/>
		<path fill-rule="evenodd" clip-rule="evenodd" fill="#003C93" d="M54.793,124.083c-16.467-3.602-31.064,2.932-34.643,14.072
			c-3.893,12.074,15.23,2.387,29.289,6.73c20.363,6.273,32.119,17.246,33.977,12.021C87.311,146.001,66.747,126.752,54.793,124.083z
			"/>
		<path fill-rule="evenodd" clip-rule="evenodd" fill="#003A90" d="M55.137,124.323c-14.996-3.498-29.856,2.105-32.894,12.172
			c-3.307,10.867,14.39,2.094,27.942,6.326c18.956,5.885,29.916,16.265,31.618,11.427C85.253,144.54,66.264,127.023,55.137,124.323z
			"/>
		<path fill-rule="evenodd" clip-rule="evenodd" fill="#00368B" d="M55.483,124.84c-13.525-3.396-28.649,1.277-31.146,10.27
			c-2.721,9.66,13.548,1.803,26.595,5.922c17.551,5.498,27.715,15.287,29.261,10.833C83.196,143.354,65.784,127.571,55.483,124.84z"
			/>
		<path fill-rule="evenodd" clip-rule="evenodd" fill="#003286" d="M55.828,125.543c-12.054-3.292-27.44,0.451-29.396,8.369
			c-2.135,8.453,12.706,1.51,25.248,5.518c16.143,5.109,25.512,14.308,26.902,10.24C81.138,142.356,65.303,128.303,55.828,125.543z"
			/>
		<path fill-rule="evenodd" clip-rule="evenodd" fill="#002E80" d="M56.173,126.381c-10.583-3.189-26.232-0.376-27.646,6.469
			c-1.55,7.246,11.864,1.216,23.9,5.112c14.737,4.723,23.31,13.331,24.546,9.647C79.082,141.491,64.823,129.171,56.173,126.381z"/>
		<path fill-rule="evenodd" clip-rule="evenodd" fill="#00297A" d="M56.52,127.321c-9.112-3.086-25.025-1.203-25.898,4.568
			c-0.963,6.039,11.023,0.923,22.553,4.707c13.331,4.336,21.107,12.352,22.188,9.054C77.026,140.729,64.342,130.141,56.52,127.321z"
			/>
		<path fill-rule="evenodd" clip-rule="evenodd" fill="#002171" d="M56.866,128.34c-7.641-2.984-23.816-2.03-24.148,2.668
			c-0.377,4.831,10.182,0.629,21.205,4.302c11.925,3.948,18.905,11.373,19.83,8.46C74.969,140.045,63.862,131.19,56.866,128.34z"/>
		<path fill-rule="evenodd" clip-rule="evenodd" fill="#001764" d="M57.213,129.422c-6.171-2.88-22.609-2.856-22.4,0.768
			s9.34,0.336,19.857,3.896c10.519,3.561,16.703,10.395,17.474,7.867C72.914,139.426,63.383,132.303,57.213,129.422z"/>
	</g>
	<g>
		<path fill-rule="evenodd" clip-rule="evenodd" fill="#001764" d="M297.275,175.373l0.133,0.219
			c0.389,0.639,0.689,1.318,1.051,1.971c0.262,0.471,0.635,1.08,1.174,1.242c0.293,0.086,0.582,0.029,0.854-0.1
			c1.199-0.574,2.936-2.674,3.844-3.887c0.393,0.338,0.832,0.518,1.293,0.377c0.137-0.041,0.264-0.092,0.383-0.148
			c0.729,0.818,1.596,1.51,2.578,2.061c1.934,1.082,3.992,2.02,6.031,2.873c2.729,1.145,5.518,2.158,8.33,3.063
			c6.691,2.154,13.713,3.76,20.695,4.488c4.209,0.439,8.488,0.564,12.705,0.193c4.012-0.355,8.029-1.168,11.783-2.684
			c9.658-3.898,17.578-10.629,21.082-20.873c2.715-7.938,2.32-16.911-0.555-24.742c-2.857-7.836-8.318-14.861-15.455-19.008
			c-9.211-5.351-19.492-5.078-29.271-1.5c-11.234,4.592-20.389,13.666-27.406,23.56c-3.037,4.284-5.764,8.836-8.154,13.53
			c-1.641,3.225-3.205,6.627-4.436,10.041c-0.213,0.586-0.334,1.221-0.379,1.869c-0.152,0.035-0.307,0.088-0.465,0.158
			c-0.381,0.172-0.6,0.518-0.711,0.943c-1.047-0.383-3.205-1.033-4.246-0.873c-0.211,0.031-0.406,0.111-0.555,0.275
			c-0.342,0.383-0.352,1.264-0.299,2.043c-0.512,0.201-0.957,0.424-1.268,0.666c-0.238,0.188-0.422,0.424-0.48,0.73
			c-0.111,0.564,0.244,1.186,0.529,1.643C296.457,174.135,296.904,174.723,297.275,175.373z"/>
		<linearGradient id="SVGID_6_" gradientUnits="userSpaceOnUse" x1="321.1748" y1="166.7969" x2="295.9479" y2="177.5051">
			<stop  offset="0" style="stop-color:#004097"/>
			<stop  offset="1" style="stop-color:#008BD5"/>
		</linearGradient>
		<path fill-rule="evenodd" clip-rule="evenodd" fill="url(#SVGID_6_)" d="M344.355,118.95c23.648-8.652,39.186,5.822,44.504,20.404
			c5.35,14.574,2.934,35.955-20.43,45.388c-19.713,7.955-49.641-2.469-59.398-7.926c-4.748-2.654-5.6-7.988-4.57-10.84
			C307.879,156.494,321.26,128.392,344.355,118.95z"/>
		<path fill-rule="evenodd" clip-rule="evenodd" fill="#00469B" d="M373.404,181.27c13.977-9.076,19.9-23.795,15.012-33.947
			c-5.291-11.016-12.301,9.041-25.078,15.917c-18.492,9.975-37.242,10.412-35.074,15.301
			C332.773,188.754,363.221,187.818,373.404,181.27z"/>
		<path fill-rule="evenodd" clip-rule="evenodd" fill="#0050A2" d="M373.121,181.348c12.875-8.113,19.602-22.379,15.045-31.416
			c-4.9-9.775-11.514,8.652-23.861,15.251c-17.246,9.254-34.586,9.578-32.566,14.094C335.768,188.355,363.5,187.299,373.121,181.348
			z"/>
		<path fill-rule="evenodd" clip-rule="evenodd" fill="#005AAA" d="M372.572,181.236c11.77-7.154,19.301-20.965,15.078-28.885
			c-4.51-8.537-10.729,8.264-22.645,14.584c-15.998,8.535-31.932,8.746-30.059,12.887
			C338.494,187.768,363.512,186.586,372.572,181.236z"/>
		<path fill-rule="evenodd" clip-rule="evenodd" fill="#0065B3" d="M371.842,180.996c10.668-6.193,19.002-19.551,15.111-26.355
			c-4.117-7.297-9.939,7.875-21.426,13.918c-14.752,7.813-29.277,7.912-27.551,11.68
			C341.041,187.049,363.342,185.746,371.842,180.996z"/>
		<path fill-rule="evenodd" clip-rule="evenodd" fill="#0070BC" d="M370.984,180.662c9.564-5.232,18.701-18.137,15.145-23.826
			c-3.729-6.057-9.154,7.486-20.211,13.252c-13.504,7.094-26.623,7.078-25.043,10.473
			C343.459,186.238,363.045,184.813,370.984,180.662z"/>
		<path fill-rule="evenodd" clip-rule="evenodd" fill="#007DC8" d="M370.027,180.258c8.461-4.271,18.402-16.723,15.178-21.295
			c-3.338-4.818-8.367,7.098-18.992,12.584c-12.26,6.373-23.969,6.246-22.535,9.268C345.779,185.357,362.65,183.807,370.027,180.258
			z"/>
		<path fill-rule="evenodd" clip-rule="evenodd" fill="#008DD7" d="M368.994,179.797c7.357-3.311,18.102-15.307,15.211-18.764
			c-2.945-3.578-7.58,6.709-17.775,11.918c-11.012,5.652-21.314,5.412-20.027,8.061C348.023,184.42,362.178,182.748,368.994,179.797
			z"/>
		<path fill-rule="evenodd" clip-rule="evenodd" fill="#009FE8" d="M367.898,179.295c6.256-2.352,17.803-13.895,15.246-16.234
			s-6.793,6.318-16.559,11.252c-9.766,4.93-18.66,4.578-17.521,6.854C350.205,183.439,361.645,181.645,367.898,179.295z"/>
		<path fill-rule="evenodd" clip-rule="evenodd" fill="#FFFFFF" d="M367.805,175.146c5.488-2.855,9.648-6.631,13.314-10.992
			c0.443-0.547,1.539-0.09,1.195,0.563c-1.014,2-2.561,4.012-4.154,5.715c-2.426,2.59-5.363,4.867-8.721,6.639
			c-0.129,0.088-0.283,0.145-0.455,0.166c-0.529,0.068-1.016-0.225-1.324-0.564c-0.326-0.357-0.551-0.873-0.236-1.266
			C367.518,175.289,367.65,175.201,367.805,175.146L367.805,175.146z M366.334,178.512c0.67-0.238,0.885-0.838,0.631-1.396
			c-0.174-0.379-0.553-0.717-1.045-0.803c-0.193-0.035-0.389-0.027-0.572,0.02l-0.057,0.016l-0.055,0.023
			c-3.951,1.727-8.225,2.889-12.635,3.664c-0.033,0.006-0.066,0.012-0.102,0.018c-0.326,0.061-0.588,0.287-0.521,0.617
			c0.057,0.281,0.357,0.479,0.684,0.488c0.047,0,0.039,0,0.063,0c0.033,0,0.066-0.002,0.1-0.002
			C357.58,181.074,362.131,180.209,366.334,178.512L366.334,178.512z"/>
		<path fill-rule="evenodd" clip-rule="evenodd" fill="#003C93" d="M347.416,118.466c16.422-3.904,31.146,2.37,34.922,13.456
			c4.105,12.017-15.205,2.668-29.205,7.271c-20.273,6.648-31.852,17.846-33.803,12.649
			C315.242,140.999,335.496,121.356,347.416,118.466z"/>
		<path fill-rule="evenodd" clip-rule="evenodd" fill="#003A90" d="M347.076,118.713c14.951-3.775,29.924,1.564,33.137,11.586
			c3.5,10.818-14.367,2.357-27.861,6.84c-18.873,6.235-29.666,16.826-31.453,12.014
			C317.277,139.497,335.982,121.618,347.076,118.713z"/>
		<path fill-rule="evenodd" clip-rule="evenodd" fill="#00368B" d="M346.738,119.237c13.48-3.645,28.701,0.758,31.355,9.715
			c2.891,9.621-13.531,2.05-26.52,6.411c-17.475,5.821-27.479,15.807-29.104,11.376
			C319.316,138.274,336.475,122.157,346.738,119.237z"/>
		<path fill-rule="evenodd" clip-rule="evenodd" fill="#003286" d="M346.406,119.948c12.01-3.516,27.477-0.048,29.57,7.844
			c2.283,8.423-12.693,1.74-25.178,5.98c-16.072,5.409-25.291,14.787-26.754,10.74C321.359,137.237,336.969,122.881,346.406,119.948
			z"/>
		<path fill-rule="evenodd" clip-rule="evenodd" fill="#002E80" d="M346.074,120.792c10.539-3.386,26.254-0.854,27.787,5.974
			c1.676,7.225-11.857,1.432-23.836,5.551c-14.672,4.996-23.104,13.768-24.404,10.103
			C323.402,136.334,337.465,123.743,346.074,120.792z"/>
		<path fill-rule="evenodd" clip-rule="evenodd" fill="#00297A" d="M345.744,121.739c9.068-3.255,25.029-1.658,26.004,4.104
			c1.068,6.027-11.02,1.123-22.496,5.121c-13.27,4.582-20.916,12.748-22.055,9.466C325.449,135.533,337.961,124.704,345.744,121.739
			z"/>
		<path fill-rule="evenodd" clip-rule="evenodd" fill="#002171" d="M345.414,122.765c7.598-3.125,23.807-2.465,24.221,2.231
			c0.461,4.83-10.182,0.815-21.152,4.692c-11.869,4.169-18.729,11.729-19.705,8.829
			C327.494,134.811,338.461,125.745,345.414,122.765z"/>
		<path fill-rule="evenodd" clip-rule="evenodd" fill="#001764" d="M345.086,123.855c6.127-2.995,22.584-3.271,22.438,0.361
			s-9.346,0.507-19.813,4.262c-10.467,3.756-16.541,10.71-17.355,8.192C329.543,134.154,338.959,126.85,345.086,123.855z"/>
	</g>
	<g>
		<path fill-rule="evenodd" clip-rule="evenodd" fill="#B50005" d="M103.338,179.674l0.248,0.027
			c0.727,0.074,1.432,0.244,2.152,0.348c0.521,0.076,1.216,0.145,1.666-0.193c0.244-0.184,0.377-0.451,0.442-0.75
			c0.286-1.316-0.271-3.992-0.651-5.463c0.498-0.113,0.903-0.359,1.076-0.816c0.051-0.135,0.089-0.268,0.117-0.398
			c1.07-0.092,2.13-0.371,3.148-0.83c2.005-0.904,3.976-1.998,5.87-3.125c2.535-1.508,5.008-3.145,7.411-4.865
			c5.719-4.096,11.215-8.789,16.016-13.984c2.893-3.132,5.588-6.511,7.863-10.143c2.164-3.453,3.98-7.191,5.096-11.143
			c2.87-10.166,2.51-20.646-3.229-29.698c-4.447-7.013-11.58-12.144-19.341-14.579c-7.755-2.451-16.467-2.309-23.985,0.936
			c-9.704,4.188-15.739,12.656-18.93,22.725c-3.294,11.858-1.886,24.762,1.453,36.436c1.445,5.055,3.286,10.019,5.44,14.8
			c1.479,3.283,3.143,6.613,5.018,9.68c0.322,0.527,0.735,1.01,1.205,1.441c-0.063,0.145-0.117,0.301-0.159,0.471
			c-0.101,0.412,0.032,0.799,0.292,1.146c-0.931,0.613-2.739,1.961-3.249,2.898c-0.104,0.189-0.162,0.396-0.125,0.615
			c0.086,0.51,0.757,1.051,1.388,1.482c-0.156,0.535-0.256,1.031-0.259,1.428c-0.001,0.307,0.07,0.598,0.269,0.832
			c0.367,0.432,1.06,0.523,1.584,0.57C101.889,179.584,102.614,179.58,103.338,179.674z"/>
		<linearGradient id="SVGID_7_" gradientUnits="userSpaceOnUse" x1="111.6738" y1="155.7559" x2="105.1838" y2="181.7861">
			<stop  offset="0" style="stop-color:#E50012"/>
			<stop  offset="1" style="stop-color:#B50005"/>
		</linearGradient>
		<path fill-rule="evenodd" clip-rule="evenodd" fill="url(#SVGID_7_)" d="M88.592,107.395
			c7.715-24.348,28.269-28.103,42.699-23.541c14.441,4.531,29.397,19.467,22.455,44.059c-5.861,20.75-32.045,38.583-42.16,43.148
			c-4.923,2.221-9.537-0.332-11.103-2.893C95.277,159.648,81.817,131.779,88.592,107.395z"/>
		<path fill-rule="evenodd" clip-rule="evenodd" fill="#E62318" d="M154.099,121.788c1.518-16.797-6.19-30.518-16.958-32.736
			c-11.673-2.418-0.525,15.424-3.002,29.916c-3.569,20.989-14.619,36.392-9.549,37.611
			C135.174,159.139,152.946,133.988,154.099,121.788z"/>
		<path fill-rule="evenodd" clip-rule="evenodd" fill="#E73C22" d="M153.989,122.065c1.586-15.322-5.286-29.418-14.994-31.227
			c-10.484-1.98-0.347,14.551-2.775,28.527c-3.365,19.546-13.647,33.744-8.953,34.853
			C136.686,156.48,152.715,133.448,153.989,122.065z"/>
		<path fill-rule="evenodd" clip-rule="evenodd" fill="#E9502E" d="M153.569,122.441c1.654-13.849-4.381-28.317-13.029-29.717
			c-9.296-1.544-0.168,13.68-2.549,27.14c-3.162,18.102-12.676,31.094-8.357,32.095C137.89,153.922,152.176,133.005,153.569,122.441
			z"/>
		<path fill-rule="evenodd" clip-rule="evenodd" fill="#EA613B" d="M152.941,122.883c1.722-12.375-3.478-27.216-11.065-28.207
			c-8.106-1.106,0.012,12.809-2.322,25.752c-2.958,16.657-11.703,28.445-7.761,29.339
			C138.885,151.428,151.428,132.63,152.941,122.883z"/>
		<path fill-rule="evenodd" clip-rule="evenodd" fill="#ED774F" d="M152.163,123.374c1.79-10.9-2.572-26.114-9.102-26.697
			c-6.918-0.669,0.19,11.938-2.096,24.365c-2.754,15.213-10.73,25.795-7.164,26.581C139.731,148.984,150.53,132.303,152.163,123.374
			z"/>
		<path fill-rule="evenodd" clip-rule="evenodd" fill="#F08F69" d="M151.271,123.901c1.857-9.426-1.668-25.014-7.138-25.188
			c-5.729-0.232,0.369,11.064-1.869,22.977c-2.55,13.77-9.758,23.146-6.567,23.824C140.462,146.575,149.518,132.013,151.271,123.901
			z"/>
		<path fill-rule="evenodd" clip-rule="evenodd" fill="#F3AB8A" d="M150.292,124.456c1.925-7.951-0.765-23.912-5.175-23.678
			c-4.539,0.205,0.549,10.194-1.642,21.59c-2.346,12.324-8.787,20.497-5.973,21.066C141.106,144.196,148.417,131.75,150.292,124.456
			z"/>
		<path fill-rule="evenodd" clip-rule="evenodd" fill="#F8CEB9" d="M149.239,125.034c1.994-6.478,0.141-22.811-3.21-22.168
			c-3.35,0.643,0.729,9.322-1.415,20.203c-2.143,10.88-7.814,17.848-5.375,18.309C141.677,141.838,147.247,131.512,149.239,125.034z
			"/>
		<path fill-rule="evenodd" clip-rule="evenodd" fill="#FFFFFF" d="M145.996,122.59c1.141-6.164,0.767-11.816-0.357-17.426
			c-0.15-0.689,0.867-1.298,1.158-0.624c0.922,2.034,1.527,4.503,1.867,6.826c0.516,3.531,0.481,7.287-0.197,11.072
			c-0.012,0.157-0.061,0.317-0.147,0.469c-0.27,0.47-0.791,0.683-1.238,0.727c-0.473,0.046-1.006-0.085-1.115-0.578
			C145.932,122.91,145.944,122.749,145.996,122.59L145.996,122.59z M147.687,125.823L147.687,125.823
			c-1.248,4.424-3.347,8.623-6.172,12.513c-0.021,0.028-0.04,0.056-0.06,0.083c-0.014,0.019-0.01,0.014-0.038,0.05
			c-0.204,0.258-0.54,0.38-0.79,0.256c-0.295-0.147-0.31-0.495-0.157-0.796c0.016-0.031,0.032-0.063,0.048-0.094
			c2.083-4.032,3.785-8.187,4.859-12.427l0.015-0.057l0.023-0.056c0.075-0.178,0.188-0.34,0.331-0.475
			c0.366-0.345,0.856-0.445,1.251-0.355C147.582,124.6,147.913,125.137,147.687,125.823z"/>
		<path fill-rule="evenodd" clip-rule="evenodd" fill="#E40012" d="M90.078,104.631c6.975-15.631,20.737-23.71,31.544-20.023
			c11.724,3.981-7.186,13.896-12.15,27.994c-7.207,20.408-5.638,36.557-10.813,34.976C87.846,144.292,85.058,116.01,90.078,104.631z
			"/>
		<path fill-rule="evenodd" clip-rule="evenodd" fill="#E30011" d="M90.061,105.056c6.181-14.364,19.375-23.212,29.023-19.721
			c10.435,3.745-6.914,13.033-11.666,26.651c-6.673,19.025-5.092,34.171-9.874,32.691C87.929,141.737,85.556,115.776,90.061,105.056
			z"/>
		<path fill-rule="evenodd" clip-rule="evenodd" fill="#E00011" d="M90.259,105.646c5.387-13.099,18.013-22.713,26.503-19.417
			c9.146,3.509-6.643,12.17-11.181,25.307c-6.14,17.644-4.547,31.786-8.937,30.408C88.228,139.348,86.268,115.708,90.259,105.646z"
			/>
		<path fill-rule="evenodd" clip-rule="evenodd" fill="#DF0011" d="M90.602,106.346c4.594-11.832,16.65-22.214,23.983-19.112
			c7.856,3.271-6.371,11.307-10.696,23.962c-5.606,16.262-4.002,29.4-7.999,28.124C88.671,137.069,87.125,115.749,90.602,106.346z"
			/>
		<path fill-rule="evenodd" clip-rule="evenodd" fill="#DC0010" d="M91.049,107.127c3.801-10.564,15.289-21.716,21.464-18.809
			c6.567,3.035-6.101,10.443-10.212,22.617c-5.072,14.88-3.456,27.016-7.062,25.84C89.219,134.872,88.086,115.871,91.049,107.127z"
			/>
		<path fill-rule="evenodd" clip-rule="evenodd" fill="#D8000F" d="M91.577,107.969c3.007-9.299,13.926-21.218,18.943-18.504
			c5.278,2.797-5.829,9.578-9.728,21.272c-4.539,13.497-2.91,24.63-6.123,23.556C89.846,132.733,89.127,116.053,91.577,107.969z"/>
		<path fill-rule="evenodd" clip-rule="evenodd" fill="#D4000F" d="M92.165,108.858c2.214-8.032,12.564-20.719,16.424-18.2
			c3.989,2.561-5.558,8.716-9.243,19.929c-4.005,12.114-2.365,22.244-5.185,21.271C90.535,130.643,90.231,116.284,92.165,108.858z"
			/>
		<path fill-rule="evenodd" clip-rule="evenodd" fill="#CF000E" d="M92.802,109.786c1.421-6.767,11.203-20.221,13.903-17.896
			c2.701,2.323-5.286,7.852-8.758,18.584c-3.473,10.732-1.819,19.859-4.247,18.988S91.382,116.551,92.802,109.786z"/>
	</g>
	<g>
		<path fill-rule="evenodd" clip-rule="evenodd" fill="#0068B6" d="M98.357,145.679l0.211-0.175
			c0.615-0.514,1.286-0.936,1.919-1.422c0.457-0.352,1.044-0.844,1.14-1.459c0.052-0.332-0.046-0.644-0.219-0.924
			c-0.764-1.24-3.192-2.867-4.584-3.701c0.3-0.479,0.428-0.986,0.22-1.475c-0.063-0.144-0.132-0.275-0.207-0.398
			c0.757-0.912,1.364-1.959,1.806-3.113c0.87-2.273,1.573-4.664,2.191-7.021c0.827-3.154,1.512-6.358,2.078-9.572
			c1.349-7.649,2.079-15.586,1.899-23.362c-0.109-4.687-0.557-9.408-1.516-13.996c-0.912-4.361-2.306-8.671-4.397-12.594
			c-5.384-10.092-13.492-17.891-24.681-20.36c-8.669-1.913-18.003-0.267-25.805,3.952C40.602,54.26,33.991,61.212,30.619,69.62
			c-4.353,10.852-2.679,22.119,2.385,32.39c6.32,11.729,17.048,20.571,28.345,26.95c4.892,2.762,10.021,5.143,15.254,7.139
			c3.594,1.369,7.364,2.629,11.103,3.521c0.642,0.153,1.321,0.201,2.005,0.163c0.059,0.163,0.135,0.325,0.23,0.489
			c0.23,0.396,0.62,0.591,1.08,0.654c-0.259,1.205-0.646,3.664-0.339,4.787c0.063,0.228,0.171,0.433,0.362,0.572
			c0.448,0.326,1.37,0.216,2.18,0.054c0.279,0.535,0.572,0.995,0.866,1.304c0.228,0.236,0.501,0.406,0.829,0.43
			c0.605,0.045,1.208-0.428,1.646-0.805C97.17,146.749,97.726,146.176,98.357,145.679z"/>
		<linearGradient id="SVGID_8_" gradientUnits="userSpaceOnUse" x1="84.7915" y1="121.1958" x2="98.5773" y2="148.2519">
			<stop  offset="0" style="stop-color:#009FE8"/>
			<stop  offset="1" style="stop-color:#D2ECFA"/>
		</linearGradient>
		<path fill-rule="evenodd" clip-rule="evenodd" fill="url(#SVGID_8_)" d="M32.979,101.535
			c-12.245-24.833,0.796-43.872,15.33-51.689c14.521-7.851,37.212-8.083,50.235,16.331c10.984,20.603,4.123,54.918-0.267,66.383
			c-2.136,5.578-7.6,7.235-10.721,6.49C77.177,136.572,45.975,125.655,32.979,101.535z"/>
		<path fill-rule="evenodd" clip-rule="evenodd" fill="#00A2E8" d="M94.239,61.177c-11.381-14.143-27.576-18.668-37.535-11.92
			C45.897,56.562,67.823,61.561,76.743,74.68c12.931,18.986,15.92,39.543,20.74,36.5C107.557,104.84,102.465,71.489,94.239,61.177z"
			/>
		<path fill-rule="evenodd" clip-rule="evenodd" fill="#00A7EA" d="M94.361,61.478c-10.227-13.06-26.057-18.53-34.894-12.299
			c-9.563,6.708,10.606,11.491,19.177,24.175c12.009,17.713,14.69,36.736,19.14,33.904
			C106.737,101.603,101.884,71.253,94.361,61.478z"/>
		<path fill-rule="evenodd" clip-rule="evenodd" fill="#00ADEB" d="M94.318,62.097C85.245,50.121,69.782,43.707,62.067,49.42
			c-8.319,6.11,10.093,10.678,18.314,22.927c11.088,16.438,13.461,33.93,17.539,31.31C105.752,98.684,101.138,71.336,94.318,62.097z
			"/>
		<path fill-rule="evenodd" clip-rule="evenodd" fill="#00B5ED" d="M94.165,62.932c-7.919-10.894-23.017-18.253-29.608-13.057
			c-7.077,5.515,9.579,9.867,17.452,21.68c10.166,15.165,12.231,31.123,15.938,28.716C104.658,95.98,100.282,71.635,94.165,62.932z"
			/>
		<path fill-rule="evenodd" clip-rule="evenodd" fill="#3EBEEF" d="M93.931,63.92c-6.765-9.809-21.497-18.113-26.966-13.434
			c-5.834,4.917,9.066,9.053,16.59,20.432C92.799,84.81,94.556,99.235,97.893,97.04C103.482,93.431,99.344,72.088,93.931,63.92z"/>
		<path fill-rule="evenodd" clip-rule="evenodd" fill="#73C9F2" d="M93.637,65.028c-5.611-8.727-19.977-17.975-24.324-13.813
			c-4.589,4.321,8.554,8.241,15.729,19.184c8.322,12.618,9.771,25.511,12.737,23.526C102.247,91,98.347,72.66,93.637,65.028z"/>
		<path fill-rule="evenodd" clip-rule="evenodd" fill="#A3DAF6" d="M93.296,66.225c-4.458-7.643-18.457-17.836-21.682-14.191
			c-3.347,3.725,8.04,7.43,14.866,17.936c7.4,11.346,8.541,22.705,11.137,20.934C100.964,88.659,97.303,73.322,93.296,66.225z"/>
		<path fill-rule="evenodd" clip-rule="evenodd" fill="#D2ECFA" d="M92.917,67.497c-3.304-6.56-16.937-17.697-19.039-14.57
			c-2.103,3.128,7.527,6.617,14.005,16.688s7.311,19.898,9.535,18.339C99.644,86.393,96.221,74.057,92.917,67.497z"/>
		<path fill-rule="evenodd" clip-rule="evenodd" fill="#FFFFFF" d="M88.59,68.161c-3.727-5.648-8.238-9.711-13.296-13.154
			c-0.631-0.412-0.301-1.682,0.427-1.391c2.23,0.844,4.543,2.273,6.54,3.797c3.036,2.316,5.816,5.239,8.122,8.691
			c0.108,0.131,0.189,0.293,0.236,0.477c0.143,0.574-0.101,1.148-0.413,1.533c-0.329,0.406-0.839,0.725-1.291,0.431
			C88.78,68.458,88.67,68.324,88.59,68.161L88.59,68.161z M92.31,69.325c-0.339-0.706-0.995-0.859-1.545-0.505
			c-0.372,0.24-0.675,0.702-0.699,1.257c-0.01,0.217,0.024,0.43,0.099,0.625l0.023,0.063l0.031,0.055
			c2.34,4.113,4.132,8.653,5.539,13.398c0.011,0.035,0.021,0.072,0.033,0.109c0.107,0.352,0.379,0.607,0.715,0.49
			c0.287-0.101,0.454-0.459,0.419-0.818c-0.005-0.051-0.005-0.043-0.009-0.067c-0.005-0.036-0.01-0.073-0.016-0.11
			C96.173,78.602,94.653,73.715,92.31,69.325L92.31,69.325z"/>
		<path fill-rule="evenodd" clip-rule="evenodd" fill="#009EE7" d="M32.059,98.237c-6.303-17.529-1.729-34.568,9.357-40.216
			c12.015-6.138,4.844,16.358,11.55,31.128c9.693,21.396,22.97,32.613,17.798,35.459C59.973,130.569,36.692,110.952,32.059,98.237z"
			/>
		<path fill-rule="evenodd" clip-rule="evenodd" fill="#009BE4" d="M32.364,98.577c-5.969-15.93-2.406-33.113,7.642-38.002
			c10.843-5.307,4.407,15.48,10.919,29.712c9.071,19.91,21.607,30.346,16.814,32.962C58.128,128.533,36.9,110.381,32.364,98.577z"/>
		<path fill-rule="evenodd" clip-rule="evenodd" fill="#0099E2" d="M32.957,98.876c-5.634-14.33-3.084-31.66,5.926-35.788
			c9.673-4.479,3.972,14.602,10.288,28.294c8.45,18.426,20.246,28.078,15.831,30.464C56.573,126.456,37.397,109.768,32.957,98.876z"
			/>
		<path fill-rule="evenodd" clip-rule="evenodd" fill="#0095DE" d="M33.745,99.147c-5.299-12.73-3.762-30.205,4.21-33.574
			c8.502-3.648,3.536,13.723,9.657,26.877c7.829,16.941,18.885,25.811,14.848,27.967C55.212,124.351,38.089,109.127,33.745,99.147z"
			/>
		<path fill-rule="evenodd" clip-rule="evenodd" fill="#0091DA" d="M34.673,99.397c-4.964-11.131-4.438-28.751,2.495-31.359
			c7.33-2.819,3.1,12.843,9.025,25.459c7.207,15.457,17.522,23.543,13.864,25.469C53.993,122.225,38.922,108.465,34.673,99.397z"/>
		<path fill-rule="evenodd" clip-rule="evenodd" fill="#008CD6" d="M35.708,99.633c-4.629-9.531-5.115-27.299,0.779-29.146
			c6.16-1.989,2.664,11.963,8.396,24.042c6.585,13.972,16.159,21.275,12.88,22.971C52.878,120.084,39.861,107.789,35.708,99.633z"/>
		<path fill-rule="evenodd" clip-rule="evenodd" fill="#0087D1" d="M36.826,99.856c-4.295-7.932-5.794-25.844-0.937-26.933
			c4.989-1.159,2.228,11.085,7.765,22.625c5.964,12.487,14.798,19.009,11.897,20.474C51.847,117.932,40.883,107.1,36.826,99.856z"/>
		<path fill-rule="evenodd" clip-rule="evenodd" fill="#0080CA" d="M38.01,100.07c-3.96-6.332-6.471-24.39-2.652-24.719
			s1.791,10.206,7.134,21.208s13.436,16.74,10.913,17.976S41.971,106.402,38.01,100.07z"/>
	</g>
	<g>
		<path fill-rule="evenodd" clip-rule="evenodd" fill="#750069" d="M297.398,182.508l-0.26-0.076
			c-0.762-0.225-1.541-0.344-2.307-0.537c-0.555-0.139-1.283-0.357-1.605-0.883c-0.174-0.285-0.203-0.611-0.152-0.938
			c0.229-1.447,1.842-3.918,2.803-5.242c-0.459-0.32-0.771-0.736-0.766-1.268c0.002-0.158,0.016-0.307,0.039-0.451
			c-1.045-0.533-2.002-1.254-2.85-2.137c-1.668-1.74-3.227-3.656-4.693-5.574c-1.967-2.568-3.818-5.24-5.566-7.967
			c-4.16-6.492-7.861-13.495-10.662-20.716c-1.689-4.352-3.08-8.873-3.951-13.475c-0.826-4.377-1.189-8.896-0.764-13.343
			c1.096-11.438,5.574-21.862,14.918-28.622c7.238-5.238,16.447-7.47,25.232-6.723c8.783,0.729,17.516,4.468,23.826,10.844
			c8.143,8.229,10.906,19.261,10.17,30.734c-1.332,13.32-7.82,25.754-15.771,36.15c-3.441,4.502-7.248,8.75-11.299,12.684
			c-2.779,2.701-5.766,5.373-8.861,7.693c-0.531,0.398-1.139,0.715-1.781,0.955c0.008,0.172,0,0.354-0.025,0.541
			c-0.061,0.459-0.344,0.793-0.744,1.035c0.699,1.004,1.994,3.109,2.139,4.266c0.031,0.234,0.01,0.467-0.113,0.672
			c-0.287,0.479-1.178,0.748-1.982,0.924c-0.053,0.604-0.146,1.145-0.299,1.547c-0.119,0.309-0.307,0.572-0.6,0.727
			c-0.539,0.285-1.273,0.092-1.82-0.078C298.896,183.014,298.168,182.711,297.398,182.508z"/>
		<linearGradient id="SVGID_9_" gradientUnits="userSpaceOnUse" x1="301.5703" y1="154.1699" x2="299.929" y2="185.4882">
			<stop  offset="0" style="stop-color:#A40081"/>
			<stop  offset="1" style="stop-color:#CEA6CC"/>
		</linearGradient>
		<path fill-rule="evenodd" clip-rule="evenodd" fill="url(#SVGID_9_)" d="M340.652,115.689
			c1.779-27.743-17.479-40.014-33.826-41.368c-16.346-1.392-37.295,7.5-39.949,35.172c-2.232,23.348,17.174,52.142,25.586,60.921
			c4.092,4.271,9.748,3.602,12.334,1.664C313.393,165.637,337.912,143.08,340.652,115.689z"/>
		<path fill-rule="evenodd" clip-rule="evenodd" fill="#A61785" d="M268.928,103.168c5.064-17.568,18.227-28.229,29.957-26.02
			c12.725,2.379-5.525,15.772-8.717,31.413c-4.641,22.644,0.457,42.741-5.135,41.878
			C273.352,148.655,265.301,115.95,268.928,103.168z"/>
		<path fill-rule="evenodd" clip-rule="evenodd" fill="#AA2D8A" d="M268.93,103.494c4.418-16.11,16.883-27.491,27.385-25.309
			c11.354,2.329-5.363,14.821-8.402,29.921c-4.279,21.104,0.518,39.668-4.652,38.85C272.869,145.349,265.744,115.5,268.93,103.494z"
			/>
		<path fill-rule="evenodd" clip-rule="evenodd" fill="#AE3B8F" d="M269.205,104.045c3.77-14.65,15.539-26.753,24.811-24.596
			c9.982,2.279-5.201,13.867-8.084,28.428c-3.918,19.563,0.576,36.594-4.174,35.822C272.66,142.27,266.463,115.278,269.205,104.045z
			"/>
		<path fill-rule="evenodd" clip-rule="evenodd" fill="#B24C96" d="M269.666,104.751c3.121-13.192,14.193-26.017,22.236-23.884
			c8.611,2.229-5.041,12.914-7.77,26.934c-3.557,18.021,0.637,33.521-3.691,32.796C272.635,139.345,267.365,115.208,269.666,104.751
			z"/>
		<path fill-rule="evenodd" clip-rule="evenodd" fill="#B65C9F" d="M270.258,105.567c2.475-11.732,12.85-25.278,19.664-23.172
			c7.238,2.181-4.881,11.963-7.455,25.441c-3.193,16.48,0.697,30.447-3.209,29.768C272.742,136.53,268.398,115.249,270.258,105.567z
			"/>
		<path fill-rule="evenodd" clip-rule="evenodd" fill="#BC71AA" d="M270.951,106.467c1.826-10.275,11.504-24.542,17.088-22.46
			c5.869,2.13-4.717,11.009-7.137,23.948c-2.834,14.939,0.756,27.373-2.729,26.74C272.949,133.799,269.533,115.374,270.951,106.467z
			"/>
		<path fill-rule="evenodd" clip-rule="evenodd" fill="#C287B8" d="M271.721,107.432c1.18-8.816,10.16-23.805,14.516-21.748
			c4.498,2.081-4.557,10.056-6.82,22.455c-2.473,13.398,0.814,24.301-2.248,23.713C273.236,131.133,270.746,115.563,271.721,107.432
			z"/>
		<path fill-rule="evenodd" clip-rule="evenodd" fill="#CEA6CC" d="M272.555,108.449c0.533-7.356,8.814-23.066,11.941-21.035
			c3.127,2.03-4.395,9.103-6.504,20.962c-2.111,11.857,0.875,21.227-1.768,20.686C273.584,128.52,272.021,115.805,272.555,108.449z"
			/>
		<path fill-rule="evenodd" clip-rule="evenodd" fill="#FFFFFF" d="M276.787,107.323c1.27-6.688,3.865-12.234,7.201-17.43
			c0.422-0.633-0.365-1.666-0.924-1.107c-1.727,1.672-3.309,3.912-4.563,6.115c-1.906,3.349-3.348,7.15-4.148,11.249
			c-0.051,0.164-0.064,0.346-0.035,0.534c0.088,0.584,0.529,1.016,0.965,1.244c0.457,0.24,1.047,0.328,1.35-0.123
			C276.725,107.67,276.775,107.504,276.787,107.323L276.787,107.323z M273.811,109.885L273.811,109.885
			c-0.479,4.977-0.01,10.078,1.313,15.168c0.01,0.036,0.02,0.072,0.027,0.109c0.008,0.023,0.004,0.016,0.02,0.064
			c0.105,0.346,0.395,0.607,0.697,0.585c0.354-0.026,0.506-0.372,0.471-0.738c-0.004-0.038-0.01-0.077-0.014-0.114
			c-0.516-4.927-0.602-9.82-0.021-14.54l0.008-0.063l-0.002-0.065c-0.006-0.21-0.057-0.42-0.146-0.614
			c-0.234-0.5-0.689-0.805-1.123-0.876C274.396,108.695,273.854,109.1,273.811,109.885z"/>
		<path fill-rule="evenodd" clip-rule="evenodd" fill="#A10080" d="M340.238,112.288c-0.896-18.645-11.605-32.474-23.953-33.217
			c-13.389-0.822,1.791,16.982,1.264,33.252c-0.744,23.56-8.668,39.201-2.826,39.742
			C326.918,153.213,340.834,125.836,340.238,112.288z"/>
		<path fill-rule="evenodd" clip-rule="evenodd" fill="#A00080" d="M340.09,112.723c-0.594-17.04-10.43-31.409-21.531-31.871
			c-11.996-0.528,1.855,16,1.303,31.697c-0.74,21.944-8.281,36.568-2.877,37.05C327.838,150.602,340.424,125.395,340.09,112.723z"/>
		<path fill-rule="evenodd" clip-rule="evenodd" fill="#9D0080" d="M339.658,113.236c-0.291-15.435-9.25-30.344-19.109-30.523
			c-10.602-0.235,1.922,15.017,1.342,30.141c-0.734,20.331-7.895,33.938-2.924,34.359
			C328.475,148.068,339.734,125.032,339.658,113.236z"/>
		<path fill-rule="evenodd" clip-rule="evenodd" fill="#9B007E" d="M339.037,113.801c0.012-13.83-8.072-29.279-16.688-29.177
			c-9.209,0.058,1.988,14.034,1.383,28.585c-0.73,18.715-7.51,31.307-2.977,31.668C328.922,145.586,338.854,124.719,339.037,113.801
			z"/>
		<path fill-rule="evenodd" clip-rule="evenodd" fill="#96007C" d="M338.279,114.405c0.314-12.226-6.895-28.215-14.264-27.83
			c-7.816,0.35,2.053,13.051,1.42,27.027c-0.727,17.102-7.123,28.676-3.025,28.979C329.232,143.143,337.834,124.446,338.279,114.405
			z"/>
		<path fill-rule="evenodd" clip-rule="evenodd" fill="#92007A" d="M337.418,115.036c0.617-10.62-5.717-27.148-11.842-26.483
			c-6.424,0.644,2.117,12.068,1.459,25.472c-0.721,15.488-6.736,26.045-3.074,26.287C329.439,140.728,336.713,124.2,337.418,115.036
			z"/>
		<path fill-rule="evenodd" clip-rule="evenodd" fill="#8D0078" d="M336.475,115.69c0.922-9.016-4.539-26.084-9.418-25.137
			c-5.031,0.936,2.182,11.085,1.496,23.916c-0.715,13.873-6.348,23.413-3.121,23.596C329.566,138.334,335.51,123.977,336.475,115.69
			z"/>
		<path fill-rule="evenodd" clip-rule="evenodd" fill="#860074" d="M335.467,116.362c1.225-7.411-3.359-25.02-6.996-23.79
			s2.248,10.103,1.537,22.36c-0.713,12.258-5.963,20.781-3.172,20.905C329.627,135.96,334.244,123.772,335.467,116.362z"/>
	</g>
	<g>
		<path fill-rule="evenodd" clip-rule="evenodd" fill="#00561F" d="M97.738,169.514l0.138-0.252c0.398-0.738,0.885-1.412,1.31-2.129
			c0.308-0.52,0.687-1.229,0.547-1.857c-0.076-0.34-0.288-0.602-0.56-0.803c-1.202-0.891-4.154-1.492-5.808-1.742
			c0.107-0.58,0.04-1.119-0.345-1.506c-0.114-0.115-0.23-0.215-0.351-0.303c0.385-1.178,0.573-2.426,0.563-3.713
			c-0.021-2.531-0.246-5.111-0.54-7.625c-0.394-3.363-0.944-6.717-1.612-10.035c-1.589-7.896-3.88-15.824-6.988-23.234
			c-1.873-4.467-4.085-8.834-6.739-12.868c-2.523-3.835-5.49-7.429-8.983-10.374c-8.989-7.576-19.735-11.865-31.434-9.804
			c-9.064,1.597-17.425,6.884-23.342,14.038c-5.931,7.142-9.669,16.454-9.742,25.883c-0.094,12.168,5.77,22.348,14.518,30.222
			c10.509,8.781,24.168,13.035,37.446,14.691c5.749,0.717,11.583,0.975,17.372,0.818c3.976-0.107,8.079-0.391,12.013-1.016
			c0.676-0.105,1.347-0.33,1.991-0.637c0.118,0.133,0.253,0.26,0.406,0.379c0.371,0.291,0.82,0.322,1.287,0.201
			c0.205,1.262,0.76,3.781,1.479,4.74c0.146,0.195,0.327,0.35,0.565,0.406c0.554,0.137,1.398-0.334,2.116-0.811
			c0.472,0.404,0.927,0.729,1.327,0.91c0.308,0.137,0.635,0.191,0.96,0.084c0.599-0.195,1-0.891,1.28-1.426
			C97,171.012,97.319,170.24,97.738,169.514z"/>
		<linearGradient id="SVGID_10_" gradientUnits="userSpaceOnUse" x1="76.1875" y1="149.7852" x2="101.1329" y2="169.9855">
			<stop  offset="0" style="stop-color:#00A63C"/>
			<stop  offset="1" style="stop-color:#B6D350"/>
		</linearGradient>
		<path fill-rule="evenodd" clip-rule="evenodd" fill="url(#SVGID_10_)" d="M18.167,152.965
			c-21.153-19.04-15.788-42.534-4.751-55.822c11.011-13.314,32.759-22.539,54.504-4.211c18.345,15.469,24.689,51.213,24.792,63.986
			c0.051,6.217-4.582,9.979-7.867,10.498C73.92,169.15,39.775,171.021,18.167,152.965z"/>
		<path fill-rule="evenodd" clip-rule="evenodd" fill="#00A93B" d="M61.89,89.83c-16.288-9.096-33.581-7.026-40.618,3.418
			c-7.644,11.315,15.342,7.43,28.876,16.517c19.608,13.141,30.241,31.736,33.731,26.896C91.182,126.565,73.698,96.489,61.89,89.83z"
			/>
		<path fill-rule="evenodd" clip-rule="evenodd" fill="#33AD3C" d="M62.121,90.071c-14.77-8.512-32.066-7.496-38.219,2.005
			c-6.673,10.249,14.542,6.852,27.575,15.657c18.241,12.281,28,29.524,31.213,25.035C89.17,123.774,73.049,96.493,62.121,90.071z"/>
		<path fill-rule="evenodd" clip-rule="evenodd" fill="#49B03E" d="M62.313,90.683c-13.25-7.927-30.551-7.966-35.819,0.593
			c-5.7,9.182,13.742,6.273,26.276,14.799c16.872,11.422,25.756,27.312,28.692,23.173C87.122,121.356,72.363,96.87,62.313,90.683z"
			/>
		<path fill-rule="evenodd" clip-rule="evenodd" fill="#5BB440" d="M62.48,91.547c-11.731-7.342-29.036-8.436-33.419-0.819
			c-4.729,8.113,12.941,5.694,24.975,13.938c15.506,10.563,23.515,25.1,26.174,21.313C85.047,119.188,71.651,97.497,62.48,91.547z"
			/>
		<path fill-rule="evenodd" clip-rule="evenodd" fill="#6EB942" d="M62.628,92.592c-10.212-6.758-27.521-8.904-31.019-2.232
			c-3.758,7.046,12.141,5.116,23.675,13.08c14.137,9.703,21.271,22.887,23.653,19.451C82.956,117.202,70.92,98.305,62.628,92.592z"
			/>
		<path fill-rule="evenodd" clip-rule="evenodd" fill="#84C044" d="M62.763,93.773c-8.692-6.172-26.006-9.373-28.619-3.644
			c-2.786,5.979,11.341,4.537,22.374,12.221c12.77,8.842,19.029,20.674,21.135,17.589C80.849,115.351,70.175,99.249,62.763,93.773z"
			/>
		<path fill-rule="evenodd" clip-rule="evenodd" fill="#9BC948" d="M62.887,95.061c-7.173-5.587-24.491-9.843-26.219-5.057
			c-1.815,4.911,10.54,3.959,21.073,11.363c11.402,7.982,16.787,18.461,18.616,15.727C78.731,113.608,69.42,100.301,62.887,95.061z"
			/>
		<path fill-rule="evenodd" clip-rule="evenodd" fill="#B6D350" d="M63.002,96.435c-5.653-5.003-22.976-10.312-23.819-6.469
			s9.74,3.382,19.774,10.503c10.033,7.123,14.543,16.25,16.096,13.865C76.606,111.951,68.657,101.438,63.002,96.435z"/>
		<path fill-rule="evenodd" clip-rule="evenodd" fill="#FFFFFF" d="M59.089,98.791c-5.718-3.958-11.593-6.078-17.759-7.386
			c-0.763-0.146-0.924-1.498-0.114-1.508c2.465-0.071,5.229,0.387,7.727,1.061c3.796,1.025,7.574,2.734,11.095,5.143
			c0.154,0.082,0.294,0.205,0.408,0.365c0.354,0.496,0.337,1.145,0.182,1.639c-0.164,0.521-0.534,1.029-1.08,0.926
			C59.383,99,59.227,98.916,59.089,98.791L59.089,98.791z M63.108,98.435L63.108,98.435c3.912,3.296,7.219,7.396,9.888,12.128
			c0.02,0.033,0.038,0.066,0.058,0.1c0.012,0.023,0.009,0.016,0.033,0.063c0.169,0.332,0.144,0.742-0.094,0.953
			c-0.279,0.247-0.639,0.107-0.875-0.188c-0.023-0.031-0.048-0.063-0.071-0.093c-3.146-4.007-6.583-7.667-10.387-10.696l-0.051-0.04
			l-0.046-0.05c-0.146-0.159-0.259-0.352-0.331-0.563c-0.186-0.543-0.069-1.109,0.198-1.487
			C61.826,98.002,62.516,97.889,63.108,98.435z"/>
		<path fill-rule="evenodd" clip-rule="evenodd" fill="#00A43C" d="M16.038,150.157c-12.68-14.369-14.707-32.58-6.17-42.412
			c9.245-10.672,10.834,13.82,22.86,25.373c17.4,16.744,34.41,22.273,30.507,27.064C55.099,170.197,25.293,160.555,16.038,150.157z"
			/>
		<path fill-rule="evenodd" clip-rule="evenodd" fill="#00A23B" d="M16.458,150.364c-11.754-12.963-14.811-30.912-6.985-39.602
			c8.432-9.408,10.082,13.148,21.719,24.26c16.242,15.563,32.243,20.632,28.618,25.05C52.556,168.971,25.278,159.922,16.458,150.364
			z"/>
		<path fill-rule="evenodd" clip-rule="evenodd" fill="#00A13B" d="M17.142,150.417C6.314,138.86,2.228,121.172,9.34,113.625
			c7.619-8.146,9.332,12.476,20.577,23.146c15.085,14.38,30.078,18.99,26.729,23.037C50.276,167.588,25.526,159.135,17.142,150.417z
			"/>
		<path fill-rule="evenodd" clip-rule="evenodd" fill="#009E3B" d="M18.002,150.364C8.1,140.215,2.986,122.788,9.385,116.385
			c6.805-6.884,8.581,11.803,19.436,22.033c13.926,13.197,27.911,17.347,24.841,21.023C48.171,166.102,25.95,158.244,18.002,150.364
			z"/>
		<path fill-rule="evenodd" clip-rule="evenodd" fill="#009A3A" d="M18.991,150.237c-8.977-8.742-15.12-25.908-9.433-31.168
			c5.991-5.621,7.829,11.129,18.293,20.92c12.768,12.015,25.745,15.705,22.952,19.009C46.196,164.541,26.501,157.277,18.991,150.237
			z"/>
		<path fill-rule="evenodd" clip-rule="evenodd" fill="#009639" d="M20.076,150.052c-8.052-7.335-15.224-24.239-10.249-28.356
			c5.178-4.357,7.078,10.457,17.151,19.806c11.609,10.833,23.579,14.063,21.063,16.997
			C44.316,162.922,27.149,156.254,20.076,150.052z"/>
		<path fill-rule="evenodd" clip-rule="evenodd" fill="#009239" d="M21.236,149.824c-7.126-5.929-15.327-22.571-11.065-25.546
			c4.364-3.095,6.327,9.783,16.011,18.692c10.45,9.651,21.412,12.422,19.173,14.983C42.511,161.26,27.873,155.186,21.236,149.824z"
			/>
		<path fill-rule="evenodd" clip-rule="evenodd" fill="#008C36" d="M22.456,149.559c-6.2-4.521-15.43-20.902-11.88-22.734
			s5.575,9.111,14.868,17.579c9.292,8.467,19.246,10.78,17.285,12.969C40.767,159.563,28.657,154.082,22.456,149.559z"/>
	</g>
	<g>
		<path fill-rule="evenodd" clip-rule="evenodd" fill="#F6AA00" d="M106.396,181.191l0.203-0.176
			c0.591-0.516,1.237-0.941,1.847-1.432c0.439-0.354,1.004-0.848,1.084-1.451c0.043-0.326-0.059-0.629-0.232-0.898
			c-0.773-1.195-3.182-2.734-4.56-3.518c0.282-0.475,0.398-0.975,0.184-1.447c-0.063-0.139-0.134-0.268-0.21-0.387
			c0.721-0.906,1.293-1.945,1.701-3.082c0.803-2.242,1.441-4.594,1.996-6.912c0.744-3.102,1.346-6.25,1.833-9.404
			c1.16-7.509,1.71-15.285,1.372-22.882c-0.205-4.58-0.739-9.188-1.772-13.652c-0.982-4.244-2.435-8.427-4.561-12.217
			c-5.474-9.749-13.563-17.197-24.554-19.367c-8.516-1.683-17.607,0.131-25.148,4.426c-7.549,4.279-13.868,11.221-16.99,19.514
			c-4.031,10.705-2.16,21.686,3.004,31.616c6.423,11.331,17.096,19.741,28.273,25.731c4.839,2.594,9.903,4.811,15.062,6.646
			c3.542,1.26,7.255,2.41,10.928,3.201c0.632,0.135,1.296,0.166,1.964,0.115c0.062,0.158,0.139,0.314,0.235,0.473
			c0.233,0.383,0.619,0.564,1.07,0.617c-0.229,1.184-0.556,3.596-0.231,4.688c0.064,0.221,0.176,0.42,0.366,0.551
			c0.444,0.309,1.343,0.182,2.131,0.006c0.284,0.518,0.581,0.961,0.875,1.256c0.228,0.227,0.497,0.385,0.819,0.402
			c0.593,0.031,1.172-0.445,1.593-0.822C105.258,182.262,105.79,181.691,106.396,181.191z"/>
		<linearGradient id="SVGID_11_" gradientUnits="userSpaceOnUse" x1="94.6597" y1="161.7324" x2="102.4804" y2="176.4411">
			<stop  offset="0" style="stop-color:#FFF000"/>
			<stop  offset="1" style="stop-color:#FFFFFF"/>
		</linearGradient>
		<path fill-rule="evenodd" clip-rule="evenodd" fill="url(#SVGID_11_)" d="M41.751,139.829
			c-12.487-24.012-0.132-42.912,13.916-50.872c14.034-7.993,36.214-8.716,49.454,14.87c11.168,19.904,5.172,53.603,1.119,64.91
			c-1.973,5.5-7.28,7.24-10.348,6.58C85.693,173.119,54.959,163.127,41.751,139.829z"/>
		<path fill-rule="evenodd" clip-rule="evenodd" fill="#FFF000" d="M101.34,98.268c-11.421-13.58-27.35-17.65-36.946-10.836
			c-10.415,7.379,11.126,11.787,20.119,24.42c13.038,18.281,16.388,38.313,21.036,35.232
			C115.268,140.667,109.598,108.17,101.34,98.268z"/>
		<path fill-rule="evenodd" clip-rule="evenodd" fill="#FFF105" d="M101.465,98.559C91.195,86.014,75.604,81.01,67.094,87.295
			c-9.211,6.768,10.607,11.004,19.251,23.219c12.109,17.055,15.126,35.596,19.417,32.73
			C114.399,137.52,109.024,107.952,101.465,98.559z"/>
		<path fill-rule="evenodd" clip-rule="evenodd" fill="#FFF23A" d="M101.436,99.165c-9.119-11.511-24.371-17.445-31.795-11.69
			c-8.008,6.157,10.09,10.221,18.383,22.017c11.182,15.83,13.865,32.88,17.798,30.229
			C113.375,134.687,108.296,108.049,101.436,99.165z"/>
		<path fill-rule="evenodd" clip-rule="evenodd" fill="#FFF359" d="M101.303,99.985c-7.969-10.479-22.883-17.344-29.22-12.119
			c-6.805,5.546,9.571,9.438,17.514,20.815c10.254,14.605,12.604,30.163,16.18,27.728
			C112.249,132.067,107.464,108.361,101.303,99.985z"/>
		<path fill-rule="evenodd" clip-rule="evenodd" fill="#FFF474" d="M101.096,100.957c-6.818-9.443-21.395-17.241-26.645-12.546
			c-5.602,4.936,9.053,8.654,16.645,19.613c9.326,13.381,11.344,27.446,14.561,25.227
			C111.046,129.601,106.558,108.825,101.096,100.957z"/>
		<path fill-rule="evenodd" clip-rule="evenodd" fill="#FFF691" d="M100.832,102.045c-5.668-8.41-19.905-17.139-24.069-12.975
			c-4.397,4.324,8.534,7.871,15.777,18.412c8.397,12.156,10.082,24.729,12.941,22.725
			C109.789,127.25,105.594,109.404,100.832,102.045z"/>
		<path fill-rule="evenodd" clip-rule="evenodd" fill="#FFF9B4" d="M100.523,103.223c-4.517-7.375-18.416-17.035-21.493-13.401
			c-3.194,3.714,8.016,7.087,14.908,17.211c7.47,10.931,8.821,22.013,11.322,20.224
			C108.486,124.991,104.587,110.075,100.523,103.223z"/>
		<path fill-rule="evenodd" clip-rule="evenodd" fill="#FFFBDA" d="M100.179,104.475c-3.366-6.342-16.927-16.934-18.918-13.83
			s7.497,6.305,14.04,16.011c6.542,9.706,7.561,19.296,9.703,17.722C107.148,122.803,103.544,110.817,100.179,104.475z"/>
		<path fill-rule="evenodd" clip-rule="evenodd" fill="#FFFFFF" d="M95.962,105.219c-3.761-5.441-8.257-9.316-13.272-12.572
			c-0.626-0.389-0.33-1.637,0.388-1.369c2.198,0.777,4.488,2.124,6.474,3.57c3.017,2.199,5.795,4.995,8.12,8.32
			c0.109,0.125,0.192,0.281,0.241,0.461c0.151,0.559-0.073,1.125-0.371,1.508c-0.313,0.404-0.805,0.727-1.254,0.449
			C96.154,105.504,96.043,105.376,95.962,105.219L95.962,105.219z M99.623,106.276c-0.346-0.684-0.99-0.82-1.521-0.461
			c-0.359,0.244-0.646,0.703-0.657,1.245c-0.005,0.211,0.032,0.419,0.108,0.609l0.025,0.06l0.031,0.053
			c2.373,3.971,4.22,8.371,5.694,12.979c0.011,0.035,0.022,0.07,0.034,0.106c0.112,0.341,0.383,0.587,0.71,0.464
			c0.277-0.104,0.434-0.458,0.392-0.809c-0.006-0.05-0.006-0.042-0.01-0.066c-0.006-0.035-0.012-0.072-0.018-0.107
			C103.592,115.262,102.005,110.518,99.623,106.276L99.623,106.276z"/>
		<path fill-rule="evenodd" clip-rule="evenodd" fill="#FFEF00" d="M41.094,135.433c-6.414-16.786-2.217-33.393,8.505-39.157
			c11.618-6.264,4.974,15.693,11.739,29.799c9.779,20.433,23.098,31.703,18.1,34.597C69.008,166.73,45.807,147.608,41.094,135.433z"
			/>
		<path fill-rule="evenodd" clip-rule="evenodd" fill="#FFED00" d="M41.386,135.735c-6.063-15.247-2.855-31.967,6.866-36.969
			c10.49-5.43,4.535,14.855,11.102,28.444c9.15,19.014,21.706,29.436,17.074,32.096C67.139,164.682,45.991,147.03,41.386,135.735z"
			/>
		<path fill-rule="evenodd" clip-rule="evenodd" fill="#FFEC00" d="M41.966,136.002c-5.713-13.709-3.493-30.543,5.227-34.781
			c9.362-4.595,4.097,14.017,10.466,27.091c8.521,17.595,20.314,27.168,16.047,29.596C65.559,162.596,46.463,146.418,41.966,136.002
			z"/>
		<path fill-rule="evenodd" clip-rule="evenodd" fill="#FFEA00" d="M42.741,136.247c-5.362-12.172-4.132-29.118,3.588-32.594
			c8.232-3.76,3.658,13.178,9.829,25.737c7.893,16.175,18.923,24.901,15.021,27.094C64.173,160.488,47.129,145.782,42.741,136.247z"
			/>
		<path fill-rule="evenodd" clip-rule="evenodd" fill="#FFE700" d="M43.655,136.472c-5.012-10.632-4.77-27.692,1.949-30.403
			c7.104-2.926,3.22,12.339,9.191,24.383c7.265,14.756,17.532,22.632,13.996,24.593C62.926,158.363,47.936,145.129,43.655,136.472z"
			/>
		<path fill-rule="evenodd" clip-rule="evenodd" fill="#FFE500" d="M44.674,136.686c-4.66-9.094-5.408-26.268,0.311-28.216
			c5.976-2.091,2.781,11.501,8.556,23.029c6.635,13.336,16.14,20.364,12.969,22.092C61.786,156.227,48.848,144.463,44.674,136.686z"
			/>
		<path fill-rule="evenodd" clip-rule="evenodd" fill="#FDE100" d="M45.778,136.89c-4.311-7.556-6.047-24.843-1.328-26.028
			c4.846-1.257,2.342,10.663,7.918,21.676c6.007,11.916,14.748,18.097,11.942,19.593C60.729,154.078,49.844,143.788,45.778,136.89z"
			/>
		<path fill-rule="evenodd" clip-rule="evenodd" fill="#FCDD00" d="M46.946,137.086c-3.958-6.018-6.684-23.418-2.967-23.84
			c3.719-0.423,1.904,9.824,7.282,20.321s13.356,15.829,10.917,17.093C59.737,151.924,50.905,143.104,46.946,137.086z"/>
	</g>
	<g>
		<path fill-rule="evenodd" clip-rule="evenodd" fill="#E26700" d="M294.686,181.584l-0.191-0.211
			c-0.561-0.619-1.189-1.152-1.771-1.744c-0.42-0.43-0.955-1.023-0.967-1.668c-0.006-0.35,0.139-0.656,0.355-0.918
			c0.959-1.16,3.684-2.473,5.23-3.123c-0.24-0.537-0.301-1.078-0.018-1.547c0.084-0.141,0.174-0.266,0.268-0.381
			c-0.648-1.049-1.125-2.215-1.416-3.465c-0.574-2.465-0.961-5.023-1.264-7.537c-0.406-3.363-0.658-6.756-0.789-10.141
			c-0.309-8.06,0.057-16.32,1.338-24.282c0.771-4.799,1.895-9.584,3.525-14.155c1.551-4.347,3.588-8.567,6.289-12.288
			c6.951-9.572,16.379-16.385,28.221-17.267c9.176-0.685,18.533,2.388,25.955,7.876c7.434,5.473,13.248,13.593,15.529,22.729
			c2.945,11.793-0.361,23.121-7.008,32.924c-8.145,11.117-20.41,18.613-32.912,23.494c-5.414,2.115-11.02,3.803-16.676,5.078
			c-3.887,0.875-7.938,1.611-11.902,1.977c-0.682,0.063-1.385,0.01-2.082-0.129c-0.084,0.158-0.186,0.314-0.307,0.469
			c-0.293,0.373-0.721,0.514-1.201,0.512c0.096,1.275,0.148,3.859-0.326,4.967c-0.096,0.227-0.236,0.42-0.453,0.535
			c-0.506,0.27-1.438,0.02-2.246-0.266c-0.361,0.508-0.729,0.938-1.074,1.211c-0.266,0.209-0.57,0.342-0.912,0.318
			c-0.627-0.043-1.18-0.619-1.578-1.07C295.754,182.857,295.264,182.186,294.686,181.584z"/>
		<linearGradient id="SVGID_12_" gradientUnits="userSpaceOnUse" x1="310.3096" y1="162.2461" x2="297.5855" y2="181.1103">
			<stop  offset="0" style="stop-color:#EE7A00"/>
			<stop  offset="1" style="stop-color:#FDD300"/>
		</linearGradient>
		<path fill-rule="evenodd" clip-rule="evenodd" fill="url(#SVGID_12_)" d="M367.816,146.266
			c16.074-23.701,5.354-45.189-8.479-55.371c-13.813-10.213-37.092-13.809-53.906,9.348c-14.186,19.541-11.963,55.81-9.068,68.238
			c1.41,6.047,6.791,8.559,10.102,8.254C317.479,175.725,351.07,169.125,367.816,146.266z"/>
		<path fill-rule="evenodd" clip-rule="evenodd" fill="#EF8200" d="M310.092,94.87c13.682-12.847,30.957-15.1,40.238-6.694
			c10.076,9.103-13.154,10.995-24.164,23.155c-15.955,17.592-21.92,38.268-26.443,34.43
			C290.266,137.757,300.188,104.247,310.092,94.87z"/>
		<path fill-rule="evenodd" clip-rule="evenodd" fill="#F08800" d="M309.924,95.16c12.344-11.903,29.377-15.183,37.578-7.474
			c8.883,8.306-12.512,10.236-23.102,22c-14.832,16.421-20.262,35.568-24.436,32.002C291.563,134.552,300.818,104.09,309.924,95.16z
			"/>
		<path fill-rule="evenodd" clip-rule="evenodd" fill="#F19000" d="M309.881,95.802c11.006-10.962,27.795-15.265,34.916-8.254
			c7.689,7.509-11.871,9.478-22.041,20.846c-13.703,15.249-18.604,32.867-22.424,29.573
			C292.986,131.699,301.574,104.286,309.881,95.802z"/>
		<path fill-rule="evenodd" clip-rule="evenodd" fill="#F39B00" d="M309.922,96.682c9.668-10.02,26.215-15.348,32.256-9.033
			c6.494,6.712-11.23,8.719-20.98,19.691c-12.578,14.076-16.945,30.166-20.416,27.144
			C294.49,129.083,302.412,104.719,309.922,96.682z"/>
		<path fill-rule="evenodd" clip-rule="evenodd" fill="#F4A400" d="M310.021,97.733c8.33-9.077,24.635-15.43,29.596-9.813
			c5.301,5.914-10.59,7.96-19.92,18.536c-11.451,12.905-15.287,27.465-18.406,24.716
			C296.057,126.639,303.311,105.324,310.021,97.733z"/>
		<path fill-rule="evenodd" clip-rule="evenodd" fill="#F7B200" d="M310.168,98.914c6.992-8.136,23.053-15.513,26.934-10.593
			c4.107,5.117-9.947,7.201-18.859,17.381c-10.324,11.733-13.627,24.765-16.395,22.287
			C297.668,124.323,304.256,106.057,310.168,98.914z"/>
		<path fill-rule="evenodd" clip-rule="evenodd" fill="#F9BF00" d="M310.35,100.195c5.654-7.193,21.471-15.595,24.271-11.372
			c2.914,4.32-9.305,6.441-17.797,16.227c-9.199,10.561-11.969,22.063-14.387,19.858
			C299.316,122.108,305.234,106.893,310.35,100.195z"/>
		<path fill-rule="evenodd" clip-rule="evenodd" fill="#FDD300" d="M310.561,101.557c4.316-6.251,19.889-15.676,21.609-12.152
			s-8.664,5.684-16.736,15.072s-10.311,19.362-12.377,17.431C300.99,119.975,306.242,107.809,310.561,101.557z"/>
		<path fill-rule="evenodd" clip-rule="evenodd" fill="#FFFDED" d="M314.912,102.879c4.623-5.252,9.83-8.76,15.51-11.548
			c0.707-0.331,0.547-1.683-0.242-1.493c-2.41,0.538-4.986,1.664-7.252,2.935c-3.445,1.931-6.713,4.522-9.566,7.728
			c-0.131,0.118-0.238,0.272-0.311,0.455c-0.229,0.568-0.061,1.194,0.207,1.637c0.281,0.465,0.76,0.867,1.266,0.633
			C314.676,103.155,314.807,103.036,314.912,102.879L314.912,102.879z M310.928,103.525c0.447-0.676,1.143-0.736,1.658-0.29
			c0.348,0.302,0.594,0.822,0.541,1.395c-0.021,0.223-0.086,0.438-0.189,0.628l-0.033,0.06l-0.039,0.053
			c-2.984,3.879-5.463,8.278-7.578,12.945c-0.014,0.035-0.031,0.07-0.047,0.107c-0.16,0.345-0.477,0.568-0.805,0.398
			c-0.281-0.146-0.402-0.539-0.314-0.902c0.012-0.053,0.012-0.044,0.018-0.068c0.01-0.037,0.021-0.075,0.031-0.112
			C305.652,112.485,307.902,107.69,310.928,103.525L310.928,103.525z"/>
		<path fill-rule="evenodd" clip-rule="evenodd" fill="#ED7A00" d="M369.043,141.719c8.797-16.863,6.393-34.895-4.201-42.338
			c-11.479-8.083-7.146,15.897-15.988,29.893c-12.787,20.277-28.188,30.449-23.273,34.136
			C335.832,171.125,362.598,153.943,369.043,141.719z"/>
		<path fill-rule="evenodd" clip-rule="evenodd" fill="#EB7900" d="M368.697,142c8.242-15.288,6.895-33.313-2.738-39.823
			c-10.393-7.061-6.584,15.069-15.154,28.548c-11.951,18.861-26.445,28.236-21.887,31.632
			C338.049,169.205,362.475,153.313,368.697,142z"/>
		<path fill-rule="evenodd" clip-rule="evenodd" fill="#EA7800" d="M368.055,142.208c7.684-13.712,7.393-31.729-1.279-37.309
			c-9.303-6.037-6.02,14.242-14.318,27.203c-11.115,17.446-24.703,26.025-20.502,29.128
			C339.967,167.211,362.051,152.605,368.055,142.208z"/>
		<path fill-rule="evenodd" clip-rule="evenodd" fill="#E87700" d="M367.209,142.366c7.129-12.137,7.893-30.146,0.182-34.794
			c-8.215-5.014-5.455,13.415-13.482,25.857c-10.281,16.032-22.961,23.815-19.117,26.625
			C341.684,165.168,361.426,151.852,367.209,142.366z"/>
		<path fill-rule="evenodd" clip-rule="evenodd" fill="#E77700" d="M366.219,142.488c6.572-10.562,8.391-28.563,1.643-32.279
			c-7.129-3.991-4.893,12.588-12.648,24.513c-9.445,14.617-21.219,21.603-17.732,24.121
			C343.256,163.088,360.656,151.061,366.219,142.488z"/>
		<path fill-rule="evenodd" clip-rule="evenodd" fill="#E47500" d="M365.119,142.583c6.014-8.984,8.889-26.98,3.102-29.766
			c-6.041-2.966-4.328,11.762-11.813,23.169c-8.611,13.201-19.477,19.391-16.348,21.618
			C344.717,160.982,359.775,150.243,365.119,142.583z"/>
		<path fill-rule="evenodd" clip-rule="evenodd" fill="#E07300" d="M363.932,142.657c5.459-7.41,9.389-25.398,4.563-27.25
			c-4.953-1.943-3.764,10.934-10.977,21.822c-7.775,11.787-17.736,17.181-14.963,19.115
			C346.092,158.855,358.809,149.403,363.932,142.657z"/>
		<path fill-rule="evenodd" clip-rule="evenodd" fill="#DD7100" d="M362.676,142.713c4.902-5.834,9.889-23.815,6.023-24.735
			c-3.865-0.921-3.199,10.106-10.141,20.479s-15.996,14.967-13.578,16.612C347.398,156.711,357.775,148.547,362.676,142.713z"/>
	</g>
	<g>
		<g>
			<path fill-rule="evenodd" clip-rule="evenodd" fill="#860000" d="M101.952,210.648c-0.778-1.021-1.945-1.85-3.332-2.434
				c-1.388-0.586-2.999-0.936-4.66-1c-1.662-0.064-3.381,0.154-4.984,0.699c-1.604,0.547-3.095,1.42-4.303,2.66
				c-0.91,0.936-2.136,1.637-3.549,2.051c-1.416,0.414-3.02,0.535-4.686,0.316s-3.396-0.777-5.066-1.732
				c-1.669-0.957-3.275-2.305-4.695-4.104c1.438-0.418,2.736-0.385,4.017-0.297c1.279,0.088,2.544,0.234,3.921,0.041
				c1.372-0.191,2.861-0.719,4.589-1.975c1.725-1.254,3.69-3.24,6.022-6.34c1.608-2.139,3.422-3.25,5.36-3.887
				c1.935-0.635,3.992-0.791,6.082-1.012c0.445-0.049,0.893-0.098,1.341-0.156l8.795,19.982l0.177-0.064
				c0.378-0.137,0.759-0.273,1.142-0.41c0.904,0.426,2.173,0.992,3.634,1.666c1.936,0.896,4.21,1.979,6.422,3.168
				c2.211,1.188,4.361,2.48,6.049,3.797s2.914,2.654,3.278,3.928c-2.747,0.078-5.399,0.203-7.987,0.445
				c-2.586,0.24-5.109,0.6-7.591,1.143c-2.484,0.545-4.93,1.275-7.367,2.26c-2.439,0.988-4.87,2.229-7.318,3.795
				c-2.115,1.354-4.153,3.445-6.184,5.627c-2.03,2.188-4.053,4.465-6.138,6.189c-2.085,1.723-4.234,2.896-6.513,2.873
				c-2.278-0.025-4.691-1.244-7.307-4.309c3.987,0.744,6.849-0.521,9.165-2.941c2.315-2.418,4.085-5.996,5.886-9.877
				c1.799-3.879,3.631-8.066,6.072-11.699C94.663,215.42,97.713,212.33,101.952,210.648z"/>
			<linearGradient id="SVGID_13_" gradientUnits="userSpaceOnUse" x1="71.1621" y1="226.6445" x2="125.2934" y2="205.8655">
				<stop  offset="0" style="stop-color:#860000"/>
				<stop  offset="0.3" style="stop-color:#B50005"/>
				<stop  offset="0.51" style="stop-color:#E50012"/>
				<stop  offset="0.73" style="stop-color:#B50005"/>
				<stop  offset="1" style="stop-color:#E50012"/>
			</linearGradient>
			<path fill="url(#SVGID_13_)" d="M102.512,210.871c-0.566-0.967-1.613-1.867-2.954-2.574c-1.345-0.709-2.983-1.227-4.733-1.438
				s-3.611-0.113-5.401,0.412c-1.788,0.525-3.505,1.48-4.961,2.977c-0.507,0.518-1.437,1.1-2.643,1.555
				c-1.21,0.451-2.698,0.775-4.316,0.783c-1.621,0.01-3.376-0.297-5.124-1.107c-1.746-0.811-3.482-2.125-5.063-4.129
				c1.075-0.311,2.16-0.217,3.33-0.094c1.165,0.119,2.424,0.268,3.833,0.061s2.981-0.762,4.789-2.053
				c1.803-1.287,3.844-3.309,6.194-6.432c1.505-2,3.298-3.084,5.239-3.729c1.938-0.648,4.031-0.852,6.136-1.094
				c0.443-0.051,0.889-0.104,1.332-0.162l8.634,19.615l0.177-0.064c0.206-0.074,0.414-0.148,0.621-0.223
				c1.192,0.592,2.274,1.076,3.304,1.518c1.192,0.514,2.315,0.975,3.45,1.484c1.139,0.508,2.296,1.068,3.559,1.779
				c1.264,0.713,2.638,1.578,4.205,2.701c0.509,0.322,0.938,0.654,1.329,0.994c0.393,0.34,0.748,0.688,1.101,1.037
				c0.356,0.352,0.718,0.705,1.12,1.057c0.404,0.354,0.854,0.709,1.385,1.057c-1.709,0.051-3.426,0.141-5.135,0.287
				c-1.708,0.146-3.414,0.346-5.105,0.613c-1.692,0.264-3.375,0.592-5.037,0.996c-1.66,0.402-3.306,0.875-4.922,1.434
				c-0.847,0.291-1.688,0.605-2.52,0.943c-0.833,0.338-1.658,0.703-2.474,1.092c-0.815,0.387-1.622,0.801-2.418,1.244
				c-0.795,0.439-1.583,0.91-2.359,1.404c-1.857,1.189-3.791,3.152-5.782,5.262c-1.992,2.109-4.045,4.369-6.142,6.146
				c-2.101,1.779-4.249,3.08-6.433,3.277c-2.185,0.201-4.408-0.703-6.654-3.336c3.549,0.66,6.199-0.715,8.435-3.244
				c2.237-2.529,4.059-6.217,5.951-10.17s3.853-8.18,6.368-11.787C95.34,215.357,98.409,212.363,102.512,210.871z"/>
			<path fill-rule="evenodd" clip-rule="evenodd" fill="#640000" d="M127.504,225.547c-7.063-4.611-13.297-8.336-20.701-12.084
				c0.077-0.027,0.154-0.055,0.23-0.084c5.491-1.998,11.568-3.766,18.097-5.301L127.504,225.547z"/>
			<linearGradient id="SVGID_14_" gradientUnits="userSpaceOnUse" x1="139.146" y1="219.9717" x2="105.4043" y2="210.9306">
				<stop  offset="0" style="stop-color:#860000"/>
				<stop  offset="1" style="stop-color:#E50012"/>
			</linearGradient>
			<path fill="url(#SVGID_14_)" d="M124.997,208.109l2.057,16.693c-6.389-4.15-12.835-8.193-19.459-11.625
				C112.9,211.275,118.74,209.586,124.997,208.109z"/>
		</g>
		<g>
			<path fill-rule="evenodd" clip-rule="evenodd" fill="#860000" d="M297.246,210.648c0.777-1.021,1.945-1.85,3.33-2.434
				c1.389-0.586,3-0.936,4.662-1s3.381,0.154,4.984,0.699c1.604,0.547,3.094,1.42,4.301,2.66c0.912,0.936,2.137,1.637,3.551,2.051
				s3.018,0.535,4.686,0.316c1.666-0.219,3.396-0.777,5.066-1.732c1.668-0.957,3.275-2.305,4.693-4.105
				c-1.438-0.416-2.736-0.383-4.016-0.295s-2.545,0.234-3.92,0.041c-1.373-0.191-2.863-0.717-4.59-1.975
				c-1.725-1.254-3.689-3.24-6.021-6.34c-1.609-2.139-3.424-3.25-5.361-3.887c-1.936-0.635-3.992-0.791-6.082-1.014
				c-0.438-0.045-0.879-0.096-1.318-0.152l-8.795,19.98c-0.461-0.15-0.926-0.301-1.393-0.449c-0.9,0.42-2.148,0.979-3.582,1.641
				c-1.936,0.896-4.211,1.979-6.422,3.168c-2.211,1.188-4.361,2.48-6.049,3.797s-2.914,2.654-3.277,3.928
				c2.746,0.078,5.398,0.203,7.986,0.445c2.586,0.24,5.109,0.6,7.592,1.143c2.482,0.545,4.928,1.275,7.367,2.26
				c2.439,0.988,4.869,2.229,7.318,3.795c2.113,1.354,4.152,3.445,6.182,5.627c2.031,2.188,4.055,4.465,6.139,6.189
				c2.084,1.723,4.234,2.896,6.512,2.873c2.279-0.025,4.691-1.244,7.309-4.309c-3.988,0.746-6.85-0.521-9.166-2.941
				c-2.316-2.418-4.084-5.996-5.885-9.877c-1.799-3.879-3.631-8.066-6.072-11.699S301.484,212.33,297.246,210.648z"/>
			<linearGradient id="SVGID_15_" gradientUnits="userSpaceOnUse" x1="277.1367" y1="208.5518" x2="331.4301" y2="227.2465">
				<stop  offset="0" style="stop-color:#860000"/>
				<stop  offset="0.3" style="stop-color:#B50005"/>
				<stop  offset="0.51" style="stop-color:#E50012"/>
				<stop  offset="0.73" style="stop-color:#B50005"/>
				<stop  offset="1" style="stop-color:#E50012"/>
			</linearGradient>
			<path fill="url(#SVGID_15_)" d="M296.686,210.871c0.564-0.967,1.613-1.867,2.953-2.574c1.344-0.709,2.984-1.227,4.734-1.438
				c1.748-0.211,3.611-0.113,5.4,0.412c1.787,0.525,3.504,1.48,4.961,2.977c0.508,0.518,1.438,1.1,2.643,1.555
				c1.211,0.451,2.699,0.775,4.316,0.783c1.621,0.01,3.375-0.297,5.123-1.107c1.746-0.811,3.484-2.125,5.064-4.129
				c-1.074-0.311-2.16-0.217-3.33-0.094c-1.166,0.119-2.424,0.268-3.834,0.061c-1.408-0.207-2.98-0.762-4.787-2.053
				c-1.803-1.287-3.846-3.309-6.195-6.432c-1.504-2-3.297-3.084-5.238-3.729c-1.939-0.648-4.033-0.852-6.137-1.094
				c-0.438-0.051-0.875-0.102-1.311-0.16l-8.633,19.613c-0.281-0.092-0.563-0.184-0.846-0.273c-1.182,0.586-2.258,1.064-3.277,1.504
				c-1.193,0.514-2.316,0.975-3.451,1.484c-1.139,0.508-2.295,1.068-3.559,1.779c-1.264,0.713-2.637,1.578-4.205,2.701
				c-0.51,0.322-0.938,0.654-1.328,0.994c-0.393,0.34-0.748,0.688-1.102,1.037c-0.355,0.352-0.717,0.705-1.121,1.057
				c-0.402,0.354-0.852,0.709-1.385,1.057c1.709,0.051,3.426,0.141,5.137,0.287c1.707,0.146,3.414,0.346,5.105,0.613
				c1.691,0.264,3.375,0.59,5.035,0.996c1.662,0.402,3.307,0.875,4.922,1.434c0.848,0.291,1.689,0.605,2.521,0.943
				s1.658,0.703,2.473,1.092c0.814,0.387,1.623,0.801,2.418,1.244c0.795,0.439,1.584,0.91,2.359,1.404
				c1.857,1.189,3.791,3.152,5.781,5.262c1.992,2.109,4.045,4.369,6.143,6.146c2.102,1.779,4.25,3.08,6.434,3.279
				s4.408-0.705,6.654-3.338c-3.549,0.66-6.201-0.715-8.436-3.244c-2.238-2.529-4.059-6.217-5.951-10.17s-3.852-8.18-6.369-11.787
				C303.857,215.357,300.789,212.363,296.686,210.871z"/>
			<path fill-rule="evenodd" clip-rule="evenodd" fill="#640000" d="M271.693,225.547c7.063-4.611,13.297-8.344,20.699-12.092
				l-0.225-0.072l-0.16-0.053c-5.578-1.814-11.6-3.469-17.982-4.941L271.693,225.547z"/>
			<linearGradient id="SVGID_16_" gradientUnits="userSpaceOnUse" x1="285.8564" y1="215.5" x2="265.2321" y2="217.3044">
				<stop  offset="0" style="stop-color:#860000"/>
				<stop  offset="1" style="stop-color:#E50012"/>
			</linearGradient>
			<path fill="url(#SVGID_16_)" d="M274.162,208.42l-2.02,16.383c6.381-4.146,12.82-8.182,19.436-11.611
				C286.162,211.443,280.332,209.848,274.162,208.42z"/>
		</g>
		<path fill-rule="evenodd" clip-rule="evenodd" fill="#640000" d="M308.184,176.752l0.082,0.033l0.08,0.037l0.166,0.072
			l-16.096,36.568c-24.549-8.053-57.811-12.98-92.807-12.988c-34.508,0.002-69.011,4.311-92.629,12.924l-0.177,0.064l-16.095-36.568
			l0.083-0.037l0.162-0.072l0.081-0.033c24.016-10.518,66.292-15.779,108.575-15.783
			C241.893,160.973,284.168,166.234,308.184,176.752z"/>
		<linearGradient id="SVGID_17_" gradientUnits="userSpaceOnUse" x1="318.1855" y1="187.1572" x2="74.7957" y2="187.1572">
			<stop  offset="0" style="stop-color:#B14F00"/>
			<stop  offset="0.16" style="stop-color:#FCCF00"/>
			<stop  offset="0.33" style="stop-color:#FFFFFF"/>
			<stop  offset="0.59" style="stop-color:#FFF8B0"/>
			<stop  offset="0.8" style="stop-color:#E8A900"/>
			<stop  offset="1" style="stop-color:#B14F00"/>
		</linearGradient>
		<path fill="url(#SVGID_17_)" d="M292.32,212.996l15.764-35.846c-24.105-10.551-66.285-15.828-108.475-15.832
			c-42.187,0.004-84.369,5.281-108.474,15.832l15.762,35.846c23.637-8.623,58.172-12.936,92.712-12.941
			C234.15,200.061,268.686,204.373,292.32,212.996z"/>
		<linearGradient id="SVGID_18_" gradientUnits="userSpaceOnUse" x1="80.5415" y1="187.1074" x2="311.4531" y2="187.1074">
			<stop  offset="0" style="stop-color:#860000"/>
			<stop  offset="0.26" style="stop-color:#DD0010"/>
			<stop  offset="0.54" style="stop-color:#E10011"/>
			<stop  offset="0.74" style="stop-color:#D5000F"/>
			<stop  offset="1" style="stop-color:#860000"/>
		</linearGradient>
		<path fill-rule="evenodd" clip-rule="evenodd" fill="url(#SVGID_18_)" d="M291.891,211.564l14.822-33.711
			c-6.508-2.75-13.285-4.76-19.979-6.416c-8.668-2.141-17.438-3.705-26.201-4.932c-9.844-1.381-19.727-2.33-29.609-2.965
			c-10.43-0.67-20.875-0.988-31.314-0.99c-10.44,0.002-20.885,0.32-31.314,0.99c-9.884,0.635-19.768,1.584-29.61,2.965
			c-8.762,1.227-17.532,2.791-26.2,4.932c-6.693,1.656-13.471,3.666-19.979,6.416l14.823,33.711
			c6.258-2.244,12.637-3.99,19.018-5.443c7.533-1.715,15.127-3.023,22.727-4.053c16.758-2.273,33.699-3.242,50.537-3.244
			c16.838,0.002,33.779,0.971,50.535,3.244c7.602,1.029,15.195,2.338,22.729,4.053C279.252,207.574,285.633,209.32,291.891,211.564
			L291.891,211.564z M292.105,212.279L292.105,212.279c-6.35-2.297-12.828-4.074-19.309-5.551
			c-7.523-1.713-15.105-3.02-22.697-4.049c-16.742-2.27-33.668-3.238-50.49-3.24c-16.823,0.002-33.749,0.971-50.49,3.24
			c-7.591,1.029-15.174,2.336-22.697,4.049c-6.48,1.477-12.959,3.254-19.31,5.551L91.819,177.5
			c6.695-2.879,13.684-4.963,20.584-6.668c8.68-2.145,17.461-3.711,26.236-4.941c9.851-1.379,19.742-2.328,29.635-2.965
			c10.436-0.672,20.888-0.99,31.335-0.99c10.447,0,20.9,0.318,31.336,0.99c9.893,0.637,19.783,1.586,29.635,2.965
			c8.775,1.23,17.557,2.797,26.236,4.941c6.9,1.705,13.889,3.789,20.584,6.668L292.105,212.279z"/>
		<linearGradient id="SVGID_19_" gradientUnits="userSpaceOnUse" x1="82.0591" y1="187.0088" x2="310.0261" y2="187.0088">
			<stop  offset="0" style="stop-color:#860000"/>
			<stop  offset="0.26" style="stop-color:#DD0010"/>
			<stop  offset="0.54" style="stop-color:#EC6C00"/>
			<stop  offset="0.74" style="stop-color:#D5000F"/>
			<stop  offset="1" style="stop-color:#860000"/>
		</linearGradient>
		<path fill-rule="evenodd" clip-rule="evenodd" fill="url(#SVGID_19_)" d="M291.674,210.85l14.352-32.639
			c-6.322-2.625-12.887-4.563-19.373-6.166c-8.656-2.141-17.414-3.701-26.166-4.926c-9.834-1.379-19.709-2.328-29.584-2.963
			c-10.422-0.67-20.859-0.988-31.293-0.988c-10.433,0-20.871,0.318-31.292,0.988c-9.875,0.635-19.75,1.584-29.584,2.963
			c-8.751,1.225-17.51,2.785-26.166,4.926c-6.485,1.604-13.052,3.541-19.374,6.166l14.352,32.639
			c6.165-2.191,12.444-3.906,18.727-5.336c7.543-1.719,15.146-3.027,22.757-4.059c16.771-2.275,33.729-3.246,50.582-3.248
			c16.854,0.002,33.811,0.973,50.582,3.248c7.611,1.031,15.213,2.34,22.756,4.059C279.229,206.943,285.51,208.658,291.674,210.85z"
			/>
	</g>
	<polygon fill-rule="evenodd" clip-rule="evenodd" fill="#FFFFFF" points="304.943,119.93 316.033,139.198 305.438,119.647 
		314.445,122.1 305.545,119.004 314.125,112.674 305.25,118.491 309.914,99.667 304.734,118.258 292.674,93.858 304.285,118.563 
		284.301,112.562 304.117,119.256 295.592,125.551 304.35,119.805 301.365,135.239 	"/>
	<polygon fill-rule="evenodd" clip-rule="evenodd" fill="#FFFFFF" points="283.285,63.675 294.373,82.942 283.779,63.391 
		292.787,65.844 283.887,62.749 292.467,56.42 283.592,62.235 288.254,43.413 283.076,62.002 271.016,37.604 282.625,62.307 
		262.643,56.307 282.459,63 273.934,69.295 282.689,63.55 279.707,78.984 	"/>
	<polygon fill-rule="evenodd" clip-rule="evenodd" fill="#FFFFFF" points="382.434,164.342 393.521,183.609 382.928,164.059 
		391.936,166.512 383.035,163.416 391.613,157.088 382.74,162.902 387.402,144.08 382.225,162.67 370.162,138.271 381.773,162.975 
		361.789,156.975 381.605,163.668 373.08,169.963 381.838,164.217 378.855,179.65 	"/>
	<polygon fill-rule="evenodd" clip-rule="evenodd" fill="#FFFFFF" points="147.078,106.608 158.167,125.875 147.572,106.323 
		156.579,108.776 147.678,105.68 156.258,99.351 147.383,105.167 152.047,86.344 146.868,104.934 134.807,80.536 146.418,105.239 
		126.434,99.239 146.25,105.932 137.725,112.227 146.482,106.483 143.499,121.916 	"/>
	<polygon fill-rule="evenodd" clip-rule="evenodd" fill="#FFFFFF" points="40.299,92.296 29.211,111.564 39.806,92.012 
		30.798,94.465 39.699,91.37 31.12,85.042 39.994,90.856 35.331,72.034 40.509,90.624 52.571,66.225 40.959,90.928 60.943,84.928 
		41.127,91.622 49.653,97.917 40.895,92.172 43.878,107.606 	"/>
	<polygon fill-rule="evenodd" clip-rule="evenodd" fill="#FFFFFF" points="82.173,64.168 71.084,83.436 81.679,63.884 
		72.671,66.338 81.572,63.243 72.993,56.913 81.867,62.729 77.204,43.905 82.382,62.496 94.444,38.096 82.833,62.8 102.817,56.8 
		83,63.494 91.526,69.79 82.768,64.043 85.751,79.477 	"/>
</g>
</svg>
