<?xml version="1.0" encoding="utf-8"?>
<!-- Generator: Adobe Illustrator 15.0.0, SVG Export Plug-In . SVG Version: 6.00 Build 0)  -->
<!DOCTYPE svg PUBLIC "-//W3C//DTD SVG 1.1//EN" "http://www.w3.org/Graphics/SVG/1.1/DTD/svg11.dtd">
<svg version="1.1" id="图层_1" xmlns="http://www.w3.org/2000/svg" xmlns:xlink="http://www.w3.org/1999/xlink" x="0px" y="0px"
	 width="110.667px" height="110.5px" viewBox="0 0 110.667 110.5" enable-background="new 0 0 110.667 110.5" xml:space="preserve">
<g>
	<g>
		<linearGradient id="SVGID_1_" gradientUnits="userSpaceOnUse" x1="57.3145" y1="87.8916" x2="57.3144" y2="33.527">
			<stop  offset="0" style="stop-color:#840033"/>
			<stop  offset="0.7767" style="stop-color:#F92169"/>
			<stop  offset="1" style="stop-color:#840033"/>
		</linearGradient>
		<path fill="url(#SVGID_1_)" d="M64.599,39.805c0.495-3.381-3.678-3.115-5.827-2.455c-1.205,0.369-2.235,0.94-3.021,1.932
			c-1.104,1.393,0.015,3.034,1.653,2.846c1.652-0.191,2.665-2.05,2.906-3.526c0.265-1.612-0.863-3.132-2.37-3.614
			c-3.833-1.227-6.675,2.243-7.495,5.593c-0.968,3.964-0.4,8.756,1.77,12.229c1.145,1.833,2.502,3.537,3.362,5.534
			c0.793,1.84,0.849,4.332-0.986,5.593c-1.031,0.711-2.605,0.829-3.394-0.267c-0.203-0.281-0.345-0.708-0.253-1.05
			c0.105-0.392,0.941,0.086,1.135,0.197c0.673,0.387,1.139,1.053,1.223,1.823c0.091,0.841-0.525,2.328-1.472,1.537
			c-0.171-0.142-0.291-0.342-0.31-0.562c-0.031-0.343,1.055,0.173,1.214,0.273c0.897,0.564,1.236,1.793,1.446,2.76
			c0.555,2.551,0.183,5.107-0.567,7.577c-0.687,2.264-1.625,4.44-2.188,6.743c-0.396,1.621-1.011,3.876-0.14,5.418
			c0.571,1.011,2.184,1.307,3.192,0.838c1.84-0.855,0.223-2.497,0.11-3.845c-0.008-0.1-0.607,0.007-0.595,0.158
			c0.089,1.071,1.117,2.009,0.701,3.106c-0.421,1.11-1.979,0.395-2.506-0.044c-0.528-0.441-0.669-1.185-0.72-1.825
			c-0.09-1.161,0.231-2.456,0.465-3.582c0.3-1.438,0.796-2.834,1.286-4.216c0.906-2.554,1.806-5.102,1.839-7.842
			c0.02-1.749-0.24-4.063-1.591-5.313c-0.309-0.284-2.416-1.102-2.533-0.122c-0.11,0.934,1.204,1.104,1.827,0.91
			c1.396-0.438,1.328-2.498,0.564-3.416c-0.586-0.704-1.747-1.261-2.636-0.793c-0.42,0.223-0.412,0.604-0.284,1.021
			c0.243,0.794,0.988,1.183,1.76,1.277c1.147,0.139,2.759-0.374,3.508-1.283c2.896-3.517-0.975-7.804-2.865-10.769
			c-2.293-3.596-2.735-8.624-1.644-12.698c0.636-2.375,2.36-4.985,5.094-4.966c1.962,0.016,3.556,1.601,3.481,3.554
			c-0.034,0.856-0.458,1.653-0.924,2.345c-0.785,1.164-2.28,1.367-2.839,0.002c-0.595-1.448,1.202-2.693,2.295-3.166
			c2.093-0.903,6.214-1.053,5.731,2.246C63.996,40.021,64.573,39.979,64.599,39.805L64.599,39.805z"/>
		<linearGradient id="SVGID_2_" gradientUnits="userSpaceOnUse" x1="56.4175" y1="36.3501" x2="56.4175" y2="35.5978">
			<stop  offset="0" style="stop-color:#F92169"/>
			<stop  offset="1" style="stop-color:#840033"/>
		</linearGradient>
		<path fill="url(#SVGID_2_)" d="M56.192,35.341c0,0-0.527,0.477-0.527,0.979c0,0,0.703,0.426,1.505-0.177
			C57.17,36.143,57.07,35.592,56.192,35.341z"/>
		<linearGradient id="SVGID_3_" gradientUnits="userSpaceOnUse" x1="56.3491" y1="36.9834" x2="56.3491" y2="20.8448">
			<stop  offset="0" style="stop-color:#F92169"/>
			<stop  offset="1" style="stop-color:#840033"/>
		</linearGradient>
		<path fill="url(#SVGID_3_)" d="M65.583,13.708c-1.66-3.426-5.171-5.788-9.234-5.788c-4.062,0-7.572,2.362-9.233,5.788l0,0
			c0,0-7.075,12.07,9.233,21.189C72.659,25.778,65.583,13.708,65.583,13.708z"/>
		<linearGradient id="SVGID_4_" gradientUnits="userSpaceOnUse" x1="56.3496" y1="35.4785" x2="56.3496" y2="34.8797">
			<stop  offset="0" style="stop-color:#F92169"/>
			<stop  offset="1" style="stop-color:#840033"/>
		</linearGradient>
		<ellipse fill="url(#SVGID_4_)" cx="56.35" cy="35.033" rx="0.501" ry="0.463"/>
		<linearGradient id="SVGID_5_" gradientUnits="userSpaceOnUse" x1="58.2798" y1="28.5029" x2="58.2798" y2="10.587">
			<stop  offset="0" style="stop-color:#F92169"/>
			<stop  offset="1" style="stop-color:#840033"/>
		</linearGradient>
		<path fill="url(#SVGID_5_)" d="M49.549,18.678c0,5.87,4.027,10.63,8.995,10.63c3.457,0,6.455-2.306,7.962-5.684
			c1.568-5.511-1.021-9.932-1.021-9.932c-1.41-2.906-4.149-5.047-7.43-5.629C53.314,8.363,49.549,13,49.549,18.678z"/>
		<linearGradient id="SVGID_6_" gradientUnits="userSpaceOnUse" x1="56.4888" y1="10.166" x2="56.4888" y2="24.166">
			<stop  offset="0" style="stop-color:#FFFFFF"/>
			<stop  offset="0.4718" style="stop-color:#F92169"/>
			<stop  offset="1" style="stop-color:#B30D48"/>
		</linearGradient>
		<ellipse fill="url(#SVGID_6_)" cx="56.489" cy="15.574" rx="6.22" ry="6.428"/>
	</g>
	<g>
		<linearGradient id="SVGID_7_" gradientUnits="userSpaceOnUse" x1="48.8477" y1="63.7319" x2="60.4492" y2="63.7319">
			<stop  offset="0.0051" style="stop-color:#FDA9C5"/>
			<stop  offset="0.3655" style="stop-color:#F92169"/>
			<stop  offset="1" style="stop-color:#840033"/>
		</linearGradient>
		<polygon fill="url(#SVGID_7_)" points="48.848,54.892 55.871,63.295 60.449,72.572 53.504,64.435 		"/>
		<linearGradient id="SVGID_8_" gradientUnits="userSpaceOnUse" x1="86.2534" y1="49.147" x2="59.6597" y2="84.8738">
			<stop  offset="0.3655" style="stop-color:#F92169"/>
			<stop  offset="1" style="stop-color:#840033"/>
		</linearGradient>
		<polygon fill="url(#SVGID_8_)" points="77.454,53.234 83.449,61.968 67.244,82.597 60.461,74.744 		"/>
		<linearGradient id="SVGID_9_" gradientUnits="userSpaceOnUse" x1="39.2188" y1="109.6831" x2="66.3514" y2="72.0736">
			<stop  offset="0" style="stop-color:#FFFFFF"/>
			<stop  offset="0.3655" style="stop-color:#F92169"/>
			<stop  offset="1" style="stop-color:#840033"/>
		</linearGradient>
		<polygon fill="url(#SVGID_9_)" points="50.167,85.975 57.416,93.353 49.167,104.514 41.504,97.618 		"/>
		<linearGradient id="SVGID_10_" gradientUnits="userSpaceOnUse" x1="106.9873" y1="101.085" x2="-11.2085" y2="101.085">
			<stop  offset="0" style="stop-color:#FFFFFF"/>
			<stop  offset="0.3655" style="stop-color:#F92169"/>
			<stop  offset="1" style="stop-color:#840033"/>
		</linearGradient>
		<polygon fill="url(#SVGID_10_)" points="41.504,97.618 49.167,104.514 33.826,104.552 25.605,97.78 		"/>
		<linearGradient id="SVGID_11_" gradientUnits="userSpaceOnUse" x1="106.9893" y1="100.8877" x2="-11.2118" y2="100.8877">
			<stop  offset="0" style="stop-color:#FFFFFF"/>
			<stop  offset="0.3655" style="stop-color:#F92169"/>
			<stop  offset="1" style="stop-color:#840033"/>
		</linearGradient>
		<polygon fill="url(#SVGID_11_)" points="72.911,97.295 79.401,104.439 62.705,104.48 55.555,97.474 		"/>
		<linearGradient id="SVGID_12_" gradientUnits="userSpaceOnUse" x1="60.4609" y1="89.5918" x2="79.4014" y2="89.5918">
			<stop  offset="0.3655" style="stop-color:#F92169"/>
			<stop  offset="1" style="stop-color:#840033"/>
		</linearGradient>
		<polygon fill="url(#SVGID_12_)" points="60.461,74.744 67.244,82.597 79.401,104.439 72.911,97.295 		"/>
		<linearGradient id="SVGID_13_" gradientUnits="userSpaceOnUse" x1="52.3457" y1="45.3281" x2="50.7341" y2="104.9624">
			<stop  offset="0" style="stop-color:#FFFFFF"/>
			<stop  offset="0.3655" style="stop-color:#F92169"/>
			<stop  offset="1" style="stop-color:#840033"/>
		</linearGradient>
		<polygon fill="url(#SVGID_13_)" points="60.461,74.744 72.911,97.295 55.555,97.474 50.167,85.975 41.504,97.618 25.605,97.78 
			43.402,75.468 33.233,55.796 48.848,54.892 53.504,64.435 61.141,54.18 77.454,53.234 		"/>
	</g>
</g>
</svg>
