<?xml version="1.0" encoding="utf-8"?>
<!-- Generator: Adobe Illustrator 15.0.0, SVG Export Plug-In . SVG Version: 6.00 Build 0)  -->
<!DOCTYPE svg PUBLIC "-//W3C//DTD SVG 1.1//EN" "http://www.w3.org/Graphics/SVG/1.1/DTD/svg11.dtd">
<svg version="1.1" id="图层_1" xmlns="http://www.w3.org/2000/svg" xmlns:xlink="http://www.w3.org/1999/xlink" x="0px" y="0px"
	 width="110.667px" height="110.5px" viewBox="0 0 110.667 110.5" enable-background="new 0 0 110.667 110.5" xml:space="preserve">
<g>
	<g>
		<linearGradient id="SVGID_1_" gradientUnits="userSpaceOnUse" x1="47.9814" y1="92.3218" x2="47.9814" y2="33.6726">
			<stop  offset="0.0051" style="stop-color:#4C005E"/>
			<stop  offset="0.6802" style="stop-color:#E033AD"/>
			<stop  offset="1" style="stop-color:#4C005E"/>
		</linearGradient>
		<path fill="url(#SVGID_1_)" d="M52.271,55.517c1.141-2.506,1.84-5.248,2.053-7.99c0.217-2.816-0.289-5.634-1.424-8.217
			c-0.484-1.104-1.067-2.229-1.688-3.265c-0.464-0.773-1.142-1.571-2.023-1.865c-1.69-0.562-3.35,0.201-4.569,1.388
			c-0.602,0.584-0.999,1.575-0.908,2.438c-1.095,0.619-1.975,1.888-1.464,2.686c-0.009,0.006-0.019,0.009-0.027,0.015
			c-1.382,0.783-0.108,3.086,0.246,4.08c0.051,0.145,0.618-0.029,0.575-0.153c-0.23-0.646-0.507-1.271-0.702-1.928
			c-0.14-0.471-0.166-0.934-0.068-1.417c0.033-0.165,0.102-0.283,0.188-0.359c0.189,0.159,0.459,0.287,0.825,0.368
			c0.083,0.02,0.57-0.039,0.523-0.19c-0.167-0.536-0.549-0.688-0.969-0.626c-0.392-0.682,0.1-1.719,0.91-2.229
			c0.119,0.533,0.451,0.992,1.069,1.234c0.505,0.197,1.339-0.006,1.662-0.45c0.628-0.862-0.836-1.351-1.454-1.39
			c-0.243-0.016-0.498,0.026-0.754,0.109c-0.039-0.574,0.126-1.185,0.388-1.63c0.837-1.416,2.698-2.297,4.247-1.633
			c1.092,0.467,1.739,1.65,2.25,2.651c1.299,2.548,2.331,4.985,2.583,7.867c0.256,2.941-0.325,5.899-1.278,8.669
			c-0.88,2.561-2.462,4.737-3.465,7.231c-0.791,1.968-0.624,3.753,0.562,5.505c0.239,0.352,0.554,0.698,0.913,0.948
			c-1.206,2.763-0.993,8.347-0.846,9.78c0.286,2.816,1.246,5.681,2.31,8.292c0.47,1.151,1.068,2.229,1.298,3.466
			c0.235,1.273-0.405,2.286-1.374,3.047c-1.211,0.952-2.703,0.658-3.593-0.521c-0.391-0.519-0.374-1.178-0.142-1.754
			c0.237-0.589,0.779-1.126,1.365-1.365c0.817-0.333,0.979,0.704,0.949,1.245c-0.006,0.095,0.563,0.023,0.574-0.153
			c0.062-1.074-0.51-1.57-1.538-1.297c-0.964,0.258-1.801,1.107-2.05,2.066c-0.332,1.275,1.061,2.576,2.268,2.645
			c1.545,0.087,2.987-0.852,3.798-2.124c1.247-1.955-0.781-4.783-1.434-6.63c-1.021-2.895-1.929-5.823-1.964-8.919
			c-0.03-2.436,0.023-5.021,0.762-7.358c0.019-0.058,0.04-0.116,0.059-0.175c0.424,0.171,0.889,0.179,1.356-0.091
			c0.538-0.312,0.81-0.831,1.038-1.393c0.009-0.021,0.005-0.038-0.013-0.051c-1.211-0.615-2.046-0.152-2.617,0.872
			c-0.424-0.409-0.752-0.977-0.992-1.424c-0.492-0.914-0.736-1.896-0.607-2.929C49.401,60.009,51.22,57.828,52.271,55.517z
			 M45.787,38.293c0.754,0.542-0.158,1.242-0.825,0.783c-0.379-0.26-0.581-0.647-0.657-1.071
			C44.771,37.88,45.291,37.936,45.787,38.293z M51.656,66.3c0.287-0.297,0.63-0.24,0.974-0.092c0.185,0.081-0.181,0.638-0.223,0.711
			c-0.219,0.382-0.514,0.635-0.968,0.5c-0.135-0.04-0.263-0.102-0.384-0.177C51.205,66.897,51.395,66.569,51.656,66.3z"/>
		<g>
			<linearGradient id="SVGID_2_" gradientUnits="userSpaceOnUse" x1="48.2168" y1="35.7437" x2="48.2168" y2="35.0168">
				<stop  offset="0.0051" style="stop-color:#E033AD"/>
				<stop  offset="1" style="stop-color:#4C005E"/>
			</linearGradient>
			<path fill="url(#SVGID_2_)" d="M47.998,34.769c0,0-0.508,0.461-0.508,0.945c0,0,0.679,0.411,1.453-0.17
				C48.943,35.544,48.847,35.011,47.998,34.769z"/>
			<g>
				<linearGradient id="SVGID_3_" gradientUnits="userSpaceOnUse" x1="48.1509" y1="34.3408" x2="48.1509" y2="12.5452">
					<stop  offset="0.0051" style="stop-color:#E033AD"/>
					<stop  offset="1" style="stop-color:#4C005E"/>
				</linearGradient>
				<path fill="url(#SVGID_3_)" d="M57.069,13.876c-1.604-3.309-4.995-5.591-8.918-5.591c-3.924,0-7.314,2.282-8.919,5.591l0,0
					c0,0-6.834,11.657,8.919,20.465C63.902,25.533,57.069,13.876,57.069,13.876z"/>
			</g>
			<linearGradient id="SVGID_4_" gradientUnits="userSpaceOnUse" x1="48.1504" y1="34.9014" x2="48.1504" y2="34.3235">
				<stop  offset="0.0051" style="stop-color:#E033AD"/>
				<stop  offset="1" style="stop-color:#4C005E"/>
			</linearGradient>
			<ellipse fill="url(#SVGID_4_)" cx="48.15" cy="34.473" rx="0.483" ry="0.445"/>
			<linearGradient id="SVGID_5_" gradientUnits="userSpaceOnUse" x1="50.0146" y1="26.5918" x2="50.0146" y2="6.5809">
				<stop  offset="0.0051" style="stop-color:#E033AD"/>
				<stop  offset="1" style="stop-color:#4C005E"/>
			</linearGradient>
			<path fill="url(#SVGID_5_)" d="M41.582,18.675c0,5.67,3.891,10.267,8.688,10.267c3.338,0,6.234-2.226,7.689-5.489
				c1.515-5.323-0.985-9.592-0.985-9.592c-1.362-2.808-4.01-4.875-7.177-5.437C45.219,8.714,41.582,13.192,41.582,18.675z"/>
			<linearGradient id="SVGID_6_" gradientUnits="userSpaceOnUse" x1="48.2852" y1="10.3447" x2="48.2852" y2="28.9692">
				<stop  offset="0" style="stop-color:#FFFFFF"/>
				<stop  offset="0.5076" style="stop-color:#E033AD"/>
				<stop  offset="1" style="stop-color:#4C005E"/>
			</linearGradient>
			<ellipse fill="url(#SVGID_6_)" cx="48.285" cy="15.679" rx="6.008" ry="6.207"/>
		</g>
	</g>
	<g>
		<linearGradient id="SVGID_7_" gradientUnits="userSpaceOnUse" x1="-32.0425" y1="55.4209" x2="115.0285" y2="55.4209">
			<stop  offset="0.0051" style="stop-color:#FFFFFF"/>
			<stop  offset="0.4416" style="stop-color:#E033AD"/>
			<stop  offset="1" style="stop-color:#4C005E"/>
		</linearGradient>
		<polygon fill="url(#SVGID_7_)" points="67.444,57.919 55.286,54.47 68.25,52.923 80.604,56.217 		"/>
		<linearGradient id="SVGID_8_" gradientUnits="userSpaceOnUse" x1="78.4414" y1="90.0317" x2="49.83" y2="53.3609">
			<stop  offset="0.4416" style="stop-color:#E033AD"/>
			<stop  offset="1" style="stop-color:#4C005E"/>
		</linearGradient>
		<polygon fill="url(#SVGID_8_)" points="60.537,73.93 48.628,69.839 55.286,54.47 67.444,57.919 		"/>
		<linearGradient id="SVGID_9_" gradientUnits="userSpaceOnUse" x1="47.7842" y1="154.1836" x2="47.7842" y2="82.8679">
			<stop  offset="0.0051" style="stop-color:#FFFFFF"/>
			<stop  offset="0.4416" style="stop-color:#E033AD"/>
			<stop  offset="1" style="stop-color:#4C005E"/>
		</linearGradient>
		<polygon fill="url(#SVGID_9_)" points="53.311,105.327 41.794,100.039 42.109,84.746 53.774,89.462 		"/>
		<linearGradient id="SVGID_10_" gradientUnits="userSpaceOnUse" x1="-32.0439" y1="58.7451" x2="115.0314" y2="58.7451">
			<stop  offset="0.0051" style="stop-color:#FFFFFF"/>
			<stop  offset="0.4416" style="stop-color:#E033AD"/>
			<stop  offset="1" style="stop-color:#4C005E"/>
		</linearGradient>
		<polygon fill="url(#SVGID_10_)" points="39.713,61.505 28.055,57.722 42.596,55.985 54.537,59.587 		"/>
		<linearGradient id="SVGID_11_" gradientUnits="userSpaceOnUse" x1="64.5088" y1="133.8896" x2="35.4981" y2="59.7507">
			<stop  offset="0.4416" style="stop-color:#E033AD"/>
			<stop  offset="1" style="stop-color:#4C005E"/>
		</linearGradient>
		<polygon fill="url(#SVGID_11_)" points="53.774,89.462 42.109,84.746 28.055,57.722 39.713,61.505 		"/>
		<linearGradient id="SVGID_12_" gradientUnits="userSpaceOnUse" x1="60.1582" y1="45.3945" x2="60.1582" y2="112.2807">
			<stop  offset="0.0051" style="stop-color:#FFFFFF"/>
			<stop  offset="0.4416" style="stop-color:#E033AD"/>
			<stop  offset="1" style="stop-color:#4C005E"/>
		</linearGradient>
		<polygon fill="url(#SVGID_12_)" points="67.444,57.919 80.604,56.217 66.082,86.956 65.485,102.657 53.311,105.327 53.774,89.462 
			39.713,61.505 54.537,59.587 60.537,73.93 		"/>
	</g>
</g>
</svg>
