<?xml version="1.0" encoding="utf-8"?>
<!-- Generator: Adobe Illustrator 15.0.0, SVG Export Plug-In . SVG Version: 6.00 Build 0)  -->
<!DOCTYPE svg PUBLIC "-//W3C//DTD SVG 1.1//EN" "http://www.w3.org/Graphics/SVG/1.1/DTD/svg11.dtd">
<svg version="1.1" id="图层_1" xmlns="http://www.w3.org/2000/svg" xmlns:xlink="http://www.w3.org/1999/xlink" x="0px" y="0px"
	 width="110.667px" height="110.5px" viewBox="0 0 110.667 110.5" enable-background="new 0 0 110.667 110.5" xml:space="preserve">
<g>
	<g>
		<linearGradient id="SVGID_1_" gradientUnits="userSpaceOnUse" x1="51.7104" y1="92.7935" x2="51.7104" y2="31.5533">
			<stop  offset="0" style="stop-color:#1A87A0"/>
			<stop  offset="0.6091" style="stop-color:#69C8E2"/>
			<stop  offset="0.7767" style="stop-color:#D1EEF6"/>
			<stop  offset="0.8782" style="stop-color:#69C8E2"/>
			<stop  offset="1" style="stop-color:#1A87A0"/>
		</linearGradient>
		<path fill="url(#SVGID_1_)" d="M58.313,65.899c-1.167,0.088-2.321,0.967-2.727,2.047c-0.012,0.031-0.022,0.062-0.032,0.094
			c-1.896-0.7-2.711-2.74-2.484-4.649c0.262-2.216,1.756-4.24,2.966-6.036c1.158-1.722,2.27-3.374,2.832-5.393
			c0.601-2.155,0.819-4.43,0.741-6.661c-0.136-3.92-1.85-9.146-6.529-9.3c-1.322-0.043-2.854,0.496-3.722,1.521
			c-0.254,0.301-0.447,0.615-0.584,0.938c-2.476-0.313-5.367,0.236-4.932,3.2c0.017,0.11,0.634-0.018,0.612-0.165
			c-0.4-2.721,1.923-3.188,4.216-2.755c-0.423,1.312,0.001,2.739,0.829,3.96c0.977,1.441,3.101,1.924,4.187,0.302
			c1.186-1.771-1.399-3.475-2.733-4.006c-0.456-0.182-1.02-0.341-1.629-0.451c0.257-0.727,0.757-1.374,1.517-1.839
			c2.381-1.453,5.171,0.441,6.465,2.428c1.256,1.929,1.624,4.368,1.703,6.623c0.081,2.362-0.254,4.77-0.951,7.025
			c-0.611,1.979-1.951,3.67-3.083,5.37c-1.864,2.798-4.548,8.046-0.128,10.041c0.204,0.093,0.417,0.167,0.636,0.228
			c-0.052,0.529,0.077,1.144,0.362,1.609c-0.065,0.058-0.124,0.114-0.168,0.165c-1.561,1.842-1.6,5.01-1.354,7.269
			c0.381,3.478,2.002,6.693,2.957,10.028c0.384,1.347,0.628,2.741,0.778,4.133c0.12,1.114,0.114,2.494-0.911,3.197
			c-0.554,0.379-2.262,0.445-2.768-0.255c-0.237-0.33-0.01-0.837,0.122-1.158c0.318-0.778,0.799-1.491,0.84-2.354
			c0.004-0.078-0.604-0.009-0.612,0.163c-0.037,0.773-0.442,1.458-0.761,2.146c-0.183,0.393-0.508,1.106-0.112,1.486
			c0.88,0.842,3.073,0.589,3.962-0.164c1.292-1.092,0.903-3.061,0.675-4.525c-0.442-2.825-1.471-5.455-2.391-8.148
			c-0.89-2.608-1.47-5.256-1.167-8.019c0.11-1.017,0.311-2.023,0.728-2.962c0.111-0.25,0.252-0.481,0.416-0.694
			c0.281,0.297,0.653,0.47,1.105,0.405c0.389-0.058,1.998-0.758,1.42-1.382c-0.475-0.516-1.508-0.158-2.237,0.288
			c-0.175-0.364-0.262-0.738-0.262-1.107c0.88,0.105,1.787-0.068,2.506-0.601C59.509,67.276,59.682,65.794,58.313,65.899z
			 M52.161,40.203c0.741,0.604,1.302,1.571,1.081,2.54c-0.194,0.857-1.144,1.203-1.936,0.896c-0.702-0.273-1.151-1.006-1.527-1.616
			c-0.616-1.001-0.808-2.14-0.554-3.158C50.4,39.162,51.507,39.669,52.161,40.203z M58.027,69.905
			c-0.296,0.925-1.123,0.551-1.526-0.022c0.024-0.024,0.047-0.049,0.073-0.07C56.717,69.688,58.315,69.004,58.027,69.905z
			 M58.317,67.731c-0.489,0.708-1.415,0.677-2.189,0.487c0.063-0.462,0.267-0.903,0.603-1.287c0.389-0.443,1.764-1.365,1.989-0.354
			C58.806,66.968,58.525,67.43,58.317,67.731z"/>
		<g>
			<linearGradient id="SVGID_2_" gradientUnits="userSpaceOnUse" x1="53.2393" y1="37.9531" x2="53.2393" y2="37.1782">
				<stop  offset="0" style="stop-color:#69C8E2"/>
				<stop  offset="1" style="stop-color:#1A87A0"/>
			</linearGradient>
			<path fill="url(#SVGID_2_)" d="M53.007,36.913c0,0-0.542,0.49-0.542,1.008c0,0,0.724,0.438,1.549-0.182
				C54.014,37.739,53.91,37.171,53.007,36.913z"/>
			<g>
				<linearGradient id="SVGID_3_" gradientUnits="userSpaceOnUse" x1="53.1689" y1="38.6025" x2="53.1689" y2="21.9901">
					<stop  offset="0" style="stop-color:#69C8E2"/>
					<stop  offset="0.2132" style="stop-color:#58BAD4"/>
					<stop  offset="1" style="stop-color:#1A87A0"/>
				</linearGradient>
				<path fill="url(#SVGID_3_)" d="M62.675,14.646c-1.711-3.526-5.324-5.959-9.506-5.959s-7.796,2.433-9.506,5.959l0,0
					c0,0-7.282,12.425,9.506,21.811C69.957,27.07,62.675,14.646,62.675,14.646z"/>
			</g>
			<linearGradient id="SVGID_4_" gradientUnits="userSpaceOnUse" x1="53.1689" y1="37.0547" x2="53.1689" y2="36.4388">
				<stop  offset="0" style="stop-color:#69C8E2"/>
				<stop  offset="1" style="stop-color:#1A87A0"/>
			</linearGradient>
			<ellipse fill="url(#SVGID_4_)" cx="53.169" cy="36.597" rx="0.517" ry="0.476"/>
			<linearGradient id="SVGID_5_" gradientUnits="userSpaceOnUse" x1="55.1567" y1="29.874" x2="55.1567" y2="11.4319">
				<stop  offset="0" style="stop-color:#69C8E2"/>
				<stop  offset="1" style="stop-color:#1A87A0"/>
			</linearGradient>
			<path fill="url(#SVGID_5_)" d="M46.17,19.76c0,6.044,4.145,10.942,9.259,10.942c3.558,0,6.646-2.372,8.195-5.851
				c1.614-5.673-1.052-10.223-1.052-10.223c-1.45-2.992-4.271-5.195-7.647-5.795C50.045,9.144,46.17,13.916,46.17,19.76z"/>
			<linearGradient id="SVGID_6_" gradientUnits="userSpaceOnUse" x1="53.3125" y1="10.999" x2="53.3125" y2="25.4095">
				<stop  offset="0" style="stop-color:#EDF8FC"/>
				<stop  offset="0.4564" style="stop-color:#69C8E2"/>
				<stop  offset="1" style="stop-color:#47ACC6"/>
			</linearGradient>
			<ellipse fill="url(#SVGID_6_)" cx="53.313" cy="16.566" rx="6.403" ry="6.616"/>
		</g>
	</g>
	<g>
		<linearGradient id="SVGID_7_" gradientUnits="userSpaceOnUse" x1="10.2822" y1="75.418" x2="67.0949" y2="70.5829">
			<stop  offset="0" style="stop-color:#69C8E2"/>
			<stop  offset="1" style="stop-color:#1A87A0"/>
		</linearGradient>
		<polygon fill="url(#SVGID_7_)" points="52.519,67.849 59.509,75.929 41.879,76.563 34.255,68.677 		"/>
		<linearGradient id="SVGID_8_" gradientUnits="userSpaceOnUse" x1="59.4194" y1="57.0493" x2="111.8061" y2="78.407">
			<stop  offset="0" style="stop-color:#69C8E2"/>
			<stop  offset="1" style="stop-color:#1A87A0"/>
		</linearGradient>
		<polygon fill="url(#SVGID_8_)" points="74.944,55.256 81.03,63.96 79.948,73.541 73.744,65.179 		"/>
		<linearGradient id="SVGID_9_" gradientUnits="userSpaceOnUse" x1="41.1636" y1="98.7339" x2="79.8445" y2="69.3202">
			<stop  offset="0" style="stop-color:#69C8E2"/>
			<stop  offset="1" style="stop-color:#1A87A0"/>
		</linearGradient>
		<polygon fill="url(#SVGID_9_)" points="73.744,65.179 79.948,73.541 58.122,94.617 50.908,87.21 		"/>
		<linearGradient id="SVGID_10_" gradientUnits="userSpaceOnUse" x1="-20.6489" y1="99.147" x2="68.3983" y2="103.5791">
			<stop  offset="0" style="stop-color:#69C8E2"/>
			<stop  offset="1" style="stop-color:#1A87A0"/>
		</linearGradient>
		<polygon fill="url(#SVGID_10_)" points="69.629,99.209 76.244,106.328 36.571,106.425 28.451,99.631 		"/>
		<linearGradient id="SVGID_11_" gradientUnits="userSpaceOnUse" x1="74.3042" y1="137.7515" x2="73.4983" y2="89.8026">
			<stop  offset="0" style="stop-color:#69C8E2"/>
			<stop  offset="1" style="stop-color:#1A87A0"/>
		</linearGradient>
		<polygon fill="url(#SVGID_11_)" points="71.139,86.728 77.602,94.315 76.244,106.328 69.629,99.209 		"/>
		<linearGradient id="SVGID_12_" gradientUnits="userSpaceOnUse" x1="54.7617" y1="49.8682" x2="45.4945" y2="133.2746">
			<stop  offset="0.0051" style="stop-color:#CBECF5"/>
			<stop  offset="0.4564" style="stop-color:#69C8E2"/>
			<stop  offset="1" style="stop-color:#1A87A0"/>
		</linearGradient>
		<polygon fill="url(#SVGID_12_)" points="74.944,55.256 73.744,65.179 50.908,87.21 71.139,86.728 69.629,99.209 28.451,99.631 
			30.136,89.421 52.519,67.849 34.255,68.677 36.09,57.508 		"/>
	</g>
</g>
</svg>
